<svg width="33" height="33" viewBox="0 0 33 33" fill="none" xmlns="http://www.w3.org/2000/svg">
<g clip-path="url(#clip0_1912_488)">
<path d="M5.927 0L33 27.0715L27.0719 32.9996L26.2867 32.2149L30.379 28.1204C30.5422 27.9593 30.5422 27.6994 30.379 27.5383C30.2185 27.3784 29.958 27.3762 29.7975 27.5383L25.7035 31.6312L24.4299 30.3591L27.0666 27.7224C27.2277 27.5614 27.2277 27.3014 27.0666 27.1409C26.9045 26.9783 26.6461 26.9783 26.4856 27.1409L23.8489 29.7759L22.7963 28.7234L25.433 26.0883C25.5915 25.9278 25.5915 25.6657 25.433 25.5052C25.2699 25.3448 25.0099 25.3448 24.8477 25.5052L22.2122 28.1402L21.2049 27.1319L23.8399 24.4973C24.002 24.3368 24.002 24.0762 23.8399 23.9157C23.6794 23.7531 23.4189 23.7531 23.2584 23.9157L20.6217 26.5508L19.4833 25.4093L23.5757 21.3165C23.7362 21.1543 23.7362 20.8944 23.5757 20.7334C23.4136 20.5734 23.1552 20.5734 22.9927 20.7334L18.9003 24.8278L18.1113 24.0395L20.8802 21.2723C21.0407 21.1113 21.0407 20.8513 20.8785 20.6892C20.7196 20.5282 20.4597 20.5282 20.297 20.6892L17.5293 23.4575L16.4762 22.4049L19.2434 19.6355C19.406 19.4756 19.406 19.215 19.2434 19.0546C19.0829 18.8915 18.8229 18.8915 18.6618 19.0546L15.8936 21.8211L14.8857 20.8133L17.6544 18.0467C17.8144 17.8841 17.8144 17.6236 17.6544 17.4631C17.4913 17.3026 17.2316 17.3026 17.0711 17.4631L14.3026 20.2302L13.1501 19.0777L17.244 14.9835C17.405 14.8229 17.4034 14.5627 17.2423 14.4019C17.0813 14.2414 16.821 14.2414 16.6603 14.4003L12.5664 18.4951L11.2943 17.2231L13.9291 14.5864C14.0901 14.4256 14.0901 14.1653 13.9276 14.0049C13.7692 13.8425 13.5084 13.8443 13.3466 14.0049L10.7107 16.6394L9.65747 15.5872L12.2936 12.9524C12.4534 12.7919 12.4534 12.5292 12.2936 12.3703C12.1326 12.2082 11.8719 12.2082 11.7111 12.3687L9.07648 15.0057L8.06761 13.9957L10.7019 11.3609C10.864 11.2004 10.8624 10.9401 10.7019 10.7773C10.5421 10.6167 10.2814 10.6167 10.1203 10.7773L7.48557 13.4142L6.34454 12.2745L10.4387 8.18032C10.5982 8.01976 10.5982 7.75718 10.4382 7.5967C10.2767 7.43614 10.0165 7.43614 9.85458 7.5967L5.76223 11.6909L4.97545 10.9023L7.7421 8.13563C7.90267 7.97515 7.90267 7.71485 7.7421 7.55411C7.58049 7.39197 7.32001 7.39197 7.1584 7.55411L4.39043 10.321L3.34072 9.2679L6.10737 6.50098C6.26916 6.33884 6.26916 6.07863 6.10737 5.91727C5.94681 5.75671 5.68659 5.75671 5.5248 5.91727L2.75859 8.68419L1.74867 7.67628L4.51672 4.90753C4.67825 4.74881 4.67825 4.48807 4.51672 4.32592C4.35537 4.16519 4.09463 4.16519 3.93416 4.32592L1.16514 7.09486L0 5.92805L5.927 0Z" fill="white"/>
</g>
<defs>
<clipPath id="clip0_1912_488">
<rect width="33" height="33" fill="white"/>
</clipPath>
</defs>
</svg>
