<svg width="98" height="32" viewBox="0 0 98 32" fill="none" xmlns="http://www.w3.org/2000/svg">
<g clip-path="url(#clip0_1909_88)">
<path d="M69.6431 31.2496L81.9727 2.01712C83.7884 -0.425376 88.671 0.819624 91.3872 0.487124L97.7497 31.2521H90.5365L89.7779 26.7646L79.3138 26.8996L77.8487 31.2521H69.6406L69.6431 31.2496ZM88.5467 20.4996L86.0569 8.99962L81.8309 20.4996H88.5467Z" fill="white"/>
<path d="M13.8058 0.5C15.0968 0.6825 16.6687 1.665 17.0369 3.0025C18.3004 8.93 19.2232 14.9275 20.4047 20.8725C20.4743 21.2175 20.1634 21.605 20.7678 21.5025L29.2272 0.5H37.0622L24.5087 31.0075L16.0643 31.265L9.30381 5.525C8.03528 3.0575 2.75721 2.2825 0.284822 1.465L0.25 0.5H13.8058Z" fill="white"/>
<path d="M47.5312 30.2264L48.755 23.5014C51.608 25.1889 57.5775 26.5939 60.4255 24.6089C65.1116 21.3414 56.1946 18.0164 54.1425 16.4589C47.9267 11.7439 50.7026 4.03642 57.2143 1.37892C61.4478 -0.348576 67.0492 -0.173576 71.2826 1.48642L69.7628 7.74892C67.3302 6.56392 61.6716 5.56642 59.6121 7.53892C56.406 10.6114 64.2883 13.2864 66.1463 14.6464C72.2352 19.1039 70.4767 27.2064 64.0967 30.2939C59.2365 32.6464 52.4934 32.0589 47.5337 30.2264H47.5312Z" fill="white"/>
<path d="M48.2558 0.5L42.0375 31.25H34.0781L40.5451 0.5H48.2558Z" fill="white"/>
</g>
<defs>
<clipPath id="clip0_1909_88">
<rect width="98" height="32" fill="white"/>
</clipPath>
</defs>
</svg>
