<svg width="219" height="69" viewBox="0 0 219 69" fill="none" xmlns="http://www.w3.org/2000/svg">
<path d="M145.797 11.2632L153.846 23.067C155.627 23.067 160.405 12.5556 162.523 11.3651L187.3 11.3275L196.744 37.0106L206.129 11.2632H219L196.476 68.1101H184.141L190.025 51.7854L175.019 13.9446L162.33 31.9051C165.704 36.9945 169.034 42.3145 176.097 41.2955V52.5577C169.79 53.2388 163.703 51.8122 159.263 47.1357C158.056 45.8701 155.015 40.2122 153.846 40.2122L145.797 52.5523H132.121L145.888 31.9051L132.121 11.2578H145.797V11.2632Z" fill="white"/>
<path d="M59.1866 0V15.5525C66.2925 7.70652 81.7109 8.67184 86.0119 19.0276C86.5375 20.2933 87.6101 24.3101 87.6101 25.4739V52.5566H75.8117V29.7642C75.8117 29.5819 75.0287 26.8414 74.8571 26.4285C72.6154 20.9047 64.7962 20.3791 61.0422 24.6533C60.6775 25.0717 59.1812 27.3938 59.1812 27.619V52.5566H47.3828V0H59.1812H59.1866Z" fill="white"/>
<path d="M103.697 35.931C105.649 45.0802 116.504 45.2303 122.634 39.7709L132.115 44.2382C119.196 61.8232 89.2869 53.516 90.81 30.2785C92.2526 8.19937 123.497 3.13141 132.946 21.966C134.781 25.6235 136.481 32.2253 134.534 35.931H103.697ZM122.467 27.8867C119.797 18.11 106.196 18.0028 103.697 27.8867H122.467Z" fill="white"/>
<path d="M30.7617 36.4679H43.6327C40.962 49.7679 27.7102 56.5466 14.9196 52.5781C-1.64106 47.4404 -5.37901 24.8142 8.60212 14.5711C18.4002 7.39011 34.4943 9.45483 40.8494 20.2182C41.5358 21.382 43.681 26.1013 43.622 27.0881C43.5416 28.3752 42.3671 27.3509 42.2974 27.3509H31.0352C30.6705 27.3509 28.3591 23.2375 25.7956 22.4009C15.9011 19.1671 8.23208 29.657 13.9114 38.0392C17.8746 43.8848 28.6058 43.7668 30.7671 36.4679H30.7617Z" fill="white"/>
</svg>
