<svg width="446" height="142" viewBox="0 0 446 142" fill="none" xmlns="http://www.w3.org/2000/svg">
<path d="M147.787 83.2859L140.004 96.1636H126.091L139.754 75.382L126.92 53.8359H140.913L147.787 66.2572L154.577 53.8359H168.57L155.815 75.382L169.479 96.1636H155.486L147.782 83.2859H147.787Z" fill="white"/>
<path d="M176.279 83.8753V65.2011H156.193V53.8309H176.279V39.7588H188.948V53.8309H197.067V65.2011H188.948V80.494C188.948 82.8084 189.629 83.2437 191.851 83.4772C193.223 83.6205 195.838 83.663 197.072 83.6099V95.357C197.072 95.357 175.822 101.127 176.274 83.8753H176.279Z" fill="white"/>
<path d="M224.276 75.1646C224.276 63.9218 232.516 53.7725 246.095 53.7725C259.673 53.7725 267.914 63.9218 267.914 75.1646C267.914 86.4074 259.795 96.1692 246.052 96.1692C232.309 96.1692 224.271 86.4127 224.271 75.1646H224.276ZM254.835 75.1646C254.835 69.8723 251.688 65.493 246.057 65.493C240.427 65.493 237.445 69.8776 237.445 75.1646C237.445 80.4515 240.507 84.921 246.057 84.921C251.608 84.921 254.835 80.5365 254.835 75.1646Z" fill="white"/>
<path d="M260.875 75.1587C260.875 63.9159 269.041 53.8516 282.625 53.8516C296.208 53.8516 304.518 63.9106 304.518 75.1587C304.518 86.4068 296.4 96.1633 282.657 96.1633C268.914 96.1633 260.875 86.4068 260.875 75.1587ZM291.434 75.1587C291.434 69.8664 288.287 65.4872 282.657 65.4872C277.026 65.4872 274.044 69.8717 274.044 75.1587C274.044 80.4457 277.106 84.9152 282.657 84.9152C288.207 84.9152 291.434 80.5306 291.434 75.1587Z" fill="white"/>
<path d="M264.527 95.7179L272.422 84.6184C272.502 84.5069 272.422 84.3477 272.284 84.3477H256.489C256.35 84.3477 256.265 84.5069 256.35 84.6184L264.245 95.7179C264.315 95.8134 264.458 95.8134 264.527 95.7179Z" fill="white"/>
<path d="M76.8766 64.994C76.8766 64.994 76.866 64.9728 76.8607 64.9622C76.4034 63.7678 75.7708 62.6849 74.9574 61.7507C71.3475 56.7291 65.7545 53.7725 58.9707 53.7725C52.1868 53.7725 46.0144 56.8671 42.2397 61.5224C40.1822 63.7519 39.1934 66.8413 39.1934 70.4243V96.1585H51.9476V73.9543C51.9476 69.076 54.5155 67.3402 58.4922 67.3402C62.4689 67.3402 65.0368 69.076 65.0368 73.9543V96.1585H77.791V70.4243C77.791 68.439 77.488 66.6077 76.8713 64.9887L76.8766 64.994Z" fill="white"/>
<path d="M222.655 67.1962C218.678 67.1962 214.765 68.932 214.765 73.8102V96.1578H202.011V70.2803C202.011 66.6972 202.994 63.6079 205.057 61.3784C208.832 56.7284 215.701 53.793 222.74 53.793L222.66 67.2015L222.655 67.1962Z" fill="white"/>
<path d="M371.479 65.6415C371.479 65.6415 371.468 65.6203 371.463 65.6096C371.006 64.4153 370.373 63.3324 369.559 62.3982C365.95 57.3766 360.357 54.4199 353.573 54.4199C348.416 54.4199 343.865 56.0867 340.313 58.8045C336.938 56.0018 332.621 54.4199 327.671 54.4199C320.632 54.4199 314.715 57.5146 310.94 62.1699C308.882 64.3994 307.894 67.4887 307.894 71.0718V96.1531H320.648V74.6017C320.648 69.7235 323.216 67.9877 327.192 67.9877C331.169 67.9877 333.737 69.7235 333.737 74.6017V96.1531L333.806 95.9992H346.491L346.56 96.1531V74.6017C346.56 69.7235 349.128 67.9877 353.105 67.9877C357.082 67.9877 359.65 69.7235 359.65 74.6017V96.1531H372.404V71.0718C372.404 69.0865 372.101 67.2552 371.484 65.6362L371.479 65.6415Z" fill="white"/>
<path d="M232.708 50.9804C241.873 44.1646 266.792 30.1138 296.059 51.0335C296.745 51.5271 296.197 52.5941 295.394 52.3234C285.197 48.8624 259.71 42.3386 233.404 52.2544C232.612 52.5516 232.027 51.4847 232.708 50.9804Z" fill="white"/>
<path d="M197.061 53.9053H154.582L161.674 65.2065L197.061 65.2808V53.9053Z" fill="white"/>
<path d="M102.401 96.1634C79.2685 95.3831 81.209 74.6333 81.209 74.6333C81.9958 63.1941 90.0716 53.7773 102.937 53.7773C114.644 53.7773 123.592 62.3342 123.592 76.1833V79.1984H95.2179C95.2179 79.1984 95.7017 84.4482 103.708 84.4482C111.715 84.4482 122.13 84.5172 122.13 84.5172V96.1687H121.768H102.395M95.0531 69.9037H109.487C109.073 68.1945 107.674 65.1794 102.89 65.1794C98.3547 65.1794 95.5422 68.1148 95.0478 69.9037H95.0531Z" fill="white"/>
<path d="M380.262 88.541C382.346 88.541 384.106 90.298 384.106 92.3789C384.106 94.4597 382.346 96.2167 380.262 96.2167C378.178 96.2167 376.418 94.4597 376.418 92.3789C376.418 90.298 378.178 88.541 380.262 88.541Z" fill="white"/>
<path d="M395.716 78.0254C399.672 78.0254 402.117 79.8196 403.085 81.2899L398.917 85.2021C398.38 84.374 397.37 83.7317 396.003 83.7317C394.169 83.7317 392.59 84.8783 392.59 87.1077C392.59 89.3372 394.175 90.5156 396.003 90.5156C397.37 90.5156 398.375 89.799 398.917 89.0081L403.085 92.9574C402.112 94.3906 399.672 96.2219 395.716 96.2219C390.219 96.2219 385.977 92.6336 385.977 87.1077C385.977 81.5819 390.219 78.0254 395.716 78.0254Z" fill="white"/>
<path d="M415.234 94.1416C414.261 95.3624 412.145 96.2224 409.987 96.2224C407.397 96.2224 404.021 94.4654 404.021 90.516C404.021 86.2111 407.403 85.1707 409.987 85.1707C412.251 85.1707 414.298 85.8873 415.234 87.071V85.0964C415.234 83.8755 414.117 82.9412 411.996 82.9412C410.38 82.9412 408.546 83.5888 407.179 84.6292L404.989 80.6428C407.323 78.7743 410.561 78.0205 413.187 78.0205C417.499 78.0205 421.704 79.528 421.704 85.3087V95.7871H415.234V94.1362V94.1416ZM415.234 90.1179C414.803 89.5075 413.687 89.1837 412.682 89.1837C411.603 89.1837 410.417 89.5446 410.417 90.6169C410.417 91.6892 411.603 92.0183 412.682 92.0183C413.687 92.0183 414.803 91.6945 415.234 91.084V90.1126V90.1179Z" fill="white"/>
</svg>
