<svg width="948" height="411" viewBox="0 0 948 411" fill="none" xmlns="http://www.w3.org/2000/svg">
<path d="M398.032 193.49C372.431 190.315 362.552 187.005 339.396 175.112C317.188 163.705 298.898 145.303 273.841 139.867C248.036 134.272 221.441 140.166 195.916 144.495C171.152 148.696 144.925 152.006 120.746 143.171C98.6426 135.092 80.8033 118.846 64.3737 102.513C62.116 100.269 59.87 98.0016 57.6299 95.7402" stroke="#C22026" stroke-miterlimit="10"/>
<path d="M138.935 114.125C124.336 108.185 111.527 98.6587 99.8467 88.2012" stroke="#C22026" stroke-miterlimit="10"/>
<path d="M163.858 120.182C163.378 120.129 162.904 120.076 162.425 120.012" stroke="#C22026" stroke-miterlimit="10"/>
<path d="M259.149 110.422C234.957 112.484 211.363 119.016 187.113 120.61C180.194 121.061 173.234 121.12 166.314 120.522" stroke="#C22026" stroke-miterlimit="10"/>
<path d="M279.456 109.73C277.327 109.572 278.175 109.73 276.04 109.73" stroke="#C22026" stroke-miterlimit="10"/>
<path d="M417.438 164.566C385.269 158.708 349.14 141.548 324.019 123.404" stroke="#C22026" stroke-miterlimit="10"/>
<path d="M271.285 82.1316C254.978 84.9437 238.736 88.4764 222.213 89.7946C206.596 91.0424 190.81 89.9117 175.843 85.0491C167.467 82.3249 159.471 78.47 152.178 73.5254" stroke="#C22026" stroke-miterlimit="10"/>
<path d="M342.612 86.431C338.676 84.7379 334.622 83.2967 330.487 82.1777" stroke="#C22026" stroke-miterlimit="10"/>
<path d="M494.626 138.76C485.004 137.869 478.611 138.607 469.078 137.02C459.474 135.414 449.805 134.805 440.219 133.036C421.35 129.556 403.213 123.615 386.596 113.896C377.653 108.67 369.283 102.542 360.533 97.0176" stroke="#C22026" stroke-miterlimit="10"/>
<path d="M770.876 336.27H602.48C600.758 336.27 599.362 337.668 599.362 339.392V341.12C599.362 342.845 600.758 344.243 602.48 344.243H770.876C772.598 344.243 773.994 342.845 773.994 341.12V339.392C773.994 337.668 772.598 336.27 770.876 336.27Z" fill="#C22026"/>
<path d="M659.741 326.941H658.162C656.579 326.941 655.296 328.227 655.296 329.812V346.169C655.296 347.755 656.579 349.04 658.162 349.04H659.741C661.324 349.04 662.607 347.755 662.607 346.169V329.812C662.607 328.227 661.324 326.941 659.741 326.941Z" fill="#C22026"/>
<path d="M667.053 326.941H665.473C663.891 326.941 662.607 328.227 662.607 329.812V346.169C662.607 347.755 663.891 349.04 665.473 349.04H667.053C668.635 349.04 669.919 347.755 669.919 346.169V329.812C669.919 328.227 668.635 326.941 667.053 326.941Z" fill="#C22026"/>
<path d="M674.357 326.941H672.778C671.195 326.941 669.912 328.227 669.912 329.812V346.169C669.912 347.755 671.195 349.04 672.778 349.04H674.357C675.94 349.04 677.223 347.755 677.223 346.169V329.812C677.223 328.227 675.94 326.941 674.357 326.941Z" fill="#C22026"/>
<path d="M683.465 326.941H681.885C680.303 326.941 679.02 328.227 679.02 329.812V346.169C679.02 347.755 680.303 349.04 681.885 349.04H683.465C685.048 349.04 686.331 347.755 686.331 346.169V329.812C686.331 328.227 685.048 326.941 683.465 326.941Z" fill="#C22026"/>
<path d="M690.776 326.941H689.197C687.614 326.941 686.331 328.227 686.331 329.812V346.169C686.331 347.755 687.614 349.04 689.197 349.04H690.776C692.359 349.04 693.642 347.755 693.642 346.169V329.812C693.642 328.227 692.359 326.941 690.776 326.941Z" fill="#C22026"/>
<path d="M698.087 326.941H696.508C694.925 326.941 693.642 328.227 693.642 329.812V346.169C693.642 347.755 694.925 349.04 696.508 349.04H698.087C699.67 349.04 700.953 347.755 700.953 346.169V329.812C700.953 328.227 699.67 326.941 698.087 326.941Z" fill="#C22026"/>
<path d="M594.929 199.021C594.929 175.253 612.288 153.799 640.907 153.799C669.526 153.799 686.886 175.253 686.886 199.021C686.886 222.789 669.783 243.417 640.819 243.417C611.856 243.417 594.929 222.795 594.929 199.021ZM659.314 199.021C659.314 187.837 652.681 178.569 640.819 178.569C628.958 178.569 622.67 187.831 622.67 199.021C622.67 210.211 629.127 219.643 640.819 219.643C652.511 219.643 659.314 210.381 659.314 199.021Z" fill="#C22026"/>
<path d="M672.035 199.009C672.035 175.241 689.249 153.975 717.861 153.975C746.474 153.975 763.992 175.241 763.992 199.009C763.992 222.777 746.89 243.405 717.926 243.405C688.962 243.405 672.035 222.783 672.035 199.009ZM736.426 199.009C736.426 187.825 729.793 178.557 717.932 178.557C706.07 178.557 699.783 187.819 699.783 199.009C699.783 210.199 706.24 219.631 717.932 219.631C729.624 219.631 736.426 210.369 736.426 199.009Z" fill="#C22026"/>
<path d="M679.592 242.661L696.565 218.728C696.653 218.605 696.565 218.43 696.413 218.43H662.466C662.314 218.43 662.22 218.605 662.314 218.728L679.287 242.661C679.363 242.766 679.521 242.766 679.597 242.661H679.592Z" fill="#C22026"/>
<path d="M612.686 147.899C632.005 133.487 684.499 103.79 746.17 148.016C747.621 149.053 746.457 151.321 744.772 150.747C723.289 143.429 669.579 129.644 614.154 150.594C612.481 151.227 611.253 148.971 612.686 147.899Z" fill="#C22026"/>
<path d="M594.929 199.021C594.929 175.253 612.288 153.799 640.907 153.799C669.526 153.799 686.886 175.253 686.886 199.021C686.886 222.789 669.783 243.417 640.819 243.417C611.856 243.417 594.929 222.795 594.929 199.021ZM659.314 199.021C659.314 187.837 652.681 178.569 640.819 178.569C628.958 178.569 622.67 187.831 622.67 199.021C622.67 210.211 629.127 219.643 640.819 219.643C652.511 219.643 659.314 210.381 659.314 199.021Z" fill="#C22026"/>
<path d="M672.035 199.009C672.035 175.241 689.249 153.975 717.861 153.975C746.474 153.975 763.992 175.241 763.992 199.009C763.992 222.777 746.89 243.405 717.926 243.405C688.962 243.405 672.035 222.783 672.035 199.009ZM736.426 199.009C736.426 187.825 729.793 178.557 717.932 178.557C706.07 178.557 699.783 187.819 699.783 199.009C699.783 210.199 706.24 219.631 717.932 219.631C729.624 219.631 736.426 210.369 736.426 199.009Z" fill="#C22026"/>
<path d="M679.592 242.661L696.565 218.728C696.653 218.605 696.565 218.43 696.413 218.43H662.466C662.314 218.43 662.22 218.605 662.314 218.728L679.287 242.661C679.363 242.766 679.521 242.766 679.597 242.661H679.592Z" fill="#C22026"/>
<path d="M612.686 147.899C632.005 133.487 684.499 103.79 746.17 148.016C747.621 149.053 746.457 151.321 744.772 150.747C723.289 143.429 669.579 129.644 614.154 150.594C612.481 151.227 611.253 148.971 612.686 147.899Z" fill="#C22026"/>
<path d="M612.686 147.899C632.005 133.487 684.499 103.79 746.17 148.016C747.621 149.053 746.457 151.321 744.772 150.747C723.289 143.429 669.579 129.644 614.154 150.594C612.481 151.227 611.253 148.971 612.686 147.899Z" fill="#C22026"/>
<path d="M746.194 147.899C726.875 133.487 674.381 103.79 612.71 148.016C611.259 149.053 612.423 151.321 614.108 150.747C635.591 143.429 689.301 129.644 744.726 150.594C746.399 151.227 747.627 148.971 746.194 147.899Z" fill="#C22026"/>
<path d="M717.926 252.504C705.082 252.504 694.53 248.339 686.786 241.607L679.733 251.549C679.586 251.754 679.282 251.754 679.136 251.549L672.123 241.66C664.379 248.368 653.793 252.516 640.82 252.516C627.192 252.516 616.143 247.835 608.3 240.365C606.112 247.395 604.925 254.871 604.925 262.622C604.925 303.843 638.287 337.254 679.434 337.254C720.581 337.254 753.944 303.837 753.944 262.622C753.944 254.889 752.768 247.431 750.592 240.418C742.749 247.847 731.677 252.504 717.926 252.504Z" fill="#C22026"/>
<path d="M747.914 312.6C756.026 306.102 774.123 287.402 762.431 256.809C762.156 256.088 761.085 256.328 761.144 257.096C761.846 266.874 761.729 290.817 746.954 311.697C746.51 312.324 747.317 313.086 747.914 312.605V312.6Z" fill="#C22026"/>
<path d="M610.148 312.6C602.036 306.102 583.939 287.402 595.631 256.809C595.906 256.088 596.976 256.328 596.918 257.096C596.216 266.874 596.333 290.817 611.107 311.697C611.552 312.324 610.745 313.086 610.148 312.605V312.6Z" fill="#C22026"/>
<path d="M718.102 243.147C689.138 243.147 672.036 222.525 672.036 198.751C672.036 174.983 689.051 153.529 718.015 153.529C746.633 153.529 763.993 174.983 763.993 198.751C763.993 222.519 746.715 243.147 718.102 243.147ZM718.102 219.379C729.794 219.379 736.252 210.117 736.252 198.757C736.252 187.573 729.794 178.305 718.102 178.305C706.235 178.305 699.608 187.567 699.608 198.757C699.608 210.117 706.241 219.379 718.102 219.379Z" fill="#C22026"/>
<path d="M640.996 243.136C612.032 243.136 594.93 222.514 594.93 198.74C594.93 174.972 612.096 153.705 641.06 153.705C669.679 153.705 686.887 174.972 686.887 198.74C686.887 222.508 669.609 243.136 640.996 243.136ZM640.996 219.368C652.688 219.368 659.145 210.105 659.145 198.746C659.145 187.562 652.688 178.293 640.996 178.293C629.128 178.293 622.502 187.556 622.502 198.746C622.502 210.105 629.134 219.368 640.996 219.368Z" fill="#C22026"/>
<path d="M679.33 242.391L662.356 218.459C662.268 218.336 662.356 218.16 662.508 218.16H696.455C696.608 218.16 696.701 218.336 696.608 218.459L679.634 242.391C679.558 242.497 679.4 242.497 679.324 242.391H679.33Z" fill="#C22026"/>
<path d="M746.242 147.624C726.923 133.212 674.429 103.515 612.758 147.741C611.307 148.778 612.471 151.045 614.155 150.471C635.639 143.154 689.349 129.369 744.774 150.319C746.447 150.952 747.675 148.696 746.242 147.624Z" fill="#C22026"/>
<path d="M718.102 243.147C689.138 243.147 672.036 222.525 672.036 198.751C672.036 174.983 689.051 153.529 718.015 153.529C746.633 153.529 763.993 174.983 763.993 198.751C763.993 222.519 746.715 243.147 718.102 243.147ZM718.102 219.379C729.794 219.379 736.252 210.117 736.252 198.757C736.252 187.573 729.794 178.305 718.102 178.305C706.235 178.305 699.608 187.567 699.608 198.757C699.608 210.117 706.241 219.379 718.102 219.379Z" fill="#C22026"/>
<path d="M640.996 243.136C612.032 243.136 594.93 222.514 594.93 198.74C594.93 174.972 612.096 153.705 641.06 153.705C669.679 153.705 686.887 174.972 686.887 198.74C686.887 222.508 669.609 243.136 640.996 243.136ZM640.996 219.368C652.688 219.368 659.145 210.105 659.145 198.746C659.145 187.562 652.688 178.293 640.996 178.293C629.128 178.293 622.502 187.556 622.502 198.746C622.502 210.105 629.134 219.368 640.996 219.368Z" fill="#C22026"/>
<path d="M679.33 242.391L662.356 218.459C662.268 218.336 662.356 218.16 662.508 218.16H696.455C696.608 218.16 696.701 218.336 696.608 218.459L679.634 242.391C679.558 242.497 679.4 242.497 679.324 242.391H679.33Z" fill="#C22026"/>
<path d="M746.242 147.624C726.923 133.212 674.429 103.515 612.758 147.741C611.307 148.778 612.471 151.045 614.155 150.471C635.639 143.154 689.349 129.369 744.774 150.319C746.447 150.952 747.675 148.696 746.242 147.624Z" fill="#C22026"/>
<path d="M717.283 200.385C717.283 193.982 721.079 188.686 727.87 188.686C734.561 188.686 738.257 193.988 738.257 200.385C738.257 206.888 734.561 212.19 727.87 212.19C721.079 212.19 717.283 206.888 717.283 200.385Z" fill="#C22026"/>
<path d="M641.634 200.385C641.634 193.982 645.43 188.686 652.22 188.686C658.912 188.686 662.608 193.988 662.608 200.385C662.608 206.783 658.912 212.19 652.22 212.19C645.529 212.19 641.634 206.888 641.634 200.385Z" fill="#C22026"/>
<path d="M746.242 147.624C726.923 133.212 674.429 103.515 612.758 147.741C611.307 148.778 612.471 151.045 614.155 150.471C635.639 143.154 689.349 129.369 744.774 150.319C746.447 150.952 747.675 148.696 746.242 147.624Z" fill="#C22026"/>
<path d="M612.728 147.624C632.047 133.212 684.541 103.515 746.212 147.741C747.663 148.778 746.499 151.045 744.815 150.471C723.331 143.154 669.621 129.369 614.196 150.319C612.523 150.952 611.295 148.696 612.728 147.624Z" fill="#C22026"/>
<g opacity="0.8">
<path d="M417.9 154.987C420.971 141.366 433.692 131.325 450.092 135.033C466.493 138.741 473.67 153.282 470.599 166.909C467.528 180.53 455.064 190.133 438.465 186.383C422.064 182.675 414.829 168.614 417.9 154.993V154.987ZM454.795 163.33C456.24 156.921 453.637 150.751 446.835 149.217C440.138 147.699 435.236 152.175 433.792 158.584C432.323 165.093 434.827 171.239 441.53 172.756C448.233 174.274 453.327 169.844 454.795 163.336V163.33Z" fill="#C22026"/>
<path d="M462.088 164.976C465.159 151.355 477.769 141.402 494.17 145.11C510.769 148.865 517.858 163.272 514.787 176.899C511.717 190.52 499.253 200.122 482.653 196.372C466.253 192.664 459.018 178.603 462.088 164.982V164.976ZM498.989 173.319C500.434 166.91 497.831 160.741 491.029 159.206C484.332 157.688 479.431 162.164 477.986 168.574C476.518 175.082 479.021 181.228 485.724 182.745C492.526 184.28 497.521 179.834 498.989 173.325V173.319Z" fill="#C22026"/>
<path d="M460.866 190.895L473.488 179.553C473.605 179.448 473.552 179.26 473.406 179.225L454.245 174.89C454.093 174.855 453.97 175.007 454.029 175.148L460.562 190.819C460.614 190.942 460.766 190.972 460.86 190.89L460.866 190.895Z" fill="#C22026"/>
<path d="M434.68 127.992C447.612 122.239 481.53 112.022 511.161 145.357C511.857 146.142 510.898 147.284 510.008 146.739C498.644 139.762 469.645 124.899 435.177 129.726C434.136 129.873 433.727 128.42 434.686 127.992H434.68Z" fill="#C22026"/>
<path d="M417.9 154.987C420.971 141.366 433.692 131.325 450.092 135.033C466.493 138.741 473.67 153.282 470.599 166.909C467.528 180.53 455.064 190.133 438.465 186.383C422.064 182.675 414.829 168.614 417.9 154.993V154.987ZM454.795 163.33C456.24 156.921 453.637 150.751 446.835 149.217C440.138 147.699 435.236 152.175 433.792 158.584C432.323 165.093 434.827 171.239 441.53 172.756C448.233 174.274 453.327 169.844 454.795 163.336V163.33Z" fill="#C22026"/>
<path d="M462.088 164.976C465.159 151.355 477.769 141.402 494.17 145.11C510.769 148.865 517.858 163.272 514.787 176.899C511.717 190.52 499.253 200.122 482.653 196.372C466.253 192.664 459.018 178.603 462.088 164.982V164.976ZM498.989 173.319C500.434 166.91 497.831 160.741 491.029 159.206C484.332 157.688 479.431 162.164 477.986 168.574C476.518 175.082 479.021 181.228 485.724 182.745C492.526 184.28 497.521 179.834 498.989 173.325V173.319Z" fill="#C22026"/>
<path d="M460.866 190.895L473.488 179.553C473.605 179.448 473.552 179.26 473.406 179.225L454.245 174.89C454.093 174.855 453.97 175.007 454.029 175.148L460.562 190.819C460.614 190.942 460.766 190.972 460.86 190.89L460.866 190.895Z" fill="#C22026"/>
<path d="M434.68 127.992C447.612 122.239 481.53 112.022 511.161 145.357C511.857 146.142 510.898 147.284 510.008 146.739C498.644 139.762 469.645 124.899 435.177 129.726C434.136 129.873 433.727 128.42 434.686 127.992H434.68Z" fill="#C22026"/>
<path d="M434.681 127.992C447.613 122.239 481.531 112.022 511.162 145.357C511.858 146.142 510.899 147.284 510.009 146.739C498.645 139.762 469.646 124.899 435.178 129.726C434.137 129.873 433.728 128.42 434.687 127.992H434.681Z" fill="#C22026"/>
<path d="M511.191 145.293C501.985 134.53 475.735 110.71 434.681 128.063C433.716 128.473 434.091 129.92 435.132 129.808C448.391 128.397 480.946 127.459 510.004 146.646C510.881 147.226 511.875 146.089 511.191 145.293Z" fill="#C22026"/>
<path d="M481.479 201.575C474.115 199.911 468.605 196.156 465.043 191.293L459.715 196.08C459.604 196.179 459.428 196.138 459.37 196.004L456.626 189.424C451.321 192.266 444.718 193.268 437.284 191.586C429.476 189.823 423.75 185.704 420.217 180.408C418.053 184.152 416.409 188.282 415.409 192.729C410.086 216.35 424.884 239.82 448.467 245.157C472.05 250.488 495.481 235.666 500.809 212.044C501.809 207.615 502.096 203.186 501.757 198.886C496.306 202.126 489.357 203.362 481.473 201.575H481.479Z" fill="#C22026"/>
<path d="M414.976 184.141C408.571 197.738 410.958 211.6 412.373 217.183C412.373 217.183 376.338 245.058 373.214 242.193C370.091 239.328 384.439 222.579 384.439 222.579C384.439 222.579 364.406 235.186 372.086 224.307C379.759 213.427 389.135 204.956 389.135 204.956C389.135 204.956 369.301 218.981 378.063 208.553C386.825 198.119 414.982 184.146 414.982 184.146L414.976 184.141Z" fill="#C22026"/>
<path d="M504.289 200.697C506.365 215.584 499.966 228.109 496.966 233.019C496.966 233.019 523.093 270.367 526.924 268.563C530.755 266.758 522.034 246.488 522.034 246.488C522.034 246.488 537.417 264.491 533.317 251.819C529.217 239.147 522.789 228.268 522.789 228.268C522.789 228.268 537.557 247.566 532.293 234.999C527.029 222.432 504.295 200.697 504.295 200.697H504.289Z" fill="#C22026"/>
<path d="M440.173 233.118L438.495 232.835C437.424 232.654 436.411 233.377 436.23 234.449L434.06 247.355C433.88 248.427 434.601 249.443 435.672 249.623L437.35 249.906C438.42 250.087 439.434 249.364 439.614 248.292L441.785 235.386C441.965 234.314 441.243 233.298 440.173 233.118Z" fill="#C22026"/>
<path d="M445.725 234.057L444.046 233.774C442.976 233.594 441.962 234.316 441.782 235.388L439.612 248.295C439.432 249.367 440.153 250.382 441.223 250.563L442.902 250.846C443.972 251.026 444.986 250.304 445.166 249.232L447.336 236.325C447.517 235.253 446.795 234.238 445.725 234.057Z" fill="#C22026"/>
<path d="M451.282 234.993L449.604 234.71C448.534 234.529 447.52 235.252 447.34 236.324L445.17 249.23C444.989 250.302 445.711 251.318 446.781 251.498L448.459 251.781C449.53 251.962 450.544 251.239 450.724 250.167L452.894 237.261C453.074 236.189 452.353 235.173 451.282 234.993Z" fill="#C22026"/>
<path d="M458.194 236.161L456.515 235.878C455.445 235.697 454.431 236.42 454.251 237.492L452.081 250.398C451.9 251.47 452.622 252.486 453.692 252.666L455.371 252.949C456.441 253.13 457.455 252.407 457.635 251.335L459.805 238.429C459.985 237.357 459.264 236.341 458.194 236.161Z" fill="#C22026"/>
<path d="M463.751 237.096L462.073 236.813C461.002 236.633 459.989 237.355 459.808 238.427L457.638 251.334C457.458 252.406 458.18 253.421 459.25 253.602L460.928 253.885C461.999 254.065 463.012 253.343 463.193 252.271L465.363 239.364C465.543 238.292 464.821 237.277 463.751 237.096Z" fill="#C22026"/>
<path d="M469.303 238.036L467.624 237.753C466.554 237.572 465.54 238.295 465.36 239.367L463.19 252.273C463.01 253.345 463.731 254.361 464.802 254.541L466.48 254.824C467.55 255.005 468.564 254.282 468.744 253.21L470.914 240.304C471.095 239.232 470.373 238.216 469.303 238.036Z" fill="#C22026"/>
<path d="M479.993 176.173C480.659 172.494 483.397 169.852 487.292 170.561C491.188 171.27 492.702 174.697 492.036 178.37C491.357 182.102 488.678 184.762 484.836 184.059C480.934 183.35 479.308 179.905 479.987 176.167L479.993 176.173Z" fill="#C22026"/>
<path d="M436.535 166.452C437.201 162.773 439.939 160.131 443.834 160.84C447.73 161.549 449.244 164.976 448.578 168.649C447.899 172.381 445.22 175.041 441.378 174.338C437.476 173.629 435.85 170.184 436.529 166.447L436.535 166.452Z" fill="#C22026"/>
</g>
<g opacity="0.4">
<path d="M126.507 97.9123C127.829 92.0538 133.303 87.7302 140.357 89.3237C147.411 90.9172 150.505 97.1741 149.183 103.039C147.861 108.897 142.498 113.033 135.356 111.416C128.302 109.823 125.185 103.771 126.507 97.9123ZM142.387 101.504C143.007 98.7442 141.89 96.0903 138.965 95.4283C136.082 94.778 133.976 96.6996 133.356 99.459C132.736 102.218 133.8 104.907 136.684 105.558C139.567 106.208 141.761 104.304 142.393 101.504H142.387Z" fill="#C22026"/>
<path d="M145.521 102.207C146.843 96.3489 152.271 92.0604 159.325 93.6598C166.466 95.2768 169.52 101.475 168.198 107.34C166.876 113.198 161.512 117.334 154.371 115.717C147.317 114.124 144.2 108.072 145.521 102.213V102.207ZM161.401 105.799C162.021 103.039 160.904 100.385 157.98 99.7234C155.096 99.0731 152.991 100.995 152.371 103.754C151.739 106.554 152.815 109.203 155.699 109.853C158.623 110.515 160.775 108.599 161.407 105.799H161.401Z" fill="#C22026"/>
<path d="M145.112 113.256L150.277 108.616C150.394 108.511 150.341 108.323 150.195 108.288L142.357 106.519C142.205 106.484 142.082 106.636 142.141 106.777L144.814 113.186C144.866 113.309 145.019 113.338 145.112 113.256Z" fill="#C22026"/>
<path d="M133.73 86.2955C139.293 83.8173 153.892 79.4234 166.637 93.7651C166.935 94.0991 166.525 94.597 166.139 94.3627C161.25 91.3573 148.774 84.9656 133.941 87.0395C133.497 87.104 133.315 86.4771 133.73 86.2955Z" fill="#C22026"/>
<path d="M126.507 97.9123C127.829 92.0538 133.303 87.7302 140.357 89.3237C147.411 90.9172 150.505 97.1741 149.183 103.039C147.861 108.897 142.498 113.033 135.356 111.416C128.302 109.823 125.185 103.771 126.507 97.9123ZM142.387 101.504C143.007 98.7442 141.89 96.0903 138.965 95.4283C136.082 94.778 133.976 96.6996 133.356 99.459C132.736 102.218 133.8 104.907 136.684 105.558C139.567 106.208 141.761 104.304 142.393 101.504H142.387Z" fill="#C22026"/>
<path d="M145.521 102.207C146.843 96.3489 152.271 92.0604 159.325 93.6598C166.466 95.2768 169.52 101.475 168.198 107.34C166.876 113.198 161.512 117.334 154.371 115.717C147.317 114.124 144.2 108.072 145.521 102.213V102.207ZM161.401 105.799C162.021 103.039 160.904 100.385 157.98 99.7234C155.096 99.0731 152.991 100.995 152.371 103.754C151.739 106.554 152.815 109.203 155.699 109.853C158.623 110.515 160.775 108.599 161.407 105.799H161.401Z" fill="#C22026"/>
<path d="M145.112 113.256L150.277 108.616C150.394 108.511 150.341 108.323 150.195 108.288L142.357 106.519C142.205 106.484 142.082 106.636 142.141 106.777L144.814 113.186C144.866 113.309 145.019 113.338 145.112 113.256Z" fill="#C22026"/>
<path d="M133.73 86.2955C139.293 83.8173 153.892 79.4234 166.637 93.7651C166.935 94.0991 166.525 94.597 166.139 94.3627C161.25 91.3573 148.774 84.9656 133.941 87.0395C133.497 87.104 133.315 86.4771 133.73 86.2955Z" fill="#C22026"/>
<path d="M133.73 86.2955C139.292 83.8173 153.891 79.4234 166.636 93.7651C166.934 94.0991 166.524 94.597 166.138 94.3627C161.249 91.3573 148.773 84.9656 133.94 87.0395C133.496 87.104 133.314 86.4771 133.73 86.2955Z" fill="#C22026"/>
<path d="M166.647 93.7415C162.688 89.1133 151.393 78.8608 133.724 86.3246C133.309 86.5004 133.472 87.1214 133.917 87.0745C139.62 86.4652 153.628 86.061 166.133 94.3215C166.507 94.5734 166.94 94.0813 166.642 93.7415H166.647Z" fill="#C22026"/>
<path d="M153.868 117.956C150.697 117.241 148.329 115.624 146.796 113.533L144.503 115.589C144.457 115.63 144.381 115.612 144.357 115.554L143.176 112.724C140.895 113.948 138.052 114.376 134.853 113.656C131.49 112.894 129.027 111.125 127.512 108.846C126.582 110.457 125.875 112.232 125.442 114.148C123.149 124.312 129.518 134.412 139.666 136.703C149.814 138.994 159.898 132.62 162.185 122.455C162.612 120.551 162.74 118.641 162.594 116.796C160.249 118.19 157.26 118.723 153.868 117.956Z" fill="#C22026"/>
<path d="M125.255 110.457C122.5 116.31 123.529 122.274 124.132 124.676C124.132 124.676 108.626 136.668 107.281 135.438C105.936 134.208 112.112 126.996 112.112 126.996C112.112 126.996 103.491 132.421 106.796 127.74C110.1 123.059 114.13 119.415 114.13 119.415C114.13 119.415 105.596 125.449 109.363 120.961C113.13 116.474 125.249 110.457 125.249 110.457H125.255Z" fill="#C22026"/>
<path d="M163.682 117.58C164.577 123.989 161.822 129.373 160.529 131.488C160.529 131.488 171.771 147.558 173.42 146.785C175.07 146.006 171.315 137.288 171.315 137.288C171.315 137.288 177.936 145.033 176.169 139.579C174.403 134.125 171.636 129.444 171.636 129.444C171.636 129.444 177.994 137.745 175.725 132.338C173.461 126.93 163.676 117.58 163.676 117.58H163.682Z" fill="#C22026"/>
<path d="M136.721 132.864C136.832 132.204 136.387 131.578 135.728 131.467C135.069 131.356 134.444 131.801 134.333 132.461L133.521 137.291C133.41 137.952 133.854 138.577 134.514 138.689C135.173 138.8 135.798 138.354 135.909 137.694L136.721 132.864Z" fill="#C22026"/>
<path d="M139.113 133.269C139.224 132.608 138.779 131.983 138.12 131.871C137.46 131.76 136.836 132.205 136.725 132.866L135.913 137.696C135.802 138.356 136.246 138.982 136.905 139.093C137.565 139.204 138.189 138.759 138.3 138.098L139.113 133.269Z" fill="#C22026"/>
<path d="M141.498 133.677C141.609 133.016 141.165 132.391 140.505 132.28C139.846 132.168 139.221 132.614 139.11 133.274L138.298 138.104C138.187 138.764 138.632 139.39 139.291 139.501C139.951 139.612 140.575 139.167 140.686 138.507L141.498 133.677Z" fill="#C22026"/>
<path d="M144.48 134.171C144.591 133.51 144.146 132.885 143.487 132.774C142.827 132.662 142.203 133.108 142.092 133.768L141.28 138.598C141.169 139.258 141.613 139.884 142.273 139.995C142.932 140.106 143.557 139.661 143.668 139.001L144.48 134.171Z" fill="#C22026"/>
<path d="M146.871 134.575C146.982 133.915 146.538 133.289 145.878 133.178C145.219 133.067 144.595 133.512 144.483 134.172L143.671 139.002C143.56 139.663 144.005 140.288 144.664 140.399C145.324 140.511 145.948 140.065 146.059 139.405L146.871 134.575Z" fill="#C22026"/>
<path d="M149.257 134.978C149.368 134.317 148.924 133.692 148.264 133.58C147.605 133.469 146.98 133.914 146.869 134.575L146.057 139.405C145.946 140.065 146.391 140.691 147.05 140.802C147.709 140.913 148.334 140.468 148.445 139.807L149.257 134.978Z" fill="#C22026"/>
<path d="M153.224 107.03C153.511 105.448 154.687 104.311 156.365 104.616C158.044 104.921 158.693 106.397 158.407 107.979C158.114 109.584 156.962 110.726 155.307 110.428C153.651 110.129 152.926 108.641 153.219 107.036L153.224 107.03Z" fill="#C22026"/>
<path d="M134.531 102.846C134.818 101.264 135.993 100.128 137.672 100.432C139.351 100.737 140 102.213 139.713 103.795C139.427 105.377 138.269 106.543 136.613 106.244C134.958 105.945 134.233 104.457 134.525 102.852L134.531 102.846Z" fill="#C22026"/>
</g>
<g opacity="0.6">
<path d="M269.202 75.3416C267.98 65.9445 273.741 56.5708 285.053 55.0945C296.505 53.6006 304.331 61.2049 305.554 70.602C306.776 79.9991 301.073 89.033 289.621 90.5269C278.309 92.0033 270.419 84.7387 269.197 75.3416H269.202ZM294.657 72.0198C294.084 67.5966 290.984 64.2748 286.293 64.89C281.672 65.4934 279.596 69.4889 280.169 73.9121C280.754 78.4056 283.784 81.7333 288.404 81.1298C293.095 80.5205 295.242 76.5133 294.657 72.0257V72.0198Z" fill="#C22026"/>
<path d="M299.687 71.3571C298.464 61.96 304.179 52.6684 315.491 51.192C326.803 49.7157 334.821 57.2205 336.038 66.6176C337.26 76.0147 331.558 85.0485 320.105 86.5424C308.794 88.0188 300.903 80.7542 299.681 71.3571H299.687ZM325.136 68.0412C324.562 63.618 321.462 60.2962 316.772 60.9113C312.151 61.5148 310.075 65.5103 310.648 69.9335C311.221 74.3567 314.262 77.7546 318.883 77.1512C323.574 76.5419 325.72 72.5347 325.136 68.047V68.0412Z" fill="#C22026"/>
<path d="M304.992 88.0828L310.292 78.0823C310.362 77.9475 310.251 77.7835 310.098 77.8069L297.114 79.5001C296.962 79.5176 296.897 79.7051 296.997 79.8164L304.677 88.1238C304.764 88.2176 304.922 88.2 304.981 88.0828H304.992Z" fill="#C22026"/>
<path d="M273.595 54.2095C280.491 47.5191 299.716 33.0719 326.37 47.3726C326.996 47.7065 326.651 48.6615 325.955 48.5209C317.088 46.734 295.148 44.0567 274.309 55.1937C273.683 55.5277 273.08 54.7016 273.589 54.2037L273.595 54.2095Z" fill="#C22026"/>
<path d="M269.202 75.3416C267.98 65.9445 273.741 56.5708 285.053 55.0945C296.505 53.6006 304.331 61.2049 305.554 70.602C306.776 79.9991 301.073 89.033 289.621 90.5269C278.309 92.0033 270.419 84.7387 269.197 75.3416H269.202ZM294.657 72.0198C294.084 67.5966 290.984 64.2748 286.293 64.89C281.672 65.4934 279.596 69.4889 280.169 73.9121C280.754 78.4056 283.784 81.7333 288.404 81.1298C293.095 80.5205 295.242 76.5133 294.657 72.0257V72.0198Z" fill="#C22026"/>
<path d="M299.687 71.3571C298.464 61.96 304.179 52.6684 315.491 51.192C326.803 49.7157 334.821 57.2205 336.038 66.6176C337.26 76.0147 331.558 85.0485 320.105 86.5424C308.794 88.0188 300.903 80.7542 299.681 71.3571H299.687ZM325.136 68.0412C324.562 63.618 321.462 60.2962 316.772 60.9113C312.151 61.5148 310.075 65.5103 310.648 69.9335C311.221 74.3567 314.262 77.7546 318.883 77.1512C323.574 76.5419 325.72 72.5347 325.136 68.047V68.0412Z" fill="#C22026"/>
<path d="M304.992 88.0828L310.292 78.0823C310.362 77.9475 310.251 77.7835 310.098 77.8069L297.114 79.5001C296.962 79.5176 296.897 79.7051 296.997 79.8164L304.677 88.1238C304.764 88.2176 304.922 88.2 304.981 88.0828H304.992Z" fill="#C22026"/>
<path d="M273.595 54.2095C280.491 47.5191 299.716 33.0719 326.37 47.3726C326.996 47.7065 326.651 48.6615 325.955 48.5209C317.088 46.734 295.148 44.0567 274.309 55.1937C273.683 55.5277 273.08 54.7016 273.589 54.2037L273.595 54.2095Z" fill="#C22026"/>
<path d="M273.595 54.2095C280.491 47.5191 299.716 33.0719 326.37 47.3726C326.996 47.7065 326.651 48.6615 325.955 48.5209C317.088 46.734 295.148 44.0567 274.309 55.1937C273.683 55.5277 273.08 54.7016 273.589 54.2037L273.595 54.2095Z" fill="#C22026"/>
<path d="M326.376 47.3317C318 42.6331 295.722 33.5993 273.613 54.2565C273.092 54.7427 273.671 55.5747 274.309 55.2642C282.427 51.2628 302.951 43.0432 325.937 48.4683C326.633 48.6323 327.002 47.6774 326.382 47.3258L326.376 47.3317Z" fill="#C22026"/>
<path d="M320.574 90.1397C315.497 90.8017 311.111 89.7003 307.707 87.4389L305.431 91.7332C305.385 91.8211 305.262 91.8387 305.197 91.7625L301.916 88.2122C299.202 91.2645 295.225 93.4498 290.095 94.1176C284.709 94.8207 280.1 93.5377 276.614 90.9892C276.111 93.8833 276.029 96.9005 276.427 99.9645C278.544 116.257 293.447 127.752 309.719 125.625C325.984 123.504 337.46 108.577 335.337 92.2781C334.939 89.2199 334.091 86.3317 332.869 83.6719C330.149 87.0112 326.014 89.425 320.574 90.1338V90.1397Z" fill="#C22026"/>
<path d="M335.091 112.044C339.858 103.028 338.676 93.5548 337.892 89.7291C337.892 89.7291 363.195 71.9719 365.219 74.0107C367.248 76.0495 356.995 86.9522 356.995 86.9522C356.995 86.9522 370.968 79.0373 365.423 86.173C359.879 93.3028 353.258 98.7513 353.258 98.7513C353.258 98.7513 367.143 89.8697 360.879 96.6657C354.615 103.462 335.085 112.05 335.085 112.05L335.091 112.044Z" fill="#C22026"/>
<path d="M280.316 117.124C273.975 109.139 273.402 99.6129 273.467 95.7052C273.467 95.7052 245.339 82.8984 243.719 85.277C242.099 87.6556 254.177 96.4902 254.177 96.4902C254.177 96.4902 238.993 91.282 245.748 97.2694C252.504 103.263 260.014 107.399 260.014 107.399C260.014 107.399 244.737 101.218 252.141 106.749C259.546 112.273 280.316 117.124 280.316 117.124Z" fill="#C22026"/>
<path d="M301.239 119.968L300.854 120.04C299.923 120.214 299.31 121.111 299.484 122.043L300.972 130.025C301.146 130.957 302.041 131.571 302.971 131.397L303.357 131.325C304.287 131.151 304.9 130.254 304.726 129.322L303.238 121.34C303.064 120.409 302.169 119.794 301.239 119.968Z" fill="#C22026"/>
<path d="M305 119.265L304.614 119.337C303.684 119.511 303.071 120.408 303.244 121.34L304.733 129.322C304.907 130.254 305.802 130.868 306.732 130.694L307.117 130.622C308.048 130.448 308.661 129.551 308.487 128.619L306.999 120.637C306.825 119.705 305.93 119.091 305 119.265Z" fill="#C22026"/>
<path d="M308.756 118.568L308.371 118.64C307.441 118.814 306.827 119.711 307.001 120.642L308.49 128.624C308.663 129.556 309.559 130.171 310.489 129.997L310.874 129.924C311.804 129.75 312.418 128.854 312.244 127.922L310.756 119.94C310.582 119.008 309.687 118.394 308.756 118.568Z" fill="#C22026"/>
<path d="M313.434 117.687L313.049 117.759C312.119 117.933 311.505 118.83 311.679 119.762L313.167 127.743C313.341 128.675 314.236 129.29 315.167 129.116L315.552 129.044C316.482 128.87 317.096 127.973 316.922 127.041L315.433 119.059C315.26 118.127 314.364 117.513 313.434 117.687Z" fill="#C22026"/>
<path d="M317.189 116.986L316.804 117.058C315.873 117.232 315.26 118.129 315.434 119.06L316.922 127.042C317.096 127.974 317.991 128.589 318.921 128.415L319.307 128.342C320.237 128.168 320.85 127.272 320.677 126.34L319.188 118.358C319.014 117.426 318.119 116.812 317.189 116.986Z" fill="#C22026"/>
<path d="M320.945 116.283L320.56 116.355C319.629 116.529 319.016 117.425 319.19 118.357L320.678 126.339C320.852 127.271 321.747 127.885 322.677 127.711L323.063 127.639C323.993 127.465 324.606 126.569 324.432 125.637L322.944 117.655C322.77 116.723 321.875 116.109 320.945 116.283Z" fill="#C22026"/>
<path d="M286.182 74.7852C285.82 71.9907 287.177 69.4598 290.142 69.0731C293.108 68.6865 294.979 70.7956 295.342 73.5959C295.71 76.4373 294.4 78.9624 291.476 79.3432C288.51 79.7298 286.551 77.6325 286.182 74.7911V74.7852Z" fill="#C22026"/>
<path d="M317.228 70.5723C316.866 67.7778 318.223 65.2469 321.188 64.8603C324.154 64.4736 326.025 66.5827 326.388 69.3831C326.756 72.2244 325.446 74.7495 322.522 75.1303C319.556 75.5169 317.597 73.4196 317.228 70.5782V70.5723Z" fill="#C22026"/>
</g>
<path d="M411.448 195.371L414.735 195.559" stroke="#C22026" stroke-miterlimit="10"/>
<path d="M501.615 207.785C502.686 207.908 503.709 208.43 504.44 209.22" stroke="#C22026" stroke-miterlimit="10"/>
<path d="M517.946 214.82C536.101 225.565 554.356 237.628 565.791 255.379C572.066 265.122 576.085 276.3 583.302 285.369C596.211 301.597 619.302 308.897 639.171 303.021" stroke="#C22026" stroke-miterlimit="10"/>
<path d="M513.22 180.994C519.285 182.113 525.099 184.316 530.72 186.859C557.479 198.951 580.588 219.01 596.339 243.815C600.497 250.365 604.217 257.313 609.633 262.861C615.05 268.409 622.659 272.487 630.339 271.456" stroke="#C22026" stroke-miterlimit="10"/>
<path d="M504.143 138.016C532.908 138.162 561.374 151.115 580.413 172.716C584.887 177.789 588.864 183.314 593.707 188.036C598.55 192.758 604.458 196.724 611.143 197.743" stroke="#C22026" stroke-miterlimit="10"/>
<path d="M728.464 279.342C730.165 279.727 731.387 279.722 733.099 280.383C735.629 281.36 742.482 286.695 743.874 286.904C747.326 287.429 751.158 284.984 755.519 286.334C761.249 288.115 762.826 293.695 763.256 299.111C769.015 302.958 776.751 305.372 779.478 312.273L785.702 356.975C785.066 362.618 782.323 366.241 777.069 368.4L703.117 378.697C697.515 378.167 693.811 375.218 691.692 370.064L685.468 325.362C686.199 317.98 692.988 313.543 697.477 308.269C696.412 302.942 696.405 297.144 701.43 293.865C705.255 291.369 709.61 292.68 712.788 291.232C714.069 290.651 719.211 283.646 721.371 282.016L725.545 279.749L728.471 279.341L728.464 279.342ZM736.49 288.018C730.303 282.287 724.581 283.083 720.195 290.287L736.49 288.018ZM704.85 297.198C702.837 298.318 701.536 300.139 701.49 302.513L705.701 332.471L723.338 343.307C724.481 343.538 728.35 338.793 729.922 337.827C733.34 335.731 736.577 335.327 740.41 336.499C743.049 337.309 745.116 339.428 747.693 340.028L761.854 324.95L757.902 295.042C757.284 292.648 755.768 291.259 753.458 290.529L704.843 297.192L704.85 297.198ZM700.488 329.229L698.394 314.186C697.003 315.642 690.362 321.851 690.722 323.533L700.487 329.223L700.488 329.229ZM763.991 305.059L766.086 320.102L773.926 311.962C773.812 310.245 765.728 306.087 763.992 305.066L763.991 305.059ZM690.649 328.899L696.204 368.801C696.224 368.944 697.414 371.317 697.984 370.894L720.436 347.116L690.65 328.906L690.649 328.899ZM781.015 356.986L775.459 317.085L751.78 342.739L779.874 359.479C780.536 359.724 781.007 357.219 781.014 356.98L781.015 356.986ZM703.106 374.01L775.799 363.889C775.858 363.881 776.825 363.23 776.757 363.121C776.369 362.804 775.977 362.508 775.562 362.229C765.938 355.898 751.637 347.13 741.427 342.091C736.407 339.616 734.376 339.899 730.224 343.651C722.071 351.022 710.214 363.65 703.051 372.093C702.665 372.55 702.345 373.058 701.98 373.525C701.945 373.649 702.993 374.006 703.112 374.002L703.106 374.01Z" fill="black"/>
<path d="M704.85 297.199L753.466 290.536C755.775 291.259 757.292 292.655 757.909 295.049L761.862 324.957L747.7 340.035C745.124 339.435 743.057 337.316 740.418 336.506C736.585 335.333 733.347 335.731 729.93 337.834C728.358 338.8 724.489 343.544 723.346 343.313L705.709 332.477L701.498 302.519C701.545 300.152 702.846 298.331 704.858 297.204L704.85 297.199Z" fill="white"/>
<path d="M703.106 374.009C702.993 374.005 701.939 373.656 701.975 373.532C702.34 373.064 702.658 372.55 703.045 372.1C710.208 363.656 722.066 351.028 730.218 343.657C734.371 339.905 736.401 339.622 741.421 342.098C751.632 347.137 765.925 355.899 775.556 362.235C775.971 362.508 776.369 362.803 776.751 363.127C776.821 363.243 775.859 363.886 775.794 363.895L703.107 374.015L703.106 374.009Z" fill="white"/>
<path d="M781.014 356.986C781.014 357.224 780.543 359.729 779.874 359.485L751.78 342.745L775.46 317.09L781.015 356.992L781.014 356.986Z" fill="white"/>
<path d="M690.648 328.899L720.435 347.11L697.982 370.887C697.414 371.317 696.223 368.937 696.203 368.794L690.647 328.893L690.648 328.899Z" fill="white"/>
<path d="M700.489 329.229L690.723 323.539C690.363 321.857 697.004 315.649 698.395 314.192L700.49 329.236L700.489 329.229Z" fill="white"/>
<path d="M763.991 305.059C765.727 306.081 773.811 310.239 773.925 311.955L766.085 320.096L763.99 305.053L763.991 305.059Z" fill="white"/>
<path d="M736.49 288.017L720.195 290.286C724.581 283.083 730.303 282.286 736.49 288.017Z" fill="white"/>
<path d="M712.359 321.558C711.622 316.267 714.829 310.953 721.208 310.065C727.587 309.176 732.123 313.413 732.86 318.703C733.597 323.993 730.422 329.118 723.966 330.017C717.509 330.916 713.093 326.851 712.357 321.558L712.359 321.558ZM726.716 319.559C726.369 317.069 724.603 315.214 721.958 315.582C719.313 315.95 718.199 318.209 718.546 320.696C718.892 323.184 720.624 325.087 723.231 324.724C725.839 324.361 727.068 322.086 726.716 319.559Z" fill="#B3322F"/>
<path d="M729.553 319.163C728.817 313.872 731.994 308.603 738.375 307.714C744.757 306.826 749.32 311.015 750.057 316.308C750.793 321.6 747.619 326.722 741.162 327.621C734.706 328.52 730.29 324.455 729.553 319.163ZM743.91 317.164C743.563 314.673 741.798 312.819 739.152 313.187C736.507 313.555 735.394 315.813 735.74 318.301C736.086 320.789 737.818 322.692 740.425 322.329C743.033 321.966 744.262 319.691 743.91 317.164Z" fill="#B3322F"/>
<path d="M732.616 328.596L735.598 322.857C735.628 322.799 735.58 322.73 735.515 322.739L728.095 323.772C728.03 323.781 728 323.861 728.047 323.908L732.484 328.615C732.522 328.655 732.59 328.646 732.616 328.596Z" fill="#B3322F"/>
<path d="M714.735 309.626C718.595 305.82 729.381 297.578 744.501 305.508C744.856 305.695 744.668 306.233 744.274 306.158C739.256 305.196 726.855 303.794 715.146 310.18C714.793 310.372 714.449 309.908 714.735 309.626Z" fill="#B3322F"/>
</svg>
