<?xml version="1.0" encoding="UTF-8"?>
<svg id="Layer_1" data-name="Layer 1" xmlns="http://www.w3.org/2000/svg" viewBox="0 0 170.44 124.42">
  <defs>
    <style>
      .cls-1 {
        fill: #fff;
      }
    </style>
  </defs>
  <g>
    <path class="cls-1" d="M88.56,74.85v-14.62s-.47-.66-.68-.29c-.57.97-.71,4.3-1.31,5.67-.37.83-1.21.95-1.97.51-1.23-.7-1.09-5.91-1.79-6.16l-.66-.02v14.43c0,.52-.86.64-1.26.68-1.43.14-3.15.02-4.56-.19v-27.22c0-.35.77-.47,1.06-.5.89-.09,4-.11,4.58.49l3.4,10.17,3.39-10.18c.65-.73,4.76-.65,5.65.01v26.92s-.3.34-.39.38c-.42.2-5.44.18-5.44-.09Z"/>
    <g>
      <path class="cls-1" d="M69.14,47.35v20.44c0,.27.26,1.45.49,1.65h5.05l.29.29v5.04l-.29.29h-10.88c-.06,0-.29-.26-.49-.19v-27.22s.3-.34.39-.38c.42-.2,5.44-.18,5.44.09Z"/>
      <path class="cls-1" d="M57.04,47.59l4.69,27.24c-.93.22-4.88.48-5.42-.08s-.71-4.87-.97-5.91l-2.15.08-.8,5.89c-.23.36-5.12.32-5.38.01l4.19-27.25.21-.24c1-.23,5.05-.48,5.63.25ZM54.38,56.26l-.39.28c-.27,2.79-.56,5.62-.58,8.43h1.56s-.58-8.72-.58-8.72Z"/>
    </g>
  </g>
  <path class="cls-1" d="M104.07,68.88l-2.22.15c-.24.89-.28,5.52-.8,5.84-.47.29-5.05.24-5.3-.02l4.12-26.58c.17-.68.28-.98,1.03-1.1.92-.14,4.77-.26,5.09.71l4.67,26.54c.04.23-.1.32-.27.42-.54.35-4.91.36-5.33-.07l-.99-5.89ZM103.9,64.97c-.4-2.88-.07-5.91-.87-8.72-.33.43-.44,1.31-.48,1.84-.19,2.27-.17,4.6-.39,6.87h1.75Z"/>
</svg>