<?xml version="1.0" encoding="UTF-8"?>
<svg id="Layer_1" data-name="Layer 1" xmlns="http://www.w3.org/2000/svg" viewBox="0 0 170.44 124.42">
  <defs>
    <style>
      .cls-1 {
        fill: #fff;
      }
    </style>
  </defs>
  <path class="cls-1" d="M102.34,74.16l.78-.62c-3.83,1.83-8.04-.32-8.44-4.6-.21-2.33-.26-8.78.59-10.78.88-2.07,2.93-3.68,5.19-3.95.13.22-1.22.51-.55.62,3.51-2.06,7.87.48,8.22,4.44.2,2.29.2,6.61,0,8.9-.26,3.03-2.77,5.61-5.79,5.99ZM99.21,55.15c-.48.1-1.14.76-1.25,1.25l1.25-1.25ZM104.84,57.17c-.82-1.09-2.38-1.07-3.59-.78l1.92.04,1.68.74ZM99.37,58.89l.63-1.32c-.63.17-.88,1.45-.94,2.03-.16,1.61-.23,7.7.11,9.09.49,2.04,2.95,2.36,4.19.81l.08.78c.12-.46.28-.82.32-1.32.23-3.01-.13-6.4-.08-9.44-.77-1.9-2.98-2.08-4.3-.62ZM97.03,69.41v-10.76c0-.1.28-.45.15-.7h-.15c.06.19-.16.45-.16.54v11.07c0,.29,1.08,2.08,1.41,1.79-.44-.53-1.13-1.24-1.25-1.95ZM105.94,59.35c0-.3.06-.99-.31-1.09.09.27,0,.98.31,1.09ZM106.09,68.86v-9.35h-.16v9.35h.16ZM105.16,71.51c.64-.55.82-1.68.78-2.49l-.78,2.49ZM102.34,71.36c.34.03.66-.31.62-.62l-.62.62ZM101.87,71.67c-.93.3-1.37.29-2.31.2-.17-.02-.53-.18-.5.11.85.22,1.54.22,2.38-.05.16-.05.47-.04.44-.26ZM103.44,73.38c.59-.2,1.36-.97,1.56-1.56l-1.56,1.56Z"/>
  <g>
    <g>
      <g>
        <path class="cls-1" d="M69.35,54.37v10.13h6.88v-8.18c0-.12,1.51-1.56,1.72-1.72.16-.12.2-.3.47-.23v19.8h-2.19v-7.48h-6.88v7.48h-2.19v-17.85c0-.12,1.51-1.56,1.72-1.72.16-.12.2-.3.47-.23Z"/>
        <path class="cls-1" d="M78.58,74.01v-19.95c.57.11,1.9-.32,2.03.39v17.16c-.08.93-1.38,1.75-2.03,2.41Z"/>
        <path class="cls-1" d="M71.54,54.05v8.18c0,.14-1.76,1.71-2.03,1.95v-10.13h2.03Z"/>
        <path class="cls-1" d="M71.54,66.84v5.22c0,.14-1.76,1.71-2.03,1.95v-7.17h2.03Z"/>
        <path class="cls-1" d="M76.08,62.32v2.03h-6.25c.24-.27,1.81-2.03,1.95-2.03h4.3Z"/>
      </g>
      <g>
        <path class="cls-1" d="M72.32,50.16h-7.5v21.75c0,.14-1.77,1.71-2.03,1.95v-23.7h-6.8c-.29,0-.51-2.2.16-2.18l16.03.07c.31.22.07,1.66.15,2.11Z"/>
        <path class="cls-1" d="M62.63,74.16h-2.19v-21.59c0-.15,1.91-1.84,2.19-2.1v23.7Z"/>
        <path class="cls-1" d="M62.32,50.31c-.24.27-1.81,2.03-1.95,2.03h-6.49c.24-.27,1.81-2.03,1.95-2.03h6.49Z"/>
        <path class="cls-1" d="M72.01,50.31c.14.12-1.66,2.03-1.8,2.03h-5.24v-2.03h7.04Z"/>
        <path class="cls-1" d="M53.57,52.18c.08-.58-.16-1.51.08-2.02.19-.43,1.56-1.45,1.95-1.87-.08.58.16,1.51-.08,2.02-.19.43-1.56,1.45-1.95,1.87Z"/>
      </g>
    </g>
    <g>
      <path class="cls-1" d="M93.9,47.97c.07.27-.11.31-.23.47-.43.56-1.51,1.66-2.18,1.72-2.25.22-4.89-.17-7.18-.03-.45-.15-.32-2.16-.02-2.16h9.61Z"/>
      <path class="cls-1" d="M82.17,52.49l.47-.78-.78.62c.07-.57-.13-1.39.03-1.92.11-.38,1.59-1.81,2-2.14-.07.57.13,1.39-.03,1.92-.09.29-1.12.97-.9,1.2l1.33-1.09h7.34c.66-.02.44,2.18.16,2.18h-9.61Z"/>
      <path class="cls-1" d="M92.18,52.34c-.38-2.05.59-2.88,2.03-4.05-.08.58.16,1.51-.08,2.02-.26.55-1.46,1.58-1.95,2.03Z"/>
      <g>
        <path class="cls-1" d="M83.89,64.5h6.49c.35,0,.35,2.18,0,2.18h-6.49v5.46h7.9c.38,0,.2,1.68.23,2.03h-10.16v-17.85c0-.14,1.77-1.71,2.03-1.95v10.13Z"/>
        <path class="cls-1" d="M94.21,56.24h-7.97v5.85c0,.15-1.91,1.84-2.19,2.1v-9.9s.22-.23.23-.23h9.69c.39,0,.19,1.85.23,2.18Z"/>
        <path class="cls-1" d="M86.08,69.96c1.01-.59,6.33.12,7.82-.16.07.27-.11.31-.23.47-.32.42-1.55,1.66-2.03,1.72-2.13.28-4.86-.24-7.05,0-.31.05-.2-.3-.22-.32.12-.48.92-1.48,1.34-1.81.08-.07.26.03.38.1Z"/>
        <path class="cls-1" d="M93.9,56.39c.14.12-1.66,2.03-1.8,2.03h-5.71v-2.03h7.5Z"/>
        <path class="cls-1" d="M84.36,64.34l1.99-1.99c1.85.07,3.95-.2,5.77-.04.21.02.64.26.68.44.39,1.94-.79,2.47-2.02,3.63v-2.03h-6.41Z"/>
        <path class="cls-1" d="M86.08,69.96c-.41.24-1.13,1.48-1.72,1.71-.02-.02-.21.04-.28-.03-.19-.22.07-4.15-.04-4.8.44.07,1.9-.17,2.12.15s.07,2.48-.09,2.97Z"/>
        <path class="cls-1" d="M92.18,74.01c.08-.58-.16-1.51.08-2.02.19-.43,1.56-1.45,1.95-1.87-.08.58.16,1.51-.08,2.02-.19.43-1.56,1.45-1.95,1.87Z"/>
      </g>
    </g>
  </g>
</svg>