<?xml version="1.0" encoding="UTF-8"?>
<svg id="Layer_1" data-name="Layer 1" xmlns="http://www.w3.org/2000/svg" viewBox="0 0 170.44 124.42">
  <defs>
    <style>
      .cls-1 {
        fill: #ea1c24;
      }

      .cls-2 {
        fill: #fff;
      }
    </style>
  </defs>
  <g>
    <g>
      <rect class="cls-2" x="116.73" y="75.1" width="13.79" height=".65"/>
      <rect class="cls-2" x="39.92" y="75.1" width="13.72" height=".65"/>
      <path class="cls-2" d="M112.05,77.64c-.75.14-.84-.36-1.08-.91-.26.04-1.7-.07-1.79.04-.3.39-.13,1.05-1.03.87-.01-.09,0-.17.03-.26.24-.82.94-2.35,1.32-3.16.22-.46.35-.78.95-.54l1.59,3.97ZM109.51,76.08h1.17c-.06-.17-.48-1.41-.55-1.43-.12-.04-.15.18-.19.26-.07.15-.48,1.11-.43,1.17Z"/>
      <path class="cls-2" d="M92.08,73.61c.2,1.03-1.43.47-1.6.71-.07.1-.06.98.07.98h1.53c.05.18-.18.65-.36.65h-1.27v.94c0,.19,1.15.03,1.36.13.19.09.3.42.26.62h-2.28v-4.03h2.28Z"/>
      <path class="cls-2" d="M105.29,76.53c.1.09.11-.02.14-.08.38-.68.67-2.05,1.09-2.62.2-.26.49-.24.78-.23l-1.57,3.92c-.14.22-.65.13-.79-.1l-1.51-3.55-.03-.26c.29,0,.6-.05.77.24l1.12,2.69Z"/>
      <path class="cls-2" d="M95.79,74.52c-.18,0-.37.03-.54-.01-.28-.06-.39-.48-.76-.21-.72.52.6.97.89,1.19.23.17.47.42.52.71.32,1.72-2.09,2.14-2.39.47.65-.38,1.09.9,1.63.16.65-.91-1.35-.99-1.49-1.96-.23-1.58,1.95-1.85,2.14-.35Z"/>
      <path class="cls-2" d="M88.18,73.61c.02.18-.17.65-.36.65h-1.27v1.04h1.63c-.05.94-.97.59-1.63.65v1.33c0,.19-.45.44-.65.36v-4.03h2.28Z"/>
      <path class="cls-2" d="M99.63,73.61c.06.26-.09.6-.36.65-.11.02-.47-.02-.49,0-.11.11.09,2.63-.01,3.01-.09.29-.35.41-.64.37v-3.28c0-.16-.76-.08-.91-.1-.07-.16.26-.65.36-.65h2.05Z"/>
      <path class="cls-2" d="M114.19,76.99h1.27c.22,0,.35.46.29.65h-2.21v-4.03c.2-.08.65.16.65.36v3.02Z"/>
      <path class="cls-2" d="M101.84,73.61v3.67c0,.23-.5.44-.72.36v-3.61c0-.3.45-.5.72-.42Z"/>
      <g>
        <path class="cls-2" d="M58.26,73.61c.3.01.67-.08.88.2.38.93.82,1.85,1.14,2.79.09,0,.1-.1.13-.16.37-.73.65-1.93,1.07-2.57.24-.36.5-.26.87-.26v4.03c-.2.08-.65-.16-.65-.36v-2.11l-1.03,2.43c-.1.12-.65.02-.75-.16-.3-.63-.52-1.29-.8-1.93-.04-.1-.11-.31-.21-.35v2.18c0,.12-.49.38-.65.29v-4.03Z"/>
        <path class="cls-2" d="M79.98,74.77c-.61.3-.78-.23-1.22-.43-.7-.33-1.59-.06-1.9.66-.58,1.31.82,2.58,2.06,1.8.34-.21.28-.43.77-.4.55.04.22.43-.03.69-1.05,1.08-2.95.72-3.48-.69-.77-2.01,1.53-3.73,3.24-2.46.16.12.7.62.56.83Z"/>
        <path class="cls-2" d="M64.57,73.71c.07-.22.56-.07.67.18.21.49-.06,1.9.06,2.54s1.04.84,1.42.28c.29-.44.06-1.99.13-2.6.07-.57.72-.56.72-.39v2.73c0,.46-.61,1.1-1.04,1.24-.83.26-1.95-.4-1.95-1.3v-2.67Z"/>
        <path class="cls-2" d="M71.53,74.52c-.5.15-.59-.16-.86-.28-.4-.18-.7.2-.53.6s1.39.52,1.52,1.34c.28,1.76-2.05,2.14-2.4.48.66-.38,1.07.88,1.63.16.66-.85-1.3-1.04-1.48-1.9-.33-1.59,1.98-1.97,2.13-.41Z"/>
        <path class="cls-2" d="M74.13,73.61v3.74c0,.12-.49.38-.65.29v-3.67c0-.19.45-.44.65-.36Z"/>
      </g>
    </g>
    <path class="cls-2" d="M45.25,58.98l3.77,5.79v-3.38h-.72v-2.41h4.88v2.41c-.14.01-.78-.06-.78.1v8.94h-4.06l-4.32-6.57v4.1h.72v2.47h-4.81v-2.47h.72v-6.57h-.72v-2.41h5.33Z"/>
    <path class="cls-2" d="M45.25,44.68c1.22,1.93,2.45,3.86,3.77,5.72v-3.32h-.72v-2.41h4.88v2.41c-.14.01-.78-.06-.78.1v8.87h-4.16l-4.23-6.5v4.1h.72v2.41h-4.81v-2.41h.72v-6.57h-.72v-2.41h5.33Z"/>
    <path class="cls-2" d="M58.9,58.81c3.9-.35,6.32,1.34,6.52,5.34.19,3.77-1.36,6.36-5.36,6.47-3.3.09-5.46-1.44-5.82-4.78-.38-3.52.75-6.69,4.67-7.03ZM59.06,67.74c.34.32,1.25.32,1.53-.09.1-.14.18-.41.2-.58.12-1.01.12-3.79,0-4.8-.08-.66-.54-.95-1.18-.87-.58.08-.76.46-.82,1-.12,1.11-.1,3.35-.01,4.48.02.26.09.67.28.85Z"/>
    <path class="cls-2" d="M55.62,54.86c-1.79-1.78-1.85-6.16-.58-8.24,1.74-2.84,7.29-2.87,9.3-.32,1.52,1.93,1.45,6.62-.25,8.45-1.9,2.03-6.51,2.06-8.47.11ZM59.55,47.1c-.53.09-.7.52-.76,1-.12,1.07-.11,3.47,0,4.54.07.74.44,1.09,1.2,1.01.52-.06.74-.39.81-.88.13-1.04.11-3.68,0-4.74-.07-.71-.55-1.05-1.25-.93Z"/>
    <path class="cls-2" d="M130.52,58.98v4.42h-3.32v-2.02h-1.66s-.1.09-.1.1v2.18h1.3v1.76h-1.3v2.54h1.76v-2.28h3.32v4.75h-9.89v-2.47h.72v-6.57h-.72v-2.41h9.89Z"/>
    <path class="cls-2" d="M129.02,44.68v3.84h-2.6v-1.43h-1.3v2.41h2.21v1.69h-2.21v2.47h1.89v2.41h-6.76v-2.31c0-.15.64-.08.78-.1l-.03-6.51c-.09-.13-.58-.03-.75-.06v-2.41h8.78Z"/>
    <path class="cls-2" d="M71.46,58.98v2.41c-.11.04-.53-.1-.52.1.08,1.11.45,2.31.52,3.44l.16.17,1.41-6.1h4.21s1.31,6.1,1.31,6.1c.17.02.1,0,.13-.1.27-1.13.32-2.45.52-3.61h-.52s0-2.41,0-2.41h4.68v2.41s-.59-.1-.59.16l-2.08,8.58-.12.27-4.33-.03-1.43-6.31-1.56,6.38-4.3-.07-2.31-8.97s-.58.02-.58,0v-2.41h5.4Z"/>
    <path class="cls-2" d="M90,58.98v2.41h-.72v2.21c.56.06.74,0,.94-.52.22,0,.26.41.42.49.17.08.46,0,.65.03v-2.21h-.72v-2.41h5.59v2.41c-.14.01-.78-.06-.78.1v6.47h.78v2.37s-.09.1-.1.1h-3.12l-1.14-1.59c-.03-.14.05-.11.15-.08.27.06.53.26.82.28l-1.49-2.47c.28-.11.56.13.84.13l-1.82-3.02-1.88,2.96c.22.11.46-.09.68-.1.1,0,.11-.01.1.1l-1.37,2.28c-.01.1,0,.11.1.1.27-.03.54-.3.81-.23l-1.11,1.66h-3.25v-2.47h.72v-6.57h-.72v-2.41h5.59Z"/>
    <path class="cls-2" d="M107.24,58.98v4.42h-3.32v-1.92s-.09-.1-.1-.1h-1.66v2.28h1.2s.1.09.1.1v1.56s-.09.1-.1.1h-1.2v2.54h1.76v-2.28h3.32v4.65s-.09.1-.1.1h-9.85v-2.47h.72v-6.57h-.72v-2.41h9.95Z"/>
    <path class="cls-2" d="M115.79,58.98c1.74.15,3.03,1.06,3.16,2.89.08,1.1-.14,2.11-1.01,2.83-.21.17-.72.29-.32.46.3.13.51.11.78.39.11.11.42.63.42.75v1.66h.72v2.47h-4.59s-.1-.09-.1-.1v-3.9c0-.05-.21-.44-.26-.5-.29-.33-1.02-.32-1.43-.31v2.34h.98v2.47h-5.79v-2.47h.72v-6.57h-.72v-2.41h7.45ZM113.15,63.79h1.07c.17,0,.48-.34.52-.52.06-.25.06-1.12,0-1.37-.06-.22-.37-.52-.59-.52h-1.01v2.41Z"/>
    <path class="cls-2" d="M112.69,44.5c3.72-.33,6.27,1.19,6.52,5.08.2,3.08-.64,5.95-4.03,6.57-3.71.68-6.88-.77-7.16-4.81-.24-3.48.77-6.49,4.67-6.84ZM113.4,47.1c-.4.06-.7.33-.76.74.11,1.59-.17,3.44,0,5,.12,1.12,1.8,1.14,1.94,0,.19-1.49-.13-3.34,0-4.87-.05-.62-.59-.96-1.19-.86Z"/>
    <path class="cls-2" d="M95.79,44.68v2.41h-.72v2.21h2.02v-2.21h-.72v-2.41h5.59v2.41h-.72v6.57h.72v2.41h-5.59v-2.41h.72v-2.41h-2.02v2.41h.72v2.41h-5.59v-2.41h.78v-6.47c0-.15-.64-.08-.78-.1v-2.41h5.59Z"/>
    <polygon class="cls-2" points="89.15 44.68 89.15 48.25 86.62 48.25 86.62 47.08 85.71 47.08 85.71 53.65 86.75 53.65 86.75 56.06 80.57 56.06 80.57 53.65 81.61 53.65 81.61 47.08 80.7 47.08 80.7 48.25 78.16 48.25 78.16 44.68 89.15 44.68"/>
    <path class="cls-2" d="M71.99,56.06s-.1.07-.22.07c-1.77,0-3.53-.12-5.31-.07v-2.41h.72v-6.57h-.72v-2.41h7.51c1.61,0,2.96,1.15,3.09,2.76.12,1.53-.14,2.39-1.41,3.2-.27.18.19.19.35.26.3.14.58.33.75.62.05.09.25.59.25.66v1.46s.65-.03.65,0v2.41c-1.05.01-2.11-.01-3.16,0-.68,0-1.36,0-2.05,0,.03-.18-.07-.72.06-.82.07-.05,1.4.18,1.63.1.07-.06-.29-.45-.18-.64l1.68-1.21c-.04-.13-.38-.21-.39-.27-.05-.26.41-1,.39-1.16-.02-.22-.74.14-.93.09-.14-.04-.25-.37-.4-.45l-1.2,1.17.65-2.27c-.27-.06-.64.43-.85.3-.14-.09-.54-1.14-.68-1.14-.19.16-.56,1.12-.72,1.17-.15.04-.54-.34-.74-.32l.52,2.15-1.14-1.04c-.09.06-.28.44-.34.46-.17.03-.87-.26-.93-.2-.06.3.44,1.08.31,1.29-.03.05-.33.14-.38.24l1.68,1.21c.11.19-.25.57-.18.64.56,0,1.13-.04,1.69-.13v.84ZM71.38,47.09s-.06.02-.08.05c-.07.09-.07,2.19,0,2.28.11.15,1.04.05,1.25-.06.55-.29.56-1.79.08-2.12-.24-.17-1-.24-1.26-.16Z"/>
  </g>
  <path class="cls-1" d="M71.99,56.06v-.84c-.56.09-1.13.13-1.69.13-.07-.06.29-.45.18-.64l-1.68-1.21c.05-.1.35-.19.38-.24.12-.21-.38-.98-.31-1.29.06-.06.76.23.93.2.06-.01.24-.4.34-.46l1.14,1.04-.52-2.15c.2-.02.59.36.74.32.16-.05.54-1.01.72-1.17.14,0,.55,1.05.68,1.14.21.13.58-.36.85-.3l-.65,2.27,1.2-1.17c.15.08.26.41.4.45.19.05.91-.31.93-.09.01.16-.45.9-.39,1.16.01.06.35.14.39.27l-1.68,1.21c-.11.19.25.57.18.64-.23.08-1.55-.16-1.63-.1-.13.1-.03.64-.06.82-.15,0-.3,0-.46,0Z"/>
</svg>