<?xml version="1.0" encoding="UTF-8"?>
<svg id="Layer_1" data-name="Layer 1" xmlns="http://www.w3.org/2000/svg" viewBox="0 0 170.44 124.42">
  <defs>
    <style>
      .cls-1 {
        fill: #fff;
      }
    </style>
  </defs>
  <g>
    <g>
      <g>
        <path class="cls-1" d="M90.85,54.34l1.37,13.68,1.37-13.68h3.59l-3.15,23.48c-.65.06-3.58.38-3.78-.26l-3.19-22.52c-.1-.22.15-.7.31-.7h3.48Z"/>
        <path class="cls-1" d="M84.94,57.92h-4.01v6.31h2.74v3.37h-2.53v6.74h4.01v3.47s-.29.32-.32.32h-7.49l-.21-23.58c2.3.16,4.79-.49,7.08-.22.21.02.73.1.73.33v3.26Z"/>
      </g>
      <g>
        <polygon class="cls-1" points="114.07 54.13 117.03 66.55 117.03 54.13 120.19 54.13 120.4 77.7 117.24 77.7 113.86 65.07 113.86 77.91 110.69 77.91 110.8 54.13 114.07 54.13"/>
        <path class="cls-1" d="M107.53,54.34v3.26s-.29.32-.32.32h-3.69v6.1h2.74v3.37h-2.75s.21,6.74.21,6.74h3.69s.32.29.32.32v3.47h-7.7s-.32-.29-.32-.32v-23.26h7.81Z"/>
      </g>
    </g>
    <g>
      <path class="cls-1" d="M73.75,78.12h-7.18l-.21-25.89h-7.6c.06-.34-.08-1.81,0-1.89.16-.15,3.4-.51,4.33-.84,2.84-1.01,4.61-2.98,5.4-5.87.83.24,4.59-.54,4.95-.04l.3,34.53Z"/>
      <polygon class="cls-1" points="62.78 54.55 62.78 58.13 58.77 58.13 58.98 64.44 61.51 64.44 61.51 67.81 58.98 67.81 58.98 74.55 62.99 74.55 62.99 78.12 55.18 78.34 55.28 54.55 62.78 54.55"/>
    </g>
  </g>
  <g>
    <path class="cls-1" d="M45.79,67.18c-.39-.12-.34-.9-.32-1.26,1.2.33,5.8-.65,6.56-.12.31.21.27.88.09,1.17-.44.71-3.65,2.45-4.32,3.37l4.43-.21v1.47h-6.54c-.06,0-.14-.96-.02-1.16.62-1.01,3.29-2.1,4.03-3.26-1-.19-3.07.26-3.9,0Z"/>
    <path class="cls-1" d="M47.52,72.7c1.91-.39,4.56-.11,4.89,2.18.42,2.87-1.57,4.17-4.25,3.82-3.6-.47-3.49-5.42-.64-6ZM47.73,73.96c-1.64.36-1.45,3.06-.04,3.32,1.02.19,3.07.24,3.53-.89.95-2.36-1.71-2.82-3.49-2.43Z"/>
    <path class="cls-1" d="M46.74,63.18h1.48c-.42-3.71,1.47-3.71,1.05,0h1.69v-3.26c0-.32.97-.37,1.27-.32v4.84h-6.75v-4.84c.3-.06,1.27,0,1.27.32v3.26Z"/>
  </g>
</svg>