<?xml version="1.0" encoding="UTF-8"?>
<svg id="Layer_1" data-name="Layer 1" xmlns="http://www.w3.org/2000/svg" viewBox="0 0 170.44 124.42">
  <defs>
    <style>
      .cls-1 {
        fill: #fff;
      }
    </style>
  </defs>
  <path class="cls-1" d="M108.07,59.4l-.82.29-.02,1.4c1.39.2,2.86-.17,4.18-.22.45-.02.77-.02.9.5l-5.23,1.68c-.82,10.4-9.49,19.4-20,20.02l-.16.86c-.46.12-.13-.49-.46-.57-.36-.08-.83.04-1.23,0l.16,3.68-.3,1.12-1.73-4.82c-11.49-1-20.87-10.65-20.69-22.26-1.15-.09-2.31.07-3.45.1-.41.01-.69.35-1.06-.24l4.37-1.55c1.27-10.12,7.64-17.76,17.62-20.18.98-.24,2.4-.19,3.21-.41.25-.07.22-.36.19-.56l.44.58.98-.14.26-3.54-.55.15.7-1.28,1.55,4.65c9.08,1.13,17.06,7.44,19.44,16.38.31,1.15.35,3.1.62,3.89.17.49.7.44,1.09.46ZM105.99,61c0-11.65-9.44-21.09-21.09-21.09s-21.09,9.44-21.09,21.09,9.44,21.09,21.09,21.09,21.09-9.44,21.09-21.09Z"/>
  <path class="cls-1" d="M83.24,37.4c-.77.92-2.49.73-3.62,1.03-7.73,2.01-14.19,7.46-16.7,15.18-.5,1.53-.6,3.18-1.03,4.61-.11.36-.21.82-.65.9.31-3.88,1.61-7.82,3.72-11.09.95-1.48,3.34-2.99,1.92-4.71.57-.14,1.01.62,1.51.52.34-.07,2.81-2.28,3.48-2.72,3.31-2.17,7.42-3.59,11.37-3.72Z"/>
  <path class="cls-1" d="M82.96,84.78c-4.26-.61-8.1-1.81-11.66-4.28-.53-.37-2.68-2.41-2.87-2.43-.31-.03-.77.67-1.27.5.02-.51.39-.94.25-1.49-.06-.24-2.53-3.23-3.01-4.07-1.76-3.06-2.8-6.44-3.15-9.96,1.07.85.88,2.7,1.26,3.95,2.48,8.18,8.27,14.13,16.57,16.44.38.11,4.71.56,3.88,1.33Z"/>
  <path class="cls-1" d="M108.63,63.06c-.6,5.34-2.83,10.26-6.41,14.24l.49,1.55-1.27-.79c-3.84,3.54-8.92,6.32-14.24,6.43.11-.57.6-.46.99-.56,5.08-1.33,8.06-2.01,12.14-5.63,4.8-4.27,6.26-8.42,7.48-14.53.1-.49.27-.8.84-.71Z"/>
  <path class="cls-1" d="M102.71,43.32c.14.57-.62,1.01-.52,1.51.05.24,2.54,2.99,3.01,3.76,1.91,3.12,2.96,6.92,3.43,10.53-1.25,0-.73-1.5-.92-2.33-2.26-10.26-9.98-17.66-20.52-18.83-.16-.82.36-.57.95-.53,2.73.21,6.95,1.95,9.29,3.41.9.56,3.31,2.73,3.86,2.89s1.36-.47,1.41-.4Z"/>
  <path class="cls-1" d="M90.01,46.98v4.23c-.81-.43-.75-3.1-2.12-3.1h-6.06v7.62h4.94c.96,0,1.53-2,1.27-2.82h.56s0,6.77,0,6.77h-.56c.38-.68-.76-2.82-1.27-2.82h-4.94v7.47c0,1.76,2.81,1.2,3.95,1.27.12.26-.25.84-.42.84h-8.04c.31-.62,1.51-.32,2-.96.3-.4.23-.71.27-1.14.31-3.1.41-12.58-.03-15.51-.05-.36-.23-.97-.54-1.15-.69-.4-1.91.34-1.7-.7h12.69Z"/>
  <path class="cls-1" d="M94.53,62.78v8.89c0,1.27,1.74,1.79,2.82,1.55v.56s-8.46,0-8.46,0v-.56c.68.28,2.82-.26,2.82-.99v-9.45h2.82Z"/>
  <path class="cls-1" d="M89.45,62.78l-5.3,10.35-.76.65-3.53-6.48,2.92.04c.81.28.75,2.32,1.87,2.21.77-1.16,2.51-5.84,3.24-6.49.47-.42,1-.28,1.55-.28Z"/>
  <path class="cls-1" d="M101.58,61.65c.26.88-1.13.73-1.13.99l.88.31c.58.71-.34,1.44-.26,1.9.06.34.67.51.51,1.03-1.02.29-1.01-.79-1.69-1.13l-.85,1.13-.14-3.66c-1.64.52.12,3.72-1.28,4.39l-1.12-.16.86-.71.26-3.23h-14.95v-.85h18.9Z"/>
  <path class="cls-1" d="M79.02,61.09l-2.49-.05-1.03-2.21-.14,2.26h-1.41s-.26-4.05-.26-4.05c-.26-.41-1.42-.56-1.9-.72-.44-.15-.81.25-.66-.59l5.64.16c.58.68,2.83,4.61,2.25,5.2Z"/>
  <polygon class="cls-1" points="97.63 56.01 94.89 56.93 94.53 61.09 91.71 61.09 91.57 58.83 90.53 61.04 89.17 61.09 91.69 55.86 97.63 56.01"/>
  <path class="cls-1" d="M69.63,59.16c3.26-.69,3.11,5.2,1.05,5.59-1.93.37-5.45-1.92-3.52-4.1.22-.25,2.16-1.43,2.47-1.5ZM69.76,61.59c-.25-.14-.19-.99-.9-.79v2.54s1.97-1.13,1.97-1.13c.21-.96-.61-.35-1.07-.62Z"/>
  <path class="cls-1" d="M75.35,62.78v9.45c0,1.05,2.06,1.08,2.82.99v.56s-7.05,0-7.05,0v-.56c.68.28,2.82-.26,2.82-.99v-9.45h1.41Z"/>
  <path class="cls-1" d="M79.01,61.65v.85c-1.45.05-2.93-.06-4.38-.01-1.67.06-2.38,1.24-2.1-1.4l1.06.06c.13.12.04.51.06.51h5.36Z"/>
  <path class="cls-1" d="M90.86,62.78l-.87,3.64-1.66.03c-.27-.23,1.35-2.67,1.63-3.02s.32-.77.91-.64Z"/>
  <path class="cls-1" d="M79.02,62.78c-.08.25.29,2.37-.42,1.97l-.99-1.97h1.41Z"/>
</svg>