<?xml version="1.0" encoding="UTF-8"?>
<svg id="Layer_1" data-name="Layer 1" xmlns="http://www.w3.org/2000/svg" viewBox="0 0 170.44 124.42">
  <defs>
    <style>
      .cls-1 {
        fill: #fff;
      }
    </style>
  </defs>
  <rect class="cls-1" x="51.43" y="42.77" width="46.7" height="3.75"/>
  <g>
    <path class="cls-1" d="M63.57,60.31h-3.87v-3.81c0-.08-.31-.94-.38-1.07-.81-1.41-3.08-1.04-3.58.62-1.38,4.59,3.54,7.51,6.01,10.62,4.02,5.05,2.18,13.83-5.49,12.62-2.32-.37-4.8-2.37-4.8-4.88v-4.42h3.87v3.69c0,.06.28.87.34.99.8,1.66,3.42,1.39,3.98-.42,1.68-5.42-5.65-8.46-7.41-12.85-1.1-2.74-.98-7.18,1.45-9.2,2.22-1.85,6.61-1.68,8.54.54.52.61,1.33,2.26,1.33,3.03v4.54Z"/>
    <g>
      <path class="cls-1" d="M98.05,74.65c-.43,3.58-3.75,5.19-7.06,4.64-3.35-.55-4.51-2.93-4.68-6.09-.29-5.31.23-10.88,0-16.22.13-4.3,2.73-6.37,6.96-5.98,2.32.21,4.78,2.35,4.78,4.78v4.54h-3.87v-3.57c0-.09-.18-.83-.23-.98-.34-1.01-1.11-1.27-2.13-1.14-1.18.15-1.44,1.34-1.51,2.36-.37,5.3.29,11.01,0,16.35-.24,1.76,1.82,3.32,3.2,1.98.3-.29.68-1.35.68-1.74v-3.57h3.87c-.13,1.47.17,3.22,0,4.66Z"/>
      <path class="cls-1" d="M76.33,51.24c2.68.23,4.59,1.59,5.18,4.25.4,1.79.39,7.3-.1,9.05-1.04,3.69-4.36,3.97-7.68,3.87v10.65h-3.81l-.18-.18v-27.47l.18-.18c2.08.13,4.36-.17,6.41,0ZM76.33,54.99c-.74-.13-1.82.1-2.6,0v9.68h2.6c.48,0,1.14-.94,1.26-1.4.26-.94.25-5.43.1-6.49-.1-.71-.59-1.65-1.36-1.79Z"/>
    </g>
  </g>
</svg>