<svg width="100" height="114" viewBox="0 0 100 114" fill="none" xmlns="http://www.w3.org/2000/svg">
<path d="M58.463 112.404H2.32617V42.3109L50.3188 2.55371L98.3115 42.3109V71.7715V112.404H58.463Z" stroke="white" stroke-width="3" stroke-miterlimit="10"/>
<path d="M30.9475 75.2135C35.1402 75.2135 38.5391 71.805 38.5391 67.6004C38.5391 63.3958 35.1402 59.9873 30.9475 59.9873C26.7548 59.9873 23.356 63.3958 23.356 67.6004C23.356 71.805 26.7548 75.2135 30.9475 75.2135Z" stroke="white" stroke-width="3" stroke-miterlimit="10"/>
<path d="M46.4796 85.8306C46.4796 80.6094 39.4988 76.3799 30.8602 76.3799C22.2215 76.3799 15.2407 80.6094 15.2407 85.8306" stroke="white" stroke-width="3" stroke-miterlimit="10"/>
<path d="M69.8362 75.2135C74.0289 75.2135 77.4278 71.805 77.4278 67.6004C77.4278 63.3958 74.0289 59.9873 69.8362 59.9873C65.6435 59.9873 62.2446 63.3958 62.2446 67.6004C62.2446 71.805 65.6435 75.2135 69.8362 75.2135Z" stroke="white" stroke-width="3" stroke-miterlimit="10"/>
<path d="M85.3683 85.8306C85.3683 80.6094 78.3875 76.3799 69.7488 76.3799C61.1101 76.3799 54.1294 80.6094 54.1294 85.8306" stroke="white" stroke-width="3" stroke-miterlimit="10"/>
</svg>
