<?xml version="1.0" encoding="UTF-8"?>
<svg version="1.1" xmlns="http://www.w3.org/2000/svg" width="985" height="750">
<path d="M0 0 C7.24986535 6.31625789 12.82898264 13.36855787 18.45703125 21.140625 C21.33063071 18.36897142 23.82863621 15.48488336 26.26953125 12.328125 C44.90934277 -11.0656935 73.90772952 -25.14222727 103.37701416 -28.65565491 C137.57906288 -32.00545649 173.18149284 -26.48957846 200.83203125 -4.859375 C202.38397629 -3.53801946 203.92584205 -2.20472756 205.45703125 -0.859375 C206.26269531 -0.19679688 207.06835938 0.46578125 207.8984375 1.1484375 C230.96541717 20.71385688 243.80030792 50.38338451 246.45703125 80.140625 C248.20256312 115.9375073 239.25618317 148.35740257 215.14453125 175.390625 C192.26796888 200.01386021 159.34910943 210.77059352 126.45703125 212.140625 C94.3790159 212.67580469 64.57351607 204.3460653 39.45703125 184.140625 C33.91499569 189.15435437 30.21047057 195.29628717 26.18554688 201.54296875 C25.63447266 202.37441406 25.08339844 203.20585938 24.515625 204.0625 C23.77783813 205.20090332 23.77783813 205.20090332 23.02514648 206.36230469 C21.22110511 208.40817693 20.11880916 208.77992517 17.45703125 209.140625 C10.95813682 201.15563525 5.23251366 192.65241192 -0.54296875 184.140625 C-3.58316241 186.16285592 -6.61620045 188.19077481 -9.62890625 190.25390625 C-30.64311844 204.30497687 -54.35213537 211.07293405 -79.54296875 212.140625 C-80.38214844 212.181875 -81.22132813 212.223125 -82.0859375 212.265625 C-116.56546123 213.12093101 -148.44397521 201.73575817 -174.1015625 178.859375 C-188.83392571 164.76532908 -198.98490558 146.63884198 -204.54296875 127.140625 C-204.75324707 126.41520508 -204.96352539 125.68978516 -205.18017578 124.94238281 C-214.29556621 91.95953702 -208.53190761 56.77194974 -192.0234375 27.25 C-179.32630715 5.58212622 -160.17900875 -9.68964527 -137.54296875 -19.859375 C-136.475625 -20.34277344 -135.40828125 -20.82617188 -134.30859375 -21.32421875 C-90.14796156 -39.7618431 -36.15691396 -30.4152581 0 0 Z M-115.54296875 48.140625 C-116.14625 48.59566406 -116.74953125 49.05070312 -117.37109375 49.51953125 C-128.47139482 59.09479096 -132.57759809 75.27330955 -133.81640625 89.21875 C-134.40290022 106.09173037 -129.40860313 121.34176595 -118.16796875 133.765625 C-107.71263985 143.22520829 -96.8024357 147.52926133 -82.609375 147.35546875 C-68.14627905 146.34213082 -57.37252284 140.63999538 -47.54296875 130.140625 C-37.0141546 116.18487348 -33.8850606 98.37142423 -36.23046875 81.328125 C-38.87786913 67.08693675 -45.16195024 54.25436625 -57.109375 45.640625 C-75.34455902 34.40096101 -98.51871829 34.64659702 -115.54296875 48.140625 Z M86.70703125 52.828125 C76.06205064 65.83307773 72.69351697 82.29970294 73.671875 98.75390625 C75.06579567 110.68852223 78.96545901 121.67366307 86.45703125 131.140625 C86.93398438 131.75421875 87.4109375 132.3678125 87.90234375 133 C95.83137683 142.00483154 108.19845993 146.31966794 119.8359375 147.3515625 C132.28292007 147.87101924 144.42101185 144.05877216 153.96484375 136.03125 C165.28460501 125.19715507 170.6843202 111.51886168 171.66015625 95.88671875 C171.90994925 78.25549596 167.35231026 62.17712909 154.83984375 49.26171875 C151.01666876 45.85846626 147.07581762 43.33075375 142.45703125 41.140625 C141.74675781 40.80160156 141.03648437 40.46257812 140.3046875 40.11328125 C121.75485262 33.0389154 100.0812752 38.75151375 86.70703125 52.828125 Z " fill="#A8031A" transform="translate(473.54296875,322.859375)"/>
<path d="M0 0 C2 2 2 2 2.25 4.5 C2 7 2 7 0 9 C-7.17493742 8.71443035 -13.41397347 6.74962534 -20.1875 4.5 C-60.03437414 -8.18118652 -101.42630576 -15.22034014 -143 -19 C-144.12897705 -19.1045752 -145.2579541 -19.20915039 -146.42114258 -19.31689453 C-214.61093963 -24.75495667 -287.68720245 -17.24316388 -351.73046875 7.8125 C-355.11422775 9.04148774 -356.6510752 9.21779084 -360 8 C-361 7 -361 7 -361.43359375 4.24609375 C-361 1 -361 1 -358.59765625 -1.46484375 C-357.43630643 -2.31289761 -356.25592356 -3.13521019 -355.0625 -3.9375 C-354.07624634 -4.62694702 -354.07624634 -4.62694702 -353.07006836 -5.33032227 C-267.33663123 -64.05622736 -163.45828789 -79.45598733 0 0 Z " fill="#A8031A" transform="translate(672,277)"/>
</svg>
