<svg width="23" height="34" viewBox="0 0 23 34" fill="none" xmlns="http://www.w3.org/2000/svg">
<path d="M21.8227 0H1.14978C0.514774 0 0 0.514773 0 1.14978V32.3036C0 32.9386 0.514774 33.4533 1.14978 33.4533H21.8227C22.4577 33.4533 22.9724 32.9386 22.9724 32.3036V1.14978C22.9724 0.514773 22.4577 0 21.8227 0Z" fill="#B3322F"/>
<path d="M5.73043 3.80469H2.54688V6.98824H5.73043V3.80469Z" fill="white"/>
<path d="M13.0742 3.80469H9.89062V6.98824H13.0742V3.80469Z" fill="white"/>
<path d="M20.4179 3.80469H17.2344V6.98824H20.4179V3.80469Z" fill="white"/>
<path d="M5.73043 9.26953H2.54688V12.4531H5.73043V9.26953Z" fill="white"/>
<path d="M13.0742 9.26953H9.89062V12.4531H13.0742V9.26953Z" fill="white"/>
<path d="M20.4179 9.26953H17.2344V12.4531H20.4179V9.26953Z" fill="white"/>
<path d="M5.73043 14.4922H2.54688V17.6757H5.73043V14.4922Z" fill="white"/>
<path d="M13.0742 14.4922H9.89062V17.6757H13.0742V14.4922Z" fill="white"/>
<path d="M20.4179 14.4922H17.2344V17.6757H20.4179V14.4922Z" fill="white"/>
<path d="M5.73043 19.7148H2.54688V22.8984H5.73043V19.7148Z" fill="white"/>
<path d="M13.0742 19.7148H9.89062V22.8984H13.0742V19.7148Z" fill="white"/>
<path d="M20.4179 19.7148H17.2344V22.8984H20.4179V19.7148Z" fill="white"/>
</svg>
