<svg width="23" height="35" viewBox="0 0 23 35" fill="none" xmlns="http://www.w3.org/2000/svg">
<path d="M21.8383 0.822876H1.1654C0.530399 0.822876 0.015625 1.33765 0.015625 1.97265V33.1264C0.015625 33.7614 0.530399 34.2762 1.1654 34.2762H21.8383C22.4733 34.2762 22.9881 33.7614 22.9881 33.1264V1.97265C22.9881 1.33765 22.4733 0.822876 21.8383 0.822876Z" fill="white"/>
<path d="M5.74605 4.62756H2.5625V7.81112H5.74605V4.62756Z" fill="#B3322F"/>
<path d="M13.0898 4.62756H9.90625V7.81112H13.0898V4.62756Z" fill="#B3322F"/>
<path d="M20.4336 4.62756H17.25V7.81112H20.4336V4.62756Z" fill="#B3322F"/>
<path d="M5.74605 10.0934H2.5625V13.2769H5.74605V10.0934Z" fill="#B3322F"/>
<path d="M13.0898 10.0934H9.90625V13.2769H13.0898V10.0934Z" fill="#B3322F"/>
<path d="M20.4336 10.0934H17.25V13.2769H20.4336V10.0934Z" fill="#B3322F"/>
<path d="M5.74605 15.3164H2.5625V18.5H5.74605V15.3164Z" fill="#B3322F"/>
<path d="M13.0898 15.3164H9.90625V18.5H13.0898V15.3164Z" fill="#B3322F"/>
<path d="M20.4336 15.3164H17.25V18.5H20.4336V15.3164Z" fill="#B3322F"/>
<path d="M5.74605 20.5366H2.5625V23.7202H5.74605V20.5366Z" fill="#B3322F"/>
<path d="M13.0898 20.5366H9.90625V23.7202H13.0898V20.5366Z" fill="#B3322F"/>
<path d="M20.4336 20.5366H17.25V23.7202H20.4336V20.5366Z" fill="#B3322F"/>
</svg>
