<svg width="82" height="84" viewBox="0 0 82 84" fill="none" xmlns="http://www.w3.org/2000/svg">
<path d="M65.1075 0H3.25536C1.45735 0 0 1.68344 0 3.75995V62.5934C0 64.6701 1.45735 66.3533 3.25536 66.3533H49.4749L45.8982 61.5627H37.3554V55.5462H41.8311L41.7989 55.5007C40.6569 53.9953 39.9013 52.4397 39.5377 50.9422H7.81288V15.4107H60.5498V50.9422H53.4737C54.5478 52.2602 55.6717 53.5951 56.6152 54.6753C57.2766 53.9597 58.0565 53.1681 58.9307 52.3759C61.9089 49.6752 64.8059 48.0237 67.5411 47.4674C67.8159 47.4117 68.0903 47.3701 68.3632 47.3359V3.75995C68.3628 1.68344 66.9055 0 65.1075 0ZM22.7063 55.5462H31.0074V61.5623H22.7063V55.5462ZM8.05694 55.5462H16.3583V61.5623H8.05694V55.5462ZM16.3583 10.8065H8.05694V4.79058H16.3583V10.8065ZM31.0074 10.8065H22.7063V4.79058H31.0074V10.8065ZM45.6566 10.8065H37.3554V4.79058H45.6566V10.8065ZM60.3057 10.8065H52.0045V4.79058H60.3057V10.8065Z" fill="#B3322F"/>
<path d="M81.7655 66.6587C80.9569 61.6253 78.1834 56.9719 76.602 54.6452C74.4568 51.4889 71.7337 50.2212 68.5093 50.8775C66.2066 51.346 63.7042 52.7939 61.0711 55.1815C59.2108 56.869 57.8055 58.5576 57.1843 59.3437C55.6228 57.7901 51.2629 52.6012 49.1223 49.6753C48.0473 48.2061 45.2748 45.0813 43.2062 47.2383C40.9795 49.7383 44.2412 53.8225 44.3256 53.941L57.4108 72.4407C57.3578 72.5224 57.2987 72.5935 57.2311 72.6551C55.976 73.7935 52.3141 71.7019 50.8358 70.5729C49.4844 69.5413 47.2094 69.5492 46.0607 70.5904C45.601 71.0077 45.3462 71.5745 45.3436 72.1867C45.3399 73.0683 45.839 73.9792 46.8256 74.8924C46.8367 74.9028 46.8567 74.9227 46.8852 74.9511C48.3433 76.3941 52.2987 79.9878 57.5215 82.2003C60.8696 83.6187 64.1315 84.203 67.2179 83.9382C71.0459 83.6088 74.6125 81.9682 77.8191 79.0605C81.2585 75.9399 82.5864 71.7674 81.7655 66.6587Z" fill="#B3322F"/>
<path d="M30.9658 20.5416C30.4652 20.0565 29.7666 19.9512 29.1739 20.2703C28.5818 20.5894 28.2031 21.2759 28.2031 22.0307V42.5241C28.2031 43.2791 28.5816 43.9655 29.1739 44.2844C29.4011 44.4071 29.6439 44.4667 29.8852 44.4667C30.273 44.4667 30.657 44.3116 30.9658 44.0128L41.5524 33.7663C41.9339 33.397 42.1542 32.8515 42.1542 32.2769C42.1542 31.7023 41.9339 31.1568 41.5524 30.7878L30.9658 20.5416Z" fill="#B3322F"/>
</svg>
