<svg width="304" height="304" viewBox="0 0 304 304" fill="none" xmlns="http://www.w3.org/2000/svg">
<path d="M57.2557 163.508C58.6237 164.939 57.8389 166.598 57.811 168.14C57.5721 182.605 59.2535 194.057 64.4866 207.508C65.0046 208.842 66.869 212.121 66.9713 213.259C67.2195 215.995 63.4722 217.307 61.9305 215.325C60.913 214.016 59.2876 209.568 58.6082 207.812C53.797 195.391 51.3091 180.526 52.2397 167.169C52.3111 166.133 52.5127 164.29 53.2138 163.54C54.2623 162.42 56.2042 162.404 57.2557 163.505V163.508Z" fill="#B3322F"/>
<path d="M116.862 81.6147C119.998 81.0005 121.825 84.239 119.582 86.5128C107.686 90.8805 96.8133 97.2024 87.3737 105.652C85.8755 106.992 83.3256 110.566 81.2658 110.333C78.961 110.076 78.0521 107.548 79.3829 105.652C80.4097 104.191 83.7133 101.365 85.1961 100.081C92.3091 93.9018 100.66 88.5291 109.259 84.6609C111.12 83.8233 115.05 81.9683 116.865 81.6115L116.862 81.6147Z" fill="#B3322F"/>
<path d="M78.9959 156.02C75.7295 159.165 72.3048 162.162 69.088 165.366C66.1318 167.538 63.4764 163.207 61.4601 161.365C51.6204 152.372 31.4758 135.714 43.1891 121.06C49.1605 113.59 59.5151 112.442 67.3912 117.642C76.0459 111.779 87.7437 114.164 92.9861 123.3C100.093 135.686 87.1791 148.144 78.9959 156.02ZM49.3466 140.662C48.9775 140.935 54.6728 147.306 55.1536 147.812C58.0789 150.889 61.6617 154.184 64.8444 157.013C65.3252 157.441 67.1709 159.15 67.5835 159.041C72.0132 154.677 76.8958 150.722 81.0805 146.115C86.6983 139.936 93.8981 130.245 85.5474 122.983C81.6203 119.568 76.1545 119.056 71.6472 121.665C70.2668 122.462 69.0911 124.125 67.6362 124.205C65.5672 124.32 64.497 122.465 62.7909 121.519C53.8136 116.522 42.0506 125.012 46.1825 134.979L50.3145 134.973C51.4777 132.333 53.1156 129.755 56.1215 132.184C56.7636 130.208 57.0707 123.74 59.0932 122.921C60.6753 122.282 62.3225 122.89 63.0328 124.429L65.0895 135.816C65.7223 135.928 65.4648 135.726 65.5951 135.472C66.2465 134.191 66.3985 131.917 68.1667 131.511C71.2129 130.81 71.8271 133.279 72.5995 135.578C74.1164 134.6 76.3189 135.475 77.7551 135.044C78.4562 134.833 79.1572 133.617 80.73 133.418C87.3963 132.575 87.4707 142.625 81.2046 142.365C79.3527 142.287 77.3891 139.923 76.0335 140.714C75.7574 140.876 74.6469 143.302 74.1505 143.792C73.0586 144.871 70.9523 144.856 69.9287 143.692C69.4913 143.196 69.4696 142.418 68.9639 142.117C67.9434 144.245 67.3881 149.192 64.4411 149.298C60.4488 149.441 61.4725 142.532 60.1169 140.178C59.7819 146.512 54.4371 146.425 53.2242 140.516L49.3404 140.662H49.3466Z" fill="#B3322F"/>
<path d="M49.346 140.662L53.2297 140.516C54.4426 146.425 59.7906 146.512 60.1225 140.178C61.4781 142.529 60.4544 149.437 64.4467 149.298C67.3937 149.192 67.9458 144.245 68.9695 142.117C69.472 142.417 69.4968 143.196 69.9342 143.692C70.9579 144.859 73.0642 144.871 74.1561 143.792C74.6555 143.298 75.763 140.873 76.039 140.714C77.3946 139.923 79.3582 142.29 81.2102 142.365C87.4763 142.625 87.4018 132.572 80.7355 133.418C79.1628 133.617 78.4617 134.833 77.7607 135.044C76.3275 135.475 74.122 134.6 72.6051 135.577C71.8296 133.279 71.2154 130.813 68.1723 131.511C66.4072 131.917 66.2521 134.194 65.6007 135.472C65.4704 135.729 65.7279 135.928 65.095 135.816L63.0384 124.429C62.328 122.89 60.6808 122.282 59.0988 122.921C57.0763 123.74 56.7692 130.208 56.127 132.184C53.1212 129.755 51.4833 132.333 50.32 134.973L46.1881 134.979C42.0562 125.012 53.8191 116.522 62.7964 121.519C64.4995 122.468 65.5697 124.32 67.6418 124.205C69.0967 124.125 70.2724 122.462 71.6528 121.665C76.1631 119.059 81.6258 119.571 85.553 122.983C93.9037 130.245 86.7039 139.933 81.0861 146.115C76.8983 150.722 72.0157 154.677 67.5891 159.041C67.1734 159.15 65.3308 157.441 64.85 157.013C61.6642 154.183 58.0844 150.889 55.1592 147.812C54.6784 147.306 48.983 140.938 49.3522 140.662H49.346Z" fill="white"/>
<path d="M128.546 141.264C129.396 134.129 137.588 130.146 143.969 133.106C146.9 134.464 150.102 138.689 150.102 141.99V168.754C154.265 167.361 159.014 168.705 161.154 172.65C166 170.346 172.182 171.952 174.09 177.229C179.822 174.62 186.451 178.008 187.168 184.367V231.13C187.05 233.36 185.046 236.85 182.689 237.067L132.771 236.825L129.895 234.856L102.426 195.959C98.2201 188.133 106.726 184.677 113.336 185.775C120.561 186.976 123.759 192.382 128.543 197.091V141.261L128.546 141.264ZM134.48 231.49H181.228L181.591 231.127V184.379C181.591 183.647 180.012 182.295 179.236 182.133C172.989 180.837 175.489 188.486 174.695 191.529C174.025 194.095 169.828 193.983 169.294 191.346C168.667 188.244 169.663 183.57 169.217 180.281C168.85 177.58 165.689 176.143 163.583 177.998C161.083 180.201 163.707 184.987 161.617 187.174C160.326 188.524 157.537 187.987 156.991 186.206C156.027 183.073 159.002 173.705 153.371 173.82C148.005 173.928 151.498 180.508 149.143 182.692C147.121 184.568 144.23 182.862 144.276 180.266L144.226 141.559C142.53 135.876 134.65 136.664 134.101 142.7L133.928 205.746C131.4 209.223 129.532 206.77 127.448 204.601C124.966 202.017 122.788 199.064 120.313 196.477C116.625 192.621 112.542 189.541 106.968 192.147L107.263 193.059L134.477 231.484L134.48 231.49Z" fill="#B3322F"/>
<path d="M134.478 231.49L107.263 193.065L106.969 192.153C112.543 189.55 116.622 192.627 120.314 196.483C122.789 199.07 124.967 202.023 127.448 204.607C129.533 206.776 131.4 209.233 133.929 205.752L134.102 142.706C134.651 136.67 142.534 135.882 144.227 141.565L144.277 180.272C144.227 182.868 147.118 184.574 149.144 182.698C151.499 180.514 148.003 173.934 153.372 173.826C159.002 173.711 156.028 183.079 156.992 186.212C157.541 187.993 160.33 188.53 161.617 187.18C163.708 184.993 161.084 180.207 163.584 178.004C165.687 176.149 168.848 177.589 169.217 180.287C169.664 183.576 168.668 188.25 169.295 191.352C169.829 193.989 174.026 194.101 174.696 191.535C175.49 188.492 172.989 180.843 179.237 182.139C180.016 182.301 181.591 183.653 181.591 184.385V231.133L181.228 231.496H134.481L134.478 231.49Z" fill="white"/>
<path d="M184.408 241.265C185.521 242.313 186.936 244.882 187.137 246.408C187.423 248.592 187.383 256.645 186.725 258.549C185.5 262.101 181.982 264.393 178.328 264.685C165.743 265.681 151.83 263.944 139.105 264.651C130.063 263.162 130.404 254.43 130.953 247.106C131.282 242.723 134.946 239.127 139.31 238.752C151.911 237.666 166.047 239.59 178.808 238.752C180.685 238.913 183.04 239.98 184.408 241.268V241.265ZM180.536 258.05C180.871 257.715 181.495 256.539 181.572 256.058C181.796 254.641 181.796 248.79 181.572 247.369C181.33 245.815 179.987 244.702 178.501 244.385L140.045 244.326C138.643 244.444 136.906 245.49 136.584 246.923C136.329 248.058 136.363 255.044 136.59 256.26C136.971 258.313 138.926 258.984 140.762 259.114C152.761 259.958 165.736 258.453 177.841 259.114C178.681 259.086 179.944 258.642 180.533 258.053L180.536 258.05Z" fill="#B3322F"/>
<path d="M180.533 258.05C179.944 258.639 178.682 259.08 177.841 259.111C165.737 258.45 152.761 259.958 140.762 259.111C138.926 258.98 136.972 258.31 136.59 256.257C136.364 255.041 136.329 248.052 136.584 246.92C136.903 245.49 138.644 244.441 140.046 244.323L178.502 244.382C179.988 244.699 181.331 245.812 181.573 247.366C181.796 248.787 181.796 254.638 181.573 256.055C181.495 256.536 180.875 257.712 180.537 258.047L180.533 258.05Z" fill="white"/>
<path d="M140.54 55.3994C136.597 54.9 132.791 51.1341 130.93 47.8118C128.818 44.0367 128.631 42.3305 133.204 41.0401C138.39 39.579 144.684 40.1126 148.047 44.7408C149.359 43.0285 151.943 39.7744 154.341 39.883C155.808 39.9482 157.288 41.5488 157.037 43.0533C156.714 44.9704 155.722 44.7873 154.589 45.7149C151.394 48.3268 149.666 55.0706 150.352 59.0319C150.944 59.0443 151.543 59.066 152.136 59.004C157.837 58.4177 160.03 53.2032 166.448 58.3122C178.863 68.1922 168.53 100.289 152.402 98.5147C151.304 98.3937 149.424 97.3204 148.77 97.3204C148.28 97.3204 146.418 98.3627 145.354 98.4868C132.953 99.9447 124.999 81.4225 125.629 71.2509C125.964 65.8223 128.473 58.6287 134.051 56.662C138.772 54.9962 140.332 57.8376 144.532 58.7869V55.3963C143.264 55.2816 141.769 55.5514 140.537 55.3963L140.54 55.3994ZM140.056 45.9537C139.008 45.7924 137.637 46.0716 136.545 45.9537C137.007 47.0798 138.108 48.2027 139.132 48.8169C140.553 49.67 142.594 50.2252 144.207 49.6141C144.393 49.5428 144.7 49.6575 144.532 49.2295C144.036 47.9545 141.384 46.1584 140.056 45.9537ZM136.703 61.7679C133.024 61.9509 131.327 69.1104 131.206 71.9798C130.958 77.9482 136.138 92.0531 142.981 92.9217C146.08 93.3157 146.533 91.1784 148.531 90.9953C150.681 90.7999 151.307 92.8224 153.612 92.9558C158.637 93.2443 162.782 86.1407 164.342 82.108C166.433 76.6949 167.37 71.4897 165.13 65.9309C164.51 64.3891 162.763 61.6842 160.88 61.7245C160.486 61.7338 157.53 63.3872 156.59 63.7005C152.16 65.1895 144.467 65.0654 140.112 63.3344C139.256 62.9932 137.398 61.7338 136.703 61.7679Z" fill="#B3322F"/>
<path d="M136.701 61.7679C137.399 61.7338 139.254 62.9932 140.11 63.3345C144.468 65.0654 152.158 65.1895 156.588 63.7005C157.525 63.3841 160.484 61.7307 160.878 61.7245C162.761 61.6873 164.508 64.3892 165.128 65.9309C167.368 71.4897 166.431 76.695 164.34 82.108C162.783 86.1407 158.635 93.2412 153.61 92.9559C151.308 92.8256 150.682 90.7999 148.529 90.9954C146.528 91.1784 146.078 93.3157 142.979 92.9217C136.133 92.0532 130.953 77.9482 131.204 71.9798C131.325 69.1105 133.022 61.9478 136.701 61.7679ZM137.203 66.1108C134.154 66.7374 134.548 72.0016 134.917 74.3405C135.451 77.7434 138.317 86.4602 141.152 88.4517C143.64 90.1981 146.807 87.5955 145.222 84.6238C143.131 80.7059 140.851 78.0878 140.42 73.1959C140.265 71.4184 140.966 68.9274 140.296 67.5067C139.75 66.3465 138.46 65.8502 137.203 66.1108Z" fill="white"/>
<path d="M140.058 45.954C141.386 46.1587 144.038 47.9548 144.535 49.2297C144.702 49.6578 144.395 49.543 144.209 49.6144C142.593 50.2255 140.555 49.6702 139.134 48.8171C138.11 48.2029 137.009 47.08 136.547 45.954C137.639 46.0718 139.01 45.7927 140.058 45.954Z" fill="white"/>
<path d="M137.206 66.1109C138.465 65.8534 139.752 66.3497 140.298 67.5068C140.965 68.9275 140.267 71.4185 140.422 73.1959C140.854 78.0878 143.134 80.706 145.224 84.6238C146.813 87.5956 143.642 90.1982 141.155 88.4518C138.319 86.4603 135.453 77.7466 134.919 74.3406C134.553 71.9985 134.156 66.7375 137.206 66.1109Z" fill="#B3322F"/>
<path d="M217.768 105.212C221.59 109.089 225.427 113.321 228.443 117.912C229.646 119.748 231.585 122.019 229.078 123.833C225.945 126.101 223.904 121.113 222.384 119.128C212.7 106.474 201.194 96.6502 186.605 89.9933C184.53 89.0471 179.716 87.6171 178.22 86.5097C175.962 84.8377 177.395 81.0935 180.693 81.6177C182.641 81.9248 187.055 84.0032 189.028 84.9059C199.792 89.8444 209.486 96.8053 217.772 105.209L217.768 105.212Z" fill="#B3322F"/>
<path d="M242.079 168.568C243.367 168.304 244.766 168.86 245.268 170.113C245.777 171.379 245.616 175.979 245.544 177.607C245.073 188.632 242.101 201.502 237.584 211.55C237.113 212.602 236.365 214.649 235.615 215.393C233.974 217.028 231.129 216.209 230.806 213.864C230.62 212.509 233.211 207.564 233.85 205.879C237.383 196.57 239.38 186.83 239.961 176.869C240.103 174.431 238.955 169.21 242.079 168.571V168.568Z" fill="#B3322F"/>
<path d="M246.03 124.429C248.145 123.467 249.246 122.261 251.694 123.244C254.141 124.227 255.851 129.051 257.191 131.195C261.05 129.56 263.724 133.772 260.299 136.192C262.253 140.603 268.101 146.28 260.817 149.159C261.372 151.299 261.94 152.785 260.516 154.789C259.924 155.623 255.267 158.393 254.216 158.66C252.271 159.15 250.655 158.539 249.355 157.072L243.238 146.472L242.797 146.258L228.621 154.584L235.014 165.847C235.895 169.492 233.441 170.972 230.69 172.436C227.529 174.118 224.905 175.026 222.64 171.409C219.963 173.106 217.336 173.807 215.161 170.926C214.472 170.014 212.034 165.004 211.637 164.752C210.899 164.287 209.174 165.807 207.632 163.921C206.209 162.181 207.245 160.652 208.454 159.234C206.997 155.961 202.489 151.922 205.34 148.293C206.137 147.282 207.242 147.269 207.977 146.305C207.071 143.938 207.111 141.754 209.233 140.073C210.167 139.331 214.082 137.144 215.149 137.03C216.774 136.853 218.362 137.306 219.346 138.646L225.801 149.599L240.216 141.255L233.792 130.013C232.802 126.144 235.939 124.429 238.845 122.94C241.724 121.467 244.435 121.054 246.036 124.432L246.03 124.429ZM241.622 127.699L239.534 128.902L253.347 152.838L255.435 151.634L241.622 127.699ZM249.597 128.794L248.918 129.181L257.662 144.546L258.342 144.158L249.597 128.794ZM215.462 142.914L213.303 144.158L227.051 168.022L229.21 166.778L215.462 142.914ZM211.023 151.11L210.393 151.473L219.212 166.744L219.842 166.381L211.023 151.11Z" fill="#B3322F"/>
<path d="M215.463 142.901L213.305 144.145L227.054 168.007L229.212 166.763L215.463 142.901Z" fill="white"/>
<path d="M241.619 127.71L239.531 128.915L253.345 152.851L255.433 151.646L241.619 127.71Z" fill="white"/>
<path d="M249.601 128.812L248.922 129.198L257.665 144.564L258.344 144.177L249.601 128.812Z" fill="white"/>
<path d="M211.022 151.126L210.391 151.491L219.208 166.763L219.839 166.399L211.022 151.126Z" fill="white"/>
</svg>
