<svg width="149" height="105" viewBox="0 0 149 105" fill="none" xmlns="http://www.w3.org/2000/svg">
<path d="M0 65.33C0 44.43 15.29 25.58 40.49 25.58C65.69 25.58 80.98 44.44 80.98 65.33C80.98 86.22 65.92 104.36 40.42 104.36C14.92 104.36 0 86.23 0 65.33ZM56.7 65.33C56.7 55.5 50.86 47.35 40.41 47.35C29.96 47.35 24.43 55.49 24.43 65.33C24.43 75.17 30.12 83.46 40.41 83.46C50.7 83.46 56.7 75.32 56.7 65.33Z" fill="#C32026"/>
<path d="M67.8984 65.32C67.8984 44.42 83.0584 25.73 108.248 25.73C133.438 25.73 148.868 44.42 148.868 65.32C148.868 86.22 133.808 104.35 108.308 104.35C82.8084 104.35 67.8984 86.22 67.8984 65.32ZM124.598 65.32C124.598 55.49 118.758 47.34 108.308 47.34C97.8584 47.34 92.3284 55.48 92.3284 65.32C92.3284 75.16 98.0184 83.45 108.308 83.45C118.598 83.45 124.598 75.31 124.598 65.32Z" fill="#C32026"/>
<path d="M74.6793 103.51L89.3193 82.9C89.4693 82.69 89.3193 82.39 89.0593 82.39H59.7693C59.5093 82.39 59.3493 82.69 59.5093 82.9L74.1493 103.51C74.2793 103.69 74.5493 103.69 74.6793 103.51Z" fill="#C32026"/>
<path d="M15.6412 20.39C32.6512 7.71998 78.8812 -18.39 133.181 20.49C134.451 21.4 133.431 23.39 131.951 22.89C113.031 16.46 65.7412 4.33998 16.9312 22.76C15.4612 23.32 14.3812 21.33 15.6412 20.39Z" fill="#C32026"/>
<path d="M0 65.33C0 44.43 15.29 25.58 40.49 25.58C65.69 25.58 80.98 44.44 80.98 65.33C80.98 86.22 65.92 104.36 40.42 104.36C14.92 104.36 0 86.23 0 65.33ZM56.7 65.33C56.7 55.5 50.86 47.35 40.41 47.35C29.96 47.35 24.43 55.49 24.43 65.33C24.43 75.17 30.12 83.46 40.41 83.46C50.7 83.46 56.7 75.32 56.7 65.33Z" fill="#C32026"/>
<path d="M67.8984 65.32C67.8984 44.42 83.0584 25.73 108.248 25.73C133.438 25.73 148.868 44.42 148.868 65.32C148.868 86.22 133.808 104.35 108.308 104.35C82.8084 104.35 67.8984 86.22 67.8984 65.32ZM124.598 65.32C124.598 55.49 118.758 47.34 108.308 47.34C97.8584 47.34 92.3284 55.48 92.3284 65.32C92.3284 75.16 98.0184 83.45 108.308 83.45C118.598 83.45 124.598 75.31 124.598 65.32Z" fill="#C32026"/>
<path d="M74.6793 103.51L89.3193 82.9C89.4693 82.69 89.3193 82.39 89.0593 82.39H59.7693C59.5093 82.39 59.3493 82.69 59.5093 82.9L74.1493 103.51C74.2793 103.69 74.5493 103.69 74.6793 103.51Z" fill="#C32026"/>
<path d="M15.6412 20.39C32.6512 7.71998 78.8812 -18.39 133.181 20.49C134.451 21.4 133.431 23.39 131.951 22.89C113.031 16.46 65.7412 4.33998 16.9312 22.76C15.4612 23.32 14.3812 21.33 15.6412 20.39Z" fill="#C32026"/>
<path d="M41.1397 66.76C41.1397 61.13 37.7997 56.47 31.8197 56.47C25.8397 56.47 22.6797 61.13 22.6797 66.76C22.6797 72.39 25.9297 77.14 31.8197 77.14C37.7097 77.14 41.1397 72.48 41.1397 66.76Z" fill="#C32026"/>
<path d="M107.749 66.76C107.749 61.13 104.409 56.47 98.4291 56.47C92.4491 56.47 89.2891 61.13 89.2891 66.76C89.2891 72.39 92.5391 77.14 98.4291 77.14C104.319 77.14 107.749 72.48 107.749 66.76Z" fill="#C32026"/>
<path d="M15.6412 20.39C32.6512 7.71998 78.8812 -18.39 133.181 20.49C134.451 21.4 133.431 23.39 131.951 22.89C113.031 16.46 65.7412 4.33998 16.9312 22.76C15.4612 23.32 14.3812 21.33 15.6412 20.39Z" fill="#C32026"/>
<path d="M133.202 20.39C116.192 7.71998 69.9616 -18.39 15.6616 20.49C14.3916 21.4 15.4116 23.39 16.8916 22.89C35.8116 16.46 83.1017 4.33998 131.912 22.76C133.382 23.32 134.462 21.33 133.202 20.39Z" fill="#C32026"/>
</svg>
