<svg width="150" height="105" viewBox="0 0 150 105" fill="none" xmlns="http://www.w3.org/2000/svg">
<path d="M0.320312 65.33C0.320312 44.43 15.6103 25.58 40.8103 25.58C66.0103 25.58 81.3003 44.44 81.3003 65.33C81.3003 86.22 66.2403 104.36 40.7403 104.36C15.2403 104.36 0.330322 86.23 0.330322 65.33H0.320312ZM57.0203 65.33C57.0203 55.5 51.1803 47.35 40.7303 47.35C30.2803 47.35 24.7503 55.49 24.7503 65.33C24.7503 75.17 30.4403 83.46 40.7303 83.46C51.0203 83.46 57.0203 75.32 57.0203 65.33Z" fill="#C32026"/>
<path d="M68.2188 65.32C68.2188 44.42 83.3788 25.73 108.569 25.73C133.759 25.73 149.189 44.42 149.189 65.32C149.189 86.22 134.129 104.35 108.629 104.35C83.1288 104.35 68.2188 86.22 68.2188 65.32ZM124.919 65.32C124.919 55.49 119.079 47.34 108.629 47.34C98.1788 47.34 92.6488 55.48 92.6488 65.32C92.6488 75.16 98.3388 83.45 108.629 83.45C118.919 83.45 124.919 75.31 124.919 65.32Z" fill="#C32026"/>
<path d="M75.0113 103.51L89.6513 82.9C89.8013 82.69 89.6513 82.39 89.3913 82.39H60.1013C59.8413 82.39 59.6813 82.69 59.8413 82.9L74.4813 103.51C74.6113 103.69 74.8813 103.69 75.0113 103.51Z" fill="#C32026"/>
<path d="M15.9615 20.39C32.9715 7.71998 79.2015 -18.39 133.502 20.49C134.772 21.4 133.752 23.39 132.272 22.89C113.352 16.46 66.0615 4.33998 17.2515 22.76C15.7815 23.32 14.7015 21.33 15.9615 20.39Z" fill="#C32026"/>
<path d="M0.320312 65.33C0.320312 44.43 15.6103 25.58 40.8103 25.58C66.0103 25.58 81.3003 44.44 81.3003 65.33C81.3003 86.22 66.2403 104.36 40.7403 104.36C15.2403 104.36 0.330322 86.23 0.330322 65.33H0.320312ZM57.0203 65.33C57.0203 55.5 51.1803 47.35 40.7303 47.35C30.2803 47.35 24.7503 55.49 24.7503 65.33C24.7503 75.17 30.4403 83.46 40.7303 83.46C51.0203 83.46 57.0203 75.32 57.0203 65.33Z" fill="#C32026"/>
<path d="M68.2188 65.32C68.2188 44.42 83.3788 25.73 108.569 25.73C133.759 25.73 149.189 44.42 149.189 65.32C149.189 86.22 134.129 104.35 108.629 104.35C83.1288 104.35 68.2188 86.22 68.2188 65.32ZM124.919 65.32C124.919 55.49 119.079 47.34 108.629 47.34C98.1788 47.34 92.6488 55.48 92.6488 65.32C92.6488 75.16 98.3388 83.45 108.629 83.45C118.919 83.45 124.919 75.31 124.919 65.32Z" fill="#C32026"/>
<path d="M75.0113 103.51L89.6513 82.9C89.8013 82.69 89.6513 82.39 89.3913 82.39H60.1013C59.8413 82.39 59.6813 82.69 59.8413 82.9L74.4813 103.51C74.6113 103.69 74.8813 103.69 75.0113 103.51Z" fill="#C32026"/>
<path d="M15.9615 20.39C32.9715 7.71998 79.2015 -18.39 133.502 20.49C134.772 21.4 133.752 23.39 132.272 22.89C113.352 16.46 66.0615 4.33998 17.2515 22.76C15.7815 23.32 14.7015 21.33 15.9615 20.39Z" fill="#C32026"/>
<path d="M49.46 76.76C49.46 71.13 46.12 66.47 40.14 66.47C34.16 66.47 31 71.13 31 76.76C31 82.39 34.25 87.14 40.14 87.14C46.03 87.14 49.46 82.48 49.46 76.76Z" fill="#C32026"/>
<path d="M116.069 76.76C116.069 71.13 112.729 66.47 106.749 66.47C100.769 66.47 97.6094 71.13 97.6094 76.76C97.6094 82.39 100.859 87.14 106.749 87.14C112.639 87.14 116.069 82.48 116.069 76.76Z" fill="#C32026"/>
<path d="M15.9615 20.39C32.9715 7.71998 79.2015 -18.39 133.502 20.49C134.772 21.4 133.752 23.39 132.272 22.89C113.352 16.46 66.0615 4.33998 17.2515 22.76C15.7815 23.32 14.7015 21.33 15.9615 20.39Z" fill="#C32026"/>
<path d="M133.522 20.39C116.512 7.71998 70.2819 -18.39 15.9819 20.49C14.7119 21.4 15.732 23.39 17.212 22.89C36.132 16.46 83.422 4.33998 132.232 22.76C133.702 23.32 134.782 21.33 133.522 20.39Z" fill="#C32026"/>
</svg>
