<svg width="150" height="105" viewBox="0 0 150 105" fill="none" xmlns="http://www.w3.org/2000/svg">
<path d="M0.769531 65.33C0.769531 44.43 16.0595 25.58 41.2595 25.58C66.4595 25.58 81.7495 44.44 81.7495 65.33C81.7495 86.22 66.6895 104.36 41.1895 104.36C15.6895 104.36 0.779526 86.23 0.779526 65.33H0.769531ZM57.4695 65.33C57.4695 55.5 51.6295 47.35 41.1795 47.35C30.7295 47.35 25.1995 55.49 25.1995 65.33C25.1995 75.17 30.8895 83.46 41.1795 83.46C51.4695 83.46 57.4695 75.32 57.4695 65.33Z" fill="#C32026"/>
<path d="M68.668 65.32C68.668 44.42 83.8279 25.73 109.018 25.73C134.208 25.73 149.638 44.42 149.638 65.32C149.638 86.22 134.578 104.35 109.078 104.35C83.5779 104.35 68.668 86.22 68.668 65.32ZM125.368 65.32C125.368 55.49 119.528 47.34 109.078 47.34C98.6279 47.34 93.098 55.48 93.098 65.32C93.098 75.16 98.7879 83.45 109.078 83.45C119.368 83.45 125.368 75.31 125.368 65.32Z" fill="#C32026"/>
<path d="M75.4605 103.51L90.1005 82.9C90.2505 82.69 90.1005 82.39 89.8405 82.39H60.5505C60.2905 82.39 60.1305 82.69 60.2905 82.9L74.9305 103.51C75.0605 103.69 75.3305 103.69 75.4605 103.51Z" fill="#C32026"/>
<path d="M16.4107 20.39C33.4207 7.71998 79.6508 -18.39 133.951 20.49C135.221 21.4 134.201 23.39 132.721 22.89C113.801 16.46 66.5107 4.33998 17.7007 22.76C16.2307 23.32 15.1507 21.33 16.4107 20.39Z" fill="#C32026"/>
<path d="M0.769531 65.33C0.769531 44.43 16.0595 25.58 41.2595 25.58C66.4595 25.58 81.7495 44.44 81.7495 65.33C81.7495 86.22 66.6895 104.36 41.1895 104.36C15.6895 104.36 0.779526 86.23 0.779526 65.33H0.769531ZM57.4695 65.33C57.4695 55.5 51.6295 47.35 41.1795 47.35C30.7295 47.35 25.1995 55.49 25.1995 65.33C25.1995 75.17 30.8895 83.46 41.1795 83.46C51.4695 83.46 57.4695 75.32 57.4695 65.33Z" fill="#C32026"/>
<path d="M68.668 65.32C68.668 44.42 83.8279 25.73 109.018 25.73C134.208 25.73 149.638 44.42 149.638 65.32C149.638 86.22 134.578 104.35 109.078 104.35C83.5779 104.35 68.668 86.22 68.668 65.32ZM125.368 65.32C125.368 55.49 119.528 47.34 109.078 47.34C98.6279 47.34 93.098 55.48 93.098 65.32C93.098 75.16 98.7879 83.45 109.078 83.45C119.368 83.45 125.368 75.31 125.368 65.32Z" fill="#C32026"/>
<path d="M75.4605 103.51L90.1005 82.9C90.2505 82.69 90.1005 82.39 89.8405 82.39H60.5505C60.2905 82.39 60.1305 82.69 60.2905 82.9L74.9305 103.51C75.0605 103.69 75.3305 103.69 75.4605 103.51Z" fill="#C32026"/>
<path d="M16.4107 20.39C33.4207 7.71998 79.6508 -18.39 133.951 20.49C135.221 21.4 134.201 23.39 132.721 22.89C113.801 16.46 66.5107 4.33998 17.7007 22.76C16.2307 23.32 15.1507 21.33 16.4107 20.39Z" fill="#C32026"/>
<path d="M49.9092 56.76C49.9092 51.13 46.5692 46.47 40.5892 46.47C34.6092 46.47 31.4492 51.13 31.4492 56.76C31.4492 62.39 34.6992 67.14 40.5892 67.14C46.4792 67.14 49.9092 62.48 49.9092 56.76Z" fill="#C32026"/>
<path d="M116.519 56.76C116.519 51.13 113.179 46.47 107.199 46.47C101.219 46.47 98.0586 51.13 98.0586 56.76C98.0586 62.39 101.309 67.14 107.199 67.14C113.089 67.14 116.519 62.48 116.519 56.76Z" fill="#C32026"/>
<path d="M16.4107 20.39C33.4207 7.71998 79.6508 -18.39 133.951 20.49C135.221 21.4 134.201 23.39 132.721 22.89C113.801 16.46 66.5107 4.33998 17.7007 22.76C16.2307 23.32 15.1507 21.33 16.4107 20.39Z" fill="#C32026"/>
<path d="M133.971 20.39C116.961 7.71998 70.7312 -18.39 16.4312 20.49C15.1612 21.4 16.1812 23.39 17.6612 22.89C36.5812 16.46 83.8712 4.33998 132.681 22.76C134.151 23.32 135.231 21.33 133.971 20.39Z" fill="#C32026"/>
</svg>
