<svg width="150" height="105" viewBox="0 0 150 105" fill="none" xmlns="http://www.w3.org/2000/svg">
<path d="M109.009 104.36C83.4992 104.36 68.4492 86.23 68.4492 65.33C68.4492 44.43 83.4292 25.58 108.939 25.58C134.139 25.58 149.429 44.44 149.429 65.33C149.429 86.23 134.219 104.36 109.019 104.36H109.009ZM109.009 83.46C119.299 83.46 124.989 75.32 124.989 65.33C124.989 55.5 119.299 47.35 109.009 47.35C98.7192 47.35 92.7192 55.49 92.7192 65.33C92.7192 75.32 98.5592 83.46 109.009 83.46Z" fill="#C32026"/>
<path d="M41.1108 104.35C15.6008 104.35 0.550781 86.22 0.550781 65.32C0.550781 44.42 15.6608 25.73 41.1708 25.73C66.3708 25.73 81.5208 44.42 81.5208 65.32C81.5208 86.22 66.3108 104.35 41.1108 104.35ZM41.1108 83.45C51.4008 83.45 57.0908 75.31 57.0908 65.32C57.0908 55.49 51.4008 47.34 41.1108 47.34C30.6608 47.34 24.8208 55.48 24.8208 65.32C24.8208 75.31 30.6608 83.45 41.1108 83.45Z" fill="#C32026"/>
<path d="M74.7426 103.51L60.1026 82.9C59.9526 82.69 60.1026 82.39 60.3626 82.39H89.6526C89.9126 82.39 90.0726 82.69 89.9126 82.9L75.2726 103.51C75.1426 103.69 74.8726 103.69 74.7426 103.51Z" fill="#C32026"/>
<path d="M133.791 20.39C116.781 7.71998 70.5515 -18.39 16.2515 20.49C14.9815 21.4 16.0015 23.39 17.4815 22.89C36.4015 16.46 83.6915 4.33998 132.501 22.76C133.971 23.32 135.051 21.33 133.791 20.39Z" fill="#C32026"/>
<path d="M109.009 104.36C83.4992 104.36 68.4492 86.23 68.4492 65.33C68.4492 44.43 83.4292 25.58 108.939 25.58C134.139 25.58 149.429 44.44 149.429 65.33C149.429 86.23 134.219 104.36 109.019 104.36H109.009ZM109.009 83.46C119.299 83.46 124.989 75.32 124.989 65.33C124.989 55.5 119.299 47.35 109.009 47.35C98.7192 47.35 92.7192 55.49 92.7192 65.33C92.7192 75.32 98.5592 83.46 109.009 83.46Z" fill="#C32026"/>
<path d="M41.1108 104.35C15.6008 104.35 0.550781 86.22 0.550781 65.32C0.550781 44.42 15.6608 25.73 41.1708 25.73C66.3708 25.73 81.5208 44.42 81.5208 65.32C81.5208 86.22 66.3108 104.35 41.1108 104.35ZM41.1108 83.45C51.4008 83.45 57.0908 75.31 57.0908 65.32C57.0908 55.49 51.4008 47.34 41.1108 47.34C30.6608 47.34 24.8208 55.48 24.8208 65.32C24.8208 75.31 30.6608 83.45 41.1108 83.45Z" fill="#C32026"/>
<path d="M74.7426 103.51L60.1026 82.9C59.9526 82.69 60.1026 82.39 60.3626 82.39H89.6526C89.9126 82.39 90.0726 82.69 89.9126 82.9L75.2726 103.51C75.1426 103.69 74.8726 103.69 74.7426 103.51Z" fill="#C32026"/>
<path d="M133.791 20.39C116.781 7.71998 70.5515 -18.39 16.2515 20.49C14.9815 21.4 16.0015 23.39 17.4815 22.89C36.4015 16.46 83.6915 4.33998 132.501 22.76C133.971 23.32 135.051 21.33 133.791 20.39Z" fill="#C32026"/>
<path d="M117.609 77.14C123.499 77.14 126.749 72.48 126.749 66.76C126.749 61.13 123.499 56.47 117.609 56.47C111.629 56.47 108.289 61.13 108.289 66.76C108.289 72.48 111.629 77.14 117.609 77.14Z" fill="#C32026"/>
<path d="M50.9919 77.14C56.8819 77.14 60.1319 72.48 60.1319 66.76C60.1319 61.13 56.8819 56.47 50.9919 56.47C45.0119 56.47 41.6719 61.13 41.6719 66.76C41.6719 72.48 45.0119 77.14 50.9919 77.14Z" fill="#C32026"/>
<path d="M133.791 20.39C116.781 7.71998 70.5515 -18.39 16.2515 20.49C14.9815 21.4 16.0015 23.39 17.4815 22.89C36.4015 16.46 83.6915 4.33998 132.501 22.76C133.971 23.32 135.051 21.33 133.791 20.39Z" fill="#C32026"/>
<path d="M16.2193 20.39C33.2293 7.71998 79.4593 -18.39 133.759 20.49C135.029 21.4 134.009 23.39 132.529 22.89C113.609 16.46 66.3193 4.33998 17.5093 22.76C16.0393 23.32 14.9593 21.33 16.2193 20.39Z" fill="#C32026"/>
</svg>
