<svg width="13" height="18" viewBox="0 0 13 18" fill="none" xmlns="http://www.w3.org/2000/svg">
<path d="M5.43066 1.21936C7.89195 0.715808 9.91461 1.45116 11.1318 2.83948C12.3496 4.22862 12.8223 6.34154 12.0371 8.71936C12.036 8.72202 12.0325 8.73247 12.0234 8.75256C12.012 8.77785 11.9956 8.81107 11.9746 8.85315C11.9325 8.93746 11.8742 9.04834 11.8018 9.18225C11.6572 9.44952 11.4605 9.80108 11.2266 10.2086C10.7586 11.0238 10.1476 12.0561 9.52832 13.0729C8.90868 14.0902 8.28284 15.0882 7.7832 15.8365C7.53286 16.2115 7.31861 16.5168 7.15527 16.7291C7.08367 16.8222 7.02524 16.8892 6.9834 16.9352C6.94798 16.9368 6.92796 16.9344 6.91797 16.9313C6.89977 16.9256 6.8717 16.912 6.82812 16.8678C6.78049 16.8195 6.73036 16.7508 6.66309 16.6481L6.43457 16.3043H6.43359C6.02204 15.7444 4.82742 13.8215 3.70605 11.8854C3.14804 10.9219 2.61385 9.96592 2.21094 9.18616C2.00926 8.79585 1.84316 8.45489 1.72363 8.18225C1.6601 8.03732 1.61506 7.92353 1.58496 7.8385L1.53516 7.66663V7.66565L1.5 7.39514C1.20441 4.69827 2.55532 1.97371 5.15137 1.276L5.43066 1.21936ZM11.1055 3.82971C9.21577 0.718051 4.71088 0.667306 2.79004 3.82385L2.60645 4.15002V4.151C2.06109 5.209 1.91443 6.20498 2.04102 7.15393C2.16615 8.09174 2.55433 8.95428 3.0293 9.75842C3.5007 10.5565 4.08487 11.3392 4.60938 12.0856C5.14364 12.8458 5.62565 13.5812 5.95117 14.3375L6.04297 14.5504L6.26562 14.6188L7.28516 14.9283L7.93066 15.1246V14.5289C8.20606 13.748 8.65176 13.0015 9.16602 12.2428C9.68071 11.4834 10.293 10.6715 10.7812 9.87366C11.2783 9.06133 11.6969 8.19025 11.8418 7.23596C11.9794 6.32926 11.8659 5.37574 11.3867 4.35608L11.2852 4.15198V4.151L11.1055 3.82971Z" fill="black" stroke="black"/>
<path d="M6.9475 8.55003C8.05759 8.55003 8.9575 7.65012 8.9575 6.54003C8.9575 5.42994 8.05759 4.53003 6.9475 4.53003C5.83741 4.53003 4.9375 5.42994 4.9375 6.54003C4.9375 7.65012 5.83741 8.55003 6.9475 8.55003Z" fill="black"/>
</svg>
