<svg width="141" height="141" viewBox="0 0 141 141" fill="none" xmlns="http://www.w3.org/2000/svg">
<path d="M64.2542 8.76597C66.4765 9.26905 68.0746 9.26262 70.3126 10.1266C73.6193 11.4035 82.5768 18.3764 84.3955 18.6504C88.9078 19.336 93.917 16.1405 99.6168 17.9055C107.106 20.2336 109.168 27.527 109.73 34.6056C117.258 39.6339 127.37 42.7898 130.934 51.8102L139.069 110.24C138.237 117.616 134.653 122.351 127.785 125.174L31.1226 138.633C23.8002 137.941 18.959 134.085 16.1886 127.349L8.05337 68.9189C9.00903 59.2693 17.8824 53.47 23.751 46.5765C22.358 39.6136 22.3486 32.0345 28.9174 27.749C33.9172 24.4857 39.6099 26.1997 43.7633 24.3076C45.438 23.5472 52.1585 14.3915 54.9822 12.261L60.4385 9.29722L64.2626 8.76478L64.2542 8.76597ZM74.7446 20.1065C66.6571 12.6149 59.1784 13.6561 53.4449 23.072L74.7446 20.1065ZM33.3876 32.1053C30.7564 33.5693 29.0566 35.9496 28.9959 39.0525L34.4998 78.2107L57.5534 92.3744C59.0476 92.6764 64.105 86.4749 66.1592 85.2122C70.6268 82.4725 74.8577 81.9439 79.8682 83.4764C83.3174 84.5347 86.0195 87.3047 89.3874 88.0891L107.898 68.3804L102.731 29.2875C101.924 26.1586 99.9426 24.3427 96.9229 23.3889L33.378 32.098L33.3876 32.1053ZM27.6864 73.9732L24.9487 54.31C23.1307 56.214 14.4501 64.3288 14.9205 66.5279L27.6853 73.9647L27.6864 73.9732ZM110.691 42.3806L113.429 62.0438L123.677 51.403C123.529 49.159 112.961 43.7241 110.692 42.3891L110.691 42.3806ZM14.8254 73.5424L22.087 125.698C22.113 125.884 23.6686 128.987 24.4127 128.434L53.7607 97.3539L14.8266 73.5509L14.8254 73.5424ZM132.943 110.255L125.681 58.0993L94.7297 91.6325L131.451 113.513C132.317 113.834 132.933 110.559 132.941 110.246L132.943 110.255ZM31.108 132.506L126.126 119.277C126.202 119.266 127.467 118.416 127.377 118.273C126.87 117.859 126.358 117.473 125.815 117.107C113.236 108.832 94.5435 97.3718 81.197 90.7853C74.6355 87.5499 71.9816 87.9195 66.5535 92.8241C55.8976 102.459 40.3987 118.965 31.0358 130.001C30.5312 130.599 30.1136 131.262 29.6368 131.873C29.5903 132.035 30.9603 132.501 31.1153 132.497L31.108 132.506Z" fill="black"/>
<path d="M33.3892 32.1052L96.9341 23.3961C99.9527 24.3415 101.935 26.1658 102.743 29.2947L107.909 68.3876L89.3986 88.0963C86.0308 87.3119 83.3286 84.5419 79.8795 83.4835C74.8689 81.9511 70.6369 82.4712 66.1705 85.2194C64.1162 86.4821 59.0588 92.6836 57.5647 92.3816L34.511 78.2179L29.0072 39.0596C29.069 35.9653 30.7688 33.585 33.3989 32.1125L33.3892 32.1052Z" fill="white"/>
<path d="M31.1155 132.506C30.9678 132.501 29.5905 132.044 29.6371 131.882C30.1138 131.271 30.5303 130.6 31.036 130.011C40.399 118.974 55.8978 102.468 66.5537 92.8338C71.9818 87.9291 74.6358 87.5596 81.1972 90.795C94.5437 97.3815 113.227 108.835 125.815 117.117C126.358 117.474 126.878 117.859 127.378 118.283C127.468 118.434 126.211 119.275 126.126 119.287L31.1167 132.515L31.1155 132.506Z" fill="white"/>
<path d="M132.945 110.254C132.945 110.566 132.33 113.841 131.455 113.522L94.7337 91.6407L125.685 58.1076L132.946 110.263L132.945 110.254Z" fill="white"/>
<path d="M14.8293 73.5436L53.7635 97.3466L24.4155 128.427C23.6725 128.988 22.1157 125.877 22.0898 125.691L14.8281 73.5352L14.8293 73.5436Z" fill="white"/>
<path d="M27.6901 73.9743L14.9254 66.5375C14.455 64.3384 23.1356 56.2236 24.9536 54.3196L27.6913 73.9828L27.6901 73.9743Z" fill="white"/>
<path d="M110.689 42.3796C112.958 43.7146 123.525 49.1495 123.673 51.3935L113.425 62.0343L110.688 42.3711L110.689 42.3796Z" fill="white"/>
<path d="M74.745 20.1052L53.4453 23.0708C59.1788 13.6549 66.6574 12.6136 74.745 20.1052Z" fill="white"/>
<path d="M43.2101 63.9456C42.2474 57.0308 46.4386 50.0841 54.7767 48.9231C63.1148 47.7622 69.0442 53.2999 70.0069 60.2146C70.9697 67.1294 66.8204 73.8274 58.3811 75.0024C49.9418 76.1774 44.1701 70.8641 43.2069 63.946L43.2101 63.9456ZM61.9757 61.3328C61.5225 58.0779 59.2148 55.6535 55.7575 56.1349C52.3001 56.6163 50.8441 59.568 51.2968 62.8197C51.7496 66.0714 54.0128 68.5585 57.4211 68.0839C60.8295 67.6094 62.4357 64.6368 61.9757 61.3328Z" fill="#B3322F"/>
<path d="M65.684 60.8157C64.7212 53.9009 68.874 47.0128 77.2153 45.8514C85.5567 44.69 91.5209 50.1663 92.4841 57.0843C93.4473 64.0023 89.2975 70.697 80.8582 71.872C72.4189 73.047 66.6472 67.7337 65.684 60.8157ZM84.4496 58.2029C83.9964 54.948 81.6886 52.5236 78.2313 53.005C74.774 53.4864 73.3179 56.4381 73.7707 59.6898C74.2234 62.9414 76.4866 65.4286 79.895 64.954C83.3033 64.4795 84.9096 61.5069 84.4496 58.2029Z" fill="#B3322F"/>
<path d="M69.6876 73.1466L73.5852 65.645C73.6246 65.5696 73.562 65.4785 73.4771 65.4903L63.7776 66.8407C63.6928 66.8526 63.6542 66.9578 63.7159 67.0191L69.5145 73.1707C69.5652 73.2235 69.6533 73.2113 69.6876 73.1466Z" fill="#B3322F"/>
<path d="M46.3186 48.3539C51.3634 43.3784 65.4619 32.6061 85.2256 42.9702C85.689 43.2152 85.4441 43.9182 84.928 43.8203C78.3699 42.5635 62.1601 40.7303 46.8554 49.0779C46.3944 49.3285 45.9439 48.7223 46.3186 48.3539Z" fill="#B3322F"/>
</svg>
