<svg width="88" height="88" viewBox="0 0 88 88" fill="none" xmlns="http://www.w3.org/2000/svg">
<path d="M71.5033 75.4294H16.5033C11.0567 75.4294 6.60572 71.1663 6.30523 65.7947L6.28906 65.2151V19.6437C6.28906 15.901 9.19671 12.8374 12.8763 12.5886L13.3605 12.5723H62.0748C65.8175 12.5723 68.8811 15.4799 69.1299 19.1595L69.1462 19.6437V22.0008H74.6462C78.3889 22.0008 81.4525 24.9085 81.7013 28.5881L81.7176 29.0723V65.2151C81.7176 70.6618 77.4545 75.1128 72.083 75.4132L71.5033 75.4294ZM16.5033 70.7151H71.5033C74.389 70.7151 76.7557 68.4928 76.9851 65.6662L77.0033 65.2151V29.0723C77.0033 27.8789 76.1166 26.8927 74.9661 26.7366L74.6462 26.7151H69.1462V60.5008C69.1462 61.6942 68.2594 62.6804 67.1089 62.8365L66.7891 62.858C65.5957 62.858 64.6095 61.9712 64.4534 60.8207L64.4319 60.5008V19.6437C64.4319 18.4504 63.5452 17.4642 62.3946 17.3081L62.0748 17.2866H13.3605C12.1672 17.2866 11.1809 18.1733 11.0249 19.3238L11.0033 19.6437V65.2151C11.0033 68.1008 13.2257 70.4674 16.0523 70.6969L16.5033 70.7151ZM32.2067 40.8689C34.3764 40.8689 36.1353 42.6278 36.1353 44.7975V55.7865C36.1353 57.9562 34.3764 59.7151 32.2067 59.7151H21.2176C19.0479 59.7151 17.2891 57.9562 17.2891 55.7865V44.7975C17.2891 42.6278 19.0479 40.8689 21.2176 40.8689H32.2067ZM44.7891 55.0008H55.7771C57.0789 55.0008 58.1342 56.0562 58.1342 57.358C58.1342 58.5513 57.2474 59.5375 56.0969 59.6936L55.7771 59.7151H44.7891C43.4873 59.7151 42.4319 58.6598 42.4319 57.358C42.4319 56.1646 43.3187 55.1784 44.4692 55.0224L44.7891 55.0008ZM31.421 45.5832H22.0033V55.0008H31.421V45.5832ZM44.7891 40.8689H55.7771C57.0789 40.8689 58.1342 41.9242 58.1342 43.226C58.1342 44.4194 57.2474 45.4056 56.0969 45.5617L55.7771 45.5832H44.7891C43.4873 45.5832 42.4319 44.5278 42.4319 43.226C42.4319 42.0327 43.3187 41.0465 44.4692 40.8904L44.7891 40.8689ZM19.6349 26.7046H55.7771C57.0789 26.7046 58.1342 27.7599 58.1342 29.0618C58.1342 30.2551 57.2474 31.2413 56.0969 31.3974L55.7771 31.4189H19.6349C18.3331 31.4189 17.2777 30.3636 17.2777 29.0618C17.2777 27.8684 18.1645 26.8822 19.315 26.7261L19.6349 26.7046Z" fill="#B3322F"/>
</svg>
