<svg width="28" height="34" viewBox="0 0 28 34" fill="none" xmlns="http://www.w3.org/2000/svg">
<path d="M0.488281 11.57C0.488281 7.87 3.19828 4.53 7.65828 4.53C12.1183 4.53 14.8283 7.87 14.8283 11.57C14.8283 15.27 12.1583 18.48 7.63828 18.48C3.11828 18.48 0.488281 15.28 0.488281 11.57ZM10.5283 11.57C10.5283 9.83 9.49828 8.39 7.63828 8.39C5.77828 8.39 4.80828 9.83 4.80828 11.57C4.80828 13.31 5.81828 14.78 7.63828 14.78C9.45828 14.78 10.5283 13.34 10.5283 11.57Z" fill="white"/>
<path d="M12.5195 11.57C12.5195 7.87 15.2095 4.56 19.6695 4.56C24.1295 4.56 26.8695 7.87 26.8695 11.57C26.8695 15.27 24.1995 18.48 19.6795 18.48C15.1595 18.48 12.5195 15.27 12.5195 11.57ZM22.5595 11.57C22.5595 9.83 21.5295 8.39 19.6695 8.39C17.8095 8.39 16.8395 9.83 16.8395 11.57C16.8395 13.31 17.8495 14.78 19.6695 14.78C21.4895 14.78 22.5595 13.34 22.5595 11.57Z" fill="white"/>
<path d="M13.9374 18.03L16.0174 15.1C16.1674 14.89 16.0174 14.59 15.7574 14.59H11.5974C11.3374 14.59 11.1774 14.89 11.3374 15.1L13.4174 18.03C13.5474 18.21 13.8174 18.21 13.9474 18.03H13.9374Z" fill="white"/>
<path d="M3.25888 3.60999C6.26888 1.36999 14.4589 -3.26001 24.0789 3.62999C24.3089 3.78999 24.1189 4.13999 23.8589 4.04999C20.5089 2.90999 12.1289 0.759993 3.47888 4.02999C3.21888 4.12999 3.02888 3.77999 3.24888 3.60999H3.25888Z" fill="white"/>
<path d="M0.488281 11.57C0.488281 7.87 3.19828 4.53 7.65828 4.53C12.1183 4.53 14.8283 7.87 14.8283 11.57C14.8283 15.27 12.1583 18.48 7.63828 18.48C3.11828 18.48 0.488281 15.28 0.488281 11.57ZM10.5283 11.57C10.5283 9.83 9.49828 8.39 7.63828 8.39C5.77828 8.39 4.80828 9.83 4.80828 11.57C4.80828 13.31 5.81828 14.78 7.63828 14.78C9.45828 14.78 10.5283 13.34 10.5283 11.57Z" fill="white"/>
<path d="M12.5195 11.57C12.5195 7.87 15.2095 4.56 19.6695 4.56C24.1295 4.56 26.8695 7.87 26.8695 11.57C26.8695 15.27 24.1995 18.48 19.6795 18.48C15.1595 18.48 12.5195 15.27 12.5195 11.57ZM22.5595 11.57C22.5595 9.83 21.5295 8.39 19.6695 8.39C17.8095 8.39 16.8395 9.83 16.8395 11.57C16.8395 13.31 17.8495 14.78 19.6695 14.78C21.4895 14.78 22.5595 13.34 22.5595 11.57Z" fill="white"/>
<path d="M13.9374 18.03L16.0174 15.1C16.1674 14.89 16.0174 14.59 15.7574 14.59H11.5974C11.3374 14.59 11.1774 14.89 11.3374 15.1L13.4174 18.03C13.5474 18.21 13.8174 18.21 13.9474 18.03H13.9374Z" fill="white"/>
<path d="M3.25888 3.60999C6.26888 1.36999 14.4589 -3.26001 24.0789 3.62999C24.3089 3.78999 24.1189 4.13999 23.8589 4.04999C20.5089 2.90999 12.1289 0.759993 3.47888 4.02999C3.21888 4.12999 3.02888 3.77999 3.24888 3.60999H3.25888Z" fill="white"/>
<path d="M24.0912 3.60999C21.0812 1.36999 12.8912 -3.26001 3.27123 3.62999C3.04123 3.78999 3.23123 4.13999 3.49123 4.04999C6.84123 2.90999 15.2212 0.759993 23.8712 4.02999C24.1312 4.12999 24.3212 3.77999 24.1012 3.60999H24.0912Z" fill="white"/>
<path d="M19.6786 19.9C17.6786 19.9 16.0286 19.25 14.8186 18.2L13.7186 19.75C13.7186 19.75 13.6486 19.78 13.6286 19.75L12.5386 18.21C11.3286 19.25 9.67859 19.9 7.65859 19.9C5.52859 19.9 3.80859 19.17 2.58859 18.01C2.24859 19.1 2.05859 20.27 2.05859 21.48C2.05859 27.9 7.25859 33.1 13.6786 33.1C20.0986 33.1 25.2986 27.9 25.2986 21.48C25.2986 20.28 25.1186 19.11 24.7786 18.02C23.5586 19.18 21.8286 19.9 19.6786 19.9Z" fill="white"/>
<path d="M24.3496 29.26C25.6196 28.25 28.4396 25.34 26.6096 20.57C26.5696 20.46 26.3996 20.5 26.4096 20.61C26.5196 22.13 26.4996 25.86 24.1996 29.11C24.1296 29.21 24.2596 29.33 24.3496 29.25V29.26Z" fill="white"/>
<path d="M2.86026 29.26C1.59026 28.25 -1.22974 25.34 0.600264 20.57C0.640264 20.46 0.810264 20.5 0.800264 20.61C0.690264 22.13 0.710264 25.86 3.01026 29.11C3.08026 29.21 2.95026 29.33 2.86026 29.25V29.26Z" fill="white"/>
</svg>
