<svg width="337" height="259" viewBox="0 0 337 259" fill="none" xmlns="http://www.w3.org/2000/svg">
<path d="M94.6875 101.547C94.6875 80.7427 109.922 61.9776 135.046 61.9776C160.169 61.9776 175.404 80.7427 175.404 101.547C175.404 122.351 160.399 140.383 134.977 140.383C109.555 140.383 94.7104 122.328 94.7104 101.547H94.6875ZM151.198 101.547C151.198 91.7635 145.371 83.6526 134.977 83.6526C124.583 83.6526 119.054 91.7635 119.054 101.547C119.054 111.331 124.721 119.602 134.977 119.602C145.233 119.602 151.198 111.491 151.198 101.547Z" fill="#C32026"/>
<path d="M162.352 101.524C162.352 80.7199 177.449 62.1151 202.572 62.1151C227.696 62.1151 243.045 80.7199 243.045 101.524C243.045 122.328 228.04 140.36 202.618 140.36C177.196 140.36 162.352 122.306 162.352 101.524ZM218.862 101.524C218.862 91.7406 213.035 83.6297 202.641 83.6297C192.247 83.6297 186.718 91.7406 186.718 101.524C186.718 111.308 192.385 119.579 202.641 119.579C212.897 119.579 218.862 111.468 218.862 101.524Z" fill="#C32026"/>
<path d="M169.458 139.054L183.247 119.694C183.591 119.212 183.247 118.525 182.651 118.525H155.095C154.498 118.525 154.131 119.212 154.498 119.694L168.288 139.054C168.586 139.467 169.205 139.467 169.504 139.054H169.458Z" fill="#C32026"/>
<path d="M110.268 56.7995C127.223 44.1977 173.295 18.2152 227.419 56.8911C228.681 57.8076 227.672 59.778 226.18 59.274C207.321 52.8585 160.194 40.8067 111.553 59.1365C110.084 59.6864 109.006 57.7159 110.268 56.7765V56.7995Z" fill="#C32026"/>
<path d="M94.6875 101.547C94.6875 80.7427 109.922 61.9776 135.046 61.9776C160.169 61.9776 175.404 80.7427 175.404 101.547C175.404 122.351 160.399 140.383 134.977 140.383C109.555 140.383 94.7104 122.328 94.7104 101.547H94.6875ZM151.198 101.547C151.198 91.7635 145.371 83.6526 134.977 83.6526C124.583 83.6526 119.054 91.7635 119.054 101.547C119.054 111.331 124.721 119.602 134.977 119.602C145.233 119.602 151.198 111.491 151.198 101.547Z" fill="#C32026"/>
<path d="M162.352 101.524C162.352 80.7199 177.449 62.1151 202.572 62.1151C227.696 62.1151 243.045 80.7199 243.045 101.524C243.045 122.328 228.04 140.36 202.618 140.36C177.196 140.36 162.352 122.306 162.352 101.524ZM218.862 101.524C218.862 91.7406 213.035 83.6297 202.641 83.6297C192.247 83.6297 186.718 91.7406 186.718 101.524C186.718 111.308 192.385 119.579 202.641 119.579C212.897 119.579 218.862 111.468 218.862 101.524Z" fill="#C32026"/>
<path d="M169.458 139.054L183.247 119.694C183.591 119.212 183.247 118.525 182.651 118.525H155.095C154.498 118.525 154.131 119.212 154.498 119.694L168.288 139.054C168.586 139.467 169.205 139.467 169.504 139.054H169.458Z" fill="#C32026"/>
<path d="M110.268 56.7995C127.223 44.1977 173.295 18.2152 227.419 56.8911C228.681 57.8076 227.672 59.778 226.18 59.274C207.321 52.8585 160.194 40.8067 111.553 59.1365C110.084 59.6864 109.006 57.7159 110.268 56.7765V56.7995Z" fill="#C32026"/>
<path d="M110.268 56.7995C127.223 44.1977 173.295 18.2152 227.419 56.8911C228.681 57.8076 227.672 59.778 226.18 59.274C207.321 52.8585 160.194 40.8067 111.553 59.1365C110.084 59.6864 109.006 57.7159 110.268 56.7765V56.7995Z" fill="#C32026"/>
<path d="M227.443 56.7995C210.487 44.1977 164.416 18.2152 110.291 56.8911C109.029 57.8076 110.039 59.778 111.53 59.274C130.39 52.8585 177.517 40.8067 226.158 59.1365C227.626 59.6864 228.705 57.7159 227.443 56.7765V56.7995Z" fill="#C32026"/>
<path d="M202.64 148.334C191.375 148.334 182.105 144.691 175.314 138.802L169.119 147.509C168.981 147.692 168.729 147.692 168.591 147.509L162.442 138.848C155.651 144.714 146.359 148.334 134.979 148.334C123.025 148.334 113.319 144.233 106.436 137.703C104.509 143.843 103.477 150.396 103.477 157.178C103.477 193.242 132.753 222.478 168.867 222.478C204.98 222.478 234.257 193.242 234.257 157.178C234.257 150.419 233.224 143.889 231.32 137.748C224.437 144.255 214.732 148.311 202.64 148.311V148.334Z" fill="#C32026"/>
<path d="M228.953 200.917C236.066 195.235 251.943 178.876 241.687 152.091C241.458 151.473 240.517 151.679 240.563 152.344C241.182 160.89 241.068 181.854 228.104 200.116C227.714 200.665 228.426 201.33 228.953 200.917Z" fill="#C32026"/>
<path d="M108.041 200.917C100.929 195.235 85.0513 178.876 95.3073 152.091C95.5367 151.473 96.4774 151.679 96.4315 152.344C95.812 160.89 95.9267 181.854 108.89 200.116C109.28 200.665 108.569 201.33 108.041 200.917Z" fill="#C32026"/>
<path d="M135.047 122.008C139.862 122.008 143.765 118.11 143.765 113.301C143.765 108.493 139.862 104.594 135.047 104.594C130.232 104.594 126.328 108.493 126.328 113.301C126.328 118.11 130.232 122.008 135.047 122.008Z" fill="#C32026"/>
<path d="M204.016 122.008C208.831 122.008 212.734 118.11 212.734 113.301C212.734 108.493 208.831 104.594 204.016 104.594C199.2 104.594 195.297 108.493 195.297 113.301C195.297 118.11 199.2 122.008 204.016 122.008Z" fill="#C32026"/>
<path d="M136.629 71.1425C130.778 70.7301 116.117 71.5549 109.28 88.7162C109.119 89.1286 109.647 89.4265 109.922 89.0828C113.364 84.7524 122.564 74.8772 136.698 71.8757C137.134 71.784 137.088 71.1654 136.652 71.1425H136.629Z" fill="white"/>
<path d="M201.514 71.1425C207.365 70.7301 222.026 71.5549 228.863 88.7162C229.024 89.1286 228.496 89.4265 228.221 89.0828C224.779 84.7524 215.579 74.8772 201.446 71.8757C201.01 71.784 201.055 71.1654 201.491 71.1425H201.514Z" fill="white"/>
</svg>
