<svg width="24" height="38" viewBox="0 0 24 38" fill="none" xmlns="http://www.w3.org/2000/svg">
<path d="M12 7.5C18.3513 7.5 23.5 12.6487 23.5 19C23.5 25.3513 18.3513 30.5 12 30.5C5.64873 30.5 0.5 25.3513 0.5 19C0.5 12.6487 5.64873 7.5 12 7.5Z" stroke="white"/>
<path d="M10.8721 20.8626V20.7614C10.8792 20.1009 10.9449 19.5753 11.0692 19.1847C11.197 18.794 11.3781 18.478 11.6125 18.2365C11.8469 17.995 12.1292 17.7749 12.4594 17.576C12.6725 17.4411 12.8643 17.2901 13.0347 17.1232C13.2052 16.9563 13.3401 16.7646 13.4395 16.5479C13.539 16.3313 13.5887 16.0916 13.5887 15.8288C13.5887 15.5128 13.5141 15.2393 13.365 15.0085C13.2158 14.7777 13.017 14.6001 12.7684 14.4759C12.5233 14.348 12.2499 14.2841 11.9481 14.2841C11.6746 14.2841 11.4136 14.3409 11.165 14.4545C10.9165 14.5682 10.7105 14.7457 10.5471 14.9872C10.3838 15.2251 10.2897 15.5323 10.2648 15.9087H8.64551C8.67037 15.2695 8.83194 14.7298 9.13024 14.2894C9.42853 13.8455 9.82271 13.5099 10.3128 13.2827C10.8064 13.0554 11.3515 12.9418 11.9481 12.9418C12.6015 12.9418 13.1732 13.0643 13.6633 13.3093C14.1533 13.5508 14.5333 13.8899 14.8032 14.3267C15.0766 14.7599 15.2133 15.266 15.2133 15.8448C15.2133 16.2425 15.1512 16.6012 15.0269 16.9208C14.9026 17.2369 14.7251 17.5192 14.4942 17.7678C14.267 18.0163 13.9935 18.2365 13.6739 18.4283C13.3721 18.6165 13.127 18.8118 12.9388 19.0142C12.7542 19.2166 12.6192 19.4563 12.534 19.7333C12.4488 20.0103 12.4026 20.353 12.3955 20.7614V20.8626H10.8721ZM11.6764 24.1012C11.3852 24.1012 11.1349 23.9982 10.9253 23.7923C10.7158 23.5827 10.6111 23.3306 10.6111 23.0359C10.6111 22.7447 10.7158 22.4961 10.9253 22.2901C11.1349 22.0806 11.3852 21.9759 11.6764 21.9759C11.964 21.9759 12.2126 22.0806 12.4221 22.2901C12.6352 22.4961 12.7417 22.7447 12.7417 23.0359C12.7417 23.2312 12.692 23.4105 12.5926 23.5739C12.4967 23.7337 12.3689 23.8615 12.2091 23.9574C12.0493 24.0533 11.8717 24.1012 11.6764 24.1012Z" fill="white"/>
</svg>
