<svg width="108" height="108" viewBox="0 0 108 108" fill="none" xmlns="http://www.w3.org/2000/svg">
<path d="M48.4644 6.34125C50.1646 6.72614 51.3873 6.72122 53.0994 7.38217C55.6293 8.35911 62.4822 13.6937 63.8736 13.9034C67.3258 14.4278 71.158 11.9832 75.5187 13.3334C81.2487 15.1146 82.8257 20.6944 83.2557 26.1099C89.0154 29.9568 96.7512 32.3713 99.4776 39.2723L105.702 83.9743C105.066 89.6175 102.323 93.2397 97.0689 95.3995L23.117 105.696C17.5151 105.167 13.8113 102.217 11.6918 97.0633L5.46791 52.3613C6.19905 44.9789 12.9876 40.5422 17.4774 35.2683C16.4117 29.9413 16.4045 24.1429 21.43 20.8642C25.2551 18.3677 29.6103 19.679 32.7879 18.2314C34.0691 17.6497 39.2106 10.6451 41.3709 9.01514L45.5453 6.74769L48.4709 6.34035L48.4644 6.34125ZM56.4902 15.0173C50.3028 9.28588 44.5812 10.0825 40.1948 17.2861L56.4902 15.0173ZM24.8499 24.197C22.8369 25.3171 21.5365 27.1382 21.49 29.512L25.7008 59.4701L43.338 70.3061C44.4811 70.5371 48.3503 65.7926 49.9219 64.8266C53.3398 62.7306 56.5767 62.3262 60.41 63.4986C63.0488 64.3082 65.1161 66.4274 67.6926 67.0276L81.8541 51.9494L77.9016 22.0413C77.2839 19.6475 75.7679 18.2583 73.4577 17.5285L24.8426 24.1914L24.8499 24.197ZM20.4882 56.2281L18.3937 41.1848C17.0029 42.6415 10.3618 48.8497 10.7217 50.5321L20.4873 56.2217L20.4882 56.2281ZM83.9913 32.0582L86.0858 47.1016L93.9258 38.9608C93.8125 37.244 85.7281 33.086 83.9922 32.0647L83.9913 32.0582ZM10.6489 55.8986L16.2044 95.8002C16.2243 95.9429 17.4144 98.3165 17.9837 97.8934L40.4364 74.1156L10.6498 55.9051L10.6489 55.8986ZM101.015 83.9854L95.4591 44.0838L71.7798 69.7384L99.8739 86.4785C100.536 86.7236 101.007 84.2179 101.014 83.9789L101.015 83.9854ZM23.1059 101.009L95.7993 90.8878C95.8577 90.8797 96.8252 90.2292 96.7571 90.1197C96.3691 89.8034 95.9775 89.5074 95.5616 89.2281C85.9381 82.8972 71.6373 74.1293 61.4266 69.0903C56.4067 66.6151 54.3763 66.8978 50.2235 70.6501C42.0713 78.021 30.2138 90.6491 23.0507 99.0924C22.6647 99.5495 22.3451 100.057 21.9804 100.524C21.9448 100.648 22.9929 101.005 23.1115 101.002L23.1059 101.009Z" fill="black"/>
<path d="M24.8514 24.197L73.4665 17.5341C75.7759 18.2573 77.2928 19.653 77.9104 22.0468L81.8629 51.9549L67.7015 67.0331C65.1249 66.433 63.0576 64.3138 60.4188 63.5041C56.5855 62.3317 53.3478 62.7296 49.9307 64.8321C48.3591 65.7982 44.49 70.5426 43.3469 70.3116L25.7096 59.4756L21.4989 29.5175C21.5462 27.1502 22.8467 25.3291 24.8588 24.2025L24.8514 24.197Z" fill="white"/>
<path d="M23.1069 101.009C22.9939 101.005 21.9402 100.656 21.9758 100.532C22.3406 100.064 22.6592 99.5505 23.0461 99.0999C30.2092 90.6566 42.0667 78.0285 50.2189 70.6576C54.3717 66.9053 56.4021 66.6226 61.422 69.0978C71.6327 74.1368 85.9261 82.8991 95.557 89.2356C95.972 89.5084 96.3701 89.8035 96.7525 90.1272C96.8215 90.2432 95.8596 90.8863 95.7948 90.8953L23.1078 101.016L23.1069 101.009Z" fill="white"/>
<path d="M101.014 83.9855C101.014 84.2235 100.543 86.7292 99.8743 86.4851L71.7802 69.745L95.4595 44.0904L101.015 83.992L101.014 83.9855Z" fill="white"/>
<path d="M10.6493 55.8986L40.436 74.1091L17.9833 97.8869C17.4149 98.3165 16.2238 95.9364 16.204 95.7937L10.6484 55.8921L10.6493 55.8986Z" fill="white"/>
<path d="M20.4878 56.2282L10.7222 50.5386C10.3623 48.8562 17.0034 42.648 18.3942 41.1913L20.4887 56.2346L20.4878 56.2282Z" fill="white"/>
<path d="M83.9892 32.0583C85.7251 33.0797 93.8095 37.2377 93.9229 38.9544L86.0828 47.0952L83.9883 32.0518L83.9892 32.0583Z" fill="white"/>
<path d="M56.4903 15.0173L40.1949 17.2861C44.5813 10.0824 50.3029 9.28582 56.4903 15.0173Z" fill="white"/>
<path d="M32.361 48.5569C31.6244 43.2667 34.8309 37.9521 41.21 37.0639C47.5891 36.1758 52.1254 40.4124 52.8619 45.7025C53.5985 50.9927 50.4241 56.117 43.9676 57.0159C37.5111 57.9148 33.0954 53.8499 32.3585 48.5572L32.361 48.5569ZM46.7177 46.558C46.3709 44.0678 44.6054 42.213 41.9604 42.5813C39.3153 42.9496 38.2014 45.2078 38.5477 47.6955C38.8941 50.1832 40.6256 52.086 43.2332 51.7229C45.8407 51.3599 47.0696 49.0857 46.7177 46.558Z" fill="#B3322F"/>
<path d="M49.5521 46.1604C48.8156 40.8703 51.9927 35.6005 58.3743 34.712C64.7558 33.8235 69.3187 38.0131 70.0556 43.3057C70.7925 48.5984 67.6177 53.7202 61.1612 54.6191C54.7047 55.5181 50.289 51.4531 49.5521 46.1604ZM63.9088 44.1616C63.5621 41.6713 61.7966 39.8166 59.1515 40.1849C56.5065 40.5531 55.3925 42.8113 55.7389 45.2991C56.0853 47.7868 57.8167 49.6895 60.4243 49.3265C63.0319 48.9634 64.2607 46.6892 63.9088 44.1616Z" fill="#B3322F"/>
<path d="M52.6179 55.5951L55.5998 49.856C55.63 49.7983 55.5821 49.7286 55.5172 49.7377L48.0965 50.7708C48.0316 50.7799 48.0021 50.8604 48.0493 50.9073L52.4856 55.6136C52.5243 55.654 52.5917 55.6446 52.6179 55.5951Z" fill="#B3322F"/>
<path d="M34.7344 36.626C38.5939 32.8194 49.38 24.578 64.5002 32.5071C64.8548 32.6945 64.6674 33.2324 64.2725 33.1575C59.2552 32.196 46.854 30.7935 35.1451 37.1799C34.7924 37.3715 34.4477 36.9078 34.7344 36.626Z" fill="#B3322F"/>
</svg>
