<svg width="52" height="52" viewBox="0 0 52 52" fill="none" xmlns="http://www.w3.org/2000/svg">
<path d="M31.6807 15.8049C32.3445 15.1535 33.4494 14.9406 34.4551 15.7746C35.7914 17.3069 37.3773 18.7612 38.9229 20.1926C40.2934 21.4619 41.6326 22.7146 42.7803 24.0129L43.2607 24.5724V24.5734C43.5319 24.8993 43.69 25.2111 43.8428 25.631V26.3703C43.7093 26.7338 43.5736 27.0171 43.3633 27.298L43.2617 27.426C42.0165 28.9262 40.4902 30.355 38.9238 31.8058C37.3807 33.2351 35.7969 34.6871 34.4619 36.216C33.4084 37.0729 32.3126 36.8368 31.665 36.1769C31.0101 35.5095 30.7984 34.3959 31.6484 33.3859L36.166 28.8332L37.0117 27.9807H6.76562C6.78103 27.9807 6.73935 27.9794 6.62109 27.9357C6.51842 27.8978 6.39519 27.8423 6.26758 27.7766C6.06339 27.6713 5.89057 27.5625 5.79004 27.4885L5.71484 27.4279V27.4269C5.45401 27.1735 5.31874 26.827 5.13281 26.3654V25.6242C5.34052 25.0464 5.57571 24.6363 5.98926 24.3596L6.18555 24.2443L6.1875 24.2433C6.22305 24.2252 6.36536 24.162 6.52148 24.0998C6.5965 24.0699 6.66653 24.0445 6.71875 24.0266C6.72943 24.0229 6.73857 24.0202 6.74609 24.0178H37.0098L36.165 23.1652L31.6484 18.6125C30.782 17.556 31.0187 16.4545 31.6807 15.8049Z" fill="white" stroke="black"/>
</svg>
