<svg width="40" height="23" viewBox="0 0 40 23" fill="none" xmlns="http://www.w3.org/2000/svg">
<path d="M27.0479 1.07617C27.7117 0.424775 28.8166 0.211896 29.8223 1.0459C31.1586 2.57818 32.7445 4.03249 34.29 5.46387C35.6606 6.73319 36.9998 7.98591 38.1475 9.28418L38.6279 9.84375V9.84473C38.8991 10.1706 39.0572 10.4825 39.21 10.9023V11.6416C39.0765 12.0051 38.9408 12.2884 38.7305 12.5693L38.6289 12.6973C37.3837 14.1975 35.8574 15.6263 34.291 17.0771C32.7479 18.5064 31.1641 19.9584 29.8291 21.4873C28.7756 22.3442 27.6798 22.1081 27.0322 21.4482C26.3773 20.7808 26.1656 19.6672 27.0156 18.6572L31.5332 14.1045L32.3789 13.252H2.13281C2.14821 13.252 2.10654 13.2507 1.98828 13.207C1.88561 13.1691 1.76238 13.1136 1.63477 13.0479C1.43058 12.9426 1.25776 12.8338 1.15723 12.7598L1.08203 12.6992V12.6982C0.821197 12.4448 0.68593 12.0983 0.5 11.6367V10.8955C0.707705 10.3178 0.942902 9.90765 1.35645 9.63086L1.55273 9.51562L1.55469 9.51465C1.59024 9.49646 1.73255 9.43328 1.88867 9.37109C1.96369 9.34122 2.03372 9.31575 2.08594 9.29785C2.09661 9.29419 2.10575 9.29148 2.11328 9.28906H32.377L31.5322 8.43652L27.0156 3.88379C26.1492 2.82726 26.3859 1.72578 27.0479 1.07617Z" fill="white" stroke="#B3322F"/>
</svg>
