<svg width="808" height="835" viewBox="0 0 808 835" fill="none" xmlns="http://www.w3.org/2000/svg">
<path d="M467.817 94.1395C463.373 108.819 460.289 126.274 454.7 140.374C453.798 142.664 455.576 144.442 451.32 143.66C455.751 128.388 459.171 112.442 464.437 97.4256C465.285 95.0014 463.656 93.4122 467.817 94.1395Z" fill="#7189DD"/>
<path d="M509.85 149.694C510.2 151.849 507.318 151.66 505.729 152.293C494.74 156.63 482.31 160.266 470.837 163.189C470.069 158.933 471.86 160.724 474.123 159.808C485.084 155.418 498.188 151.377 509.85 149.694Z" fill="#7189DD"/>
<path d="M362.741 184.212C361.529 178.515 370.821 182.205 374.08 181.141L391.277 184.212H362.755H362.741Z" fill="#A3B5F4"/>
<path d="M412.258 98.6378C412.878 99.3111 415.558 114.153 415.262 116.644C410.71 117.385 412.878 115.486 412.232 112.994C411.895 111.701 406.953 92.9678 412.245 98.6378H412.258Z" fill="#7189DD"/>
<path d="M467.062 163.189C468.032 163.687 468.032 164.185 467.062 164.684V163.189Z" fill="#7189DD"/>
<path d="M574.409 245.773C574.409 245.571 572.982 244.089 572.86 242.15C571.985 228.494 575.459 234.217 578.193 229.315C581.587 223.201 576.227 223.497 575.432 221.464C574.369 218.743 574.948 214.204 574.167 213.006C572.322 210.151 549.105 207.821 544.392 206.757C544.661 203.78 541.941 202.743 545.887 196.979C559.111 177.68 588.805 191.444 595 212.44C596.737 218.299 598.407 238.177 596.723 243.335C595.161 248.103 579.028 244.897 574.409 245.8V245.773Z" fill="#292439"/>
<path d="M613.435 646.627C614.243 658.963 613.085 672.458 619.684 683.165C623.656 689.616 632.585 694.908 631.44 703.676C628.841 706.437 598.581 690.828 596.171 685.643C593.356 679.582 598.46 676.673 598.352 671.582C598.325 670.276 594.42 653.455 593.922 652.633C599.578 651.798 608.708 649.509 613.435 646.627Z" fill="#7189DD"/>
<path d="M649.473 579.059C648.921 585.806 645.837 592.217 646.564 599.153C647.291 606.089 659.155 625.859 658.415 629.253C656.57 637.725 635.979 619.476 634.457 616.594C633.717 615.166 629.677 593.281 629.959 591.072C630.108 589.928 632.222 586.776 632.572 583.948C633.218 578.736 631.697 572.366 634.457 568.554C635.077 569.228 648.624 578.695 649.473 579.059Z" fill="#7189DD"/>
<path d="M601.438 356.868V358.363C599.781 358.754 590.961 364.76 587.446 366.147C564.149 375.292 550.345 367.009 527.883 361.366C528.004 361.124 527.95 360.168 527.883 359.871C531.573 361.488 538.225 358.377 539.895 358.377C540.892 358.377 541.902 358.377 542.898 358.377C543.1 358.377 544.541 359.925 546.521 359.939C565.468 360.073 582.759 357.932 601.438 356.868Z" fill="#F2AF93"/>
<path d="M629.958 404.908C631.587 407.938 634.482 411.116 635.964 413.917C649.605 439.776 667.947 473.337 677.993 500.246C682.653 512.73 683.42 522.898 682.478 536.245C681.993 543.046 677.724 572.285 675.367 577.187C671.745 584.742 655.733 581.766 649.471 579.059C648.636 578.695 635.075 569.228 634.455 568.554C628.072 561.537 629.823 538.548 628.436 528.784C626.658 516.313 609.165 479.452 601.718 468.421C600.412 466.496 600.021 464.314 596.924 464.974L629.944 591.072C629.661 593.281 633.701 615.166 634.442 616.594C633.971 622.439 630.16 628.997 626.672 633.603C624.53 636.432 616.006 645.037 613.42 646.627C608.694 649.509 599.55 651.798 593.907 652.633C593.53 652.014 589.167 651.69 588.938 649.226C563.109 569.887 531.193 498.468 526.358 413.917C526.156 410.389 524.998 407.224 524.864 403.413C524.392 390.618 523.073 371.534 527.867 361.38C550.329 367.009 564.146 375.305 587.43 366.161C590.945 364.787 599.765 358.781 601.422 358.377C605.112 357.501 608.344 364.208 610.135 366.929C618.026 378.901 623.251 392.45 629.944 404.921L629.958 404.908Z" fill="#B3322F"/>
<path d="M548.886 244.264C548.091 248.399 546.327 252.291 547.674 256.735C550.394 265.732 573.139 263.793 574.418 251.779C587.979 256.87 595.575 256.655 605.984 267.51C618.118 280.156 628.676 299.684 637.469 314.835C633.753 320.424 636.298 342.471 638.964 349.367C626.252 345.649 621.161 337.394 611.937 332.855L611.182 313.327C609.418 313.34 609.189 330.768 608.934 332.855C607.789 342.107 606.631 348.599 601.433 356.882C582.754 357.932 565.463 360.073 546.516 359.952C544.536 359.939 543.082 358.39 542.893 358.39L542.152 352.383C561.315 353.218 580.182 351.468 599.157 349.393C600.611 349.232 600.503 346.417 599.17 346.363C575.307 350.013 550.273 350.888 526.396 347.899C525.696 352.478 527.501 350.363 530.167 350.835C535.931 351.831 541.519 349.69 539.89 358.403C538.22 358.403 531.581 361.528 527.878 359.898C527.541 358.336 523.716 354.309 522.302 349.703C516.067 329.219 516.66 304.667 511.731 283.711C501.348 271.119 486.4 263.51 473.836 253.301C483.168 244.116 484.071 236.965 479.842 224.776C484.932 226.312 493.066 226.662 499.355 228.534C515.946 233.463 532.402 239.093 548.899 244.291L548.886 244.264Z" fill="#A3B5F4"/>
<path d="M611.933 332.842C611.354 332.559 609.818 333.03 608.93 332.842C609.186 330.754 609.415 313.327 611.179 313.313L611.933 332.842Z" fill="#7189DD"/>
<path d="M539.877 358.363C541.506 349.649 535.918 351.791 530.154 350.794C527.474 350.323 525.67 352.437 526.383 347.858C550.26 350.862 575.308 349.973 599.157 346.323C600.49 346.377 600.598 349.205 599.144 349.353C580.169 351.427 561.302 353.178 542.139 352.343L542.88 358.35C541.883 358.35 540.873 358.35 539.877 358.35V358.363Z" fill="#7189DD"/>
<path d="M431.795 148.186L433.303 166.205C435.889 166.246 436.535 167.067 436.185 164.091C435.727 160.104 434.556 153.371 433.303 149.68C442.137 146.987 439.444 155.903 440.831 157.209C441.37 157.721 444.319 155.148 446.056 157.074C454.082 165.963 445.167 175.081 447.066 181.612C454.177 188.575 472.316 222.487 479.83 224.75C484.059 236.938 483.157 244.089 473.824 253.274C466.216 247.093 465.408 246.877 459.684 238.137C454.675 230.473 437.114 190.932 434.838 189.424C432.562 187.915 432.549 188.791 431.081 190.259C430.475 190.865 422.799 204.373 422.786 205.221C412.807 209.248 411.46 190.42 410.773 184.198C411.689 183.377 413.736 183.74 414.477 182.73C420.375 174.744 417.897 143.714 428.051 143.58C431.903 143.526 430.933 146.691 431.795 148.159V148.186ZM438.542 160.185V161.68C439.511 161.182 439.511 160.684 438.542 160.185Z" fill="#F2AF93"/>
<path d="M637.455 314.835C637.55 314.701 639.785 315.159 640.485 313.812C645.724 303.644 659.002 284.021 661.83 275.402C664.133 268.385 661.843 262.176 663.284 255.847C663.998 252.709 669.668 242.271 671.23 250.271C674.542 245.625 677.317 240.722 683.983 241.261C682.905 245.638 687.053 248.79 687.12 252.493C687.268 259.914 677.519 272.372 674.677 279.24C666.422 299.132 662.988 324.465 651.757 343.4C647.353 350.835 646.828 351.656 638.95 349.367C636.27 342.471 633.738 320.424 637.455 314.835Z" fill="#F2AF93"/>
<path d="M544.393 206.73C549.12 207.794 572.337 210.124 574.168 212.979C574.936 214.177 574.37 218.716 575.434 221.437C576.228 223.47 581.602 223.174 578.195 229.288C575.461 234.191 571.987 228.48 572.862 242.123C572.983 244.062 574.411 245.557 574.411 245.746C574.505 247.604 574.599 249.948 574.411 251.752C573.131 263.766 550.399 265.719 547.666 256.709C546.319 252.264 548.083 248.372 548.878 244.237C550.776 234.366 549.228 239.766 544.38 235.968C540.663 233.059 543.841 212.507 544.38 206.703L544.393 206.73Z" fill="#F2AF93"/>
<path d="M438.539 160.185C439.509 160.684 439.509 161.182 438.539 161.68V160.185Z" fill="#606060"/>
<path d="M284.673 658.64C282.127 661.859 273.926 670.855 272.66 673.656C267.731 669.508 264.405 663.03 262.156 657.145C262.56 656.97 263.126 654.828 263.651 654.142C269.361 657.333 278.074 658.519 284.673 658.64Z" fill="#F2AF93"/>
<path d="M112.026 604.58C109.198 604.526 106.141 605.011 104.525 607.584C104.444 607.449 102.411 607.988 101.495 606.56C98.6 601.981 95.4083 594.897 94.0078 589.577C96.0413 588.877 97.9805 587.382 100.014 586.574C100.997 589.187 109.939 602.91 112.026 604.594V604.58Z" fill="#F2AF93"/>
<path d="M269.655 242.769C281.532 240.601 273.169 238.568 272.186 236.44C268.887 229.342 273.614 230.81 277.034 228.305C282.717 224.144 280.199 226.379 286.232 224.09C290.676 222.406 298.433 216.79 304.291 220.898C307.577 223.201 302.917 230.325 308.694 229.261C308.062 234.675 307.348 250.621 305.705 253.665C304.25 256.345 299.416 256.13 296.682 256.291C298.015 259.995 298.15 263.173 302.688 263.779C303.335 273.085 287.161 273.058 280.859 272.856C274.152 272.641 261.049 271.375 259.164 263.779C263.11 263.214 263.016 264.21 265.52 260.385C268.025 256.56 270.705 247.389 269.668 242.769H269.655Z" fill="#F2AF93"/>
<path d="M308.694 229.248C302.917 230.325 307.576 223.201 304.29 220.884C298.432 216.777 290.675 222.393 286.231 224.076C280.212 226.366 282.717 224.13 277.034 228.292C273.613 230.797 268.9 229.329 272.186 236.426C273.169 238.554 281.531 240.588 269.654 242.756C268.455 237.382 261.049 230.877 262.732 221.692C265.695 205.504 297.624 196.683 308.02 206.649C314.229 212.602 309.542 221.975 308.694 229.248Z" fill="#292439"/>
<path d="M140.547 377.891C137.652 385.299 132.831 403.817 123.229 404.975C120.239 405.339 121.29 401.756 120.32 401.904C115.863 402.591 111.096 410.726 103.016 406.416C105.709 401.568 102.504 394.807 104.43 390.591C108.227 382.268 124.818 370.282 125.545 365.892C130.77 369.892 132.885 377.959 140.561 377.905L140.547 377.891Z" fill="#F2AF93"/>
<path d="M433.29 149.68C434.555 153.371 435.714 160.104 436.171 164.091C436.522 167.067 435.875 166.232 433.29 166.205L431.781 148.186C432.104 148.738 433.128 149.223 433.276 149.68H433.29Z" fill="#F2AF93"/>
<path d="M422.785 205.235C422.462 223.214 417.655 231.012 407.514 246.271C388.27 275.24 360.596 301.906 337.986 328.37C336.518 344.693 343.696 364.047 338.955 380.275C338.403 382.188 335.75 383.386 335.71 383.885C334.228 384.006 332.666 383.696 331.212 383.885C315.887 385.81 300.885 389.864 285.412 391.373C274.046 392.477 237.955 395.521 229.135 392.894C226.805 392.194 221.593 389.07 221.755 386.255L232.138 332.855C230.629 331.253 194.633 345.596 190.606 347.602C180.493 352.612 147.971 377.837 140.578 377.891C133.185 377.945 130.788 369.878 125.562 365.878C128.135 350.471 131.609 344.343 142.127 332.141C169.195 300.721 211.897 275.321 251.664 265.288L256.162 263.793C257.065 263.618 258.209 263.927 259.165 263.793C261.051 271.388 274.154 272.654 280.86 272.87C287.163 273.072 303.336 273.099 302.69 263.793C305.908 264.224 308.278 263.591 311.268 262.621C321.368 259.348 361.229 237.921 370.144 231.416C383.274 221.841 396.633 196.858 410.773 184.225C411.446 190.434 412.807 209.275 422.785 205.248V205.235Z" fill="#B3322F"/>
<path d="M256.146 263.779L251.648 265.274C252.51 265.059 253.749 264.251 256.146 263.779Z" fill="#F2AF93"/>
<path d="M331.21 383.885C328.019 392.019 327.79 398.484 328.14 407.211C328.705 421.46 331.426 438.213 332.705 452.934C335.614 486.361 338.065 497.35 330.469 531.02C321.002 572.985 306.849 614.776 294.931 656.121C293.288 659.798 288.251 658.694 284.669 658.613C278.071 658.478 269.358 657.307 263.648 654.115C259.621 651.866 255.379 647.852 255.999 642.896C260.726 599.436 275.283 552.285 278.636 509.215C279.902 492.892 276.724 476.718 277.141 460.449L253.4 506.495C242.29 535.585 219.343 547.464 194.47 563.154C185.474 568.824 121.938 607.57 117.508 607.22C116.498 607.139 112.942 605.308 112.027 604.567C109.953 602.884 101.011 589.16 100.014 586.547C98.6947 583.059 97.2672 578.709 100.688 575.948L188.598 498.724C200.045 470.549 214.319 442.429 224.621 413.891C225.699 410.901 228.54 406.766 229.119 403.386C229.658 400.288 228.742 396.167 229.119 392.881C237.94 395.521 274.044 392.477 285.397 391.359C300.87 389.851 315.872 385.784 331.197 383.871L331.21 383.885ZM256.147 401.904H254.652H256.147Z" fill="#7189DD"/>
<path d="M262.151 657.131C264.399 663.03 267.726 669.495 272.655 673.643C271.82 675.488 268.035 691.73 268.035 693.912C267.995 700.363 280.263 738.18 264.682 733.494C258.111 731.514 235.715 685.266 233.978 677.05C233.507 674.815 233.049 670.667 233.561 668.619C234.099 666.424 258.555 658.734 262.151 657.118V657.131ZM256.454 673.643C256.454 670.99 254.299 668.835 251.647 668.835C248.994 668.835 246.839 670.99 246.839 673.643C246.839 676.296 248.994 678.451 251.647 678.451C254.299 678.451 256.454 676.296 256.454 673.643Z" fill="#A3B5F4"/>
<path d="M251.644 678.451C254.299 678.451 256.451 676.298 256.451 673.643C256.451 670.988 254.299 668.835 251.644 668.835C248.988 668.835 246.836 670.988 246.836 673.643C246.836 676.298 248.988 678.451 251.644 678.451Z" fill="#FEFEFE"/>
<path d="M94.0229 589.577C95.4099 594.911 98.615 601.995 101.51 606.56C102.413 607.988 104.446 607.449 104.54 607.584C105.914 609.752 99.2479 622.344 98.6689 626.479C97.1067 637.644 103.194 654.424 98.6689 664.027C95.2753 671.246 90.3734 667.192 86.7778 662.128C80.6505 653.522 63.2111 610.102 65.4466 601.092C66.0391 598.735 90.2657 590.857 94.0229 589.564V589.577ZM79.2095 603.287C75.7351 608.728 83.4381 616.661 87.3299 609.079C90.4677 602.951 81.3238 599.974 79.2095 603.287Z" fill="#A3B5F4"/>
<path d="M79.2124 603.287C81.3267 599.974 90.4705 602.951 87.3328 609.079C83.4544 616.661 75.738 608.742 79.2124 603.287Z" fill="#FEFEFE"/>
</svg>
