<svg width="184" height="184" viewBox="0 0 184 184" fill="none" xmlns="http://www.w3.org/2000/svg">
<g clip-path="url(#clip0_625_698)">
<path d="M164.188 16.4688V49.744L163.472 49.5472L147.766 38.2803V16.7731L148.07 16.4688H164.188Z" fill="white"/>
<path d="M170.88 16.4692V54.7155L182.532 62.9389C183.325 63.6572 183.759 64.1279 183.866 65.256C184.298 69.7421 183.519 74.9119 183.86 79.4731C183.744 80.6114 182.631 81.8186 181.51 81.9911C178.739 82.4192 174.915 81.7638 171.985 81.9951C171.594 82.0256 171.251 82.1148 170.88 82.2082V177.164H175.442C175.844 177.164 177.601 177.795 177.968 178.086C180.046 179.731 178.901 183.525 176.257 183.864C119.798 183.694 63.3362 184.355 6.91331 183.706C4.4865 182.561 4.38715 178.552 6.91737 177.526C7.07348 177.463 8.10949 177.164 8.17842 177.164H13.1456V82.0053H2.30095C1.47984 82.0053 0.271503 80.3314 0.168105 79.4731C-0.365105 75.0499 0.577643 69.594 0.168105 65.0572C0.249202 64.0995 0.944605 63.4401 1.5873 62.8253L90.7874 0.127835C91.6511 -0.00201985 92.7094 -0.127817 93.5021 0.269863L140.976 33.7135L141.28 16.9785L140.948 16.4997C135.903 17.504 134.367 10.6258 139.346 9.76752L173.163 9.82433C175.694 10.3722 176.476 13.5658 174.84 15.4629C173.784 16.6863 172.348 16.4855 170.88 16.4713V16.4692ZM177.165 67.1937L92.1174 7.39158L6.86263 67.1937V75.5125H17.5065C17.5958 75.5125 18.8852 76.2633 19.0312 76.4215C19.1467 76.5473 19.8381 77.7647 19.8381 77.8459V177.164H26.5285V167.324C26.5285 165.07 28.7445 160.786 30.184 159.011C34.9666 153.111 42.2836 152.699 48.826 149.875C34.7781 138.932 42.0383 115.571 60.0721 114.865C68.8163 114.522 76.3928 119.746 79.2433 127.958C82.0979 136.179 79.6691 144.565 72.9563 149.972C79.4806 152.374 87.426 153.486 91.9147 159.307C92.7946 158.601 93.5366 157.556 94.4672 156.791C98.9579 153.105 105.707 151.92 111.072 149.972C107.98 147.243 105.515 144.177 104.397 140.117C100.762 126.898 110.709 113.99 124.562 114.865C137.004 115.65 145.003 127.945 141.992 139.831C140.952 143.938 138.338 147.263 135.198 149.972C142.902 152.815 151.166 153.482 155.507 161.403C156.174 162.621 157.499 165.816 157.499 167.119V177.162H164.19V77.8438C164.19 77.7546 164.94 76.4641 165.098 76.318C165.224 76.2024 166.44 75.5105 166.521 75.5105H177.165V67.1917V67.1937ZM164.19 16.4692H148.072L147.768 16.7736V38.2808L163.474 49.5477L164.19 49.7445V16.4692ZM73.7673 134.46C73.7673 127.351 68.0094 121.589 60.9054 121.589C53.8013 121.589 48.0435 127.351 48.0435 134.46C48.0435 141.57 53.8013 147.332 60.9054 147.332C68.0094 147.332 73.7673 141.57 73.7673 134.46ZM136.011 134.428C136.011 127.32 130.253 121.558 123.151 121.558C116.049 121.558 110.291 127.32 110.291 134.428C110.291 141.536 116.049 147.298 123.151 147.298C130.253 147.298 136.011 141.536 136.011 134.428ZM88.5674 177.164V167.73C88.5674 165.009 84.9992 161.353 82.623 160.287C78.9757 158.65 72.6644 156.613 68.7434 155.511C64.2993 154.263 60.2323 153.444 55.6807 154.7C51.0035 155.99 44.7428 158.135 40.2116 159.914C35.7188 161.679 33.3447 164.848 33.0102 169.751C32.85 172.086 32.9879 174.853 33.221 177.164H88.5694H88.5674ZM150.809 177.164C151.403 170.489 151.723 163.229 144.577 160.17C140.12 158.26 132.769 155.85 128.053 154.59C124.106 153.535 120.428 154.146 116.544 155.148C112.191 156.272 105.981 158.384 101.81 160.084C99.1059 161.186 95.4606 164.842 95.4606 167.933V177.164H150.809Z" fill="#B3322F"/>
<path d="M177.162 67.1937V75.5126H166.518C166.437 75.5126 165.219 76.2024 165.095 76.3201C164.937 76.4662 164.187 77.7586 164.187 77.8459V177.164H157.496V167.121C157.496 165.818 156.17 162.623 155.503 161.405C151.163 153.484 142.901 152.817 135.195 149.974C138.335 147.267 140.948 143.94 141.989 139.833C144.999 127.947 137.001 115.652 124.559 114.867C110.706 113.992 100.759 126.901 104.394 140.119C105.511 144.177 107.975 147.245 111.068 149.974C105.706 151.924 98.9547 153.109 94.4639 156.793C93.5333 157.558 92.7913 158.603 91.9114 159.309C87.4227 153.488 79.4773 152.376 72.9531 149.974C79.6679 144.567 82.0947 136.179 79.2401 127.96C76.3895 119.748 68.8131 114.524 60.0689 114.867C42.035 115.573 34.7748 138.934 48.8228 149.877C42.2803 152.699 34.9614 153.113 30.1807 159.013C28.7413 160.789 26.5253 165.072 26.5253 167.326V177.166H19.8348V77.8479C19.8348 77.7667 19.1455 76.5473 19.0279 76.4236C18.8819 76.2653 17.5905 75.5146 17.5033 75.5146H6.85938V67.1958L92.1142 7.3916L177.162 67.1958V67.1937ZM70.7371 62.4013C70.7371 56.0222 65.5692 50.8503 59.195 50.8503C52.8208 50.8503 47.653 56.0222 47.653 62.4013C47.653 68.7804 52.8208 73.9523 59.195 73.9523C65.5692 73.9523 70.7371 68.7804 70.7371 62.4013ZM103.557 62.3932C103.557 56.0141 98.389 50.8402 92.0128 50.8402C85.6366 50.8402 80.4687 56.012 80.4687 62.3932C80.4687 68.7743 85.6366 73.9462 92.0128 73.9462C98.389 73.9462 103.557 68.7743 103.557 62.3932ZM136.362 62.4074C136.362 56.0303 131.197 50.8604 124.824 50.8604C118.452 50.8604 113.286 56.0303 113.286 62.4074C113.286 68.7845 118.452 73.9543 124.824 73.9543C131.197 73.9543 136.362 68.7845 136.362 62.4074Z" fill="white"/>
<path d="M150.809 177.164H95.4609V167.932C95.4609 164.842 99.1062 161.186 101.811 160.084C105.981 158.384 112.191 156.272 116.544 155.148C120.429 154.145 124.106 153.535 128.054 154.59C132.769 155.85 140.121 158.26 144.577 160.169C151.724 163.229 151.403 170.491 150.809 177.164Z" fill="white"/>
<path d="M88.5659 177.164H33.2175C32.9844 174.853 32.8465 172.085 33.0067 169.75C33.3412 164.85 35.7173 161.679 40.208 159.913C44.7393 158.134 51 155.989 55.6772 154.699C60.2287 153.443 64.2957 154.263 68.7398 155.51C72.6608 156.612 78.9722 158.649 82.6195 160.287C84.9956 161.352 88.5639 165.008 88.5639 167.729V177.164H88.5659Z" fill="white"/>
<path d="M60.9088 147.332C68.0122 147.332 73.7707 141.569 73.7707 134.46C73.7707 127.351 68.0122 121.588 60.9088 121.588C53.8054 121.588 48.0469 127.351 48.0469 134.46C48.0469 141.569 53.8054 147.332 60.9088 147.332Z" fill="white"/>
<path d="M123.149 147.297C130.251 147.297 136.009 141.535 136.009 134.427C136.009 127.32 130.251 121.558 123.149 121.558C116.047 121.558 110.289 127.32 110.289 134.427C110.289 141.535 116.047 147.297 123.149 147.297Z" fill="white"/>
<path d="M70.7404 62.4006C70.7404 68.7797 65.5725 73.9516 59.1983 73.9516C52.8241 73.9516 47.6562 68.7797 47.6562 62.4006C47.6562 56.0215 52.8241 50.8496 59.1983 50.8496C65.5725 50.8496 70.7404 56.0215 70.7404 62.4006ZM64.056 62.3965C64.056 59.7122 61.8826 57.5371 59.2003 57.5371C56.5181 57.5371 54.3447 59.7122 54.3447 62.3965C54.3447 65.0809 56.5181 67.2559 59.2003 67.2559C61.8826 67.2559 64.056 65.0809 64.056 62.3965Z" fill="#B3322F"/>
<path d="M59.1994 67.2559C61.8811 67.2559 64.0551 65.0803 64.0551 62.3965C64.0551 59.7127 61.8811 57.5371 59.1994 57.5371C56.5177 57.5371 54.3438 59.7127 54.3438 62.3965C54.3438 65.0803 56.5177 67.2559 59.1994 67.2559Z" fill="white"/>
<path d="M124.826 67.2668C127.509 67.2668 129.684 65.0903 129.684 62.4054C129.684 59.7205 127.509 57.5439 124.826 57.5439C122.144 57.5439 119.969 59.7205 119.969 62.4054C119.969 65.0903 122.144 67.2668 124.826 67.2668Z" fill="white"/>
<path d="M136.365 62.4073C136.365 68.7843 131.199 73.9542 124.827 73.9542C118.455 73.9542 113.289 68.7843 113.289 62.4073C113.289 56.0302 118.455 50.8604 124.827 50.8604C131.199 50.8604 136.365 56.0302 136.365 62.4073ZM129.685 62.4052C129.685 59.7209 127.509 57.5438 124.827 57.5438C122.145 57.5438 119.969 59.7209 119.969 62.4052C119.969 65.0896 122.145 67.2667 124.827 67.2667C127.509 67.2667 129.685 65.0896 129.685 62.4052Z" fill="#B3322F"/>
<path d="M103.557 62.3929C103.557 68.772 98.3891 73.9459 92.0128 73.9459C85.6366 73.9459 80.4688 68.774 80.4688 62.3929C80.4688 56.0117 85.6366 50.8398 92.0128 50.8398C98.3891 50.8398 103.557 56.0117 103.557 62.3929ZM96.8563 62.405C96.8563 59.7247 94.685 57.5517 92.0068 57.5517C89.3285 57.5517 87.1572 59.7247 87.1572 62.405C87.1572 65.0853 89.3285 67.2583 92.0068 67.2583C94.685 67.2583 96.8563 65.0853 96.8563 62.405Z" fill="#B3322F"/>
<path d="M92.0058 67.2584C94.6842 67.2584 96.8554 65.0855 96.8554 62.4051C96.8554 59.7247 94.6842 57.5518 92.0058 57.5518C89.3275 57.5518 87.1562 59.7247 87.1562 62.4051C87.1562 65.0855 89.3275 67.2584 92.0058 67.2584Z" fill="white"/>
</g>
<defs>
<clipPath id="clip0_625_698">
<rect width="184" height="184" fill="white"/>
</clipPath>
</defs>
</svg>
