<svg width="47" height="36" viewBox="0 0 47 36" fill="none" xmlns="http://www.w3.org/2000/svg">
<path d="M15.8077 10.1752L28.9144 10.1624C29.2088 10.207 29.4584 10.3631 29.6888 10.5382C30.1656 10.9045 31.6599 12.3981 31.7271 12.9427V25.9427C31.5735 26.9681 30.9688 27.5732 29.9224 27.6624C25.4394 27.414 20.6139 27.9841 16.1693 27.6624C15.1549 27.5892 14.3101 27.0987 14.2109 26.0191V11.7994C14.3485 10.9076 14.8957 10.2994 15.8077 10.1752ZM28.7096 11.242L19.2508 11.2325C19.0684 11.3535 19.0652 11.5223 19.046 11.7166C18.9404 12.8726 18.9404 15.2293 19.046 16.3853C19.0684 16.6306 19.0908 16.8248 19.3532 16.9204L28.572 16.914L28.764 16.7229C28.7352 15.0955 28.94 13.2548 28.8088 11.6401C28.796 11.5 28.796 11.3599 28.7096 11.242ZM28.8056 19.4045H16.5949V25.7866C16.5949 26.051 16.9308 26.5541 17.222 26.6146L28.0025 26.6656C28.2809 26.7038 28.8056 26.242 28.8056 26.0127V19.4013V19.4045Z" fill="#808080"/>
<path d="M27.3481 11.6083H24.8906V16.5H27.3481V11.6083Z" fill="#808080"/>
</svg>
