<svg width="58" height="71" viewBox="0 0 58 71" fill="none" xmlns="http://www.w3.org/2000/svg">
<path d="M38.4872 0.525711L33.923 13.7059L26.0032 9.63124L30.0811 28.5631L20.3582 18.2635C19.9851 18.4965 20.0429 18.7368 19.9948 19.0923C19.7203 21.0408 19.5374 23.018 19.2774 24.9689L8.47611 21.8552L13.281 33.4738L8.23539 34.9129L23.1218 46.5363C17.8884 47.9249 12.5636 48.8595 7.35193 46.8198C5.79444 46.2119 2.73484 44.4028 1.62751 43.1872C0.874044 42.3607 0.378158 38.3245 0.301126 37.08C-0.197172 29.0411 0.462408 20.2864 0.320381 12.1371C0.291494 10.4649 -0.514931 6.74342 0.546662 5.43164C1.20143 4.622 5.92443 3.34866 7.22434 2.98829C17.4383 0.150919 27.9338 -0.656326 38.492 0.525711H38.4872Z" fill="white"/>
<path d="M39.6873 2.68317L44.261 15.6183L50.9748 12.5119L46.1748 33.5987L57.4551 21.6174C57.3805 28.9835 57.7295 36.4673 56.0108 43.6629C54.4773 43.2736 53.021 42.673 51.4635 42.3391C43.9312 40.7294 36.334 42.0436 29.0737 44.213C28.1012 44.5037 25.5447 45.7314 24.7455 45.5368L11.3564 35.7514C11.0892 35.3574 14.4979 34.6678 14.8421 34.5597C15.1117 34.4732 15.2706 34.7375 15.1984 34.2018L10.875 24.0151L20.4775 26.6483L21.3176 21.3771L32.7231 33.5987L28.1638 12.5095L34.6369 15.6183L39.1866 3.01952L39.6873 2.68317Z" fill="white"/>
<path d="M5.35156 52.5305C8.10304 54.2171 10.9412 55.3727 14.0826 56.1559C22.0915 58.1548 29.5227 57.4389 37.4473 60.8769C38.2224 61.2132 42.4568 63.2337 42.3171 63.8896C42.1775 64.5455 35.548 68.2766 34.4888 68.7931C32.746 69.6436 29.7369 71.2605 27.905 70.8761C26.0851 70.4941 20.7555 67.4862 18.9621 66.3834C13.5001 63.0271 8.16081 58.347 5.35156 52.5305Z" fill="white"/>
<path d="M48.8147 28.5655L52.8926 9.87393L45.2039 13.605L40.4062 1.00865C40.9166 0.645871 49.0699 2.65197 50.3024 2.99073C52.0621 3.47603 54.9267 4.19678 56.4938 4.95838C56.8501 5.13136 57.2786 5.29954 57.4062 5.72478V19.5296L48.8099 28.5655H48.8147Z" fill="white"/>
<path d="M52.1759 52.7732C52.3709 53.0351 49.6651 57.3044 48.9405 57.3164C48.4952 57.326 47.0918 56.4082 46.4755 56.18C43.0308 54.897 39.3958 54.0778 35.7248 53.7294C26.2282 52.8285 15.2777 56.0743 6.71997 51.0434C4.8688 49.9551 2.82746 48.4295 2.23047 46.3008L5.28044 48.4078C14.7818 54.2003 22.7329 50.7815 32.6098 49.895C39.2346 49.2992 46.1698 49.7965 52.1783 52.7708L52.1759 52.7732Z" fill="white"/>
</svg>
