<svg width="69" height="52" viewBox="0 0 69 52" fill="none" xmlns="http://www.w3.org/2000/svg">
<path d="M68.9266 0V10.0008C66.3334 10.0383 63.8177 10.615 61.5416 11.8551C51.9627 17.0736 51.4201 31.5004 60.2332 37.7363C62.7607 39.525 65.8213 40.4346 68.9266 40.4346V51.134C66.5048 51.1222 64.0855 50.8222 61.7483 50.2056C56.9001 48.9256 52.4889 46.2203 49.1769 42.4788L52.4372 50.2759H40.3661L36.3965 40.0689L15.7612 40.0571L11.7211 50.2759H0L4.34785 40.0032C16.6609 34.5738 29.5071 30.3423 42.6258 27.2619C42.5389 24.5355 42.7174 21.8208 43.3868 19.1764C46.2666 7.77606 56.3693 0.379778 68.0129 0.00468961C68.3159 -0.00468761 68.6236 0.0117225 68.9289 0.00468961L68.9266 0Z" fill="white"/>
<path d="M40.9583 23.2813L30.555 24.7629L26.031 13.2266L20.9526 26.4414C17.0017 27.2338 13.0321 27.9535 9.10938 28.8725L21.218 0.480591L31.2338 0.534509L40.9607 23.279L40.9583 23.2813Z" fill="white"/>
</svg>
