<svg width="57" height="65" viewBox="0 0 57 65" fill="none" xmlns="http://www.w3.org/2000/svg">
<path d="M13.636 7.362C19.7265 -2.45261 36.5453 -2.52383 42.3427 7.56801L49.1849 7.61379C49.4244 7.85286 48.7542 10.7319 49.5646 11.177H56.0628V64.3321H0V11.177H6.49819C7.39009 10.1749 6.53131 8.59805 6.88043 7.362H13.6334H13.636ZM46.1269 10.414H40.6481C35.9388 0.500163 20.0909 0.540857 15.3663 10.4191L9.92311 10.5259L9.68357 14.2289H3.05797V61.2801H53.0048V13.9746H46.1244C46.5958 12.853 46.4353 11.5534 46.1244 10.414H46.1269Z" fill="white"/>
<path d="M48.421 28.9801C48.4516 30.2111 48.0974 32.1084 46.6754 32.3246L46.8895 48.8204H48.421L48.4185 51.6181C48.1687 51.4146 47.9419 51.6181 47.7839 51.6181H7.64809V48.8204L8.94008 48.7111L9.42935 32.0346C8.03798 32.6043 7.59967 30.0076 7.64809 28.9826H48.421V28.9801ZM12.9995 48.8179H17.5865L18.0987 32.2889L16.8806 31.9736L16.8245 30.763L13.7691 30.5061C14.3807 31.9507 12.5205 32.2839 12.4771 32.4441C12.1408 33.6623 12.7294 36.1904 12.7575 37.49C12.8415 41.2719 12.551 45.0614 13.0021 48.8179H12.9995ZM38.4826 48.8179H43.0696L43.5945 32.4415L42.3382 31.9939L42.0554 30.6155L39.6166 30.5646L39.2114 31.9939L37.9551 32.4415L38.4801 48.8154L38.4826 48.8179ZM21.409 48.8179H25.9959L26.5209 32.4441C25.4072 32.0779 25.3257 31.8693 25.0862 30.7452L22.1734 30.7604L22.1225 31.971L20.8993 32.2864L21.4115 48.8154L21.409 48.8179ZM30.2006 48.8179H34.6602L34.9252 32.4543C33.9543 31.9354 33.6714 31.9481 33.4956 30.7452L30.8453 30.7706C30.9982 31.999 30.3663 31.9405 29.5508 32.4543L29.8031 47.9405L30.1981 48.8179H30.2006Z" fill="white"/>
<path d="M50.4594 25.1651L49.2719 27.9373L27.9146 20.5719L6.38134 27.9526L5.60156 25.2974L27.9273 17.2936L50.4594 25.1651Z" fill="white"/>
<path d="M51.223 56.1934H4.84375V57.9737H51.223V56.1934Z" fill="white"/>
<path d="M49.9481 53.3958H6.11719V54.9218H49.9481V53.3958Z" fill="white"/>
</svg>
