<svg width="32" height="37" viewBox="0 0 32 37" fill="none" xmlns="http://www.w3.org/2000/svg">
<path d="M19.574 14.6202C18.9416 14.4461 18.9168 13.0829 20.1909 12.9379C21.3549 12.805 24.4253 12.8188 25.5785 12.9806C26.9594 13.176 27.9034 14.0736 28.0274 15.4537C28.4675 20.3678 27.6802 25.9047 28.0274 30.886C27.9592 32.1515 26.6929 33.1087 25.4622 33.2446C19.3648 32.8935 12.7357 33.7102 6.70022 33.2507C5.28513 33.1423 4.28387 32.5546 3.84989 31.173L3.83594 15.1499C4.05293 13.8599 5.27118 13.0462 6.54523 12.9333C7.61933 12.8386 10.4976 12.7928 11.5019 12.9485C12.5636 13.1134 12.5466 14.3652 11.7918 14.5881C10.6107 14.9377 7.83477 14.408 6.40573 14.6263C5.58582 14.7514 5.44942 15.3545 5.38277 16.0613C4.95809 20.5601 5.71136 25.6971 5.38897 30.2647C5.47112 30.9913 5.72686 31.5134 6.54833 31.5653C12.5481 31.1623 19.2408 32.0889 25.1584 31.5699C25.7303 31.5195 26.2883 31.3944 26.3209 30.7303L26.169 14.9881C26.1178 14.9194 25.6528 14.6171 25.6157 14.6171H19.5709L19.574 14.6202Z" fill="white"/>
<path d="M16.8605 6.37646V22.482C16.8605 22.7415 16.2932 23.1568 15.9925 23.1705C15.7213 23.1827 15.1556 22.7827 15.1556 22.6347V6.52912C14.1202 7.12907 11.5163 10.5486 10.5693 10.6494C9.54015 10.7593 9.34796 9.9548 9.88579 9.20066C11.1924 7.3718 14.1171 5.67881 15.5338 3.77363C15.8561 3.54464 16.318 3.54769 16.6358 3.77363L22.2915 9.34416C22.8262 10.2555 22.0512 11.0402 21.112 10.5059L16.859 6.37646H16.8605Z" fill="white"/>
</svg>
