<svg width="392" height="392" viewBox="0 0 392 392" fill="none" xmlns="http://www.w3.org/2000/svg">
<path d="M198.402 126.801C197.67 117.961 209.226 121.133 211.026 112.425C214.802 94.1489 180.938 92.7529 180.802 110.005L187.826 110.245C188.718 109.817 188.762 108.293 189.262 107.465C191.97 102.977 203.774 103.585 203.382 110.065C203.15 113.917 197.818 114.493 195.07 116.477C191.418 119.113 190.514 122.393 190.802 126.809H198.402V126.801ZM198.954 133.773C198.954 131.257 196.914 129.213 194.394 129.213C191.874 129.213 189.834 131.253 189.834 133.773C189.834 136.293 191.874 138.333 194.394 138.333C196.914 138.333 198.954 136.293 198.954 133.773ZM211.254 160.989C211.254 152.605 204.458 145.809 196.074 145.809C187.69 145.809 180.894 152.605 180.894 160.989C180.894 169.373 187.69 176.169 196.074 176.169C204.458 176.169 211.254 169.373 211.254 160.989ZM185.506 180.461C182.918 182.165 176.678 182.677 174.59 184.389C173.17 185.557 172.934 188.789 172.806 190.605C172.314 197.509 172.066 211.073 172.846 217.757C173.362 222.177 177.218 225.445 177.594 227.409C178.302 231.113 177.622 236.733 178.006 240.597C178.442 244.981 181.19 249.009 185.514 250.289C188.87 251.281 203.382 251.193 206.71 250.113C216.646 246.893 213.05 235.041 214.418 227.421C214.802 225.285 218.51 222.241 219.086 217.689C219.794 212.101 219.87 191.461 218.63 186.373C218.51 185.881 218.294 185.413 218.01 184.993C214.55 182.845 209.906 181.873 205.958 180.593C204.162 180.989 198.826 189.665 197.23 191.429L195.81 192.033C194.83 191.937 189.49 183.797 188.206 182.397C187.502 181.633 186.554 180.345 185.506 180.461ZM148.002 192.801C148.914 189.597 156.242 187.005 153.206 183.397C151.73 181.645 150.478 181.725 148.794 182.997C146.682 184.589 139.394 191.881 137.794 193.997C136.334 195.925 136.562 196.529 138.146 198.261C140.842 201.205 144.71 204.969 147.646 207.761C149.742 209.757 151.13 211.185 153.414 208.413C156.814 204.293 148.998 202.381 148.006 198.805L164.146 198.749C165.27 198.381 164.834 194.629 164.602 193.605C164.494 193.425 163.514 192.805 163.402 192.805H148.002V192.801ZM244.002 192.801H229.002C226.678 192.801 226.694 197.425 227.802 198.801H243.402L243.806 199.601C242.682 201.265 237.782 204.441 237.59 206.213C237.362 208.305 241.254 211.485 243.062 209.057C244.322 206.577 255.042 197.817 255.214 196.185C255.314 195.245 254.714 194.657 254.21 193.993C252.618 191.885 245.314 184.581 243.21 182.993C240.538 180.977 238.91 182.753 237.67 185.337C237.778 186.625 242.354 190.233 243.402 191.601C243.71 192.005 244.174 192.105 243.998 192.805L244.002 192.801ZM168.802 239.601C152.126 241.761 129.886 244.569 115.874 254.477C97.1579 267.709 115.63 279.289 129.094 284.309C163.41 297.101 220.678 296.889 255.686 286.689C270.186 282.465 298.79 269.417 275.166 253.837C260.874 244.413 239.89 241.733 223.198 239.597L221.91 246.909L218.002 253.997C234.722 255.261 251.65 258.293 266.798 265.605C267.442 266.465 262.594 268.537 261.87 268.869C235.658 280.853 188.102 281.053 159.866 276.733C148.158 274.941 135.518 272.061 125.206 266.201C125.182 264.257 142.778 258.985 145.346 258.349C154.642 256.049 164.442 254.685 173.998 254.001C173.27 252.277 171.898 250.865 171.05 249.153C169.622 246.269 168.558 242.841 168.802 239.601Z" fill="white"/>
<path d="M168.802 239.6C168.562 242.84 169.626 246.268 171.05 249.152C171.898 250.868 173.266 252.276 173.998 254C164.442 254.684 154.642 256.052 145.346 258.348C142.778 258.984 125.182 264.256 125.206 266.2C135.518 272.064 148.154 274.94 159.866 276.732C188.098 281.052 235.658 280.852 261.87 268.868C262.594 268.536 267.446 266.464 266.798 265.604C251.65 258.292 234.722 255.26 218.002 253.996L221.91 246.908L223.198 239.596C239.89 241.728 260.874 244.408 275.166 253.836C298.79 269.416 270.186 282.464 255.686 286.688C220.678 296.888 163.41 297.1 129.094 284.308C115.63 279.288 97.1579 267.708 115.874 254.476C129.886 244.568 152.126 241.76 168.802 239.6Z" fill="#B3322F"/>
<path d="M185.51 180.46C186.558 180.344 187.506 181.628 188.21 182.396C189.494 183.792 194.834 191.936 195.814 192.032L197.234 191.428C198.83 189.664 204.166 180.988 205.962 180.592C209.91 181.872 214.554 182.844 218.014 184.992C218.298 185.412 218.514 185.88 218.634 186.372C219.874 191.464 219.802 212.1 219.09 217.688C218.514 222.24 214.806 225.284 214.422 227.42C213.054 235.04 216.65 246.892 206.714 250.112C203.386 251.192 188.874 251.28 185.518 250.288C181.19 249.008 178.446 244.984 178.01 240.596C177.626 236.736 178.306 231.116 177.598 227.408C177.222 225.444 173.366 222.176 172.85 217.756C172.07 211.068 172.322 197.508 172.81 190.604C172.938 188.788 173.174 185.556 174.594 184.388C176.682 182.676 182.922 182.164 185.51 180.46Z" fill="#B3322F"/>
<path d="M196.078 176.169C204.462 176.169 211.258 169.372 211.258 160.989C211.258 152.605 204.462 145.809 196.078 145.809C187.695 145.809 180.898 152.605 180.898 160.989C180.898 169.372 187.695 176.169 196.078 176.169Z" fill="#B3322F"/>
<path d="M198.405 126.8H190.805C190.517 122.384 191.425 119.104 195.073 116.468C197.817 114.484 203.153 113.908 203.385 110.056C203.773 103.576 191.973 102.968 189.265 107.456C188.765 108.284 188.721 109.812 187.829 110.236L180.805 109.996C180.941 92.7437 214.805 94.1437 211.029 112.416C209.229 121.124 197.673 117.952 198.405 126.792V126.8Z" fill="#B3322F"/>
<path d="M194.396 138.331C196.914 138.331 198.956 136.289 198.956 133.771C198.956 131.253 196.914 129.211 194.396 129.211C191.878 129.211 189.836 131.253 189.836 133.771C189.836 136.289 191.878 138.331 194.396 138.331Z" fill="#B3322F"/>
<path d="M148.003 192.8H163.403C163.515 192.8 164.495 193.42 164.603 193.6C164.835 194.624 165.271 198.376 164.147 198.744L148.007 198.8C148.999 202.38 156.811 204.292 153.415 208.408C151.131 211.18 149.743 209.752 147.647 207.756C144.715 204.964 140.843 201.2 138.147 198.256C136.563 196.524 136.339 195.92 137.795 193.992C139.395 191.876 146.683 184.584 148.795 182.992C150.479 181.724 151.735 181.64 153.207 183.392C156.243 187 148.915 189.596 148.003 192.796V192.8Z" fill="#B3322F"/>
<path d="M244 192.8C244.176 192.1 243.712 192 243.404 191.596C242.356 190.228 237.776 186.62 237.672 185.332C238.912 182.752 240.536 180.976 243.212 182.988C245.316 184.576 252.62 191.88 254.212 193.988C254.716 194.656 255.316 195.244 255.216 196.18C255.044 197.812 244.324 206.572 243.064 209.052C241.256 211.48 237.364 208.3 237.592 206.208C237.784 204.436 242.684 201.26 243.808 199.596L243.404 198.796H227.804C226.696 197.42 226.68 192.796 229.004 192.796H244.004L244 192.8Z" fill="#B3322F"/>
</svg>
