<svg width="112" height="112" viewBox="0 0 112 112" fill="none" xmlns="http://www.w3.org/2000/svg">
<path d="M55.1309 11.3906C55.695 11.2029 56.305 11.2029 56.8691 11.3906H56.8701L98.8701 25.3906C99.4176 25.5732 99.894 25.9235 100.231 26.3916V26.3926C100.569 26.8607 100.75 27.4231 100.75 28C100.75 28.5769 100.569 29.1393 100.231 29.6074V29.6084C99.894 30.0765 99.4176 30.4268 98.8701 30.6094L78.6455 37.3496C80.6742 40.3806 82.0777 43.7913 82.7646 47.3828C83.5376 51.4236 83.3855 55.5871 82.3193 59.5605C81.2532 63.5341 79.3003 67.2151 76.6084 70.3262C74.4845 72.7807 71.9421 74.8274 69.1084 76.3818C77.9128 79.3256 85.4917 85.1687 90.5762 92.9961L90.7129 93.2295C90.8379 93.469 90.9273 93.7267 90.9775 93.9932C91.0443 94.3482 91.04 94.7129 90.9658 95.0664C90.8916 95.4202 90.748 95.7564 90.5439 96.0547C90.3399 96.3528 90.079 96.6083 89.7764 96.8057C89.4738 97.0029 89.1353 97.1387 88.7803 97.2051C88.425 97.2715 88.0596 97.2671 87.7061 97.1924C87.3524 97.1176 87.0167 96.974 86.7188 96.7695C86.4207 96.565 86.1657 96.3031 85.9688 96C82.7209 91.0111 78.279 86.9119 73.0459 84.0742C67.8125 81.2364 61.9533 79.75 56 79.75C50.0467 79.75 44.1875 81.2364 38.9541 84.0742C33.7211 86.9118 29.2781 91.0102 26.0303 95.999L26.0312 96C25.8343 96.3031 25.5793 96.565 25.2812 96.7695C24.9832 96.974 24.6476 97.1176 24.2939 97.1924C23.9403 97.2671 23.575 97.2715 23.2197 97.2051C22.8647 97.1387 22.5262 97.0029 22.2236 96.8057C21.9209 96.6083 21.6592 96.353 21.4551 96.0547C21.251 95.7563 21.1084 95.4202 21.0342 95.0664C20.96 94.7128 20.9557 94.3482 21.0225 93.9932C21.0894 93.638 21.226 93.2986 21.4238 92.9961C26.5082 85.169 34.0866 79.3256 42.8906 76.3818C40.0572 74.8274 37.5153 72.7805 35.3916 70.3262C32.6997 67.2151 30.7469 63.5341 29.6807 59.5605C28.6145 55.5871 28.4624 51.4236 29.2354 47.3828C29.9223 43.7915 31.325 40.3805 33.3535 37.3496L16.75 31.8154V63C16.75 63.7293 16.4601 64.4286 15.9443 64.9443C15.4286 65.4601 14.7293 65.75 14 65.75C13.2707 65.75 12.5714 65.4601 12.0557 64.9443C11.5399 64.4286 11.25 63.7293 11.25 63V27.9922L11.2637 27.7393C11.2718 27.6584 11.2845 27.578 11.2998 27.498H11.2988C11.3078 27.4498 11.3177 27.4084 11.3242 27.3828C11.3366 27.3342 11.3308 27.3623 11.3359 27.3418C11.3625 27.2332 11.395 27.126 11.4346 27.0215L11.4365 27.0176C11.4536 26.9731 11.4762 26.9158 11.5049 26.8535L11.5068 26.8496C11.5545 26.7473 11.6081 26.6475 11.668 26.5518C11.6684 26.551 11.6694 26.5498 11.6699 26.5488C11.6718 26.5456 11.674 26.5409 11.6768 26.5361C11.6875 26.5179 11.7112 26.48 11.7412 26.4365H11.7402C11.8314 26.3039 11.9339 26.1791 12.0469 26.0645L12.0479 26.0635C12.0725 26.0385 12.0943 26.019 12.1094 26.0059L12.1328 25.9863C12.1294 25.9892 12.125 25.9938 12.1191 25.999C12.2139 25.9099 12.3144 25.8268 12.4209 25.752L12.5195 25.6885C12.5526 25.6683 12.5436 25.6735 12.5557 25.666L12.6953 25.585C12.7428 25.5592 12.7909 25.5347 12.8398 25.5117L12.8447 25.5088C12.9005 25.483 12.957 25.4598 13.0146 25.4375L13.0156 25.4365C13.0001 25.4425 12.989 25.4476 12.9854 25.4492C12.9866 25.4486 12.9889 25.4473 12.9932 25.4453C13.0074 25.4388 13.0617 25.4134 13.1299 25.3906L55.1299 11.3906H55.1309ZM56.8701 44.6094H56.8691C56.305 44.7971 55.695 44.7971 55.1309 44.6094H55.1299L38.8135 39.1699C36.8173 41.7434 35.4228 44.7351 34.7363 47.9248C34.0021 51.3368 34.1003 54.8759 35.0215 58.2422C35.9427 61.6082 37.6603 64.7031 40.0293 67.2656C42.3986 69.8283 45.35 71.7838 48.6338 72.9658C51.9175 74.1478 55.4376 74.5214 58.8965 74.0566C62.3553 73.5918 65.6516 72.3017 68.5068 70.2949C71.3621 68.288 73.6931 65.6235 75.3018 62.5264C76.9105 59.4292 77.7501 55.9901 77.75 52.5V52.499C77.7548 47.6652 76.1433 42.9761 73.1846 39.1699L56.8701 44.6094ZM22.6953 28L55.999 39.1006L73.1807 33.374L73.1865 33.3721L89.3037 27.999L56 16.8984L22.6953 28Z" fill="#B3322F" stroke="#B3322F" stroke-width="2"/>
</svg>
