<svg width="330" height="330" viewBox="0 0 330 330" fill="none" xmlns="http://www.w3.org/2000/svg">
<path d="M176.824 84.7192L90.0762 108.524C78.1816 111.789 71.1852 124.077 74.4493 135.972L108.492 260.026C111.756 271.92 124.045 278.917 135.94 275.652L222.687 251.847C234.582 248.583 241.578 236.294 238.314 224.4L204.271 100.346C201.007 88.4514 188.718 81.455 176.824 84.7192Z" fill="white"/>
<path d="M144.251 81.7435C153.033 78.5663 162.433 76.9784 168.034 86.1017C176.964 83.9911 184.236 79.6073 193.298 83.4891C201.22 86.8806 203.549 94.0503 205.916 101.724C239.891 109.096 251.433 151.921 225.82 175.335L239.971 226.744C242.053 236.232 237.634 246.079 228.73 250.158L131.302 276.923C121.619 278.719 112.597 272.872 109.497 263.605L73.312 131.853C72.2826 126.15 72.6401 120.754 76.0126 115.928C81.7004 107.803 89.9616 107.816 98.7497 105.107C99.1599 94.3127 107.696 91.0802 116.997 89.2151C112.481 71.0951 139.104 63.7531 144.255 81.735L144.251 81.7435ZM126.381 76.4647C122.977 78.0138 120.132 82.6232 120.605 86.3796C120.821 88.0644 122.485 90.9369 121.068 92.1799C119.493 93.5602 111.72 94.6945 108.937 95.9213C100.128 99.7933 101.508 113.629 112.036 111.774C127.229 106.454 145.123 104.149 160.03 98.6039C170.294 94.7883 164.252 81.9214 154.157 83.4253C151.632 83.7996 143.786 86.7777 142.262 86.3639C140.502 85.8843 140.106 81.542 139.147 79.8657C136.722 75.6459 130.627 74.5323 126.379 76.4579L126.381 76.4647ZM236.601 230.368L222.265 178.127C211.879 185.826 199.338 187.068 186.976 184.692C184.067 186.142 169.777 195.781 167.704 195.032C167.262 194.871 167.109 194.501 166.923 194.11C165.236 190.549 167.186 177.718 166.109 173.158C139.661 143.767 161.787 98.5197 201.071 100.896C200.09 95.9478 198.503 92.0915 194.448 88.9706C186.601 82.9243 177.964 87.4223 169.475 89.455C170.092 95.2636 167.568 100.096 162.048 102.32C146.004 105.724 129.096 112.89 113.139 115.821C106.393 117.057 102.499 114.42 99.1919 108.749C87.6334 111.147 75.3911 115.035 76.9592 129.267L113.505 262.549C116.4 270.671 124.008 274.604 132.347 272.844L225.661 247.15C232.037 245.118 237.442 237.02 236.596 230.377L236.601 230.368ZM171.1 189.447L186.88 180.333C222.377 190.298 250.091 149.402 227.426 120.058C199.93 84.4483 142.439 118.181 163.014 161.378C164.479 164.45 169.516 170.015 170.03 171.546C170.875 174.043 170.31 188.969 171.098 189.44L171.1 189.447Z" fill="#B3322F"/>
<path d="M126.382 76.4647C130.631 74.539 136.726 75.6526 139.15 79.8724C140.11 81.5487 140.505 85.891 142.265 86.3706C143.79 86.7844 151.636 83.8064 154.16 83.432C164.254 81.9214 170.303 94.7864 160.033 98.6106C145.127 104.156 127.232 106.461 112.039 111.781C101.51 113.629 100.13 99.7933 108.941 95.928C111.725 94.7079 119.503 93.5651 121.071 92.1866C122.489 90.9436 120.825 88.0711 120.609 86.3863C120.128 82.6318 122.981 78.0205 126.384 76.4714L126.382 76.4647Z" fill="white"/>
<path d="M171.103 189.447C170.315 188.975 170.88 174.049 170.036 171.553C169.515 170.024 164.476 164.452 163.019 161.385C142.444 118.187 199.936 84.455 227.432 120.065C250.089 149.411 222.383 190.305 186.885 180.339L171.105 189.454L171.103 189.447ZM203.96 153.211C199.429 144.163 209.883 140.983 211.202 132.841C214.043 115.293 197.051 111.655 183.712 117.19C181.295 118.194 172.854 123.644 172.45 126.128C172.163 127.879 178.762 134.731 180.196 134.996C182.194 135.367 185.151 131.769 187.098 130.612C191.236 128.152 199.579 125.378 196.431 133.37C194.81 137.484 190.886 139.061 189.58 144.376C188.915 147.07 189.041 155.149 191.362 156.487C192.832 157.336 203.665 154.219 203.967 153.209L203.96 153.211ZM197.317 156.88C187.426 160.947 192.206 176.679 204.031 172.218C213.893 168.492 208.603 152.248 197.317 156.88Z" fill="white"/>
<path d="M203.958 153.211C203.656 154.22 192.817 157.34 191.353 156.489C189.023 155.146 188.906 147.072 189.571 144.378C190.877 139.063 194.799 137.48 196.422 133.372C199.572 125.386 191.229 128.161 187.089 130.614C185.141 131.771 182.184 135.369 180.187 134.998C178.753 134.733 172.154 127.881 172.441 126.13C172.847 123.652 181.292 118.194 183.703 117.192C197.05 111.662 214.034 115.295 211.193 132.843C209.879 140.977 199.427 144.163 203.951 153.213L203.958 153.211Z" fill="#B3322F"/>
<path d="M197.318 156.88C208.602 152.242 213.887 168.493 204.031 172.218C192.215 176.684 187.426 160.947 197.318 156.88Z" fill="#B3322F"/>
<path d="M137.832 132.727L90.7266 145.654L91.6002 148.837L138.706 135.91L137.832 132.727Z" fill="#B3322F"/>
<path d="M140.864 143.778L93.7578 156.705L94.6314 159.888L141.737 146.962L140.864 143.778Z" fill="#B3322F"/>
<path d="M143.895 154.823L96.7891 167.749L97.6627 170.933L144.768 158.006L143.895 154.823Z" fill="#B3322F"/>
<path d="M146.926 165.867L99.8203 178.794L100.694 181.977L147.8 169.051L146.926 165.867Z" fill="#B3322F"/>
<path d="M149.957 176.912L102.852 189.838L103.725 193.022L150.831 180.095L149.957 176.912Z" fill="#B3322F"/>
<path d="M152.989 187.956L105.883 200.883L106.756 204.066L153.862 191.14L152.989 187.956Z" fill="#B3322F"/>
<path d="M156.02 199.007L108.914 211.934L109.788 215.118L156.893 202.191L156.02 199.007Z" fill="#B3322F"/>
<path d="M159.051 210.052L111.945 222.979L112.819 226.162L159.925 213.235L159.051 210.052Z" fill="#B3322F"/>
<path d="M162.082 221.096L114.977 234.023L115.85 237.207L162.956 224.28L162.082 221.096Z" fill="#B3322F"/>
<path d="M165.114 232.141L118.008 245.068L118.881 248.251L165.987 235.324L165.114 232.141Z" fill="#B3322F"/>
<path d="M168.137 243.185L121.031 256.112L121.905 259.296L169.011 246.369L168.137 243.185Z" fill="#B3322F"/>
</svg>
