<svg width="23" height="25" viewBox="0 0 23 25" fill="none" xmlns="http://www.w3.org/2000/svg">
<path d="M21.6954 11.3352C20.7831 9.71984 15.6087 0.398719 15.6087 0.398719C15.5424 0.277915 15.4453 0.177219 15.3273 0.1071C15.2093 0.0369816 15.0749 0 14.938 0C14.801 0 14.6666 0.0369816 14.5486 0.1071C14.4307 0.177219 14.3335 0.277915 14.2672 0.398719L9.66774 8.62233L7.368 4.54144C7.3017 4.42064 7.20453 4.31994 7.08657 4.24982C6.96861 4.1797 6.83417 4.14272 6.69724 4.14272C6.56031 4.14272 6.42587 4.1797 6.30791 4.24982C6.18995 4.31994 6.09278 4.42064 6.02648 4.54144C6.02648 4.54144 1.84096 12.1931 1.08971 13.5225C0.354343 14.7046 -0.0238877 16.0769 0.00116898 17.472C0.00116898 21.4215 2.9755 24.9304 6.64741 25H14.9341C19.3803 25 22.9986 20.8418 22.9986 16.0653C23.0291 14.3945 22.5762 12.7508 21.6954 11.3352ZM14.1676 23.4542H8.8475C7.92655 23.4266 7.05144 23.0428 6.40352 22.3823C5.7556 21.7219 5.38454 20.8354 5.36722 19.9066C5.36112 19.2571 5.56273 18.6229 5.94216 18.098L8.5102 14.0712C8.54495 14.017 8.59262 13.9724 8.64886 13.9415C8.7051 13.9107 8.76812 13.8945 8.83216 13.8945C8.8962 13.8945 8.95922 13.9107 9.01547 13.9415C9.07171 13.9724 9.11938 14.017 9.15413 14.0712L10.5186 16.2122V16.1503C11.0016 15.2924 13.7613 10.3691 13.7613 10.3691C13.7947 10.3096 13.8432 10.2601 13.9018 10.2257C13.9603 10.1913 14.0269 10.1732 14.0947 10.1732C14.1625 10.1732 14.2291 10.1913 14.2877 10.2257C14.3463 10.2601 14.3948 10.3096 14.4282 10.3691C14.4282 10.3691 17.1879 15.3002 17.6708 16.1503C18.1489 16.8878 18.4021 17.7503 18.3991 18.6313C18.3991 23.4542 14.6428 23.4542 14.1676 23.4542Z" fill="white"/>
</svg>
