<svg width="109" height="96" viewBox="0 0 109 96" fill="none" xmlns="http://www.w3.org/2000/svg">
<g clip-path="url(#clip0_630_3876)">
<path d="M54.0339 0.013382C51.3217 0.172264 49.2892 1.80613 47.56 3.74117C33.1056 29.3329 16.9363 54.1303 2.87036 79.9426C0.835569 83.6775 -1.25371 87.1374 0.925583 91.458C2.52926 94.6427 5.85267 95.6529 9.18083 95.9992H99.9245C108.476 95.3684 111.375 88.4606 106.943 81.3655C91.385 55.2306 76.6796 28.5362 60.7092 2.6788C58.8473 1.01647 56.6159 -0.138385 54.0339 0.013382Z" fill="white"/>
<path d="M54.0352 0.013382C56.6172 -0.138385 58.8486 1.01647 60.7105 2.6788C76.6785 28.5385 91.384 55.233 106.945 81.3655C111.377 88.4606 108.477 95.3684 99.9259 95.9992H9.17978C5.85163 95.6529 2.53058 94.6404 0.924538 91.458C-1.25238 87.1374 0.834524 83.6775 2.86932 79.9426C16.9376 54.1303 33.107 29.3329 47.5613 3.74117C49.2882 1.80613 51.323 0.172264 54.0352 0.013382ZM54.0163 4.98377C53.2062 5.12605 52.7111 5.6928 52.0668 6.11728C36.139 32.4134 20.7632 59.122 5.33286 85.7288C4.03239 88.8021 5.83741 90.7537 8.9429 91.0193H100.397C103.278 90.7015 104.559 89.1791 103.955 86.2552C88.8257 59.4445 73.1775 32.8592 57.5221 6.34493C56.4348 5.46041 55.5063 4.72291 54.0163 4.98614V4.98377Z" fill="#B3322F"/>
<path d="M54.0164 4.98374C55.5064 4.72052 56.4326 5.45801 57.5222 6.34253C73.1776 32.8568 88.8258 59.4422 103.955 86.2528C104.559 89.1791 103.28 90.7015 100.397 91.0193H8.94303C5.83754 90.7513 4.03252 88.802 5.33299 85.7264C20.7633 59.122 36.1391 32.4133 52.0669 6.11725C52.7112 5.69278 53.2063 5.12602 54.0164 4.98374ZM57.0745 62.2333C57.7425 61.6096 58.0363 60.7298 58.1144 59.8358C58.7848 52.136 57.6075 43.4592 58.0907 35.655C57.1338 31.9106 52.029 31.9225 51.0152 35.655L51.0223 60.2793C51.425 63.0537 55.1037 64.0782 57.0769 62.2333H57.0745ZM58.2092 71.6594C58.2092 69.6367 56.5723 67.998 54.5518 67.998C52.5312 67.998 50.8944 69.6367 50.8944 71.6594C50.8944 73.6822 52.5312 75.3208 54.5518 75.3208C56.5723 75.3208 58.2092 73.6822 58.2092 71.6594Z" fill="white"/>
<path d="M57.0696 62.2337C55.0963 64.0786 51.4176 63.0542 51.0149 60.2797L51.0078 35.6554C52.024 31.9229 57.1264 31.911 58.0834 35.6554C57.6002 43.4596 58.7775 52.1364 58.1071 59.8362C58.0289 60.7302 57.7352 61.61 57.0672 62.2337H57.0696Z" fill="#B3322F"/>
<path d="M54.548 75.3208C56.568 75.3208 58.2055 73.6816 58.2055 71.6594C58.2055 69.6373 56.568 67.998 54.548 67.998C52.5281 67.998 50.8906 69.6373 50.8906 71.6594C50.8906 73.6816 52.5281 75.3208 54.548 75.3208Z" fill="#B3322F"/>
</g>
<defs>
<clipPath id="clip0_630_3876">
<rect width="109" height="96" fill="white"/>
</clipPath>
</defs>
</svg>
