<svg width="1548" height="681" viewBox="0 0 1548 681" fill="none" xmlns="http://www.w3.org/2000/svg">
<g filter="url(#filter0_d_2364_3)">
<mask id="path-1-outside-1_2364_3" maskUnits="userSpaceOnUse" x="329" y="189" width="894" height="140" fill="black">
<rect fill="white" x="329" y="189" width="894" height="140"/>
<path d="M332.561 324V194.4H360.281V324H332.561ZM345.521 273.78V252.54H419.861V273.78H345.521ZM345.521 215.64V194.4H424.001V215.64H345.521ZM420.693 324L467.133 194.4H490.893L448.233 324H420.693ZM515.733 324L473.253 194.4H498.093L544.533 324H515.733ZM445.173 273.78H517.893V295.38H445.173V273.78ZM557.912 324V194.4H585.632V324H557.912ZM570.872 324V302.76H647.912V324H570.872ZM664.084 324V194.4H691.804V324H664.084ZM677.044 324V302.76H754.084V324H677.044ZM800.033 324V302.4C811.913 292.68 821.813 284.34 829.733 277.38C837.773 270.3 844.133 264.06 848.813 258.66C853.613 253.26 857.033 248.34 859.073 243.9C861.113 239.46 862.133 235.02 862.133 230.58C862.133 225.3 860.693 221.22 857.813 218.34C855.053 215.34 851.153 213.84 846.113 213.84C840.833 213.84 836.453 215.46 832.973 218.7C829.493 221.94 827.333 226.38 826.493 232.02H798.773C800.093 219.78 805.073 210.18 813.713 203.22C822.353 196.14 833.513 192.6 847.193 192.6C861.113 192.6 871.973 196.2 879.773 203.4C887.573 210.48 891.473 220.38 891.473 233.1C891.473 239.1 890.453 244.86 888.413 250.38C886.493 255.9 883.253 261.6 878.693 267.48C874.133 273.36 867.893 279.84 859.973 286.92C852.173 293.88 842.393 301.86 830.633 310.86L823.973 302.76H893.993V324H800.033ZM957.987 325.8C947.187 325.8 937.527 322.98 929.007 317.34C920.607 311.58 914.007 303.66 909.207 293.58C904.407 283.38 902.007 271.74 902.007 258.66C902.007 245.58 904.407 234.12 909.207 224.28C914.007 214.32 920.607 206.58 929.007 201.06C937.527 195.42 947.187 192.6 957.987 192.6C968.907 192.6 978.567 195.42 986.967 201.06C995.367 206.58 1001.97 214.32 1006.77 224.28C1011.57 234.12 1013.97 245.58 1013.97 258.66C1013.97 271.86 1011.57 283.5 1006.77 293.58C1001.97 303.66 995.307 311.58 986.787 317.34C978.387 322.98 968.787 325.8 957.987 325.8ZM957.987 302.76C964.107 302.76 969.147 300.72 973.107 296.64C977.067 292.56 980.007 287.16 981.927 280.44C983.847 273.72 984.807 266.4 984.807 258.48C984.807 250.56 983.847 243.36 981.927 236.88C980.007 230.4 977.067 225.24 973.107 221.4C969.147 217.56 964.107 215.64 957.987 215.64C951.867 215.64 946.827 217.62 942.867 221.58C938.907 225.42 935.967 230.58 934.047 237.06C932.127 243.54 931.167 250.68 931.167 258.48C931.167 266.52 932.127 273.9 934.047 280.62C935.967 287.34 938.907 292.74 942.867 296.82C946.947 300.78 951.987 302.76 957.987 302.76ZM1022.57 324V302.4C1034.45 292.68 1044.35 284.34 1052.27 277.38C1060.31 270.3 1066.67 264.06 1071.35 258.66C1076.15 253.26 1079.57 248.34 1081.61 243.9C1083.65 239.46 1084.67 235.02 1084.67 230.58C1084.67 225.3 1083.23 221.22 1080.35 218.34C1077.59 215.34 1073.69 213.84 1068.65 213.84C1063.37 213.84 1058.99 215.46 1055.51 218.7C1052.03 221.94 1049.87 226.38 1049.03 232.02H1021.31C1022.63 219.78 1027.61 210.18 1036.25 203.22C1044.89 196.14 1056.05 192.6 1069.73 192.6C1083.65 192.6 1094.51 196.2 1102.31 203.4C1110.11 210.48 1114.01 220.38 1114.01 233.1C1114.01 239.1 1112.99 244.86 1110.95 250.38C1109.03 255.9 1105.79 261.6 1101.23 267.48C1096.67 273.36 1090.43 279.84 1082.51 286.92C1074.71 293.88 1064.93 301.86 1053.17 310.86L1046.51 302.76H1116.53V324H1022.57ZM1172.07 325.8C1158.75 325.8 1147.83 322.38 1139.31 315.54C1130.79 308.7 1125.51 299.1 1123.47 286.74H1151.01C1151.97 292.26 1154.37 296.64 1158.21 299.88C1162.05 303 1166.43 304.56 1171.35 304.56C1176.99 304.56 1181.49 302.64 1184.85 298.8C1188.33 294.84 1190.07 288.9 1190.07 280.98C1190.07 273.42 1188.45 267.66 1185.21 263.7C1181.97 259.62 1177.53 257.58 1171.89 257.58C1168.65 257.58 1165.59 258.36 1162.71 259.92C1159.83 261.36 1157.43 263.76 1155.51 267.12H1130.31L1136.97 194.4H1211.49V215.64H1146.69L1161.45 213.66L1158.21 254.16L1149.21 252.9C1152.33 247.98 1156.11 244.26 1160.55 241.74C1165.11 239.1 1170.87 237.78 1177.83 237.78C1186.11 237.78 1193.37 239.58 1199.61 243.18C1205.85 246.78 1210.71 251.82 1214.19 258.3C1217.67 264.78 1219.41 272.46 1219.41 281.34C1219.41 290.7 1217.43 298.68 1213.47 305.28C1209.51 311.88 1203.99 316.98 1196.91 320.58C1189.83 324.06 1181.55 325.8 1172.07 325.8Z"/>
</mask>
<path d="M332.561 324H329.561V327H332.561V324ZM332.561 194.4V191.4H329.561V194.4H332.561ZM360.281 194.4H363.281V191.4H360.281V194.4ZM360.281 324V327H363.281V324H360.281ZM345.521 273.78H342.521V276.78H345.521V273.78ZM345.521 252.54V249.54H342.521V252.54H345.521ZM419.861 252.54H422.861V249.54H419.861V252.54ZM419.861 273.78V276.78H422.861V273.78H419.861ZM345.521 215.64H342.521V218.64H345.521V215.64ZM345.521 194.4V191.4H342.521V194.4H345.521ZM424.001 194.4H427.001V191.4H424.001V194.4ZM424.001 215.64V218.64H427.001V215.64H424.001ZM332.561 324H335.561V194.4H332.561H329.561V324H332.561ZM332.561 194.4V197.4H360.281V194.4V191.4H332.561V194.4ZM360.281 194.4H357.281V324H360.281H363.281V194.4H360.281ZM360.281 324V321H332.561V324V327H360.281V324ZM345.521 273.78H348.521V252.54H345.521H342.521V273.78H345.521ZM345.521 252.54V255.54H419.861V252.54V249.54H345.521V252.54ZM419.861 252.54H416.861V273.78H419.861H422.861V252.54H419.861ZM419.861 273.78V270.78H345.521V273.78V276.78H419.861V273.78ZM345.521 215.64H348.521V194.4H345.521H342.521V215.64H345.521ZM345.521 194.4V197.4H424.001V194.4V191.4H345.521V194.4ZM424.001 194.4H421.001V215.64H424.001H427.001V194.4H424.001ZM424.001 215.64V212.64H345.521V215.64V218.64H424.001V215.64ZM420.693 324L417.869 322.988L416.431 327H420.693V324ZM467.133 194.4V191.4H465.021L464.309 193.388L467.133 194.4ZM490.893 194.4L493.743 195.338L495.039 191.4H490.893V194.4ZM448.233 324V327H450.404L451.083 324.938L448.233 324ZM515.733 324L512.882 324.934L513.559 327H515.733V324ZM473.253 194.4V191.4H469.113L470.402 195.334L473.253 194.4ZM498.093 194.4L500.917 193.388L500.205 191.4H498.093V194.4ZM544.533 324V327H548.795L547.357 322.988L544.533 324ZM445.173 273.78V270.78H442.173V273.78H445.173ZM517.893 273.78H520.893V270.78H517.893V273.78ZM517.893 295.38V298.38H520.893V295.38H517.893ZM445.173 295.38H442.173V298.38H445.173V295.38ZM420.693 324L423.517 325.012L469.957 195.412L467.133 194.4L464.309 193.388L417.869 322.988L420.693 324ZM467.133 194.4V197.4H490.893V194.4V191.4H467.133V194.4ZM490.893 194.4L488.043 193.462L445.383 323.062L448.233 324L451.083 324.938L493.743 195.338L490.893 194.4ZM448.233 324V321H420.693V324V327H448.233V324ZM515.733 324L518.584 323.066L476.104 193.466L473.253 194.4L470.402 195.334L512.882 324.934L515.733 324ZM473.253 194.4V197.4H498.093V194.4V191.4H473.253V194.4ZM498.093 194.4L495.269 195.412L541.709 325.012L544.533 324L547.357 322.988L500.917 193.388L498.093 194.4ZM544.533 324V321H515.733V324V327H544.533V324ZM445.173 273.78V276.78H517.893V273.78V270.78H445.173V273.78ZM517.893 273.78H514.893V295.38H517.893H520.893V273.78H517.893ZM517.893 295.38V292.38H445.173V295.38V298.38H517.893V295.38ZM445.173 295.38H448.173V273.78H445.173H442.173V295.38H445.173ZM557.912 324H554.912V327H557.912V324ZM557.912 194.4V191.4H554.912V194.4H557.912ZM585.632 194.4H588.632V191.4H585.632V194.4ZM585.632 324V327H588.632V324H585.632ZM570.872 324H567.872V327H570.872V324ZM570.872 302.76V299.76H567.872V302.76H570.872ZM647.912 302.76H650.912V299.76H647.912V302.76ZM647.912 324V327H650.912V324H647.912ZM557.912 324H560.912V194.4H557.912H554.912V324H557.912ZM557.912 194.4V197.4H585.632V194.4V191.4H557.912V194.4ZM585.632 194.4H582.632V324H585.632H588.632V194.4H585.632ZM585.632 324V321H557.912V324V327H585.632V324ZM570.872 324H573.872V302.76H570.872H567.872V324H570.872ZM570.872 302.76V305.76H647.912V302.76V299.76H570.872V302.76ZM647.912 302.76H644.912V324H647.912H650.912V302.76H647.912ZM647.912 324V321H570.872V324V327H647.912V324ZM664.084 324H661.084V327H664.084V324ZM664.084 194.4V191.4H661.084V194.4H664.084ZM691.804 194.4H694.804V191.4H691.804V194.4ZM691.804 324V327H694.804V324H691.804ZM677.044 324H674.044V327H677.044V324ZM677.044 302.76V299.76H674.044V302.76H677.044ZM754.084 302.76H757.084V299.76H754.084V302.76ZM754.084 324V327H757.084V324H754.084ZM664.084 324H667.084V194.4H664.084H661.084V324H664.084ZM664.084 194.4V197.4H691.804V194.4V191.4H664.084V194.4ZM691.804 194.4H688.804V324H691.804H694.804V194.4H691.804ZM691.804 324V321H664.084V324V327H691.804V324ZM677.044 324H680.044V302.76H677.044H674.044V324H677.044ZM677.044 302.76V305.76H754.084V302.76V299.76H677.044V302.76ZM754.084 302.76H751.084V324H754.084H757.084V302.76H754.084ZM754.084 324V321H677.044V324V327H754.084V324ZM800.033 324H797.033V327H800.033V324ZM800.033 302.4L798.133 300.078L797.033 300.978V302.4H800.033ZM829.733 277.38L831.714 279.633L831.716 279.631L829.733 277.38ZM848.813 258.66L846.571 256.667L846.558 256.681L846.546 256.695L848.813 258.66ZM857.813 218.34L855.605 220.371L855.648 220.417L855.692 220.461L857.813 218.34ZM832.973 218.7L830.929 216.504L832.973 218.7ZM826.493 232.02V235.02H829.079L829.46 232.462L826.493 232.02ZM798.773 232.02L795.791 231.698L795.432 235.02H798.773V232.02ZM813.713 203.22L815.595 205.556L815.605 205.548L815.615 205.54L813.713 203.22ZM879.773 203.4L877.738 205.604L877.748 205.613L877.757 205.621L879.773 203.4ZM888.413 250.38L885.599 249.34L885.589 249.367L885.58 249.394L888.413 250.38ZM859.973 286.92L861.971 289.158L861.973 289.157L859.973 286.92ZM830.633 310.86L828.316 312.765L830.156 315.003L832.456 313.242L830.633 310.86ZM823.973 302.76V299.76H817.623L821.656 304.665L823.973 302.76ZM893.993 302.76H896.993V299.76H893.993V302.76ZM893.993 324V327H896.993V324H893.993ZM800.033 324H803.033V302.4H800.033H797.033V324H800.033ZM800.033 302.4L801.933 304.722C813.829 294.989 823.758 286.625 831.714 279.633L829.733 277.38L827.753 275.127C819.868 282.055 809.997 290.371 798.133 300.078L800.033 302.4ZM829.733 277.38L831.716 279.631C839.812 272.502 846.28 266.163 851.08 260.625L848.813 258.66L846.546 256.695C841.986 261.957 835.734 268.098 827.751 275.129L829.733 277.38ZM848.813 258.66L851.055 260.653C855.968 255.127 859.592 249.957 861.799 245.152L859.073 243.9L856.347 242.647C854.475 246.723 851.259 251.393 846.571 256.667L848.813 258.66ZM859.073 243.9L861.799 245.152C864.001 240.359 865.133 235.494 865.133 230.58H862.133H859.133C859.133 234.546 858.225 238.561 856.347 242.647L859.073 243.9ZM862.133 230.58H865.133C865.133 224.75 863.53 219.814 859.935 216.219L857.813 218.34L855.692 220.461C857.856 222.626 859.133 225.85 859.133 230.58H862.133ZM857.813 218.34L860.021 216.309C856.563 212.55 851.779 210.84 846.113 210.84V213.84V216.84C850.527 216.84 853.543 218.13 855.605 220.371L857.813 218.34ZM846.113 213.84V210.84C840.165 210.84 835.027 212.689 830.929 216.504L832.973 218.7L835.017 220.896C837.879 218.231 841.501 216.84 846.113 216.84V213.84ZM832.973 218.7L830.929 216.504C826.858 220.295 824.445 225.405 823.526 231.578L826.493 232.02L829.46 232.462C830.221 227.355 832.129 223.585 835.017 220.896L832.973 218.7ZM826.493 232.02V229.02H798.773V232.02V235.02H826.493V232.02ZM798.773 232.02L801.756 232.342C803.001 220.798 807.645 211.96 815.595 205.556L813.713 203.22L811.831 200.884C802.501 208.4 797.186 218.762 795.791 231.698L798.773 232.02ZM813.713 203.22L815.615 205.54C823.606 198.992 834.046 195.6 847.193 195.6V192.6V189.6C832.981 189.6 821.101 193.288 811.812 200.9L813.713 203.22ZM847.193 192.6V195.6C860.6 195.6 870.647 199.059 877.738 205.604L879.773 203.4L881.808 201.196C873.299 193.341 861.626 189.6 847.193 189.6V192.6ZM879.773 203.4L877.757 205.621C884.802 212.016 888.473 221.036 888.473 233.1H891.473H894.473C894.473 219.724 890.344 208.944 881.79 201.179L879.773 203.4ZM891.473 233.1H888.473C888.473 238.752 887.514 244.16 885.599 249.34L888.413 250.38L891.227 251.42C893.393 245.56 894.473 239.448 894.473 233.1H891.473ZM888.413 250.38L885.58 249.394C883.791 254.536 880.735 259.952 876.323 265.642L878.693 267.48L881.064 269.318C885.772 263.248 889.195 257.264 891.247 251.366L888.413 250.38ZM878.693 267.48L876.323 265.642C871.91 271.331 865.811 277.678 857.974 284.683L859.973 286.92L861.973 289.157C869.976 282.002 876.356 275.389 881.064 269.318L878.693 267.48ZM859.973 286.92L857.976 284.682C850.25 291.576 840.533 299.506 828.81 308.478L830.633 310.86L832.456 313.242C844.254 304.214 854.097 296.184 861.971 289.158L859.973 286.92ZM830.633 310.86L832.951 308.955L826.29 300.855L823.973 302.76L821.656 304.665L828.316 312.765L830.633 310.86ZM823.973 302.76V305.76H893.993V302.76V299.76H823.973V302.76ZM893.993 302.76H890.993V324H893.993H896.993V302.76H893.993ZM893.993 324V321H800.033V324V327H893.993V324ZM929.007 317.34L927.311 319.814L927.331 319.828L927.351 319.842L929.007 317.34ZM909.207 293.58L906.493 294.857L906.499 294.87L909.207 293.58ZM909.207 224.28L911.904 225.595L911.907 225.589L911.91 225.582L909.207 224.28ZM929.007 201.06L930.655 203.567L930.663 203.562L929.007 201.06ZM986.967 201.06L985.295 203.551L985.307 203.559L985.32 203.567L986.967 201.06ZM1006.77 224.28L1004.06 225.582L1004.07 225.589L1004.07 225.595L1006.77 224.28ZM1006.77 293.58L1009.48 294.87L1006.77 293.58ZM986.787 317.34L988.46 319.831L988.468 319.825L986.787 317.34ZM973.107 296.64L970.955 294.551V294.551L973.107 296.64ZM981.927 280.44L984.812 281.264L981.927 280.44ZM981.927 236.88L984.804 236.028L981.927 236.88ZM973.107 221.4L971.019 223.554L973.107 221.4ZM942.867 221.58L944.956 223.734L944.972 223.718L944.989 223.701L942.867 221.58ZM942.867 296.82L940.715 298.909L940.746 298.942L940.778 298.973L942.867 296.82ZM957.987 325.8V322.8C947.741 322.8 938.664 320.134 930.663 314.838L929.007 317.34L927.351 319.842C936.391 325.826 946.634 328.8 957.987 328.8V325.8ZM929.007 317.34L930.704 314.866C922.781 309.433 916.511 301.94 911.916 292.29L909.207 293.58L906.499 294.87C911.504 305.38 918.434 313.727 927.311 319.814L929.007 317.34ZM909.207 293.58L911.922 292.303C907.338 282.561 905.007 271.369 905.007 258.66H902.007H899.007C899.007 272.111 901.477 284.199 906.493 294.857L909.207 293.58ZM902.007 258.66H905.007C905.007 245.948 907.339 234.953 911.904 225.595L909.207 224.28L906.511 222.965C901.476 233.287 899.007 245.212 899.007 258.66H902.007ZM909.207 224.28L911.91 225.582C916.498 216.062 922.754 208.759 930.655 203.567L929.007 201.06L927.36 198.553C918.461 204.401 911.517 212.578 906.505 222.978L909.207 224.28ZM929.007 201.06L930.663 203.562C938.664 198.266 947.741 195.6 957.987 195.6V192.6V189.6C946.634 189.6 936.391 192.574 927.351 198.558L929.007 201.06ZM957.987 192.6V195.6C968.361 195.6 977.429 198.269 985.295 203.551L986.967 201.06L988.64 198.569C979.706 192.571 969.454 189.6 957.987 189.6V192.6ZM986.967 201.06L985.32 203.567C993.221 208.759 999.477 216.062 1004.06 225.582L1006.77 224.28L1009.47 222.978C1004.46 212.578 997.514 204.401 988.615 198.553L986.967 201.06ZM1006.77 224.28L1004.07 225.595C1008.64 234.953 1010.97 245.948 1010.97 258.66H1013.97H1016.97C1016.97 245.212 1014.5 233.287 1009.46 222.965L1006.77 224.28ZM1013.97 258.66H1010.97C1010.97 271.494 1008.64 282.68 1004.06 292.29L1006.77 293.58L1009.48 294.87C1014.5 284.32 1016.97 272.226 1016.97 258.66H1013.97ZM1006.77 293.58L1004.06 292.29C999.469 301.93 993.146 309.42 985.107 314.855L986.787 317.34L988.468 319.825C997.469 313.74 1004.47 305.39 1009.48 294.87L1006.77 293.58ZM986.787 317.34L985.115 314.849C977.244 320.135 968.234 322.8 957.987 322.8V325.8V328.8C969.341 328.8 979.531 325.825 988.46 319.831L986.787 317.34ZM957.987 302.76V305.76C964.85 305.76 970.689 303.439 975.26 298.729L973.107 296.64L970.955 294.551C967.606 298.001 963.365 299.76 957.987 299.76V302.76ZM973.107 296.64L975.26 298.729C979.635 294.222 982.787 288.352 984.812 281.264L981.927 280.44L979.043 279.616C977.228 285.968 974.5 290.898 970.955 294.551L973.107 296.64ZM981.927 280.44L984.812 281.264C986.818 274.243 987.807 266.642 987.807 258.48H984.807H981.807C981.807 266.158 980.877 273.197 979.043 279.616L981.927 280.44ZM984.807 258.48H987.807C987.807 250.32 986.818 242.827 984.804 236.028L981.927 236.88L979.051 237.732C980.876 243.893 981.807 250.8 981.807 258.48H984.807ZM981.927 236.88L984.804 236.028C982.77 229.164 979.601 223.518 975.196 219.246L973.107 221.4L971.019 223.554C974.534 226.962 977.245 231.636 979.051 237.732L981.927 236.88ZM973.107 221.4L975.196 219.246C970.613 214.802 964.794 212.64 957.987 212.64V215.64V218.64C963.421 218.64 967.682 220.318 971.019 223.554L973.107 221.4ZM957.987 215.64V212.64C951.153 212.64 945.324 214.881 940.746 219.459L942.867 221.58L944.989 223.701C948.331 220.359 952.582 218.64 957.987 218.64V215.64ZM942.867 221.58L940.779 219.426C936.374 223.698 933.205 229.344 931.171 236.208L934.047 237.06L936.924 237.912C938.73 231.816 941.441 227.142 944.956 223.734L942.867 221.58ZM934.047 237.06L931.171 236.208C929.158 243.003 928.167 250.435 928.167 258.48H931.167H934.167C934.167 250.925 935.097 244.077 936.924 237.912L934.047 237.06ZM931.167 258.48H928.167C928.167 266.758 929.156 274.419 931.163 281.444L934.047 280.62L936.932 279.796C935.099 273.381 934.167 266.282 934.167 258.48H931.167ZM934.047 280.62L931.163 281.444C933.188 288.532 936.34 294.402 940.715 298.909L942.867 296.82L945.02 294.731C941.475 291.078 938.747 286.148 936.932 279.796L934.047 280.62ZM942.867 296.82L940.778 298.973C945.451 303.508 951.255 305.76 957.987 305.76V302.76V299.76C952.72 299.76 948.444 298.052 944.957 294.667L942.867 296.82ZM1022.57 324H1019.57V327H1022.57V324ZM1022.57 302.4L1020.67 300.078L1019.57 300.978V302.4H1022.57ZM1052.27 277.38L1054.25 279.633L1054.25 279.631L1052.27 277.38ZM1071.35 258.66L1069.11 256.667L1069.1 256.681L1069.09 256.695L1071.35 258.66ZM1080.35 218.34L1078.14 220.371L1078.19 220.417L1078.23 220.461L1080.35 218.34ZM1055.51 218.7L1053.47 216.504L1055.51 218.7ZM1049.03 232.02V235.02H1051.62L1052 232.462L1049.03 232.02ZM1021.31 232.02L1018.33 231.698L1017.97 235.02H1021.31V232.02ZM1036.25 203.22L1038.13 205.556L1038.14 205.548L1038.15 205.54L1036.25 203.22ZM1102.31 203.4L1100.28 205.604L1100.29 205.613L1100.3 205.621L1102.31 203.4ZM1110.95 250.38L1108.14 249.34L1108.13 249.367L1108.12 249.394L1110.95 250.38ZM1082.51 286.92L1084.51 289.158L1084.51 289.157L1082.51 286.92ZM1053.17 310.86L1050.85 312.765L1052.69 315.003L1055 313.242L1053.17 310.86ZM1046.51 302.76V299.76H1040.16L1044.19 304.665L1046.51 302.76ZM1116.53 302.76H1119.53V299.76H1116.53V302.76ZM1116.53 324V327H1119.53V324H1116.53ZM1022.57 324H1025.57V302.4H1022.57H1019.57V324H1022.57ZM1022.57 302.4L1024.47 304.722C1036.37 294.989 1046.3 286.625 1054.25 279.633L1052.27 277.38L1050.29 275.127C1042.41 282.055 1032.54 290.371 1020.67 300.078L1022.57 302.4ZM1052.27 277.38L1054.25 279.631C1062.35 272.502 1068.82 266.163 1073.62 260.625L1071.35 258.66L1069.09 256.695C1064.53 261.957 1058.27 268.098 1050.29 275.129L1052.27 277.38ZM1071.35 258.66L1073.59 260.653C1078.51 255.127 1082.13 249.957 1084.34 245.152L1081.61 243.9L1078.89 242.647C1077.01 246.723 1073.8 251.393 1069.11 256.667L1071.35 258.66ZM1081.61 243.9L1084.34 245.152C1086.54 240.359 1087.67 235.494 1087.67 230.58H1084.67H1081.67C1081.67 234.546 1080.76 238.561 1078.89 242.647L1081.61 243.9ZM1084.67 230.58H1087.67C1087.67 224.75 1086.07 219.814 1082.47 216.219L1080.35 218.34L1078.23 220.461C1080.4 222.626 1081.67 225.85 1081.67 230.58H1084.67ZM1080.35 218.34L1082.56 216.309C1079.1 212.55 1074.32 210.84 1068.65 210.84V213.84V216.84C1073.07 216.84 1076.08 218.13 1078.14 220.371L1080.35 218.34ZM1068.65 213.84V210.84C1062.7 210.84 1057.57 212.689 1053.47 216.504L1055.51 218.7L1057.56 220.896C1060.42 218.231 1064.04 216.84 1068.65 216.84V213.84ZM1055.51 218.7L1053.47 216.504C1049.4 220.295 1046.98 225.405 1046.06 231.578L1049.03 232.02L1052 232.462C1052.76 227.355 1054.67 223.585 1057.56 220.896L1055.51 218.7ZM1049.03 232.02V229.02H1021.31V232.02V235.02H1049.03V232.02ZM1021.31 232.02L1024.29 232.342C1025.54 220.798 1030.18 211.96 1038.13 205.556L1036.25 203.22L1034.37 200.884C1025.04 208.4 1019.72 218.762 1018.33 231.698L1021.31 232.02ZM1036.25 203.22L1038.15 205.54C1046.14 198.992 1056.58 195.6 1069.73 195.6V192.6V189.6C1055.52 189.6 1043.64 193.288 1034.35 200.9L1036.25 203.22ZM1069.73 192.6V195.6C1083.14 195.6 1093.19 199.059 1100.28 205.604L1102.31 203.4L1104.35 201.196C1095.84 193.341 1084.17 189.6 1069.73 189.6V192.6ZM1102.31 203.4L1100.3 205.621C1107.34 212.016 1111.01 221.036 1111.01 233.1H1114.01H1117.01C1117.01 219.724 1112.88 208.944 1104.33 201.179L1102.31 203.4ZM1114.01 233.1H1111.01C1111.01 238.752 1110.05 244.16 1108.14 249.34L1110.95 250.38L1113.77 251.42C1115.93 245.56 1117.01 239.448 1117.01 233.1H1114.01ZM1110.95 250.38L1108.12 249.394C1106.33 254.536 1103.27 259.952 1098.86 265.642L1101.23 267.48L1103.6 269.318C1108.31 263.248 1111.73 257.264 1113.79 251.366L1110.95 250.38ZM1101.23 267.48L1098.86 265.642C1094.45 271.331 1088.35 277.678 1080.51 284.683L1082.51 286.92L1084.51 289.157C1092.51 282.002 1098.9 275.389 1103.6 269.318L1101.23 267.48ZM1082.51 286.92L1080.51 284.682C1072.79 291.576 1063.07 299.506 1051.35 308.478L1053.17 310.86L1055 313.242C1066.79 304.214 1076.64 296.184 1084.51 289.158L1082.51 286.92ZM1053.17 310.86L1055.49 308.955L1048.83 300.855L1046.51 302.76L1044.19 304.665L1050.85 312.765L1053.17 310.86ZM1046.51 302.76V305.76H1116.53V302.76V299.76H1046.51V302.76ZM1116.53 302.76H1113.53V324H1116.53H1119.53V302.76H1116.53ZM1116.53 324V321H1022.57V324V327H1116.53V324ZM1139.31 315.54L1137.43 317.879L1139.31 315.54ZM1123.47 286.74V283.74H1119.93L1120.51 287.229L1123.47 286.74ZM1151.01 286.74L1153.96 286.226L1153.53 283.74H1151.01V286.74ZM1158.21 299.88L1156.27 302.173L1156.29 302.191L1156.31 302.208L1158.21 299.88ZM1184.85 298.8L1182.59 296.82L1182.59 296.824L1184.85 298.8ZM1185.21 263.7L1182.86 265.566L1182.87 265.583L1182.88 265.6L1185.21 263.7ZM1162.71 259.92L1164.05 262.603L1164.09 262.581L1164.14 262.558L1162.71 259.92ZM1155.51 267.12V270.12H1157.25L1158.11 268.608L1155.51 267.12ZM1130.31 267.12L1127.32 266.846L1127.02 270.12H1130.31V267.12ZM1136.97 194.4V191.4H1134.23L1133.98 194.126L1136.97 194.4ZM1211.49 194.4H1214.49V191.4H1211.49V194.4ZM1211.49 215.64V218.64H1214.49V215.64H1211.49ZM1146.69 215.64L1146.29 212.667L1146.69 218.64V215.64ZM1161.45 213.66L1164.44 213.899L1164.73 210.192L1161.05 210.687L1161.45 213.66ZM1158.21 254.16L1157.79 257.131L1160.94 257.572L1161.2 254.399L1158.21 254.16ZM1149.21 252.9L1146.67 251.293L1144.18 255.225L1148.79 255.871L1149.21 252.9ZM1160.55 241.74L1162.03 244.349L1162.04 244.343L1162.05 244.336L1160.55 241.74ZM1199.61 243.18L1201.11 240.581L1199.61 243.18ZM1214.19 258.3L1211.54 259.719V259.719L1214.19 258.3ZM1213.47 305.28L1216.04 306.823L1213.47 305.28ZM1196.91 320.58L1198.23 323.272L1198.25 323.263L1198.27 323.254L1196.91 320.58ZM1172.07 325.8V322.8C1159.28 322.8 1149.06 319.525 1141.18 313.201L1139.31 315.54L1137.43 317.879C1146.59 325.235 1158.22 328.8 1172.07 328.8V325.8ZM1139.31 315.54L1141.18 313.201C1133.33 306.891 1128.36 297.996 1126.43 286.251L1123.47 286.74L1120.51 287.229C1122.65 300.204 1128.25 310.509 1137.43 317.879L1139.31 315.54ZM1123.47 286.74V289.74H1151.01V286.74V283.74H1123.47V286.74ZM1151.01 286.74L1148.05 287.254C1149.12 293.383 1151.83 298.425 1156.27 302.173L1158.21 299.88L1160.14 297.587C1156.9 294.855 1154.82 291.137 1153.96 286.226L1151.01 286.74ZM1158.21 299.88L1156.31 302.208C1160.69 305.76 1165.73 307.56 1171.35 307.56V304.56V301.56C1167.12 301.56 1163.41 300.24 1160.1 297.552L1158.21 299.88ZM1171.35 304.56V307.56C1177.75 307.56 1183.11 305.34 1187.1 300.776L1184.85 298.8L1182.59 296.824C1179.86 299.94 1176.22 301.56 1171.35 301.56V304.56ZM1184.85 298.8L1187.1 300.78C1191.25 296.055 1193.07 289.274 1193.07 280.98H1190.07H1187.07C1187.07 288.526 1185.4 293.625 1182.59 296.82L1184.85 298.8ZM1190.07 280.98H1193.07C1193.07 273.047 1191.37 266.5 1187.53 261.8L1185.21 263.7L1182.88 265.6C1185.52 268.82 1187.07 273.793 1187.07 280.98H1190.07ZM1185.21 263.7L1187.56 261.834C1183.69 256.972 1178.35 254.58 1171.89 254.58V257.58V260.58C1176.7 260.58 1180.24 262.268 1182.86 265.566L1185.21 263.7ZM1171.89 257.58V254.58C1168.14 254.58 1164.59 255.487 1161.28 257.282L1162.71 259.92L1164.14 262.558C1166.58 261.233 1169.15 260.58 1171.89 260.58V257.58ZM1162.71 259.92L1161.36 257.237C1157.86 258.991 1155.06 261.863 1152.9 265.632L1155.51 267.12L1158.11 268.608C1159.8 265.657 1161.8 263.729 1164.05 262.603L1162.71 259.92ZM1155.51 267.12V264.12H1130.31V267.12V270.12H1155.51V267.12ZM1130.31 267.12L1133.29 267.394L1139.95 194.674L1136.97 194.4L1133.98 194.126L1127.32 266.846L1130.31 267.12ZM1136.97 194.4V197.4H1211.49V194.4V191.4H1136.97V194.4ZM1211.49 194.4H1208.49V215.64H1211.49H1214.49V194.4H1211.49ZM1211.49 215.64V212.64H1146.69V215.64V218.64H1211.49V215.64ZM1146.69 215.64L1147.09 218.613L1161.85 216.633L1161.45 213.66L1161.05 210.687L1146.29 212.667L1146.69 215.64ZM1161.45 213.66L1158.46 213.421L1155.22 253.921L1158.21 254.16L1161.2 254.399L1164.44 213.899L1161.45 213.66ZM1158.21 254.16L1158.62 251.189L1149.62 249.929L1149.21 252.9L1148.79 255.871L1157.79 257.131L1158.21 254.16ZM1149.21 252.9L1151.74 254.507C1154.63 249.943 1158.07 246.594 1162.03 244.349L1160.55 241.74L1159.07 239.131C1154.14 241.926 1150.02 246.017 1146.67 251.293L1149.21 252.9ZM1160.55 241.74L1162.05 244.336C1166.03 242.032 1171.23 240.78 1177.83 240.78V237.78V234.78C1170.5 234.78 1164.18 236.168 1159.04 239.144L1160.55 241.74ZM1177.83 237.78V240.78C1185.66 240.78 1192.39 242.479 1198.11 245.779L1199.61 243.18L1201.11 240.581C1194.35 236.681 1186.55 234.78 1177.83 234.78V237.78ZM1199.61 243.18L1198.11 245.779C1203.85 249.093 1208.32 253.72 1211.54 259.719L1214.19 258.3L1216.83 256.881C1213.09 249.92 1207.84 244.467 1201.11 240.581L1199.61 243.18ZM1214.19 258.3L1211.54 259.719C1214.75 265.681 1216.41 272.853 1216.41 281.34H1219.41H1222.41C1222.41 272.067 1220.59 263.879 1216.83 256.881L1214.19 258.3ZM1219.41 281.34H1216.41C1216.41 290.274 1214.52 297.694 1210.89 303.737L1213.47 305.28L1216.04 306.823C1220.33 299.666 1222.41 291.126 1222.41 281.34H1219.41ZM1213.47 305.28L1210.89 303.737C1207.23 309.837 1202.14 314.553 1195.55 317.906L1196.91 320.58L1198.27 323.254C1205.83 319.407 1211.78 313.923 1216.04 306.823L1213.47 305.28ZM1196.91 320.58L1195.58 317.888C1188.99 321.128 1181.18 322.8 1172.07 322.8V325.8V328.8C1181.91 328.8 1190.66 326.992 1198.23 323.272L1196.91 320.58Z" fill="white" mask="url(#path-1-outside-1_2364_3)"/>
</g>
<g filter="url(#filter1_d_2364_3)">
<path d="M251.789 155V25.4H279.509V155H251.789ZM264.749 155V133.76H341.789V155H264.749ZM352.402 155L398.842 25.4H422.602L379.942 155H352.402ZM447.442 155L404.962 25.4H429.802L476.242 155H447.442ZM376.882 104.78H449.602V126.38H376.882V104.78ZM535.355 156.8C516.875 156.8 503.015 151.76 493.775 141.68C484.655 131.48 480.095 116.66 480.095 97.22V25.4H507.815V102.08C507.815 113.36 510.275 121.64 515.195 126.92C520.115 132.2 526.895 134.84 535.535 134.84C544.175 134.84 550.955 132.2 555.875 126.92C560.795 121.64 563.255 113.42 563.255 102.26V25.4H590.975V97.58C590.975 116.78 586.355 131.48 577.115 141.68C567.875 151.76 553.955 156.8 535.355 156.8ZM607.57 155V25.4H643.39L700.99 139.88L692.17 142.04V25.4H719.17V155H683.35L625.75 40.52L634.57 38.36V155H607.57ZM798.501 156.8C789.141 156.8 780.501 155.18 772.581 151.94C764.661 148.58 757.761 143.9 751.881 137.9C746.121 131.9 741.621 124.82 738.381 116.66C735.141 108.38 733.521 99.38 733.521 89.66C733.521 79.94 735.081 71.06 738.201 63.02C741.441 54.98 745.941 48.02 751.701 42.14C757.581 36.14 764.481 31.58 772.401 28.46C780.321 25.22 789.021 23.6 798.501 23.6C809.181 23.6 818.781 25.7 827.301 29.9C835.941 33.98 842.961 39.8 848.361 47.36C853.881 54.8 857.241 63.56 858.441 73.64H831.441C829.881 64.4 826.101 57.44 820.101 52.76C814.101 47.96 806.961 45.56 798.681 45.56C791.361 45.56 784.881 47.3 779.241 50.78C773.721 54.26 769.401 59.3 766.281 65.9C763.161 72.38 761.601 80.24 761.601 89.48C761.601 98.84 763.161 106.94 766.281 113.78C769.521 120.5 773.961 125.72 779.601 129.44C785.241 133.04 791.721 134.84 799.041 134.84C806.841 134.84 813.741 132.5 819.741 127.82C825.741 123.14 829.641 116.18 831.441 106.94H858.801C857.241 117.02 853.701 125.84 848.181 133.4C842.661 140.84 835.641 146.6 827.121 150.68C818.601 154.76 809.061 156.8 798.501 156.8ZM872.121 155V25.4H899.841V155H872.121ZM956.001 155V25.4H983.721V155H956.001ZM885.081 76.88H968.601V98.12H885.081V76.88ZM1001.67 155V25.4H1029.39V155H1001.67ZM1047.38 155V25.4H1083.2L1140.8 139.88L1131.98 142.04V25.4H1158.98V155H1123.16L1065.56 40.52L1074.38 38.36V155H1047.38ZM1241.01 156.8C1226.97 156.8 1214.91 154.04 1204.83 148.52C1194.75 143 1186.95 135.26 1181.43 125.3C1176.03 115.34 1173.33 103.7 1173.33 90.38C1173.33 77.18 1176.09 65.6 1181.61 55.64C1187.13 45.56 1194.75 37.7 1204.47 32.06C1214.31 26.42 1225.71 23.6 1238.67 23.6C1249.35 23.6 1258.89 25.52 1267.29 29.36C1275.81 33.2 1282.65 38.48 1287.81 45.2C1293.09 51.8 1296.21 59.48 1297.17 68.24H1269.45C1268.25 61.16 1264.89 55.64 1259.37 51.68C1253.97 47.6 1247.19 45.56 1239.03 45.56C1231.47 45.56 1224.87 47.36 1219.23 50.96C1213.59 54.44 1209.21 59.48 1206.09 66.08C1202.97 72.68 1201.41 80.6 1201.41 89.84C1201.41 99.44 1202.97 107.66 1206.09 114.5C1209.21 121.22 1213.77 126.38 1219.77 129.98C1225.89 133.46 1233.39 135.2 1242.27 135.2C1249.47 135.2 1255.59 134.3 1260.63 132.5C1265.67 130.7 1269.51 128.18 1272.15 124.94L1298.43 135.38C1291.47 142.34 1283.37 147.68 1274.13 151.4C1265.01 155 1253.97 156.8 1241.01 156.8ZM1270.71 135.38V99.74L1276.29 105.32H1242.09V84.08H1298.43V135.38H1270.71Z" fill="white"/>
</g>
<g filter="url(#filter2_d_2364_3)">
<mask id="path-4-outside-2_2364_3" maskUnits="userSpaceOnUse" x="329" y="355" width="894" height="140" fill="black">
<rect fill="white" x="329" y="355" width="894" height="140"/>
<path d="M332.561 490V360.4H360.281V490H332.561ZM345.521 439.78V418.54H419.861V439.78H345.521ZM345.521 381.64V360.4H424.001V381.64H345.521ZM420.693 490L467.133 360.4H490.893L448.233 490H420.693ZM515.733 490L473.253 360.4H498.093L544.533 490H515.733ZM445.173 439.78H517.893V461.38H445.173V439.78ZM557.912 490V360.4H585.632V490H557.912ZM570.872 490V468.76H647.912V490H570.872ZM664.084 490V360.4H691.804V490H664.084ZM677.044 490V468.76H754.084V490H677.044ZM800.033 490V468.4C811.913 458.68 821.813 450.34 829.733 443.38C837.773 436.3 844.133 430.06 848.813 424.66C853.613 419.26 857.033 414.34 859.073 409.9C861.113 405.46 862.133 401.02 862.133 396.58C862.133 391.3 860.693 387.22 857.813 384.34C855.053 381.34 851.153 379.84 846.113 379.84C840.833 379.84 836.453 381.46 832.973 384.7C829.493 387.94 827.333 392.38 826.493 398.02H798.773C800.093 385.78 805.073 376.18 813.713 369.22C822.353 362.14 833.513 358.6 847.193 358.6C861.113 358.6 871.973 362.2 879.773 369.4C887.573 376.48 891.473 386.38 891.473 399.1C891.473 405.1 890.453 410.86 888.413 416.38C886.493 421.9 883.253 427.6 878.693 433.48C874.133 439.36 867.893 445.84 859.973 452.92C852.173 459.88 842.393 467.86 830.633 476.86L823.973 468.76H893.993V490H800.033ZM957.987 491.8C947.187 491.8 937.527 488.98 929.007 483.34C920.607 477.58 914.007 469.66 909.207 459.58C904.407 449.38 902.007 437.74 902.007 424.66C902.007 411.58 904.407 400.12 909.207 390.28C914.007 380.32 920.607 372.58 929.007 367.06C937.527 361.42 947.187 358.6 957.987 358.6C968.907 358.6 978.567 361.42 986.967 367.06C995.367 372.58 1001.97 380.32 1006.77 390.28C1011.57 400.12 1013.97 411.58 1013.97 424.66C1013.97 437.86 1011.57 449.5 1006.77 459.58C1001.97 469.66 995.307 477.58 986.787 483.34C978.387 488.98 968.787 491.8 957.987 491.8ZM957.987 468.76C964.107 468.76 969.147 466.72 973.107 462.64C977.067 458.56 980.007 453.16 981.927 446.44C983.847 439.72 984.807 432.4 984.807 424.48C984.807 416.56 983.847 409.36 981.927 402.88C980.007 396.4 977.067 391.24 973.107 387.4C969.147 383.56 964.107 381.64 957.987 381.64C951.867 381.64 946.827 383.62 942.867 387.58C938.907 391.42 935.967 396.58 934.047 403.06C932.127 409.54 931.167 416.68 931.167 424.48C931.167 432.52 932.127 439.9 934.047 446.62C935.967 453.34 938.907 458.74 942.867 462.82C946.947 466.78 951.987 468.76 957.987 468.76ZM1022.57 490V468.4C1034.45 458.68 1044.35 450.34 1052.27 443.38C1060.31 436.3 1066.67 430.06 1071.35 424.66C1076.15 419.26 1079.57 414.34 1081.61 409.9C1083.65 405.46 1084.67 401.02 1084.67 396.58C1084.67 391.3 1083.23 387.22 1080.35 384.34C1077.59 381.34 1073.69 379.84 1068.65 379.84C1063.37 379.84 1058.99 381.46 1055.51 384.7C1052.03 387.94 1049.87 392.38 1049.03 398.02H1021.31C1022.63 385.78 1027.61 376.18 1036.25 369.22C1044.89 362.14 1056.05 358.6 1069.73 358.6C1083.65 358.6 1094.51 362.2 1102.31 369.4C1110.11 376.48 1114.01 386.38 1114.01 399.1C1114.01 405.1 1112.99 410.86 1110.95 416.38C1109.03 421.9 1105.79 427.6 1101.23 433.48C1096.67 439.36 1090.43 445.84 1082.51 452.92C1074.71 459.88 1064.93 467.86 1053.17 476.86L1046.51 468.76H1116.53V490H1022.57ZM1172.07 491.8C1158.75 491.8 1147.83 488.38 1139.31 481.54C1130.79 474.7 1125.51 465.1 1123.47 452.74H1151.01C1151.97 458.26 1154.37 462.64 1158.21 465.88C1162.05 469 1166.43 470.56 1171.35 470.56C1176.99 470.56 1181.49 468.64 1184.85 464.8C1188.33 460.84 1190.07 454.9 1190.07 446.98C1190.07 439.42 1188.45 433.66 1185.21 429.7C1181.97 425.62 1177.53 423.58 1171.89 423.58C1168.65 423.58 1165.59 424.36 1162.71 425.92C1159.83 427.36 1157.43 429.76 1155.51 433.12H1130.31L1136.97 360.4H1211.49V381.64H1146.69L1161.45 379.66L1158.21 420.16L1149.21 418.9C1152.33 413.98 1156.11 410.26 1160.55 407.74C1165.11 405.1 1170.87 403.78 1177.83 403.78C1186.11 403.78 1193.37 405.58 1199.61 409.18C1205.85 412.78 1210.71 417.82 1214.19 424.3C1217.67 430.78 1219.41 438.46 1219.41 447.34C1219.41 456.7 1217.43 464.68 1213.47 471.28C1209.51 477.88 1203.99 482.98 1196.91 486.58C1189.83 490.06 1181.55 491.8 1172.07 491.8Z"/>
</mask>
<path d="M332.561 490V360.4H360.281V490H332.561ZM345.521 439.78V418.54H419.861V439.78H345.521ZM345.521 381.64V360.4H424.001V381.64H345.521ZM420.693 490L467.133 360.4H490.893L448.233 490H420.693ZM515.733 490L473.253 360.4H498.093L544.533 490H515.733ZM445.173 439.78H517.893V461.38H445.173V439.78ZM557.912 490V360.4H585.632V490H557.912ZM570.872 490V468.76H647.912V490H570.872ZM664.084 490V360.4H691.804V490H664.084ZM677.044 490V468.76H754.084V490H677.044ZM800.033 490V468.4C811.913 458.68 821.813 450.34 829.733 443.38C837.773 436.3 844.133 430.06 848.813 424.66C853.613 419.26 857.033 414.34 859.073 409.9C861.113 405.46 862.133 401.02 862.133 396.58C862.133 391.3 860.693 387.22 857.813 384.34C855.053 381.34 851.153 379.84 846.113 379.84C840.833 379.84 836.453 381.46 832.973 384.7C829.493 387.94 827.333 392.38 826.493 398.02H798.773C800.093 385.78 805.073 376.18 813.713 369.22C822.353 362.14 833.513 358.6 847.193 358.6C861.113 358.6 871.973 362.2 879.773 369.4C887.573 376.48 891.473 386.38 891.473 399.1C891.473 405.1 890.453 410.86 888.413 416.38C886.493 421.9 883.253 427.6 878.693 433.48C874.133 439.36 867.893 445.84 859.973 452.92C852.173 459.88 842.393 467.86 830.633 476.86L823.973 468.76H893.993V490H800.033ZM957.987 491.8C947.187 491.8 937.527 488.98 929.007 483.34C920.607 477.58 914.007 469.66 909.207 459.58C904.407 449.38 902.007 437.74 902.007 424.66C902.007 411.58 904.407 400.12 909.207 390.28C914.007 380.32 920.607 372.58 929.007 367.06C937.527 361.42 947.187 358.6 957.987 358.6C968.907 358.6 978.567 361.42 986.967 367.06C995.367 372.58 1001.97 380.32 1006.77 390.28C1011.57 400.12 1013.97 411.58 1013.97 424.66C1013.97 437.86 1011.57 449.5 1006.77 459.58C1001.97 469.66 995.307 477.58 986.787 483.34C978.387 488.98 968.787 491.8 957.987 491.8ZM957.987 468.76C964.107 468.76 969.147 466.72 973.107 462.64C977.067 458.56 980.007 453.16 981.927 446.44C983.847 439.72 984.807 432.4 984.807 424.48C984.807 416.56 983.847 409.36 981.927 402.88C980.007 396.4 977.067 391.24 973.107 387.4C969.147 383.56 964.107 381.64 957.987 381.64C951.867 381.64 946.827 383.62 942.867 387.58C938.907 391.42 935.967 396.58 934.047 403.06C932.127 409.54 931.167 416.68 931.167 424.48C931.167 432.52 932.127 439.9 934.047 446.62C935.967 453.34 938.907 458.74 942.867 462.82C946.947 466.78 951.987 468.76 957.987 468.76ZM1022.57 490V468.4C1034.45 458.68 1044.35 450.34 1052.27 443.38C1060.31 436.3 1066.67 430.06 1071.35 424.66C1076.15 419.26 1079.57 414.34 1081.61 409.9C1083.65 405.46 1084.67 401.02 1084.67 396.58C1084.67 391.3 1083.23 387.22 1080.35 384.34C1077.59 381.34 1073.69 379.84 1068.65 379.84C1063.37 379.84 1058.99 381.46 1055.51 384.7C1052.03 387.94 1049.87 392.38 1049.03 398.02H1021.31C1022.63 385.78 1027.61 376.18 1036.25 369.22C1044.89 362.14 1056.05 358.6 1069.73 358.6C1083.65 358.6 1094.51 362.2 1102.31 369.4C1110.11 376.48 1114.01 386.38 1114.01 399.1C1114.01 405.1 1112.99 410.86 1110.95 416.38C1109.03 421.9 1105.79 427.6 1101.23 433.48C1096.67 439.36 1090.43 445.84 1082.51 452.92C1074.71 459.88 1064.93 467.86 1053.17 476.86L1046.51 468.76H1116.53V490H1022.57ZM1172.07 491.8C1158.75 491.8 1147.83 488.38 1139.31 481.54C1130.79 474.7 1125.51 465.1 1123.47 452.74H1151.01C1151.97 458.26 1154.37 462.64 1158.21 465.88C1162.05 469 1166.43 470.56 1171.35 470.56C1176.99 470.56 1181.49 468.64 1184.85 464.8C1188.33 460.84 1190.07 454.9 1190.07 446.98C1190.07 439.42 1188.45 433.66 1185.21 429.7C1181.97 425.62 1177.53 423.58 1171.89 423.58C1168.65 423.58 1165.59 424.36 1162.71 425.92C1159.83 427.36 1157.43 429.76 1155.51 433.12H1130.31L1136.97 360.4H1211.49V381.64H1146.69L1161.45 379.66L1158.21 420.16L1149.21 418.9C1152.33 413.98 1156.11 410.26 1160.55 407.74C1165.11 405.1 1170.87 403.78 1177.83 403.78C1186.11 403.78 1193.37 405.58 1199.61 409.18C1205.85 412.78 1210.71 417.82 1214.19 424.3C1217.67 430.78 1219.41 438.46 1219.41 447.34C1219.41 456.7 1217.43 464.68 1213.47 471.28C1209.51 477.88 1203.99 482.98 1196.91 486.58C1189.83 490.06 1181.55 491.8 1172.07 491.8Z" fill="white"/>
<path d="M332.561 490H329.561V493H332.561V490ZM332.561 360.4V357.4H329.561V360.4H332.561ZM360.281 360.4H363.281V357.4H360.281V360.4ZM360.281 490V493H363.281V490H360.281ZM345.521 439.78H342.521V442.78H345.521V439.78ZM345.521 418.54V415.54H342.521V418.54H345.521ZM419.861 418.54H422.861V415.54H419.861V418.54ZM419.861 439.78V442.78H422.861V439.78H419.861ZM345.521 381.64H342.521V384.64H345.521V381.64ZM345.521 360.4V357.4H342.521V360.4H345.521ZM424.001 360.4H427.001V357.4H424.001V360.4ZM424.001 381.64V384.64H427.001V381.64H424.001ZM332.561 490H335.561V360.4H332.561H329.561V490H332.561ZM332.561 360.4V363.4H360.281V360.4V357.4H332.561V360.4ZM360.281 360.4H357.281V490H360.281H363.281V360.4H360.281ZM360.281 490V487H332.561V490V493H360.281V490ZM345.521 439.78H348.521V418.54H345.521H342.521V439.78H345.521ZM345.521 418.54V421.54H419.861V418.54V415.54H345.521V418.54ZM419.861 418.54H416.861V439.78H419.861H422.861V418.54H419.861ZM419.861 439.78V436.78H345.521V439.78V442.78H419.861V439.78ZM345.521 381.64H348.521V360.4H345.521H342.521V381.64H345.521ZM345.521 360.4V363.4H424.001V360.4V357.4H345.521V360.4ZM424.001 360.4H421.001V381.64H424.001H427.001V360.4H424.001ZM424.001 381.64V378.64H345.521V381.64V384.64H424.001V381.64ZM420.693 490L417.869 488.988L416.431 493H420.693V490ZM467.133 360.4V357.4H465.021L464.309 359.388L467.133 360.4ZM490.893 360.4L493.743 361.338L495.039 357.4H490.893V360.4ZM448.233 490V493H450.404L451.083 490.938L448.233 490ZM515.733 490L512.882 490.934L513.559 493H515.733V490ZM473.253 360.4V357.4H469.113L470.402 361.334L473.253 360.4ZM498.093 360.4L500.917 359.388L500.205 357.4H498.093V360.4ZM544.533 490V493H548.795L547.357 488.988L544.533 490ZM445.173 439.78V436.78H442.173V439.78H445.173ZM517.893 439.78H520.893V436.78H517.893V439.78ZM517.893 461.38V464.38H520.893V461.38H517.893ZM445.173 461.38H442.173V464.38H445.173V461.38ZM420.693 490L423.517 491.012L469.957 361.412L467.133 360.4L464.309 359.388L417.869 488.988L420.693 490ZM467.133 360.4V363.4H490.893V360.4V357.4H467.133V360.4ZM490.893 360.4L488.043 359.462L445.383 489.062L448.233 490L451.083 490.938L493.743 361.338L490.893 360.4ZM448.233 490V487H420.693V490V493H448.233V490ZM515.733 490L518.584 489.066L476.104 359.466L473.253 360.4L470.402 361.334L512.882 490.934L515.733 490ZM473.253 360.4V363.4H498.093V360.4V357.4H473.253V360.4ZM498.093 360.4L495.269 361.412L541.709 491.012L544.533 490L547.357 488.988L500.917 359.388L498.093 360.4ZM544.533 490V487H515.733V490V493H544.533V490ZM445.173 439.78V442.78H517.893V439.78V436.78H445.173V439.78ZM517.893 439.78H514.893V461.38H517.893H520.893V439.78H517.893ZM517.893 461.38V458.38H445.173V461.38V464.38H517.893V461.38ZM445.173 461.38H448.173V439.78H445.173H442.173V461.38H445.173ZM557.912 490H554.912V493H557.912V490ZM557.912 360.4V357.4H554.912V360.4H557.912ZM585.632 360.4H588.632V357.4H585.632V360.4ZM585.632 490V493H588.632V490H585.632ZM570.872 490H567.872V493H570.872V490ZM570.872 468.76V465.76H567.872V468.76H570.872ZM647.912 468.76H650.912V465.76H647.912V468.76ZM647.912 490V493H650.912V490H647.912ZM557.912 490H560.912V360.4H557.912H554.912V490H557.912ZM557.912 360.4V363.4H585.632V360.4V357.4H557.912V360.4ZM585.632 360.4H582.632V490H585.632H588.632V360.4H585.632ZM585.632 490V487H557.912V490V493H585.632V490ZM570.872 490H573.872V468.76H570.872H567.872V490H570.872ZM570.872 468.76V471.76H647.912V468.76V465.76H570.872V468.76ZM647.912 468.76H644.912V490H647.912H650.912V468.76H647.912ZM647.912 490V487H570.872V490V493H647.912V490ZM664.084 490H661.084V493H664.084V490ZM664.084 360.4V357.4H661.084V360.4H664.084ZM691.804 360.4H694.804V357.4H691.804V360.4ZM691.804 490V493H694.804V490H691.804ZM677.044 490H674.044V493H677.044V490ZM677.044 468.76V465.76H674.044V468.76H677.044ZM754.084 468.76H757.084V465.76H754.084V468.76ZM754.084 490V493H757.084V490H754.084ZM664.084 490H667.084V360.4H664.084H661.084V490H664.084ZM664.084 360.4V363.4H691.804V360.4V357.4H664.084V360.4ZM691.804 360.4H688.804V490H691.804H694.804V360.4H691.804ZM691.804 490V487H664.084V490V493H691.804V490ZM677.044 490H680.044V468.76H677.044H674.044V490H677.044ZM677.044 468.76V471.76H754.084V468.76V465.76H677.044V468.76ZM754.084 468.76H751.084V490H754.084H757.084V468.76H754.084ZM754.084 490V487H677.044V490V493H754.084V490ZM800.033 490H797.033V493H800.033V490ZM800.033 468.4L798.133 466.078L797.033 466.978V468.4H800.033ZM829.733 443.38L831.714 445.633L831.716 445.631L829.733 443.38ZM848.813 424.66L846.571 422.667L846.558 422.681L846.546 422.695L848.813 424.66ZM857.813 384.34L855.605 386.371L855.648 386.417L855.692 386.461L857.813 384.34ZM832.973 384.7L830.929 382.504L832.973 384.7ZM826.493 398.02V401.02H829.079L829.46 398.462L826.493 398.02ZM798.773 398.02L795.791 397.698L795.432 401.02H798.773V398.02ZM813.713 369.22L815.595 371.556L815.605 371.548L815.615 371.54L813.713 369.22ZM879.773 369.4L877.738 371.604L877.748 371.613L877.757 371.621L879.773 369.4ZM888.413 416.38L885.599 415.34L885.589 415.367L885.58 415.394L888.413 416.38ZM859.973 452.92L861.971 455.158L861.973 455.157L859.973 452.92ZM830.633 476.86L828.316 478.765L830.156 481.003L832.456 479.242L830.633 476.86ZM823.973 468.76V465.76H817.623L821.656 470.665L823.973 468.76ZM893.993 468.76H896.993V465.76H893.993V468.76ZM893.993 490V493H896.993V490H893.993ZM800.033 490H803.033V468.4H800.033H797.033V490H800.033ZM800.033 468.4L801.933 470.722C813.829 460.989 823.758 452.625 831.714 445.633L829.733 443.38L827.753 441.127C819.868 448.055 809.997 456.371 798.133 466.078L800.033 468.4ZM829.733 443.38L831.716 445.631C839.812 438.502 846.28 432.163 851.08 426.625L848.813 424.66L846.546 422.695C841.986 427.957 835.734 434.098 827.751 441.129L829.733 443.38ZM848.813 424.66L851.055 426.653C855.968 421.127 859.592 415.957 861.799 411.152L859.073 409.9L856.347 408.647C854.475 412.723 851.259 417.393 846.571 422.667L848.813 424.66ZM859.073 409.9L861.799 411.152C864.001 406.359 865.133 401.494 865.133 396.58H862.133H859.133C859.133 400.546 858.225 404.561 856.347 408.647L859.073 409.9ZM862.133 396.58H865.133C865.133 390.75 863.53 385.814 859.935 382.219L857.813 384.34L855.692 386.461C857.856 388.626 859.133 391.85 859.133 396.58H862.133ZM857.813 384.34L860.021 382.309C856.563 378.55 851.779 376.84 846.113 376.84V379.84V382.84C850.527 382.84 853.543 384.13 855.605 386.371L857.813 384.34ZM846.113 379.84V376.84C840.165 376.84 835.027 378.689 830.929 382.504L832.973 384.7L835.017 386.896C837.879 384.231 841.501 382.84 846.113 382.84V379.84ZM832.973 384.7L830.929 382.504C826.858 386.295 824.445 391.405 823.526 397.578L826.493 398.02L829.46 398.462C830.221 393.355 832.129 389.585 835.017 386.896L832.973 384.7ZM826.493 398.02V395.02H798.773V398.02V401.02H826.493V398.02ZM798.773 398.02L801.756 398.342C803.001 386.798 807.645 377.96 815.595 371.556L813.713 369.22L811.831 366.884C802.501 374.4 797.186 384.762 795.791 397.698L798.773 398.02ZM813.713 369.22L815.615 371.54C823.606 364.992 834.046 361.6 847.193 361.6V358.6V355.6C832.981 355.6 821.101 359.288 811.812 366.9L813.713 369.22ZM847.193 358.6V361.6C860.6 361.6 870.647 365.059 877.738 371.604L879.773 369.4L881.808 367.196C873.299 359.341 861.626 355.6 847.193 355.6V358.6ZM879.773 369.4L877.757 371.621C884.802 378.016 888.473 387.036 888.473 399.1H891.473H894.473C894.473 385.724 890.344 374.944 881.79 367.179L879.773 369.4ZM891.473 399.1H888.473C888.473 404.752 887.514 410.16 885.599 415.34L888.413 416.38L891.227 417.42C893.393 411.56 894.473 405.448 894.473 399.1H891.473ZM888.413 416.38L885.58 415.394C883.791 420.536 880.735 425.952 876.323 431.642L878.693 433.48L881.064 435.318C885.772 429.248 889.195 423.264 891.247 417.366L888.413 416.38ZM878.693 433.48L876.323 431.642C871.91 437.331 865.811 443.678 857.974 450.683L859.973 452.92L861.973 455.157C869.976 448.002 876.356 441.389 881.064 435.318L878.693 433.48ZM859.973 452.92L857.976 450.682C850.25 457.576 840.533 465.506 828.81 474.478L830.633 476.86L832.456 479.242C844.254 470.214 854.097 462.184 861.971 455.158L859.973 452.92ZM830.633 476.86L832.951 474.955L826.29 466.855L823.973 468.76L821.656 470.665L828.316 478.765L830.633 476.86ZM823.973 468.76V471.76H893.993V468.76V465.76H823.973V468.76ZM893.993 468.76H890.993V490H893.993H896.993V468.76H893.993ZM893.993 490V487H800.033V490V493H893.993V490ZM929.007 483.34L927.311 485.814L927.331 485.828L927.351 485.842L929.007 483.34ZM909.207 459.58L906.493 460.857L906.499 460.87L909.207 459.58ZM909.207 390.28L911.904 391.595L911.907 391.589L911.91 391.582L909.207 390.28ZM929.007 367.06L930.655 369.567L930.663 369.562L929.007 367.06ZM986.967 367.06L985.295 369.551L985.307 369.559L985.32 369.567L986.967 367.06ZM1006.77 390.28L1004.06 391.582L1004.07 391.589L1004.07 391.595L1006.77 390.28ZM1006.77 459.58L1009.48 460.87L1006.77 459.58ZM986.787 483.34L988.46 485.831L988.468 485.825L986.787 483.34ZM973.107 462.64L970.955 460.551V460.551L973.107 462.64ZM981.927 446.44L984.812 447.264L981.927 446.44ZM981.927 402.88L984.804 402.028L981.927 402.88ZM973.107 387.4L971.019 389.554L973.107 387.4ZM942.867 387.58L944.956 389.734L944.972 389.718L944.989 389.701L942.867 387.58ZM942.867 462.82L940.715 464.909L940.746 464.942L940.778 464.973L942.867 462.82ZM957.987 491.8V488.8C947.741 488.8 938.664 486.134 930.663 480.838L929.007 483.34L927.351 485.842C936.391 491.826 946.634 494.8 957.987 494.8V491.8ZM929.007 483.34L930.704 480.866C922.781 475.433 916.511 467.94 911.916 458.29L909.207 459.58L906.499 460.87C911.504 471.38 918.434 479.727 927.311 485.814L929.007 483.34ZM909.207 459.58L911.922 458.303C907.338 448.561 905.007 437.369 905.007 424.66H902.007H899.007C899.007 438.111 901.477 450.199 906.493 460.857L909.207 459.58ZM902.007 424.66H905.007C905.007 411.948 907.339 400.953 911.904 391.595L909.207 390.28L906.511 388.965C901.476 399.287 899.007 411.212 899.007 424.66H902.007ZM909.207 390.28L911.91 391.582C916.498 382.062 922.754 374.759 930.655 369.567L929.007 367.06L927.36 364.553C918.461 370.401 911.517 378.578 906.505 388.978L909.207 390.28ZM929.007 367.06L930.663 369.562C938.664 364.266 947.741 361.6 957.987 361.6V358.6V355.6C946.634 355.6 936.391 358.574 927.351 364.558L929.007 367.06ZM957.987 358.6V361.6C968.361 361.6 977.429 364.269 985.295 369.551L986.967 367.06L988.64 364.569C979.706 358.571 969.454 355.6 957.987 355.6V358.6ZM986.967 367.06L985.32 369.567C993.221 374.759 999.477 382.062 1004.06 391.582L1006.77 390.28L1009.47 388.978C1004.46 378.578 997.514 370.401 988.615 364.553L986.967 367.06ZM1006.77 390.28L1004.07 391.595C1008.64 400.953 1010.97 411.948 1010.97 424.66H1013.97H1016.97C1016.97 411.212 1014.5 399.287 1009.46 388.965L1006.77 390.28ZM1013.97 424.66H1010.97C1010.97 437.494 1008.64 448.68 1004.06 458.29L1006.77 459.58L1009.48 460.87C1014.5 450.32 1016.97 438.226 1016.97 424.66H1013.97ZM1006.77 459.58L1004.06 458.29C999.469 467.93 993.146 475.42 985.107 480.855L986.787 483.34L988.468 485.825C997.469 479.74 1004.47 471.39 1009.48 460.87L1006.77 459.58ZM986.787 483.34L985.115 480.849C977.244 486.135 968.234 488.8 957.987 488.8V491.8V494.8C969.341 494.8 979.531 491.825 988.46 485.831L986.787 483.34ZM957.987 468.76V471.76C964.85 471.76 970.689 469.439 975.26 464.729L973.107 462.64L970.955 460.551C967.606 464.001 963.365 465.76 957.987 465.76V468.76ZM973.107 462.64L975.26 464.729C979.635 460.222 982.787 454.352 984.812 447.264L981.927 446.44L979.043 445.616C977.228 451.968 974.5 456.898 970.955 460.551L973.107 462.64ZM981.927 446.44L984.812 447.264C986.818 440.243 987.807 432.642 987.807 424.48H984.807H981.807C981.807 432.158 980.877 439.197 979.043 445.616L981.927 446.44ZM984.807 424.48H987.807C987.807 416.32 986.818 408.827 984.804 402.028L981.927 402.88L979.051 403.732C980.876 409.893 981.807 416.8 981.807 424.48H984.807ZM981.927 402.88L984.804 402.028C982.77 395.164 979.601 389.518 975.196 385.246L973.107 387.4L971.019 389.554C974.534 392.962 977.245 397.636 979.051 403.732L981.927 402.88ZM973.107 387.4L975.196 385.246C970.613 380.802 964.794 378.64 957.987 378.64V381.64V384.64C963.421 384.64 967.682 386.318 971.019 389.554L973.107 387.4ZM957.987 381.64V378.64C951.153 378.64 945.324 380.881 940.746 385.459L942.867 387.58L944.989 389.701C948.331 386.359 952.582 384.64 957.987 384.64V381.64ZM942.867 387.58L940.779 385.426C936.374 389.698 933.205 395.344 931.171 402.208L934.047 403.06L936.924 403.912C938.73 397.816 941.441 393.142 944.956 389.734L942.867 387.58ZM934.047 403.06L931.171 402.208C929.158 409.003 928.167 416.435 928.167 424.48H931.167H934.167C934.167 416.925 935.097 410.077 936.924 403.912L934.047 403.06ZM931.167 424.48H928.167C928.167 432.758 929.156 440.419 931.163 447.444L934.047 446.62L936.932 445.796C935.099 439.381 934.167 432.282 934.167 424.48H931.167ZM934.047 446.62L931.163 447.444C933.188 454.532 936.34 460.402 940.715 464.909L942.867 462.82L945.02 460.731C941.475 457.078 938.747 452.148 936.932 445.796L934.047 446.62ZM942.867 462.82L940.778 464.973C945.451 469.508 951.255 471.76 957.987 471.76V468.76V465.76C952.72 465.76 948.444 464.052 944.957 460.667L942.867 462.82ZM1022.57 490H1019.57V493H1022.57V490ZM1022.57 468.4L1020.67 466.078L1019.57 466.978V468.4H1022.57ZM1052.27 443.38L1054.25 445.633L1054.25 445.631L1052.27 443.38ZM1071.35 424.66L1069.11 422.667L1069.1 422.681L1069.09 422.695L1071.35 424.66ZM1080.35 384.34L1078.14 386.371L1078.19 386.417L1078.23 386.461L1080.35 384.34ZM1055.51 384.7L1053.47 382.504L1055.51 384.7ZM1049.03 398.02V401.02H1051.62L1052 398.462L1049.03 398.02ZM1021.31 398.02L1018.33 397.698L1017.97 401.02H1021.31V398.02ZM1036.25 369.22L1038.13 371.556L1038.14 371.548L1038.15 371.54L1036.25 369.22ZM1102.31 369.4L1100.28 371.604L1100.29 371.613L1100.3 371.621L1102.31 369.4ZM1110.95 416.38L1108.14 415.34L1108.13 415.367L1108.12 415.394L1110.95 416.38ZM1082.51 452.92L1084.51 455.158L1084.51 455.157L1082.51 452.92ZM1053.17 476.86L1050.85 478.765L1052.69 481.003L1055 479.242L1053.17 476.86ZM1046.51 468.76V465.76H1040.16L1044.19 470.665L1046.51 468.76ZM1116.53 468.76H1119.53V465.76H1116.53V468.76ZM1116.53 490V493H1119.53V490H1116.53ZM1022.57 490H1025.57V468.4H1022.57H1019.57V490H1022.57ZM1022.57 468.4L1024.47 470.722C1036.37 460.989 1046.3 452.625 1054.25 445.633L1052.27 443.38L1050.29 441.127C1042.41 448.055 1032.54 456.371 1020.67 466.078L1022.57 468.4ZM1052.27 443.38L1054.25 445.631C1062.35 438.502 1068.82 432.163 1073.62 426.625L1071.35 424.66L1069.09 422.695C1064.53 427.957 1058.27 434.098 1050.29 441.129L1052.27 443.38ZM1071.35 424.66L1073.59 426.653C1078.51 421.127 1082.13 415.957 1084.34 411.152L1081.61 409.9L1078.89 408.647C1077.01 412.723 1073.8 417.393 1069.11 422.667L1071.35 424.66ZM1081.61 409.9L1084.34 411.152C1086.54 406.359 1087.67 401.494 1087.67 396.58H1084.67H1081.67C1081.67 400.546 1080.76 404.561 1078.89 408.647L1081.61 409.9ZM1084.67 396.58H1087.67C1087.67 390.75 1086.07 385.814 1082.47 382.219L1080.35 384.34L1078.23 386.461C1080.4 388.626 1081.67 391.85 1081.67 396.58H1084.67ZM1080.35 384.34L1082.56 382.309C1079.1 378.55 1074.32 376.84 1068.65 376.84V379.84V382.84C1073.07 382.84 1076.08 384.13 1078.14 386.371L1080.35 384.34ZM1068.65 379.84V376.84C1062.7 376.84 1057.57 378.689 1053.47 382.504L1055.51 384.7L1057.56 386.896C1060.42 384.231 1064.04 382.84 1068.65 382.84V379.84ZM1055.51 384.7L1053.47 382.504C1049.4 386.295 1046.98 391.405 1046.06 397.578L1049.03 398.02L1052 398.462C1052.76 393.355 1054.67 389.585 1057.56 386.896L1055.51 384.7ZM1049.03 398.02V395.02H1021.31V398.02V401.02H1049.03V398.02ZM1021.31 398.02L1024.29 398.342C1025.54 386.798 1030.18 377.96 1038.13 371.556L1036.25 369.22L1034.37 366.884C1025.04 374.4 1019.72 384.762 1018.33 397.698L1021.31 398.02ZM1036.25 369.22L1038.15 371.54C1046.14 364.992 1056.58 361.6 1069.73 361.6V358.6V355.6C1055.52 355.6 1043.64 359.288 1034.35 366.9L1036.25 369.22ZM1069.73 358.6V361.6C1083.14 361.6 1093.19 365.059 1100.28 371.604L1102.31 369.4L1104.35 367.196C1095.84 359.341 1084.17 355.6 1069.73 355.6V358.6ZM1102.31 369.4L1100.3 371.621C1107.34 378.016 1111.01 387.036 1111.01 399.1H1114.01H1117.01C1117.01 385.724 1112.88 374.944 1104.33 367.179L1102.31 369.4ZM1114.01 399.1H1111.01C1111.01 404.752 1110.05 410.16 1108.14 415.34L1110.95 416.38L1113.77 417.42C1115.93 411.56 1117.01 405.448 1117.01 399.1H1114.01ZM1110.95 416.38L1108.12 415.394C1106.33 420.536 1103.27 425.952 1098.86 431.642L1101.23 433.48L1103.6 435.318C1108.31 429.248 1111.73 423.264 1113.79 417.366L1110.95 416.38ZM1101.23 433.48L1098.86 431.642C1094.45 437.331 1088.35 443.678 1080.51 450.683L1082.51 452.92L1084.51 455.157C1092.51 448.002 1098.9 441.389 1103.6 435.318L1101.23 433.48ZM1082.51 452.92L1080.51 450.682C1072.79 457.576 1063.07 465.506 1051.35 474.478L1053.17 476.86L1055 479.242C1066.79 470.214 1076.64 462.184 1084.51 455.158L1082.51 452.92ZM1053.17 476.86L1055.49 474.955L1048.83 466.855L1046.51 468.76L1044.19 470.665L1050.85 478.765L1053.17 476.86ZM1046.51 468.76V471.76H1116.53V468.76V465.76H1046.51V468.76ZM1116.53 468.76H1113.53V490H1116.53H1119.53V468.76H1116.53ZM1116.53 490V487H1022.57V490V493H1116.53V490ZM1139.31 481.54L1137.43 483.879L1139.31 481.54ZM1123.47 452.74V449.74H1119.93L1120.51 453.229L1123.47 452.74ZM1151.01 452.74L1153.96 452.226L1153.53 449.74H1151.01V452.74ZM1158.21 465.88L1156.27 468.173L1156.29 468.191L1156.31 468.208L1158.21 465.88ZM1184.85 464.8L1182.59 462.82L1182.59 462.824L1184.85 464.8ZM1185.21 429.7L1182.86 431.566L1182.87 431.583L1182.88 431.6L1185.21 429.7ZM1162.71 425.92L1164.05 428.603L1164.09 428.581L1164.14 428.558L1162.71 425.92ZM1155.51 433.12V436.12H1157.25L1158.11 434.608L1155.51 433.12ZM1130.31 433.12L1127.32 432.846L1127.02 436.12H1130.31V433.12ZM1136.97 360.4V357.4H1134.23L1133.98 360.126L1136.97 360.4ZM1211.49 360.4H1214.49V357.4H1211.49V360.4ZM1211.49 381.64V384.64H1214.49V381.64H1211.49ZM1146.69 381.64L1146.29 378.667L1146.69 384.64V381.64ZM1161.45 379.66L1164.44 379.899L1164.73 376.192L1161.05 376.687L1161.45 379.66ZM1158.21 420.16L1157.79 423.131L1160.94 423.572L1161.2 420.399L1158.21 420.16ZM1149.21 418.9L1146.67 417.293L1144.18 421.225L1148.79 421.871L1149.21 418.9ZM1160.55 407.74L1162.03 410.349L1162.04 410.343L1162.05 410.336L1160.55 407.74ZM1199.61 409.18L1201.11 406.581L1199.61 409.18ZM1214.19 424.3L1211.54 425.719V425.719L1214.19 424.3ZM1213.47 471.28L1216.04 472.823L1213.47 471.28ZM1196.91 486.58L1198.23 489.272L1198.25 489.263L1198.27 489.254L1196.91 486.58ZM1172.07 491.8V488.8C1159.28 488.8 1149.06 485.525 1141.18 479.201L1139.31 481.54L1137.43 483.879C1146.59 491.235 1158.22 494.8 1172.07 494.8V491.8ZM1139.31 481.54L1141.18 479.201C1133.33 472.891 1128.36 463.996 1126.43 452.251L1123.47 452.74L1120.51 453.229C1122.65 466.204 1128.25 476.509 1137.43 483.879L1139.31 481.54ZM1123.47 452.74V455.74H1151.01V452.74V449.74H1123.47V452.74ZM1151.01 452.74L1148.05 453.254C1149.12 459.383 1151.83 464.425 1156.27 468.173L1158.21 465.88L1160.14 463.587C1156.9 460.855 1154.82 457.137 1153.96 452.226L1151.01 452.74ZM1158.21 465.88L1156.31 468.208C1160.69 471.76 1165.73 473.56 1171.35 473.56V470.56V467.56C1167.12 467.56 1163.41 466.24 1160.1 463.552L1158.21 465.88ZM1171.35 470.56V473.56C1177.75 473.56 1183.11 471.34 1187.1 466.776L1184.85 464.8L1182.59 462.824C1179.86 465.94 1176.22 467.56 1171.35 467.56V470.56ZM1184.85 464.8L1187.1 466.78C1191.25 462.055 1193.07 455.274 1193.07 446.98H1190.07H1187.07C1187.07 454.526 1185.4 459.625 1182.59 462.82L1184.85 464.8ZM1190.07 446.98H1193.07C1193.07 439.047 1191.37 432.5 1187.53 427.8L1185.21 429.7L1182.88 431.6C1185.52 434.82 1187.07 439.793 1187.07 446.98H1190.07ZM1185.21 429.7L1187.56 427.834C1183.69 422.972 1178.35 420.58 1171.89 420.58V423.58V426.58C1176.7 426.58 1180.24 428.268 1182.86 431.566L1185.21 429.7ZM1171.89 423.58V420.58C1168.14 420.58 1164.59 421.487 1161.28 423.282L1162.71 425.92L1164.14 428.558C1166.58 427.233 1169.15 426.58 1171.89 426.58V423.58ZM1162.71 425.92L1161.36 423.237C1157.86 424.991 1155.06 427.863 1152.9 431.632L1155.51 433.12L1158.11 434.608C1159.8 431.657 1161.8 429.729 1164.05 428.603L1162.71 425.92ZM1155.51 433.12V430.12H1130.31V433.12V436.12H1155.51V433.12ZM1130.31 433.12L1133.29 433.394L1139.95 360.674L1136.97 360.4L1133.98 360.126L1127.32 432.846L1130.31 433.12ZM1136.97 360.4V363.4H1211.49V360.4V357.4H1136.97V360.4ZM1211.49 360.4H1208.49V381.64H1211.49H1214.49V360.4H1211.49ZM1211.49 381.64V378.64H1146.69V381.64V384.64H1211.49V381.64ZM1146.69 381.64L1147.09 384.613L1161.85 382.633L1161.45 379.66L1161.05 376.687L1146.29 378.667L1146.69 381.64ZM1161.45 379.66L1158.46 379.421L1155.22 419.921L1158.21 420.16L1161.2 420.399L1164.44 379.899L1161.45 379.66ZM1158.21 420.16L1158.62 417.189L1149.62 415.929L1149.21 418.9L1148.79 421.871L1157.79 423.131L1158.21 420.16ZM1149.21 418.9L1151.74 420.507C1154.63 415.943 1158.07 412.594 1162.03 410.349L1160.55 407.74L1159.07 405.131C1154.14 407.926 1150.02 412.017 1146.67 417.293L1149.21 418.9ZM1160.55 407.74L1162.05 410.336C1166.03 408.032 1171.23 406.78 1177.83 406.78V403.78V400.78C1170.5 400.78 1164.18 402.168 1159.04 405.144L1160.55 407.74ZM1177.83 403.78V406.78C1185.66 406.78 1192.39 408.479 1198.11 411.779L1199.61 409.18L1201.11 406.581C1194.35 402.681 1186.55 400.78 1177.83 400.78V403.78ZM1199.61 409.18L1198.11 411.779C1203.85 415.093 1208.32 419.72 1211.54 425.719L1214.19 424.3L1216.83 422.881C1213.09 415.92 1207.84 410.467 1201.11 406.581L1199.61 409.18ZM1214.19 424.3L1211.54 425.719C1214.75 431.681 1216.41 438.853 1216.41 447.34H1219.41H1222.41C1222.41 438.067 1220.59 429.879 1216.83 422.881L1214.19 424.3ZM1219.41 447.34H1216.41C1216.41 456.274 1214.52 463.694 1210.89 469.737L1213.47 471.28L1216.04 472.823C1220.33 465.666 1222.41 457.126 1222.41 447.34H1219.41ZM1213.47 471.28L1210.89 469.737C1207.23 475.837 1202.14 480.553 1195.55 483.906L1196.91 486.58L1198.27 489.254C1205.83 485.407 1211.78 479.923 1216.04 472.823L1213.47 471.28ZM1196.91 486.58L1195.58 483.888C1188.99 487.128 1181.18 488.8 1172.07 488.8V491.8V494.8C1181.91 494.8 1190.66 492.992 1198.23 489.272L1196.91 486.58Z" fill="white" mask="url(#path-4-outside-2_2364_3)"/>
</g>
<g filter="url(#filter3_d_2364_3)">
<mask id="path-6-outside-3_2364_3" maskUnits="userSpaceOnUse" x="329" y="521" width="894" height="140" fill="black">
<rect fill="white" x="329" y="521" width="894" height="140"/>
<path d="M332.561 656V526.4H360.281V656H332.561ZM345.521 605.78V584.54H419.861V605.78H345.521ZM345.521 547.64V526.4H424.001V547.64H345.521ZM420.693 656L467.133 526.4H490.893L448.233 656H420.693ZM515.733 656L473.253 526.4H498.093L544.533 656H515.733ZM445.173 605.78H517.893V627.38H445.173V605.78ZM557.912 656V526.4H585.632V656H557.912ZM570.872 656V634.76H647.912V656H570.872ZM664.084 656V526.4H691.804V656H664.084ZM677.044 656V634.76H754.084V656H677.044ZM800.033 656V634.4C811.913 624.68 821.813 616.34 829.733 609.38C837.773 602.3 844.133 596.06 848.813 590.66C853.613 585.26 857.033 580.34 859.073 575.9C861.113 571.46 862.133 567.02 862.133 562.58C862.133 557.3 860.693 553.22 857.813 550.34C855.053 547.34 851.153 545.84 846.113 545.84C840.833 545.84 836.453 547.46 832.973 550.7C829.493 553.94 827.333 558.38 826.493 564.02H798.773C800.093 551.78 805.073 542.18 813.713 535.22C822.353 528.14 833.513 524.6 847.193 524.6C861.113 524.6 871.973 528.2 879.773 535.4C887.573 542.48 891.473 552.38 891.473 565.1C891.473 571.1 890.453 576.86 888.413 582.38C886.493 587.9 883.253 593.6 878.693 599.48C874.133 605.36 867.893 611.84 859.973 618.92C852.173 625.88 842.393 633.86 830.633 642.86L823.973 634.76H893.993V656H800.033ZM957.987 657.8C947.187 657.8 937.527 654.98 929.007 649.34C920.607 643.58 914.007 635.66 909.207 625.58C904.407 615.38 902.007 603.74 902.007 590.66C902.007 577.58 904.407 566.12 909.207 556.28C914.007 546.32 920.607 538.58 929.007 533.06C937.527 527.42 947.187 524.6 957.987 524.6C968.907 524.6 978.567 527.42 986.967 533.06C995.367 538.58 1001.97 546.32 1006.77 556.28C1011.57 566.12 1013.97 577.58 1013.97 590.66C1013.97 603.86 1011.57 615.5 1006.77 625.58C1001.97 635.66 995.307 643.58 986.787 649.34C978.387 654.98 968.787 657.8 957.987 657.8ZM957.987 634.76C964.107 634.76 969.147 632.72 973.107 628.64C977.067 624.56 980.007 619.16 981.927 612.44C983.847 605.72 984.807 598.4 984.807 590.48C984.807 582.56 983.847 575.36 981.927 568.88C980.007 562.4 977.067 557.24 973.107 553.4C969.147 549.56 964.107 547.64 957.987 547.64C951.867 547.64 946.827 549.62 942.867 553.58C938.907 557.42 935.967 562.58 934.047 569.06C932.127 575.54 931.167 582.68 931.167 590.48C931.167 598.52 932.127 605.9 934.047 612.62C935.967 619.34 938.907 624.74 942.867 628.82C946.947 632.78 951.987 634.76 957.987 634.76ZM1022.57 656V634.4C1034.45 624.68 1044.35 616.34 1052.27 609.38C1060.31 602.3 1066.67 596.06 1071.35 590.66C1076.15 585.26 1079.57 580.34 1081.61 575.9C1083.65 571.46 1084.67 567.02 1084.67 562.58C1084.67 557.3 1083.23 553.22 1080.35 550.34C1077.59 547.34 1073.69 545.84 1068.65 545.84C1063.37 545.84 1058.99 547.46 1055.51 550.7C1052.03 553.94 1049.87 558.38 1049.03 564.02H1021.31C1022.63 551.78 1027.61 542.18 1036.25 535.22C1044.89 528.14 1056.05 524.6 1069.73 524.6C1083.65 524.6 1094.51 528.2 1102.31 535.4C1110.11 542.48 1114.01 552.38 1114.01 565.1C1114.01 571.1 1112.99 576.86 1110.95 582.38C1109.03 587.9 1105.79 593.6 1101.23 599.48C1096.67 605.36 1090.43 611.84 1082.51 618.92C1074.71 625.88 1064.93 633.86 1053.17 642.86L1046.51 634.76H1116.53V656H1022.57ZM1172.07 657.8C1158.75 657.8 1147.83 654.38 1139.31 647.54C1130.79 640.7 1125.51 631.1 1123.47 618.74H1151.01C1151.97 624.26 1154.37 628.64 1158.21 631.88C1162.05 635 1166.43 636.56 1171.35 636.56C1176.99 636.56 1181.49 634.64 1184.85 630.8C1188.33 626.84 1190.07 620.9 1190.07 612.98C1190.07 605.42 1188.45 599.66 1185.21 595.7C1181.97 591.62 1177.53 589.58 1171.89 589.58C1168.65 589.58 1165.59 590.36 1162.71 591.92C1159.83 593.36 1157.43 595.76 1155.51 599.12H1130.31L1136.97 526.4H1211.49V547.64H1146.69L1161.45 545.66L1158.21 586.16L1149.21 584.9C1152.33 579.98 1156.11 576.26 1160.55 573.74C1165.11 571.1 1170.87 569.78 1177.83 569.78C1186.11 569.78 1193.37 571.58 1199.61 575.18C1205.85 578.78 1210.71 583.82 1214.19 590.3C1217.67 596.78 1219.41 604.46 1219.41 613.34C1219.41 622.7 1217.43 630.68 1213.47 637.28C1209.51 643.88 1203.99 648.98 1196.91 652.58C1189.83 656.06 1181.55 657.8 1172.07 657.8Z"/>
</mask>
<path d="M332.561 656H329.561V659H332.561V656ZM332.561 526.4V523.4H329.561V526.4H332.561ZM360.281 526.4H363.281V523.4H360.281V526.4ZM360.281 656V659H363.281V656H360.281ZM345.521 605.78H342.521V608.78H345.521V605.78ZM345.521 584.54V581.54H342.521V584.54H345.521ZM419.861 584.54H422.861V581.54H419.861V584.54ZM419.861 605.78V608.78H422.861V605.78H419.861ZM345.521 547.64H342.521V550.64H345.521V547.64ZM345.521 526.4V523.4H342.521V526.4H345.521ZM424.001 526.4H427.001V523.4H424.001V526.4ZM424.001 547.64V550.64H427.001V547.64H424.001ZM332.561 656H335.561V526.4H332.561H329.561V656H332.561ZM332.561 526.4V529.4H360.281V526.4V523.4H332.561V526.4ZM360.281 526.4H357.281V656H360.281H363.281V526.4H360.281ZM360.281 656V653H332.561V656V659H360.281V656ZM345.521 605.78H348.521V584.54H345.521H342.521V605.78H345.521ZM345.521 584.54V587.54H419.861V584.54V581.54H345.521V584.54ZM419.861 584.54H416.861V605.78H419.861H422.861V584.54H419.861ZM419.861 605.78V602.78H345.521V605.78V608.78H419.861V605.78ZM345.521 547.64H348.521V526.4H345.521H342.521V547.64H345.521ZM345.521 526.4V529.4H424.001V526.4V523.4H345.521V526.4ZM424.001 526.4H421.001V547.64H424.001H427.001V526.4H424.001ZM424.001 547.64V544.64H345.521V547.64V550.64H424.001V547.64ZM420.693 656L417.869 654.988L416.431 659H420.693V656ZM467.133 526.4V523.4H465.021L464.309 525.388L467.133 526.4ZM490.893 526.4L493.743 527.338L495.039 523.4H490.893V526.4ZM448.233 656V659H450.404L451.083 656.938L448.233 656ZM515.733 656L512.882 656.934L513.559 659H515.733V656ZM473.253 526.4V523.4H469.113L470.402 527.334L473.253 526.4ZM498.093 526.4L500.917 525.388L500.205 523.4H498.093V526.4ZM544.533 656V659H548.795L547.357 654.988L544.533 656ZM445.173 605.78V602.78H442.173V605.78H445.173ZM517.893 605.78H520.893V602.78H517.893V605.78ZM517.893 627.38V630.38H520.893V627.38H517.893ZM445.173 627.38H442.173V630.38H445.173V627.38ZM420.693 656L423.517 657.012L469.957 527.412L467.133 526.4L464.309 525.388L417.869 654.988L420.693 656ZM467.133 526.4V529.4H490.893V526.4V523.4H467.133V526.4ZM490.893 526.4L488.043 525.462L445.383 655.062L448.233 656L451.083 656.938L493.743 527.338L490.893 526.4ZM448.233 656V653H420.693V656V659H448.233V656ZM515.733 656L518.584 655.066L476.104 525.466L473.253 526.4L470.402 527.334L512.882 656.934L515.733 656ZM473.253 526.4V529.4H498.093V526.4V523.4H473.253V526.4ZM498.093 526.4L495.269 527.412L541.709 657.012L544.533 656L547.357 654.988L500.917 525.388L498.093 526.4ZM544.533 656V653H515.733V656V659H544.533V656ZM445.173 605.78V608.78H517.893V605.78V602.78H445.173V605.78ZM517.893 605.78H514.893V627.38H517.893H520.893V605.78H517.893ZM517.893 627.38V624.38H445.173V627.38V630.38H517.893V627.38ZM445.173 627.38H448.173V605.78H445.173H442.173V627.38H445.173ZM557.912 656H554.912V659H557.912V656ZM557.912 526.4V523.4H554.912V526.4H557.912ZM585.632 526.4H588.632V523.4H585.632V526.4ZM585.632 656V659H588.632V656H585.632ZM570.872 656H567.872V659H570.872V656ZM570.872 634.76V631.76H567.872V634.76H570.872ZM647.912 634.76H650.912V631.76H647.912V634.76ZM647.912 656V659H650.912V656H647.912ZM557.912 656H560.912V526.4H557.912H554.912V656H557.912ZM557.912 526.4V529.4H585.632V526.4V523.4H557.912V526.4ZM585.632 526.4H582.632V656H585.632H588.632V526.4H585.632ZM585.632 656V653H557.912V656V659H585.632V656ZM570.872 656H573.872V634.76H570.872H567.872V656H570.872ZM570.872 634.76V637.76H647.912V634.76V631.76H570.872V634.76ZM647.912 634.76H644.912V656H647.912H650.912V634.76H647.912ZM647.912 656V653H570.872V656V659H647.912V656ZM664.084 656H661.084V659H664.084V656ZM664.084 526.4V523.4H661.084V526.4H664.084ZM691.804 526.4H694.804V523.4H691.804V526.4ZM691.804 656V659H694.804V656H691.804ZM677.044 656H674.044V659H677.044V656ZM677.044 634.76V631.76H674.044V634.76H677.044ZM754.084 634.76H757.084V631.76H754.084V634.76ZM754.084 656V659H757.084V656H754.084ZM664.084 656H667.084V526.4H664.084H661.084V656H664.084ZM664.084 526.4V529.4H691.804V526.4V523.4H664.084V526.4ZM691.804 526.4H688.804V656H691.804H694.804V526.4H691.804ZM691.804 656V653H664.084V656V659H691.804V656ZM677.044 656H680.044V634.76H677.044H674.044V656H677.044ZM677.044 634.76V637.76H754.084V634.76V631.76H677.044V634.76ZM754.084 634.76H751.084V656H754.084H757.084V634.76H754.084ZM754.084 656V653H677.044V656V659H754.084V656ZM800.033 656H797.033V659H800.033V656ZM800.033 634.4L798.133 632.078L797.033 632.978V634.4H800.033ZM829.733 609.38L831.714 611.633L831.716 611.631L829.733 609.38ZM848.813 590.66L846.571 588.667L846.558 588.681L846.546 588.695L848.813 590.66ZM857.813 550.34L855.605 552.371L855.648 552.417L855.692 552.461L857.813 550.34ZM832.973 550.7L830.929 548.504L832.973 550.7ZM826.493 564.02V567.02H829.079L829.46 564.462L826.493 564.02ZM798.773 564.02L795.791 563.698L795.432 567.02H798.773V564.02ZM813.713 535.22L815.595 537.556L815.605 537.548L815.615 537.54L813.713 535.22ZM879.773 535.4L877.738 537.604L877.748 537.613L877.757 537.621L879.773 535.4ZM888.413 582.38L885.599 581.34L885.589 581.367L885.58 581.394L888.413 582.38ZM859.973 618.92L861.971 621.158L861.973 621.157L859.973 618.92ZM830.633 642.86L828.316 644.765L830.156 647.003L832.456 645.242L830.633 642.86ZM823.973 634.76V631.76H817.623L821.656 636.665L823.973 634.76ZM893.993 634.76H896.993V631.76H893.993V634.76ZM893.993 656V659H896.993V656H893.993ZM800.033 656H803.033V634.4H800.033H797.033V656H800.033ZM800.033 634.4L801.933 636.722C813.829 626.989 823.758 618.625 831.714 611.633L829.733 609.38L827.753 607.127C819.868 614.055 809.997 622.371 798.133 632.078L800.033 634.4ZM829.733 609.38L831.716 611.631C839.812 604.502 846.28 598.163 851.08 592.625L848.813 590.66L846.546 588.695C841.986 593.957 835.734 600.098 827.751 607.129L829.733 609.38ZM848.813 590.66L851.055 592.653C855.968 587.127 859.592 581.957 861.799 577.152L859.073 575.9L856.347 574.647C854.475 578.723 851.259 583.393 846.571 588.667L848.813 590.66ZM859.073 575.9L861.799 577.152C864.001 572.359 865.133 567.494 865.133 562.58H862.133H859.133C859.133 566.546 858.225 570.561 856.347 574.647L859.073 575.9ZM862.133 562.58H865.133C865.133 556.75 863.53 551.814 859.935 548.219L857.813 550.34L855.692 552.461C857.856 554.626 859.133 557.85 859.133 562.58H862.133ZM857.813 550.34L860.021 548.309C856.563 544.55 851.779 542.84 846.113 542.84V545.84V548.84C850.527 548.84 853.543 550.13 855.605 552.371L857.813 550.34ZM846.113 545.84V542.84C840.165 542.84 835.027 544.689 830.929 548.504L832.973 550.7L835.017 552.896C837.879 550.231 841.501 548.84 846.113 548.84V545.84ZM832.973 550.7L830.929 548.504C826.858 552.295 824.445 557.405 823.526 563.578L826.493 564.02L829.46 564.462C830.221 559.355 832.129 555.585 835.017 552.896L832.973 550.7ZM826.493 564.02V561.02H798.773V564.02V567.02H826.493V564.02ZM798.773 564.02L801.756 564.342C803.001 552.798 807.645 543.96 815.595 537.556L813.713 535.22L811.831 532.884C802.501 540.4 797.186 550.762 795.791 563.698L798.773 564.02ZM813.713 535.22L815.615 537.54C823.606 530.992 834.046 527.6 847.193 527.6V524.6V521.6C832.981 521.6 821.101 525.288 811.812 532.9L813.713 535.22ZM847.193 524.6V527.6C860.6 527.6 870.647 531.059 877.738 537.604L879.773 535.4L881.808 533.196C873.299 525.341 861.626 521.6 847.193 521.6V524.6ZM879.773 535.4L877.757 537.621C884.802 544.016 888.473 553.036 888.473 565.1H891.473H894.473C894.473 551.724 890.344 540.944 881.79 533.179L879.773 535.4ZM891.473 565.1H888.473C888.473 570.752 887.514 576.16 885.599 581.34L888.413 582.38L891.227 583.42C893.393 577.56 894.473 571.448 894.473 565.1H891.473ZM888.413 582.38L885.58 581.394C883.791 586.536 880.735 591.952 876.323 597.642L878.693 599.48L881.064 601.318C885.772 595.248 889.195 589.264 891.247 583.366L888.413 582.38ZM878.693 599.48L876.323 597.642C871.91 603.331 865.811 609.678 857.974 616.683L859.973 618.92L861.973 621.157C869.976 614.002 876.356 607.389 881.064 601.318L878.693 599.48ZM859.973 618.92L857.976 616.682C850.25 623.576 840.533 631.506 828.81 640.478L830.633 642.86L832.456 645.242C844.254 636.214 854.097 628.184 861.971 621.158L859.973 618.92ZM830.633 642.86L832.951 640.955L826.29 632.855L823.973 634.76L821.656 636.665L828.316 644.765L830.633 642.86ZM823.973 634.76V637.76H893.993V634.76V631.76H823.973V634.76ZM893.993 634.76H890.993V656H893.993H896.993V634.76H893.993ZM893.993 656V653H800.033V656V659H893.993V656ZM929.007 649.34L927.311 651.814L927.331 651.828L927.351 651.842L929.007 649.34ZM909.207 625.58L906.493 626.857L906.499 626.87L909.207 625.58ZM909.207 556.28L911.904 557.595L911.907 557.589L911.91 557.582L909.207 556.28ZM929.007 533.06L930.655 535.567L930.663 535.562L929.007 533.06ZM986.967 533.06L985.295 535.551L985.307 535.559L985.32 535.567L986.967 533.06ZM1006.77 556.28L1004.06 557.582L1004.07 557.589L1004.07 557.595L1006.77 556.28ZM1006.77 625.58L1009.48 626.87L1006.77 625.58ZM986.787 649.34L988.46 651.831L988.468 651.825L986.787 649.34ZM973.107 628.64L970.955 626.551V626.551L973.107 628.64ZM981.927 612.44L984.812 613.264L981.927 612.44ZM981.927 568.88L984.804 568.028L981.927 568.88ZM973.107 553.4L971.019 555.554L973.107 553.4ZM942.867 553.58L944.956 555.734L944.972 555.718L944.989 555.701L942.867 553.58ZM942.867 628.82L940.715 630.909L940.746 630.942L940.778 630.973L942.867 628.82ZM957.987 657.8V654.8C947.741 654.8 938.664 652.134 930.663 646.838L929.007 649.34L927.351 651.842C936.391 657.826 946.634 660.8 957.987 660.8V657.8ZM929.007 649.34L930.704 646.866C922.781 641.433 916.511 633.94 911.916 624.29L909.207 625.58L906.499 626.87C911.504 637.38 918.434 645.727 927.311 651.814L929.007 649.34ZM909.207 625.58L911.922 624.303C907.338 614.561 905.007 603.369 905.007 590.66H902.007H899.007C899.007 604.111 901.477 616.199 906.493 626.857L909.207 625.58ZM902.007 590.66H905.007C905.007 577.948 907.339 566.953 911.904 557.595L909.207 556.28L906.511 554.965C901.476 565.287 899.007 577.212 899.007 590.66H902.007ZM909.207 556.28L911.91 557.582C916.498 548.062 922.754 540.759 930.655 535.567L929.007 533.06L927.36 530.553C918.461 536.401 911.517 544.578 906.505 554.978L909.207 556.28ZM929.007 533.06L930.663 535.562C938.664 530.266 947.741 527.6 957.987 527.6V524.6V521.6C946.634 521.6 936.391 524.574 927.351 530.558L929.007 533.06ZM957.987 524.6V527.6C968.361 527.6 977.429 530.269 985.295 535.551L986.967 533.06L988.64 530.569C979.706 524.571 969.454 521.6 957.987 521.6V524.6ZM986.967 533.06L985.32 535.567C993.221 540.759 999.477 548.062 1004.06 557.582L1006.77 556.28L1009.47 554.978C1004.46 544.578 997.514 536.401 988.615 530.553L986.967 533.06ZM1006.77 556.28L1004.07 557.595C1008.64 566.953 1010.97 577.948 1010.97 590.66H1013.97H1016.97C1016.97 577.212 1014.5 565.287 1009.46 554.965L1006.77 556.28ZM1013.97 590.66H1010.97C1010.97 603.494 1008.64 614.68 1004.06 624.29L1006.77 625.58L1009.48 626.87C1014.5 616.32 1016.97 604.226 1016.97 590.66H1013.97ZM1006.77 625.58L1004.06 624.29C999.469 633.93 993.146 641.42 985.107 646.855L986.787 649.34L988.468 651.825C997.469 645.74 1004.47 637.39 1009.48 626.87L1006.77 625.58ZM986.787 649.34L985.115 646.849C977.244 652.135 968.234 654.8 957.987 654.8V657.8V660.8C969.341 660.8 979.531 657.825 988.46 651.831L986.787 649.34ZM957.987 634.76V637.76C964.85 637.76 970.689 635.439 975.26 630.729L973.107 628.64L970.955 626.551C967.606 630.001 963.365 631.76 957.987 631.76V634.76ZM973.107 628.64L975.26 630.729C979.635 626.222 982.787 620.352 984.812 613.264L981.927 612.44L979.043 611.616C977.228 617.968 974.5 622.898 970.955 626.551L973.107 628.64ZM981.927 612.44L984.812 613.264C986.818 606.243 987.807 598.642 987.807 590.48H984.807H981.807C981.807 598.158 980.877 605.197 979.043 611.616L981.927 612.44ZM984.807 590.48H987.807C987.807 582.32 986.818 574.827 984.804 568.028L981.927 568.88L979.051 569.732C980.876 575.893 981.807 582.8 981.807 590.48H984.807ZM981.927 568.88L984.804 568.028C982.77 561.164 979.601 555.518 975.196 551.246L973.107 553.4L971.019 555.554C974.534 558.962 977.245 563.636 979.051 569.732L981.927 568.88ZM973.107 553.4L975.196 551.246C970.613 546.802 964.794 544.64 957.987 544.64V547.64V550.64C963.421 550.64 967.682 552.318 971.019 555.554L973.107 553.4ZM957.987 547.64V544.64C951.153 544.64 945.324 546.881 940.746 551.459L942.867 553.58L944.989 555.701C948.331 552.359 952.582 550.64 957.987 550.64V547.64ZM942.867 553.58L940.779 551.426C936.374 555.698 933.205 561.344 931.171 568.208L934.047 569.06L936.924 569.912C938.73 563.816 941.441 559.142 944.956 555.734L942.867 553.58ZM934.047 569.06L931.171 568.208C929.158 575.003 928.167 582.435 928.167 590.48H931.167H934.167C934.167 582.925 935.097 576.077 936.924 569.912L934.047 569.06ZM931.167 590.48H928.167C928.167 598.758 929.156 606.419 931.163 613.444L934.047 612.62L936.932 611.796C935.099 605.381 934.167 598.282 934.167 590.48H931.167ZM934.047 612.62L931.163 613.444C933.188 620.532 936.34 626.402 940.715 630.909L942.867 628.82L945.02 626.731C941.475 623.078 938.747 618.148 936.932 611.796L934.047 612.62ZM942.867 628.82L940.778 630.973C945.451 635.508 951.255 637.76 957.987 637.76V634.76V631.76C952.72 631.76 948.444 630.052 944.957 626.667L942.867 628.82ZM1022.57 656H1019.57V659H1022.57V656ZM1022.57 634.4L1020.67 632.078L1019.57 632.978V634.4H1022.57ZM1052.27 609.38L1054.25 611.633L1054.25 611.631L1052.27 609.38ZM1071.35 590.66L1069.11 588.667L1069.1 588.681L1069.09 588.695L1071.35 590.66ZM1080.35 550.34L1078.14 552.371L1078.19 552.417L1078.23 552.461L1080.35 550.34ZM1055.51 550.7L1053.47 548.504L1055.51 550.7ZM1049.03 564.02V567.02H1051.62L1052 564.462L1049.03 564.02ZM1021.31 564.02L1018.33 563.698L1017.97 567.02H1021.31V564.02ZM1036.25 535.22L1038.13 537.556L1038.14 537.548L1038.15 537.54L1036.25 535.22ZM1102.31 535.4L1100.28 537.604L1100.29 537.613L1100.3 537.621L1102.31 535.4ZM1110.95 582.38L1108.14 581.34L1108.13 581.367L1108.12 581.394L1110.95 582.38ZM1082.51 618.92L1084.51 621.158L1084.51 621.157L1082.51 618.92ZM1053.17 642.86L1050.85 644.765L1052.69 647.003L1055 645.242L1053.17 642.86ZM1046.51 634.76V631.76H1040.16L1044.19 636.665L1046.51 634.76ZM1116.53 634.76H1119.53V631.76H1116.53V634.76ZM1116.53 656V659H1119.53V656H1116.53ZM1022.57 656H1025.57V634.4H1022.57H1019.57V656H1022.57ZM1022.57 634.4L1024.47 636.722C1036.37 626.989 1046.3 618.625 1054.25 611.633L1052.27 609.38L1050.29 607.127C1042.41 614.055 1032.54 622.371 1020.67 632.078L1022.57 634.4ZM1052.27 609.38L1054.25 611.631C1062.35 604.502 1068.82 598.163 1073.62 592.625L1071.35 590.66L1069.09 588.695C1064.53 593.957 1058.27 600.098 1050.29 607.129L1052.27 609.38ZM1071.35 590.66L1073.59 592.653C1078.51 587.127 1082.13 581.957 1084.34 577.152L1081.61 575.9L1078.89 574.647C1077.01 578.723 1073.8 583.393 1069.11 588.667L1071.35 590.66ZM1081.61 575.9L1084.34 577.152C1086.54 572.359 1087.67 567.494 1087.67 562.58H1084.67H1081.67C1081.67 566.546 1080.76 570.561 1078.89 574.647L1081.61 575.9ZM1084.67 562.58H1087.67C1087.67 556.75 1086.07 551.814 1082.47 548.219L1080.35 550.34L1078.23 552.461C1080.4 554.626 1081.67 557.85 1081.67 562.58H1084.67ZM1080.35 550.34L1082.56 548.309C1079.1 544.55 1074.32 542.84 1068.65 542.84V545.84V548.84C1073.07 548.84 1076.08 550.13 1078.14 552.371L1080.35 550.34ZM1068.65 545.84V542.84C1062.7 542.84 1057.57 544.689 1053.47 548.504L1055.51 550.7L1057.56 552.896C1060.42 550.231 1064.04 548.84 1068.65 548.84V545.84ZM1055.51 550.7L1053.47 548.504C1049.4 552.295 1046.98 557.405 1046.06 563.578L1049.03 564.02L1052 564.462C1052.76 559.355 1054.67 555.585 1057.56 552.896L1055.51 550.7ZM1049.03 564.02V561.02H1021.31V564.02V567.02H1049.03V564.02ZM1021.31 564.02L1024.29 564.342C1025.54 552.798 1030.18 543.96 1038.13 537.556L1036.25 535.22L1034.37 532.884C1025.04 540.4 1019.72 550.762 1018.33 563.698L1021.31 564.02ZM1036.25 535.22L1038.15 537.54C1046.14 530.992 1056.58 527.6 1069.73 527.6V524.6V521.6C1055.52 521.6 1043.64 525.288 1034.35 532.9L1036.25 535.22ZM1069.73 524.6V527.6C1083.14 527.6 1093.19 531.059 1100.28 537.604L1102.31 535.4L1104.35 533.196C1095.84 525.341 1084.17 521.6 1069.73 521.6V524.6ZM1102.31 535.4L1100.3 537.621C1107.34 544.016 1111.01 553.036 1111.01 565.1H1114.01H1117.01C1117.01 551.724 1112.88 540.944 1104.33 533.179L1102.31 535.4ZM1114.01 565.1H1111.01C1111.01 570.752 1110.05 576.16 1108.14 581.34L1110.95 582.38L1113.77 583.42C1115.93 577.56 1117.01 571.448 1117.01 565.1H1114.01ZM1110.95 582.38L1108.12 581.394C1106.33 586.536 1103.27 591.952 1098.86 597.642L1101.23 599.48L1103.6 601.318C1108.31 595.248 1111.73 589.264 1113.79 583.366L1110.95 582.38ZM1101.23 599.48L1098.86 597.642C1094.45 603.331 1088.35 609.678 1080.51 616.683L1082.51 618.92L1084.51 621.157C1092.51 614.002 1098.9 607.389 1103.6 601.318L1101.23 599.48ZM1082.51 618.92L1080.51 616.682C1072.79 623.576 1063.07 631.506 1051.35 640.478L1053.17 642.86L1055 645.242C1066.79 636.214 1076.64 628.184 1084.51 621.158L1082.51 618.92ZM1053.17 642.86L1055.49 640.955L1048.83 632.855L1046.51 634.76L1044.19 636.665L1050.85 644.765L1053.17 642.86ZM1046.51 634.76V637.76H1116.53V634.76V631.76H1046.51V634.76ZM1116.53 634.76H1113.53V656H1116.53H1119.53V634.76H1116.53ZM1116.53 656V653H1022.57V656V659H1116.53V656ZM1139.31 647.54L1137.43 649.879L1139.31 647.54ZM1123.47 618.74V615.74H1119.93L1120.51 619.229L1123.47 618.74ZM1151.01 618.74L1153.96 618.226L1153.53 615.74H1151.01V618.74ZM1158.21 631.88L1156.27 634.173L1156.29 634.191L1156.31 634.208L1158.21 631.88ZM1184.85 630.8L1182.59 628.82L1182.59 628.824L1184.85 630.8ZM1185.21 595.7L1182.86 597.566L1182.87 597.583L1182.88 597.6L1185.21 595.7ZM1162.71 591.92L1164.05 594.603L1164.09 594.581L1164.14 594.558L1162.71 591.92ZM1155.51 599.12V602.12H1157.25L1158.11 600.608L1155.51 599.12ZM1130.31 599.12L1127.32 598.846L1127.02 602.12H1130.31V599.12ZM1136.97 526.4V523.4H1134.23L1133.98 526.126L1136.97 526.4ZM1211.49 526.4H1214.49V523.4H1211.49V526.4ZM1211.49 547.64V550.64H1214.49V547.64H1211.49ZM1146.69 547.64L1146.29 544.667L1146.69 550.64V547.64ZM1161.45 545.66L1164.44 545.899L1164.73 542.192L1161.05 542.687L1161.45 545.66ZM1158.21 586.16L1157.79 589.131L1160.94 589.572L1161.2 586.399L1158.21 586.16ZM1149.21 584.9L1146.67 583.293L1144.18 587.225L1148.79 587.871L1149.21 584.9ZM1160.55 573.74L1162.03 576.349L1162.04 576.343L1162.05 576.336L1160.55 573.74ZM1199.61 575.18L1201.11 572.581L1199.61 575.18ZM1214.19 590.3L1211.54 591.719V591.719L1214.19 590.3ZM1213.47 637.28L1216.04 638.823L1213.47 637.28ZM1196.91 652.58L1198.23 655.272L1198.25 655.263L1198.27 655.254L1196.91 652.58ZM1172.07 657.8V654.8C1159.28 654.8 1149.06 651.525 1141.18 645.201L1139.31 647.54L1137.43 649.879C1146.59 657.235 1158.22 660.8 1172.07 660.8V657.8ZM1139.31 647.54L1141.18 645.201C1133.33 638.891 1128.36 629.996 1126.43 618.251L1123.47 618.74L1120.51 619.229C1122.65 632.204 1128.25 642.509 1137.43 649.879L1139.31 647.54ZM1123.47 618.74V621.74H1151.01V618.74V615.74H1123.47V618.74ZM1151.01 618.74L1148.05 619.254C1149.12 625.383 1151.83 630.425 1156.27 634.173L1158.21 631.88L1160.14 629.587C1156.9 626.855 1154.82 623.137 1153.96 618.226L1151.01 618.74ZM1158.21 631.88L1156.31 634.208C1160.69 637.76 1165.73 639.56 1171.35 639.56V636.56V633.56C1167.12 633.56 1163.41 632.24 1160.1 629.552L1158.21 631.88ZM1171.35 636.56V639.56C1177.75 639.56 1183.11 637.34 1187.1 632.776L1184.85 630.8L1182.59 628.824C1179.86 631.94 1176.22 633.56 1171.35 633.56V636.56ZM1184.85 630.8L1187.1 632.78C1191.25 628.055 1193.07 621.274 1193.07 612.98H1190.07H1187.07C1187.07 620.526 1185.4 625.625 1182.59 628.82L1184.85 630.8ZM1190.07 612.98H1193.07C1193.07 605.047 1191.37 598.5 1187.53 593.8L1185.21 595.7L1182.88 597.6C1185.52 600.82 1187.07 605.793 1187.07 612.98H1190.07ZM1185.21 595.7L1187.56 593.834C1183.69 588.972 1178.35 586.58 1171.89 586.58V589.58V592.58C1176.7 592.58 1180.24 594.268 1182.86 597.566L1185.21 595.7ZM1171.89 589.58V586.58C1168.14 586.58 1164.59 587.487 1161.28 589.282L1162.71 591.92L1164.14 594.558C1166.58 593.233 1169.15 592.58 1171.89 592.58V589.58ZM1162.71 591.92L1161.36 589.237C1157.86 590.991 1155.06 593.863 1152.9 597.632L1155.51 599.12L1158.11 600.608C1159.8 597.657 1161.8 595.729 1164.05 594.603L1162.71 591.92ZM1155.51 599.12V596.12H1130.31V599.12V602.12H1155.51V599.12ZM1130.31 599.12L1133.29 599.394L1139.95 526.674L1136.97 526.4L1133.98 526.126L1127.32 598.846L1130.31 599.12ZM1136.97 526.4V529.4H1211.49V526.4V523.4H1136.97V526.4ZM1211.49 526.4H1208.49V547.64H1211.49H1214.49V526.4H1211.49ZM1211.49 547.64V544.64H1146.69V547.64V550.64H1211.49V547.64ZM1146.69 547.64L1147.09 550.613L1161.85 548.633L1161.45 545.66L1161.05 542.687L1146.29 544.667L1146.69 547.64ZM1161.45 545.66L1158.46 545.421L1155.22 585.921L1158.21 586.16L1161.2 586.399L1164.44 545.899L1161.45 545.66ZM1158.21 586.16L1158.62 583.189L1149.62 581.929L1149.21 584.9L1148.79 587.871L1157.79 589.131L1158.21 586.16ZM1149.21 584.9L1151.74 586.507C1154.63 581.943 1158.07 578.594 1162.03 576.349L1160.55 573.74L1159.07 571.131C1154.14 573.926 1150.02 578.017 1146.67 583.293L1149.21 584.9ZM1160.55 573.74L1162.05 576.336C1166.03 574.032 1171.23 572.78 1177.83 572.78V569.78V566.78C1170.5 566.78 1164.18 568.168 1159.04 571.144L1160.55 573.74ZM1177.83 569.78V572.78C1185.66 572.78 1192.39 574.479 1198.11 577.779L1199.61 575.18L1201.11 572.581C1194.35 568.681 1186.55 566.78 1177.83 566.78V569.78ZM1199.61 575.18L1198.11 577.779C1203.85 581.093 1208.32 585.72 1211.54 591.719L1214.19 590.3L1216.83 588.881C1213.09 581.92 1207.84 576.467 1201.11 572.581L1199.61 575.18ZM1214.19 590.3L1211.54 591.719C1214.75 597.681 1216.41 604.853 1216.41 613.34H1219.41H1222.41C1222.41 604.067 1220.59 595.879 1216.83 588.881L1214.19 590.3ZM1219.41 613.34H1216.41C1216.41 622.274 1214.52 629.694 1210.89 635.737L1213.47 637.28L1216.04 638.823C1220.33 631.666 1222.41 623.126 1222.41 613.34H1219.41ZM1213.47 637.28L1210.89 635.737C1207.23 641.837 1202.14 646.553 1195.55 649.906L1196.91 652.58L1198.27 655.254C1205.83 651.407 1211.78 645.923 1216.04 638.823L1213.47 637.28ZM1196.91 652.58L1195.58 649.888C1188.99 653.128 1181.18 654.8 1172.07 654.8V657.8V660.8C1181.91 660.8 1190.66 658.992 1198.23 655.272L1196.91 652.58Z" fill="white" mask="url(#path-6-outside-3_2364_3)"/>
</g>
<defs>
<filter id="filter0_d_2364_3" x="325.561" y="189.6" width="900.846" height="147.2" filterUnits="userSpaceOnUse" color-interpolation-filters="sRGB">
<feFlood flood-opacity="0" result="BackgroundImageFix"/>
<feColorMatrix in="SourceAlpha" type="matrix" values="0 0 0 0 0 0 0 0 0 0 0 0 0 0 0 0 0 0 127 0" result="hardAlpha"/>
<feOffset dy="4"/>
<feGaussianBlur stdDeviation="2"/>
<feComposite in2="hardAlpha" operator="out"/>
<feColorMatrix type="matrix" values="0 0 0 0 0 0 0 0 0 0 0 0 0 0 0 0 0 0 0.25 0"/>
<feBlend mode="normal" in2="BackgroundImageFix" result="effect1_dropShadow_2364_3"/>
<feBlend mode="normal" in="SourceGraphic" in2="effect1_dropShadow_2364_3" result="shape"/>
</filter>
<filter id="filter1_d_2364_3" x="247.789" y="23.5996" width="1054.64" height="141.2" filterUnits="userSpaceOnUse" color-interpolation-filters="sRGB">
<feFlood flood-opacity="0" result="BackgroundImageFix"/>
<feColorMatrix in="SourceAlpha" type="matrix" values="0 0 0 0 0 0 0 0 0 0 0 0 0 0 0 0 0 0 127 0" result="hardAlpha"/>
<feOffset dy="4"/>
<feGaussianBlur stdDeviation="2"/>
<feComposite in2="hardAlpha" operator="out"/>
<feColorMatrix type="matrix" values="0 0 0 0 0 0 0 0 0 0 0 0 0 0 0 0 0 0 0.25 0"/>
<feBlend mode="normal" in2="BackgroundImageFix" result="effect1_dropShadow_2364_3"/>
<feBlend mode="normal" in="SourceGraphic" in2="effect1_dropShadow_2364_3" result="shape"/>
</filter>
<filter id="filter2_d_2364_3" x="325.561" y="355.6" width="900.846" height="147.2" filterUnits="userSpaceOnUse" color-interpolation-filters="sRGB">
<feFlood flood-opacity="0" result="BackgroundImageFix"/>
<feColorMatrix in="SourceAlpha" type="matrix" values="0 0 0 0 0 0 0 0 0 0 0 0 0 0 0 0 0 0 127 0" result="hardAlpha"/>
<feOffset dy="4"/>
<feGaussianBlur stdDeviation="2"/>
<feComposite in2="hardAlpha" operator="out"/>
<feColorMatrix type="matrix" values="0 0 0 0 0 0 0 0 0 0 0 0 0 0 0 0 0 0 0.25 0"/>
<feBlend mode="normal" in2="BackgroundImageFix" result="effect1_dropShadow_2364_3"/>
<feBlend mode="normal" in="SourceGraphic" in2="effect1_dropShadow_2364_3" result="shape"/>
</filter>
<filter id="filter3_d_2364_3" x="325.561" y="521.6" width="900.846" height="147.2" filterUnits="userSpaceOnUse" color-interpolation-filters="sRGB">
<feFlood flood-opacity="0" result="BackgroundImageFix"/>
<feColorMatrix in="SourceAlpha" type="matrix" values="0 0 0 0 0 0 0 0 0 0 0 0 0 0 0 0 0 0 127 0" result="hardAlpha"/>
<feOffset dy="4"/>
<feGaussianBlur stdDeviation="2"/>
<feComposite in2="hardAlpha" operator="out"/>
<feColorMatrix type="matrix" values="0 0 0 0 0 0 0 0 0 0 0 0 0 0 0 0 0 0 0.25 0"/>
<feBlend mode="normal" in2="BackgroundImageFix" result="effect1_dropShadow_2364_3"/>
<feBlend mode="normal" in="SourceGraphic" in2="effect1_dropShadow_2364_3" result="shape"/>
</filter>
</defs>
</svg>
