<svg width="128" height="93" viewBox="0 0 128 93" fill="none" xmlns="http://www.w3.org/2000/svg">
<path d="M3.90027 10.4559L117.426 1.26223C119.269 2.26627 120.006 3.27555 120.437 5.30295C122.008 12.5458 123.276 31.3758 123.242 39.1009C123.229 41.5571 121.558 53.1278 120.128 54.144L10.2998 63.3161C7.9407 62.3813 4.20639 50.1912 3.72458 47.341C2.57707 40.5851 0.626887 21.7164 1.13226 15.3622C1.26741 13.6445 2.20578 11.1197 3.89234 10.4652L3.90027 10.4559ZM119.836 40.2212C120.373 29.6593 116.802 16.5066 116.947 5.63789L115.542 4.44932L6.60484 13.547L5.41628 14.9522L8.44885 51.2647C8.50589 51.9477 12.004 60.5793 13.9622 59.9457L117.332 50.7992C117.536 47.6045 119.681 43.168 119.836 40.2212Z" fill="black"/>
<path d="M52.132 63.7315C53.5604 69.6804 61.3187 65.8373 62.4251 72.1004C63.6302 78.9211 54.7542 77.8254 54.0179 81.8308C53.2131 86.164 60.0614 85.7052 57.2757 88.5236C53.8351 86.9391 51.1178 85.2594 52.0249 80.9002C52.9319 76.5411 61.0478 77.8135 60.4819 72.2888C60.0215 67.8175 50.4928 71.4166 50.4476 64.3075L52.132 63.7315Z" fill="black"/>
<path d="M95.668 84.4565C90.2725 86.0476 86.9987 78.6422 90.9363 75.2314C92.8849 73.5451 98.7252 73.5275 97.7597 69.2638C96.6666 64.41 90.9328 67.9969 88.5127 63.933C87.5714 62.3575 87.4597 61.9576 88.9004 60.6533C91.4766 66.6891 100.671 62.7348 99.6449 71.3003C98.9492 77.0435 91.9858 74.3515 91.1926 78.7186C90.5859 82.0863 94.1567 82.4149 95.6673 84.4479L95.668 84.4565Z" fill="black"/>
<path d="M33.9363 66.2924C34.3268 66.4862 34.6982 68.4315 36.05 68.9802C38.3745 69.9179 42.249 68.4625 43.3493 72.7759C45.7315 82.1189 32.6777 79.0563 35.8744 86.2678C36.6471 88.0142 41.032 87.7699 38.2671 90.1077C30.109 86.4533 32.4139 78.6082 40.9156 77.5151C44.6829 68.416 33.5745 73.5313 31.4931 66.3311C32.2849 66.3259 33.1833 65.9287 33.9543 66.2996L33.9363 66.2924Z" fill="black"/>
<path d="M74.1277 84.3565C74.6948 84.6835 75.7819 84.3577 76.4859 84.3424L76.7018 86.9275C71.9118 86.4918 69.7993 82.4631 71.3238 77.9915C72.458 74.6842 80.2044 76.4314 78.8539 70.685C77.7838 66.1079 68.6803 69.7934 69.4376 62.2864C71.2512 62.6312 71.6357 65.2545 73.2202 65.8796C76.0476 67.0016 79.8926 65.4007 81.0204 70.774C82.3653 77.1825 74.0694 76.7784 72.9906 79.3932C72.4627 80.6823 73.0209 83.7177 74.1191 84.3573L74.1277 84.3565Z" fill="black"/>
<path d="M119.832 40.2182C119.677 43.1564 117.541 47.6008 117.329 50.7962L13.9589 59.9427C12.0007 60.5763 8.50261 51.9447 8.44557 51.2617L5.41299 14.9492L6.60156 13.544L115.539 4.44632L116.944 5.63489C116.798 16.5036 120.369 29.6563 119.832 40.2182ZM86.9334 10.3177L12.6053 16.5251L13.1107 22.5772L87.4389 16.3698L86.9334 10.3177ZM93.4209 14.9212C94.1401 15.8189 101.165 16.0157 102.043 13.9139C104.836 5.66227 89.3549 9.81077 93.4209 14.9212ZM102.332 25.2948C101.677 24.5398 101.841 23.2725 100.959 22.6234C99.2638 21.3982 98.365 27.3151 100.988 28.2801L102.998 26.3884C103.162 28.6644 102.269 31.3246 99.7163 29.6312L98.6025 25.8848C93.158 31.7895 105.37 35.3056 104.711 26.7851C104.348 25.8752 102.833 25.8798 102.323 25.2955L102.332 25.2948ZM115.409 34.058L11.218 42.7593L11.4346 45.3531L115.625 36.6518L115.409 34.058ZM114.395 38.4957L13.3081 46.9378L14.1024 56.4482L115.189 48.0061L114.395 38.4957Z" fill="#B3322F"/>
<path d="M114.399 38.4993L115.194 48.0097L14.1067 56.4518L13.3125 46.9414L114.399 38.4993ZM15.1861 48.5262L15.3305 50.2553L112.164 42.1685L112.019 40.4393L15.1861 48.5262ZM15.4749 51.9845L15.6193 53.7137L112.453 45.6268L112.308 43.8976L15.4749 51.9845Z" fill="black"/>
<path d="M86.9376 10.32L87.443 16.372L13.1148 22.5794L12.6094 16.5273L86.9376 10.32ZM14.4305 18.6301L14.6045 20.7138L85.5002 14.7931L85.3262 12.7094L14.4305 18.6301Z" fill="black"/>
<path d="M115.41 34.0604L11.2188 42.7617L11.4354 45.3555L115.626 36.6542L115.41 34.0604Z" fill="black"/>
<path d="M93.4253 14.9218C89.3593 9.81136 104.841 5.66286 102.047 13.9145C101.169 16.0163 94.1445 15.8194 93.4253 14.9218Z" fill="black"/>
<path d="M102.334 25.2983C102.844 25.8825 104.359 25.8779 104.722 26.7879C105.373 35.3091 93.169 31.7923 98.6135 25.8876L99.7273 29.634C102.272 31.3281 103.172 28.6585 103.009 26.3912L100.999 28.2828C98.376 27.3178 99.2748 21.401 100.97 22.6262C101.843 23.276 101.688 24.5426 102.343 25.2976L102.334 25.2983Z" fill="black"/>
<path d="M112.306 43.8975L15.4727 51.9844L15.6171 53.7135L112.45 45.6267L112.306 43.8975Z" fill="white"/>
<path d="M112.017 40.4405L15.1836 48.5273L15.328 50.2565L112.161 42.1697L112.017 40.4405Z" fill="white"/>
<path d="M85.3254 12.7082L14.4297 18.6289L14.6037 20.7126L85.4995 14.7918L85.3254 12.7082Z" fill="white"/>
</svg>
