<svg width="124" height="115" viewBox="0 0 124 115" fill="none" xmlns="http://www.w3.org/2000/svg">
<path d="M3.72137 98.7305L4.08919 95.3997L1.27181 94.0463C0.109413 92.1738 5.353 86.6409 6.79747 84.8717C15.9181 73.7361 45.1068 44.5972 59.5353 44.758C72.8436 44.903 88.6602 50.3458 102.283 50.8528C105.207 50.3539 104.522 41.3695 105.44 38.7686L108.274 38.2214C109.146 29.5628 113.729 18.9338 102.293 15.8989C97.5415 14.6378 74.1351 11.1288 70.3571 12.0105C61.9783 13.9422 65.5413 23.5697 58.3357 27.7175C50.4991 32.2196 42.3504 26.0996 35.8667 27.3107C34.0456 27.6476 32.2998 32.1172 28.8343 32.2469C26.2327 32.346 23.0762 31.0919 20.3512 31.0764L19.4956 27.7758L14.3425 26.6221C14.0726 23.2149 17.9146 26.245 19.627 25.5151L21.0535 22.7961C21.2185 21.7944 14.1318 22.5746 15.4876 18.907L20.545 19.5203L22.5199 16.5314C26.0959 16.9617 30.0795 16.768 32.9408 19.3117C34.5456 20.7407 35.0574 23.8152 36.3049 24.455C37.7715 25.2147 51.9602 27.1819 54.0186 27.0203C63.2067 26.3216 60.9716 11.2507 70.2844 9.82498C74.2416 9.21519 98.4662 13.0639 103.478 14.2845C115.366 17.1668 111.404 29.5972 109.895 38.469L112.452 39.8101L111.437 51.938C114.806 52.8201 117.111 53.4841 117.514 57.3582L110.842 104.319L82.4268 106.894L81.8566 110.231L3.74841 98.7257L3.72137 98.7305ZM21.8133 29.4852C36.0144 33.9885 38.178 18.3467 23.4581 18.3183L21.8133 29.4852ZM110.484 40.7831L107.034 40.2749L105.388 51.4504L108.838 51.9586L110.484 40.7831ZM114.207 57.1254C112.694 56.4992 111.291 55.9066 109.662 55.5352C97.5722 52.7722 75.5661 49.4607 63.2419 48.7066C60.7997 48.5573 58.3771 48.6916 56.0054 49.2543C45.9511 51.6056 21.3211 73.0148 15.0095 81.5124C14.2986 82.4688 13.6105 82.9725 13.7306 84.4197L85.4013 94.9763C86.4313 95.128 104.062 92.1825 105.874 91.6689C107.12 91.3087 108.365 91.1326 109.348 90.1724L114.216 57.1267L114.207 57.1254ZM6.57587 91.2584L86.8298 103.079C90.787 101.338 104.142 102.718 106.852 101.223C108.627 100.248 109.191 93.3852 107.613 93.0213L84.2742 96.5554L12.1829 85.9368L10.3313 86.541L6.57587 91.2584ZM79.7602 106.423L5.94374 95.55L5.69088 97.2667L79.5074 108.139L79.7602 106.423Z" fill="black"/>
<path d="M24.0469 79.8047L63.5387 85.6216L63.1508 88.1953L25.8233 82.6884L24.0469 79.8047Z" fill="white"/>
<path d="M114.207 57.1282L109.34 90.174C108.356 91.1341 107.112 91.3103 105.866 91.6705C104.053 92.1927 86.4229 95.1295 85.3929 94.9778L13.7223 84.4212C13.6108 82.9754 14.289 82.4789 15.0011 81.5139C21.3042 73.0151 45.9355 51.5973 55.997 49.2558C58.3761 48.703 60.7901 48.5675 63.2337 48.7082C75.559 49.4537 97.5651 52.7652 109.653 55.5367C111.291 55.9095 112.686 56.5008 114.199 57.127L114.207 57.1282ZM41.8743 71.9057L96.3784 79.9338C96.7045 79.9818 100.118 77.1697 100.641 76.4138C104.951 70.1381 101.433 61.3941 94.1572 59.4104C87.2685 57.5363 69.5889 55.0375 62.3353 54.6882C60.8117 54.6128 60.3389 54.4292 58.7829 55.0506C56.2043 56.0652 40.2871 69.8215 41.8756 71.8971L41.8743 71.9057ZM24.0489 79.8036C22.0231 81.2328 22.7774 82.7207 24.8307 83.4266C30.357 83.4162 60.5051 90.1544 63.1529 88.1942C64.5106 87.1928 64.3949 86.4303 64.5169 84.8873C58.6912 84.9062 26.8686 77.8073 24.0489 79.8036ZM68.3029 88.9528L76.1955 91.0361C77.5813 90.9157 78.108 87.161 76.8403 86.6586L67.9502 85.393L68.3029 88.9528L68.6821 86.3778L76.3985 87.5143C75.8023 91.443 71.0286 89.0824 68.3041 88.9442L68.3029 88.9528Z" fill="white"/>
<path d="M6.57476 91.2578L10.3302 86.5405L12.1806 85.9449L84.2718 96.5634L107.611 93.0293C109.19 93.3846 108.616 100.254 106.85 101.231C104.131 102.724 90.7847 101.346 86.8275 103.087L6.5735 91.2664L6.57476 91.2578Z" fill="#B3322F"/>
<path d="M79.7618 106.423L5.94531 95.5508L5.69246 97.2674L79.5089 108.14L79.7618 106.423Z" fill="white"/>
<path d="M21.8108 29.4832L23.4556 18.3163C38.1767 18.3361 36.0118 33.9866 21.8108 29.4832Z" fill="white"/>
<path d="M110.482 40.7856L107.031 40.2773L105.386 51.4442L108.837 51.9525L110.482 40.7856Z" fill="white"/>
<path d="M41.8756 71.9009C40.2798 69.8155 56.1957 56.0677 58.7829 55.0544C60.3377 54.4415 60.8105 54.6252 62.3353 54.6919C69.5889 55.0412 87.2685 57.5401 94.1572 59.4141C101.425 61.3966 104.951 70.1419 100.641 76.4175C100.118 77.1735 96.7046 79.9856 96.3784 79.9376L41.8744 71.9095L41.8756 71.9009ZM48.3896 69.3525L77.5729 73.651L78.3315 68.5011L94.6398 70.9032C94.8064 71.7959 92.7601 76.8176 95.1614 76.2329C100.221 74.9874 99.378 65.0502 93.404 63.039C89.1673 61.617 66.176 58.0288 61.8882 58.204C59.1086 58.3208 47.7629 68.7253 48.3896 69.3525ZM92.6703 72.367L79.7953 70.4706L79.2896 73.9039L92.1645 75.8003L92.6703 72.367Z" fill="black"/>
<path d="M24.0473 79.803C26.8756 77.808 58.6982 84.9068 64.5153 84.8867C64.3933 86.4297 64.5103 87.1836 63.1513 88.1936L63.5306 85.6186L24.0473 79.803Z" fill="black"/>
<path d="M63.1522 88.1918C60.5057 90.1435 30.3563 83.4138 24.83 83.4242C22.7754 82.7269 22.0211 81.239 24.0482 79.8012L25.8246 82.6849L63.1534 88.1832L63.1522 88.1918Z" fill="black"/>
<path d="M68.3033 88.9503L67.9507 85.3906L76.8407 86.6562C78.1085 87.1586 77.5817 90.9133 76.196 91.0336L68.3033 88.9503C71.0278 89.0885 75.8114 91.4418 76.3977 87.5205L68.6728 86.3826L68.2947 88.949L68.3033 88.9503Z" fill="black"/>
<path d="M48.3881 69.3534C47.7601 68.7348 59.107 58.3217 61.8866 58.205C66.1671 58.0199 89.1585 61.608 93.4025 63.0399C99.3765 65.0511 100.218 74.9969 95.1598 76.2338C92.7672 76.8198 94.8049 71.7968 94.6382 70.9041L78.3299 68.502L77.5714 73.652L48.3881 69.3534Z" fill="white"/>
<path d="M92.664 72.3691L79.7891 70.4727L79.2834 73.906L92.1583 75.8024L92.664 72.3691Z" fill="#B3322F"/>
</svg>
