<svg width="113" height="134" viewBox="0 0 113 134" fill="none" xmlns="http://www.w3.org/2000/svg">
<path d="M64.9161 108.237C65.0385 108.37 67.4239 108.143 68.297 108.86C69.4655 109.826 69.358 112.667 70.4276 112.815C78.0148 112.884 100.298 106.066 105.589 111.163C106.871 112.395 107.157 114.763 108.067 115.493C109.67 116.769 115.158 115.513 109.79 121.409L18.9706 133.342L15.9769 132.205L15.2457 129.308C15.698 127.026 18.9701 127.952 20 127.134C20.364 126.841 20.7085 123.54 21.3898 122.4C25.2031 116.001 46.6546 116.958 53.8961 114.999C54.8072 114.608 54.199 112.246 54.7347 111.065C55.1474 110.144 57.9724 108.67 57.866 107.861L54.0175 78.615L52.5575 77.4945L33.2035 80.0413L34.9579 93.374C35.0044 93.7267 38.898 96.2508 37.1458 99.6929L34.6452 100.906C29.8112 101.078 32.9148 92.9428 32.8616 90.2109C32.8083 87.4789 32.3194 82.1003 30.2015 80.4363L14.7183 82.4737C12.3442 82.7861 10.8986 77.5859 10.749 75.5842C9.40262 57.6386 14.0927 36.0897 12.9804 17.7284C13.5141 13.0727 17.2418 12.4072 21.1074 11.5922C35.2586 8.60999 61.9228 4.89127 76.2275 4.33904C79.9188 4.19458 83.3011 4.36209 84.8051 8.27701C88.4796 26.2925 98.588 45.9203 101.928 63.586C102.301 65.5583 102.25 70.9555 99.8758 71.2679L62.028 76.2483L60.9076 77.7083C62.2022 81.6946 63.7401 106.948 64.9258 108.245L64.9161 108.237ZM15.9762 78.7991L97.693 68.0461C98.0715 67.9963 98.9518 66.5066 98.6686 65.8176L79.3706 8.27457L17.07 16.6214L14.4584 76.9074C14.4192 77.6739 15.3955 78.7093 15.9773 78.8078L15.9762 78.7991ZM59.0077 76.637L55.567 77.0897L59.755 108.916L63.1957 108.464L59.0077 76.637ZM67.3144 113.163C70.4461 109.032 53.6568 108.791 57.4321 114.472L67.3156 113.172L67.3144 113.163ZM22.7449 126.912L105.322 116.046C104.837 112.163 103.601 111.416 99.929 111.505C76.9894 112.074 50.9089 119.829 27.5985 120.971C24.5258 121.095 22.0347 123.777 22.7449 126.912ZM109.849 117.201L16.95 129.425L17.1764 131.146L110.076 118.921L109.849 117.201Z" fill="black"/>
<path d="M15.9732 78.7989C15.3926 78.709 14.4238 77.6639 14.4543 76.8986L17.066 16.6125L79.3665 8.26571L98.6645 65.8087C98.9477 66.4978 98.0674 67.9875 97.6889 68.0373L15.9721 78.7903L15.9732 78.7989ZM77 13.8888L21.9486 21.133C21.9034 23.4491 22.4729 22.6566 24.0946 22.8107C33.7524 23.7188 61.1356 19.2141 71.7884 17.2436C73.6082 16.9078 77.9786 16.604 77 13.8888Z" fill="#B3322F"/>
<path d="M22.7457 126.912C22.0345 123.767 24.517 121.087 27.5994 120.97C50.9097 119.828 76.9903 112.073 99.9298 111.505C103.611 111.414 104.847 112.161 105.323 116.045L22.7457 126.912Z" fill="#B3322F"/>
<path d="M109.848 117.201L16.9492 129.426L17.1756 131.146L110.075 118.922L109.848 117.201Z" fill="white"/>
<path d="M59.0071 76.6371L55.5664 77.0898L59.7544 108.916L63.1951 108.464L59.0071 76.6371Z" fill="white"/>
<path d="M67.314 113.164L57.4306 114.464C53.6564 108.792 70.4457 109.033 67.314 113.164Z" fill="white"/>
<path d="M77.0031 13.8882C77.9903 16.6023 73.6199 16.9061 71.7916 17.243C61.1387 19.2136 33.7555 23.7182 24.0977 22.8101C22.4675 22.6571 21.8979 23.4496 21.9518 21.1324L77.0031 13.8882Z" fill="black"/>
</svg>
