<svg width="133" height="119" viewBox="0 0 133 119" fill="none" xmlns="http://www.w3.org/2000/svg">
<path d="M5.32116 87.0147C5.04761 86.8996 3.97578 85.4796 3.84881 85.0514L14.035 4.53712C14.405 0.297753 21.2416 1.73891 24.4358 2.00526C58.3248 4.83104 92.8944 12.4207 126.879 15.5829L132.508 18.9994L121.259 100.93C120.924 101.341 119.192 102.126 118.857 102.082L69.4036 95.5191C69.4302 99.6711 66.736 105.002 68.9816 108.591L97.7934 112.415L97.3368 115.855L23.3724 106.039L23.8289 102.599L53.0707 106.48L54.7827 93.5787L5.32975 87.0158L5.32116 87.0147ZM17.226 7.2011L7.41019 81.1656L118.357 95.8893L128.173 21.9248L17.226 7.2011ZM67.6749 95.2897L56.4856 93.8047L55.2593 105.947L65.9542 108.189L67.6663 95.2885L67.6749 95.2897Z" fill="black"/>
<path d="M17.2266 7.20312L128.173 21.9268L118.357 95.8913L7.41076 81.1676L17.2266 7.20312ZM18.7687 67.7965L17.964 73.8599L95.4804 84.1471L96.2851 78.0837L18.7687 67.7965ZM109.964 84.9489C115.246 81.0201 103.74 76.9113 102.123 80.2587C99.7811 84.5165 107.711 86.6192 109.964 84.9489Z" fill="white"/>
<path d="M67.6764 95.2904L65.9644 108.191L55.2694 105.949L56.4883 93.7969L67.6764 95.2904Z" fill="#B3322F"/>
<path d="M18.7695 67.7969L96.286 78.0841L95.4813 84.1474L17.9649 73.8602L18.7695 67.7969ZM94.2688 79.5668L20.3044 69.751L20.0761 71.4711L94.0405 81.2869L94.2688 79.5668Z" fill="black"/>
<path d="M109.962 84.9484C107.719 86.6198 99.7798 84.516 102.121 80.2583C103.738 76.9108 115.237 81.0099 109.962 84.9484Z" fill="black"/>
<path d="M94.2691 79.5658L20.3047 69.75L20.0764 71.4701L94.0409 81.2859L94.2691 79.5658Z" fill="#B3322F"/>
</svg>
