<svg width="134" height="105" viewBox="0 0 134 105" fill="none" xmlns="http://www.w3.org/2000/svg">
<path d="M37.6341 96.6334L38.2604 100.056L27.1923 102.037L25.6414 98.3344C21.8482 99.5843 16.6724 100.364 14.7411 95.7871C11.9729 74.2525 4.28644 50.7603 2.36271 29.4063C1.92087 24.4862 2.75899 23.1862 7.59188 21.8342C40.6472 12.618 79.8489 11.1057 113.506 2.43195C115.734 1.78606 117.507 2.55533 119.04 4.1358L132.319 75.1498C130.726 80.4688 126.44 79.7979 122.202 81.2175L122.764 84.5808C117.763 84.8699 112.536 88.8871 110.12 82.82C109.454 82.4569 109.072 83.5499 108.901 83.5811L37.641 96.6233L37.6341 96.6334ZM5.71386 25.7412L18.5217 95.7213L129.022 75.4974L116.214 5.51727L5.71386 25.7412Z" fill="black"/>
<path d="M5.71094 25.7422L116.211 5.51827L129.019 75.4984L18.5188 95.7223L5.71094 25.7422ZM12.2832 30.7133L23.0684 89.6417L96.5134 76.1997L85.7282 17.2713L12.2832 30.7133ZM109.624 12.8979L89.9953 16.4904L92.4469 25.3556C93.7948 25.9733 109.446 22.9147 110.708 21.6165L109.624 12.8979ZM100.401 35.3218C100.153 33.9649 98.8486 33.0569 97.4831 33.3069C96.1176 33.5568 95.2182 34.8592 95.4681 36.2246C95.718 37.5901 97.0204 38.4895 98.3859 38.2396C99.7514 37.9897 100.651 36.6873 100.401 35.3218ZM111.495 33.2913C111.247 31.9344 109.943 31.0264 108.578 31.2763C107.212 31.5262 106.313 32.8287 106.563 34.1941C106.812 35.5596 108.115 36.459 109.48 36.2091C110.846 35.9592 111.745 34.6568 111.495 33.2913ZM114.003 46.5122C113.181 45.6836 107.498 46.0534 109.286 49.5542C110.717 52.3616 116.404 48.9305 114.003 46.5122ZM118.955 62.2933C118.021 57.1899 113.125 53.8084 108.021 54.7424C102.918 55.6764 99.5363 60.5731 100.47 65.6765C101.404 70.7799 106.301 74.1614 111.404 73.2274C116.508 72.2934 119.889 67.3968 118.955 62.2933Z" fill="white"/>
<path d="M12.2852 30.7109L85.7302 17.2689L96.5153 76.1973L23.0703 89.6393L12.2852 30.7109ZM82.9413 21.3074L16.3748 33.4905L25.7464 84.6955L92.3129 72.5124L82.9413 21.3074Z" fill="black"/>
<path d="M118.958 62.293C119.892 67.3964 116.51 72.293 111.407 73.227C106.303 74.1611 101.407 70.7795 100.473 65.6761C99.5388 60.5727 102.92 55.6761 108.024 54.742C113.127 53.808 118.024 57.1895 118.958 62.293ZM117.042 62.6172C116.301 58.572 112.423 55.8862 108.369 56.6281C104.315 57.37 101.638 61.2469 102.38 65.3006C103.122 69.3544 106.999 72.0317 111.052 71.2898C115.106 70.5479 117.783 66.671 117.042 62.6172Z" fill="black"/>
<path d="M109.625 12.8958L110.709 21.6145C109.447 22.9126 93.7956 25.9712 92.4477 25.3535L89.9961 16.4883L109.625 12.8958ZM108.23 14.9151L92.0153 17.8827L92.9525 23.0032L109.167 20.0356L108.23 14.9151Z" fill="black"/>
<path d="M98.3887 38.2392C99.7509 37.9899 100.653 36.6835 100.404 35.3214C100.154 33.9593 98.8481 33.0571 97.4859 33.3064C96.1238 33.5557 95.2216 34.8621 95.4709 36.2242C95.7202 37.5863 97.0266 38.4885 98.3887 38.2392Z" fill="black"/>
<path d="M109.482 36.2079C110.845 35.9586 111.747 34.6523 111.497 33.2901C111.248 31.928 109.942 31.0259 108.58 31.2752C107.218 31.5245 106.315 32.8308 106.565 34.1929C106.814 35.5551 108.12 36.4572 109.482 36.2079Z" fill="black"/>
<path d="M114.008 46.513C116.4 48.9328 110.713 52.3639 109.29 49.5549C107.511 46.0526 113.184 45.6758 114.008 46.513Z" fill="black"/>
<path d="M82.9415 21.3091L92.3131 72.5141L25.7466 84.6972L16.375 33.4922L82.9415 21.3091ZM73.9865 26.6437C72.5562 27.2141 71.1383 28.3821 71.3117 30.0526C74.5928 41.5708 74.5925 56.5561 78.1579 67.6519C79.8674 72.9926 87.6764 71.7575 87.5112 65.843C87.3308 59.508 83.0371 36.1445 81.0566 29.9978C79.9896 26.6739 77.3729 25.2918 73.9966 26.6506L73.9865 26.6437ZM22.5756 37.7817C22.086 49.1786 32.0574 48.3855 27.2741 37.6714L25.1651 36.461L22.5756 37.7817ZM24.4632 48.7699L30.1642 79.9196C30.4735 81.6094 35.5956 80.6808 35.2847 78.9825L29.818 49.1129C29.7758 48.8825 27.8164 47.5741 27.1987 47.5725L24.4632 48.7699Z" fill="#B3322F"/>
<path d="M117.043 62.6162C117.783 66.6614 115.107 70.5468 111.053 71.2887C107 72.0307 103.123 69.3533 102.381 65.2996C101.639 61.2459 104.316 57.369 108.37 56.627C112.424 55.8851 116.301 58.5625 117.043 62.6162ZM115.302 62.9348C114.738 59.854 111.78 57.8111 108.699 58.375C105.618 58.9388 103.575 61.897 104.139 64.9778C104.703 68.0587 107.661 70.1015 110.742 69.5377C113.823 68.9738 115.865 66.0157 115.302 62.9348Z" fill="white"/>
<path d="M108.231 14.9151L92.0156 17.8828L92.9528 23.0033L109.168 20.0356L108.231 14.9151Z" fill="#B3322F"/>
<path d="M73.9843 26.6399C77.3607 25.2811 79.9774 26.6632 81.0444 29.9871C83.0265 36.1423 87.3186 59.4972 87.499 65.8322C87.6727 71.7452 79.8552 72.9819 78.1457 67.6411C74.5888 56.5438 74.5891 41.5585 71.2995 30.0419C71.1346 28.3698 72.544 27.2034 73.9742 26.6329L73.9843 26.6399ZM78.0588 28.3726L72.9383 29.3098L80.0451 68.1402C80.3559 69.8385 85.4749 68.8928 85.1656 67.2031L78.0588 28.3726Z" fill="black"/>
<path d="M24.4632 48.768L27.1988 47.5705C27.8165 47.5721 29.7759 48.8805 29.818 49.1109L35.2848 78.9805C35.5956 80.6788 30.4736 81.6074 30.1643 79.9177L24.4632 48.768ZM28.1893 49.85L26.4825 50.1624L31.793 79.1786L33.4999 78.8662L28.1893 49.85Z" fill="black"/>
<path d="M22.5758 37.7794L25.1653 36.4587L27.2743 37.6691C32.0576 48.3832 22.0846 49.1677 22.5758 37.7794Z" fill="black"/>
<path d="M115.301 62.9329C115.865 66.0137 113.822 68.9719 110.742 69.5357C107.661 70.0996 104.703 68.0567 104.139 64.9759C103.575 61.895 105.618 58.9369 108.699 58.373C111.779 57.8092 114.738 59.852 115.301 62.9329ZM113.416 63.3308C113.049 61.3253 111.121 59.9936 109.115 60.3606C107.11 60.7277 105.778 62.6561 106.145 64.6616C106.512 66.6671 108.441 67.9988 110.446 67.6318C112.452 67.2647 113.783 65.3363 113.416 63.3308Z" fill="black"/>
<path d="M78.0619 28.3753L85.1687 67.2058C85.478 68.8956 80.359 69.8413 80.0482 68.143L72.9414 29.3125L78.0619 28.3753Z" fill="white"/>
<path d="M28.1912 49.8517L26.4844 50.1641L31.795 79.1802L33.5018 78.8678L28.1912 49.8517Z" fill="white"/>
<path d="M110.443 67.6331C112.451 67.2656 113.781 65.34 113.413 63.3321C113.046 61.3243 111.12 59.9945 109.112 60.362C107.104 60.7294 105.774 62.655 106.142 64.6629C106.509 66.6708 108.435 68.0006 110.443 67.6331Z" fill="#B3322F"/>
</svg>
