<svg width="119" height="136" viewBox="0 0 119 136" fill="none" xmlns="http://www.w3.org/2000/svg">
<path d="M20.2138 118.797L19.6436 122.229L8.50888 120.379L9.0477 116.977C5.60864 116.555 2.72363 114.598 2.49493 110.893L19.0574 9.08273C20.2204 4.46515 21.6681 1.78578 26.8329 2.03699C53.7567 3.34384 85.0627 14.1648 112.493 16.233C115.343 16.3371 116.551 18.543 117.836 20.7089L100.567 127.3C98.7769 130.503 95.6013 131.99 92.0962 130.748L91.526 134.18L80.3998 132.332L80.97 128.9L20.2124 118.806L20.2138 118.797ZM57.3852 11.519L24.0066 5.97366L21.305 22.235L53.3998 27.5671L54.8968 26.4966L57.3852 11.519ZM59.0969 11.8034L56.3953 28.0648L112.026 37.3071L114.728 21.0457L59.0969 11.8034ZM97.4519 125.033L111.529 40.3026L110.458 38.8055L21.0206 23.9467L6.37513 112.1C10.0641 113.188 13.977 114.146 17.7471 114.904C39.3324 119.282 69.9457 125.432 91.4197 127.144C93.6933 127.328 96.5062 127.655 97.4519 125.033Z" fill="black"/>
<path d="M97.4547 125.031C96.5176 127.655 93.6962 127.327 91.4225 127.143C69.9385 125.438 39.3338 119.289 17.75 114.903C13.9813 114.136 10.067 113.187 6.37797 112.099L21.0234 23.9453L110.461 38.8041L111.531 40.3011L97.4547 125.031ZM96.641 82.1269C100.034 61.706 86.2312 42.4038 65.8103 39.0111C45.3895 35.6185 26.0872 49.4209 22.6946 69.8418C19.3019 90.2626 33.1043 109.565 53.5252 112.958C73.946 116.35 93.2483 102.548 96.641 82.1269Z" fill="white"/>
<path d="M59.0977 11.8047L114.729 21.047L112.027 37.3083L56.3961 28.0661L59.0977 11.8047ZM74.3671 21.5884C74.879 18.5073 72.7965 15.5845 69.7068 15.0712C66.6172 14.5579 63.7029 16.6418 63.1896 19.7314C62.6763 22.8211 64.7602 25.7354 67.8498 26.2487C70.9395 26.762 73.8538 24.6781 74.3671 21.5884ZM91.9089 20.7649L85.9093 19.7682L85.3391 23.2002L91.3387 24.1969L91.9089 20.7649ZM84.3524 29.1927C92.3881 31.6974 93.453 25.1287 85.0648 24.9048L84.3524 29.1927ZM99.623 27.3234L94.4792 26.4689L94.2771 30.0148L98.902 31.6099L99.6144 27.322L99.623 27.3234ZM109.037 28.8875L103.894 28.0329L103.181 32.3208L108.325 33.1754L109.037 28.8875Z" fill="white"/>
<path d="M57.3864 11.518L54.8981 26.4956L53.401 27.5661L21.3062 22.234L24.0078 5.97266L57.3864 11.518ZM50.8266 13.9462L28.1463 10.1781C26.2055 11.0078 25.3248 15.1446 26.632 16.5403C28.9467 18.8597 48.6811 21.6722 49.5906 20.6448L50.8266 13.9462Z" fill="white"/>
<path d="M96.6398 82.1294C93.2472 102.55 73.9448 116.353 53.524 112.96C33.1031 109.567 19.3007 90.2651 22.6934 69.8443C26.086 49.4234 45.3883 35.621 65.8091 39.0137C86.23 42.4063 100.032 61.7086 96.6398 82.1294ZM92.8312 81.4439C95.8754 63.1199 83.4861 45.7938 65.1621 42.7495C46.8381 39.7052 29.512 52.0946 26.4677 70.4186C23.4234 88.7426 35.8128 106.069 54.1368 109.113C72.4607 112.157 89.7869 99.7679 92.8312 81.4439Z" fill="black"/>
<path d="M74.3701 21.5864C73.8583 24.6675 70.9425 26.76 67.8529 26.2467C64.7632 25.7334 62.6793 22.8191 63.1926 19.7294C63.7059 16.6397 66.6202 14.5558 69.7099 15.0691C72.7995 15.5824 74.8834 18.4967 74.3701 21.5864ZM71.5971 21.0202C71.8403 19.5566 70.8483 18.1693 69.3847 17.9262C67.9212 17.683 66.5339 18.6751 66.2908 20.1386C66.0476 21.6021 67.0396 22.9894 68.5032 23.2325C69.9667 23.4757 71.354 22.4837 71.5971 21.0202Z" fill="black"/>
<path d="M84.3514 29.1906L85.0638 24.9027C93.4521 25.1266 92.3872 31.6953 84.3514 29.1906Z" fill="black"/>
<path d="M109.03 28.8858L103.887 28.0312L103.174 32.3191L108.318 33.1737L109.03 28.8858Z" fill="black"/>
<path d="M99.6242 27.3233L98.9033 31.6098L94.2783 30.0147L94.479 26.4773L99.6242 27.3233Z" fill="black"/>
<path d="M91.9176 20.7663L85.918 19.7695L85.3478 23.2015L91.3474 24.1983L91.9176 20.7663Z" fill="black"/>
<path d="M50.8254 13.947L49.5894 20.6456C48.6813 21.6645 28.9369 18.8591 26.6308 16.5411C25.3236 15.1455 26.2043 11.0087 28.1451 10.179L50.8254 13.947ZM48.8293 15.3744L28.2886 11.9618L27.7199 15.3853L48.2605 18.7978L48.8293 15.3744Z" fill="black"/>
<path d="M92.8274 81.4414C89.7831 99.7654 72.457 112.155 54.133 109.111C35.809 106.066 23.4196 88.7401 26.4639 70.4161C29.5082 52.0921 46.8343 39.7028 65.1583 42.747C83.4823 45.7913 95.8717 63.1175 92.8274 81.4414ZM89.2242 80.8428C91.94 64.4959 80.8924 49.0461 64.5454 46.3303C48.1985 43.6144 32.7487 54.6621 30.0328 71.009C27.317 87.356 38.3647 102.806 54.7116 105.522C71.0586 108.237 86.5084 97.1898 89.2242 80.8428Z" fill="white"/>
<path d="M68.5021 23.2354C69.9674 23.4789 71.3526 22.4883 71.596 21.023C71.8395 19.5577 70.8489 18.1725 69.3836 17.9291C67.9183 17.6856 66.5331 18.6762 66.2897 20.1415C66.0462 21.6068 67.0368 22.992 68.5021 23.2354Z" fill="#B3322F"/>
<path d="M48.8297 15.3735L28.2891 11.9609L27.7203 15.3844L48.261 18.7969L48.8297 15.3735Z" fill="#B3322F"/>
<path d="M89.2276 80.8435C86.5118 97.1905 71.062 108.238 54.715 105.522C38.3681 102.807 27.3204 87.3567 30.0362 71.0097C32.752 54.6628 48.2018 43.6151 64.5488 46.331C80.8957 49.0468 91.9434 64.4966 89.2276 80.8435ZM85.5046 80.2778C87.8706 66.0362 78.2432 52.5725 64.0017 50.2065C49.7601 47.8405 36.2965 57.4679 33.9304 71.7095C31.5644 85.951 41.1918 99.4147 55.4333 101.781C69.6749 104.147 83.1386 94.5193 85.5046 80.2778Z" fill="black"/>
<path d="M85.5049 80.2773C83.1388 94.5188 69.6751 104.146 55.4336 101.78C41.1921 99.4142 31.5647 85.9505 33.9307 71.709C36.2967 57.4674 49.7604 47.84 64.0019 50.206C78.2435 52.5721 87.8709 66.0358 85.5049 80.2773ZM74.3351 60.3746C73.4707 60.1782 71.547 61.0107 71.0967 61.8682C69.6903 64.5104 72.5255 66.6613 73.769 68.8115C74.9225 70.8149 75.0391 75.777 79.6351 73.735C82.835 72.3141 77.1225 61.0136 74.3351 60.3746ZM80.6723 77.0734C74.4764 74.3995 75.3768 80.679 72.5992 85.0108C70.2833 88.6277 65.8888 91.3628 61.6558 91.8556C59.6919 92.0834 56.5877 91.0752 55.4512 91.6163C51.9005 93.2955 53.7241 97.4594 58.9302 97.6207C70.0342 97.9616 81.4798 88.5178 80.6709 77.082L80.6723 77.0734Z" fill="#B3322F"/>
<path d="M80.6733 77.0764C81.4808 88.5207 70.0352 97.9645 58.9326 97.6151C53.7351 97.4552 51.9029 93.2899 55.4536 91.6107C56.5887 91.0781 59.6943 92.0777 61.6582 91.8499C65.8912 91.3571 70.2857 88.622 72.6016 85.0051C75.3778 80.682 74.4788 74.3938 80.6747 77.0678L80.6733 77.0764ZM55.8718 94.8111C66.7361 97.8649 78.0368 89.558 78.8084 78.4024C76.2057 79.0869 76.6353 82.43 75.3471 84.6257C72.5069 89.4396 67.1459 93.175 61.5522 93.8112C59.3302 94.0577 55.6676 91.7518 55.8703 94.8197L55.8718 94.8111Z" fill="black"/>
<path d="M74.3352 60.3736C77.1212 61.0212 82.8251 72.3203 79.6352 73.734C75.0307 75.7746 74.9226 70.8139 73.7691 68.8106C72.5271 66.6518 69.699 64.5109 71.0969 61.8672C71.5471 61.0098 73.4722 60.1687 74.3352 60.3736Z" fill="black"/>
<path d="M55.8689 94.8076C55.6662 91.7397 59.3359 94.0555 61.5508 93.7991C67.1445 93.1629 72.5055 89.4275 75.3456 84.6137C76.6424 82.4193 76.2128 79.0762 78.8069 78.3903C78.0353 89.5459 66.7347 97.8529 55.8703 94.799L55.8689 94.8076Z" fill="white"/>
</svg>
