<svg width="27" height="27" viewBox="0 0 27 27" fill="none" xmlns="http://www.w3.org/2000/svg">
<path d="M25.9614 15.8824L21.6654 17.7684L14.568 13.511L21.6654 9.25368L25.9614 11.1397C26.0331 11.1728 26.1103 11.1838 26.182 11.1838C26.3915 11.1838 26.5956 11.0625 26.6893 10.8529C26.8107 10.5717 26.6838 10.2463 26.4081 10.125L22.829 8.55331L25.3217 7.05882C25.5809 6.90441 25.6691 6.5625 25.5092 6.30331C25.3493 6.04412 25.0129 5.95588 24.7537 6.11581L22.2114 7.64338L22.625 3.77206C22.6581 3.46875 22.4375 3.19853 22.1342 3.16544C21.8309 3.13235 21.5607 3.35294 21.5276 3.65625L21.0257 8.35478L14.0552 12.5404V4.2739L17.8713 1.56618C18.1195 1.38971 18.1802 1.04779 18.0037 0.799632C17.8272 0.551471 17.4853 0.490809 17.2371 0.667279L14.0607 2.92279V0.551471C14.0607 0.248162 13.8125 0 13.5092 0C13.2059 0 12.9577 0.248162 12.9577 0.551471V2.89522L9.77574 0.661765C9.52758 0.485294 9.18015 0.545956 9.0092 0.794118C8.83272 1.04228 8.89339 1.38971 9.14155 1.56066L12.9522 4.23529V12.5294L5.9375 8.31618L5.4853 3.64522C5.45773 3.34191 5.1875 3.12132 4.8842 3.1489C4.58089 3.17647 4.3603 3.44669 4.38787 3.75L4.76287 7.60478L2.25368 6.09926C1.99449 5.94485 1.65258 6.02757 1.49817 6.28676C1.34375 6.54596 1.42647 6.88787 1.68567 7.04228L4.16728 8.53125L0.599269 10.114C0.323534 10.2353 0.196695 10.5607 0.318019 10.8419C0.411769 11.046 0.610298 11.1728 0.819857 11.1728C0.897063 11.1728 0.968754 11.1562 1.04045 11.1232L5.31434 9.2261L12.4283 13.4945L5.31434 17.7629L1.04045 15.8658C0.759195 15.7445 0.433828 15.8658 0.312504 16.1471C0.191181 16.4228 0.312504 16.7537 0.593754 16.875L4.16177 18.4577L1.68015 19.9467C1.42096 20.1011 1.33272 20.443 1.49265 20.7022C1.59743 20.8732 1.77942 20.9724 1.96692 20.9724C2.06618 20.9724 2.15993 20.9449 2.24817 20.8952L4.75736 19.3897L4.38236 23.2445C4.35478 23.5478 4.57537 23.818 4.87868 23.8456C4.89523 23.8456 4.91728 23.8456 4.93383 23.8456C5.21508 23.8456 5.45221 23.6305 5.47978 23.3493L5.93199 18.6783L12.9467 14.4651V23.0018L9.15258 25.4228C8.89339 25.5882 8.8217 25.9301 8.98162 26.1838C9.0864 26.3493 9.26287 26.4375 9.44486 26.4375C9.54412 26.4375 9.6489 26.4099 9.74265 26.3493L12.9412 24.3088V26.4485C12.9412 26.7518 13.1893 27 13.4927 27C13.796 27 14.0441 26.7518 14.0441 26.4485V24.2868L17.2427 26.3493C17.4963 26.5147 17.8382 26.443 18.0037 26.1838C18.1691 25.9246 18.0974 25.5882 17.8382 25.4228L14.0496 22.9963V14.4816L21.0202 18.6673L21.5221 23.3658C21.5496 23.6471 21.7923 23.8566 22.068 23.8566C22.0901 23.8566 22.1066 23.8566 22.1287 23.8511C22.432 23.818 22.6526 23.5478 22.6195 23.2445L22.2059 19.3732L24.7482 20.9007C24.8364 20.9559 24.9357 20.9779 25.0294 20.9779C25.2169 20.9779 25.3989 20.8842 25.5037 20.7077C25.6581 20.4485 25.5754 20.1066 25.3162 19.9522L22.8235 18.4577L26.4026 16.886C26.6838 16.7647 26.8107 16.4393 26.6838 16.1581C26.5625 15.8879 26.2371 15.761 25.9614 15.8824Z" fill="black"/>
</svg>
