<svg width="47" height="43" viewBox="0 0 47 43" fill="none" xmlns="http://www.w3.org/2000/svg">
<path d="M31.6634 39.5891H15.7934C9.15344 39.5891 3.77344 34.2091 3.77344 27.5691V23.0391H43.6834V27.5691C43.6834 34.2091 38.3034 39.5891 31.6634 39.5891Z" fill="black"/>
<path d="M39.5638 5.24023H37.5938V27.0502H39.5638V5.24023Z" fill="black"/>
<path d="M37.6087 5.24023L30.2188 8.80023L36.0887 13.0602L38.9688 6.72023L37.6087 5.24023Z" fill="black"/>
<path d="M31.009 11.1199L23.7188 18.4102L24.4188 19.1102L31.7091 11.8199L31.009 11.1199Z" fill="black"/>
<path d="M32.5168 13.4187L25.2266 20.709L25.9266 21.409L33.2169 14.1187L32.5168 13.4187Z" fill="black"/>
<path d="M31.009 11.1199L23.7188 18.4102L24.4188 19.1102L31.7091 11.8199L31.009 11.1199Z" fill="black"/>
</svg>
