<svg width="39" height="36" viewBox="0 0 39 36" fill="none" xmlns="http://www.w3.org/2000/svg">
<path d="M36.2709 0.890625H3.17094C1.81094 0.890625 0.710938 1.99063 0.710938 3.35063V9.51062C0.710938 10.8706 1.81094 11.9706 3.17094 11.9706H4.73094C4.67094 11.7606 4.63094 11.5506 4.63094 11.3306V5.63062C4.63094 4.27062 5.73094 4.46062 7.09094 4.46062H32.3609C33.7209 4.46062 34.8209 4.27062 34.8209 5.63062V11.3306C34.8209 11.5506 34.7809 11.7706 34.7209 11.9706H36.2809C37.6409 11.9706 38.7409 10.8706 38.7409 9.51062V3.35063C38.7409 1.99063 37.6409 0.890625 36.2809 0.890625H36.2709Z" fill="black"/>
<path d="M35.0609 21.8594H4.38094C2.35405 21.8594 0.710938 23.5025 0.710938 25.5294V26.3094C0.710938 28.3363 2.35405 29.9794 4.38094 29.9794H35.0609C37.0878 29.9794 38.7309 28.3363 38.7309 26.3094V25.5294C38.7309 23.5025 37.0878 21.8594 35.0609 21.8594Z" fill="black"/>
<path d="M2.54094 23.9199H2.22094C1.38699 23.9199 0.710938 24.596 0.710938 25.4299V34.4199C0.710938 35.2539 1.38699 35.9299 2.22094 35.9299H2.54094C3.37489 35.9299 4.05094 35.2539 4.05094 34.4199V25.4299C4.05094 24.596 3.37489 23.9199 2.54094 23.9199Z" fill="black"/>
<path d="M37.2206 23.9199H36.9006C36.0667 23.9199 35.3906 24.596 35.3906 25.4299V34.4199C35.3906 35.2539 36.0667 35.9299 36.9006 35.9299H37.2206C38.0546 35.9299 38.7306 35.2539 38.7306 34.4199V25.4299C38.7306 24.596 38.0546 23.9199 37.2206 23.9199Z" fill="black"/>
<path d="M36.3109 14.2402H3.13094C1.79441 14.2402 0.710938 15.3237 0.710938 16.6602V17.1802C0.710938 18.5168 1.79441 19.6002 3.13094 19.6002H36.3109C37.6475 19.6002 38.7309 18.5168 38.7309 17.1802V16.6602C38.7309 15.3237 37.6475 14.2402 36.3109 14.2402Z" fill="black"/>
<path d="M15.4013 7.30078H8.54125C7.43116 7.30078 6.53125 8.20069 6.53125 9.31078V9.75078C6.53125 10.8609 7.43116 11.7608 8.54125 11.7608H15.4013C16.5113 11.7608 17.4112 10.8609 17.4112 9.75078V9.31078C17.4112 8.20069 16.5113 7.30078 15.4013 7.30078Z" fill="black"/>
<path d="M30.9091 7.30078H24.0491C22.939 7.30078 22.0391 8.20069 22.0391 9.31078V9.75078C22.0391 10.8609 22.939 11.7608 24.0491 11.7608H30.9091C32.0192 11.7608 32.9191 10.8609 32.9191 9.75078V9.31078C32.9191 8.20069 32.0192 7.30078 30.9091 7.30078Z" fill="black"/>
</svg>
