<svg width="18" height="29" viewBox="0 0 18 29" fill="none" xmlns="http://www.w3.org/2000/svg">
<g clip-path="url(#clip0_740_3862)">
<path d="M18 29H11.2718V22.813H6.64078V29H0L0.0506796 0.220843L0.263884 0H17.7361C17.7894 0.0481214 18 0.232873 18 0.256074V29ZM5.15534 3.65035H3.23301V5.62676H5.15534V3.65035ZM9.87379 3.65035H7.95146V5.62676H9.87379V3.65035ZM14.5922 3.65035H12.6699V5.62676H14.5922V3.65035ZM5.15534 9.66552H3.62621C3.54757 9.66552 3.28806 9.71106 3.23301 9.79442V11.6419H5.15534V9.66552ZM9.87379 9.66552H7.95146V11.6419H9.87379V9.66552ZM14.5922 9.66552H12.6699V11.6419H14.5922V9.66552ZM5.15534 15.7666H3.23301V17.6571H5.15534V15.7666ZM9.87379 15.7666H7.95146V17.6571H9.87379V15.7666ZM12.6699 15.7666V17.6571H14.5922V15.7666H12.6699Z" fill="white"/>
</g>
<defs>
<clipPath id="clip0_740_3862">
<rect width="18" height="29" fill="white"/>
</clipPath>
</defs>
</svg>
