<svg width="159" height="160" viewBox="0 0 159 160" fill="none" xmlns="http://www.w3.org/2000/svg">
<circle cx="79.1842" cy="80.1608" r="79.1842" fill="url(#paint0_linear_1098_2)"/>
<g clip-path="url(#clip0_1098_2)">
<path d="M52.9886 104.119C53.3528 102.087 54.4452 99.961 54.275 97.8449C54.0261 94.7195 50.9713 92.4952 50.6307 88.7958C49.5383 76.9227 63.4942 71.8897 73.4733 74.0728C89.9731 77.6847 91.8332 95.7905 75.0478 100.44C70.2142 101.779 66.3342 101.24 61.5162 100.53L52.9886 104.119Z" fill="white"/>
<path d="M105.64 100.255L92.3918 94.8643L85.2082 96.1387L87.4822 92.5191C89.4759 92.2204 92.1561 91.1237 94.121 91.6283C95.1008 91.878 100.768 95.441 101.187 95.1089C100.684 92.743 99.7825 89.7207 100.202 87.3213C100.506 85.5759 102.345 83.6657 103.23 82.0593C112.279 65.6706 90.1938 55.0924 76.3557 58.4803C69.0149 60.2772 60.4741 66.1546 59.5467 74.0786L55.2056 76.5706C54.6266 63.6317 68.0377 55.7566 79.8375 54.9508C93.2276 54.0369 110.448 61.8579 109.041 77.2117C108.517 82.9268 103.843 86.0419 103.55 91.1212C103.374 94.1255 104.414 97.5288 105.64 100.255Z" fill="white"/>
</g>
<defs>
<linearGradient id="paint0_linear_1098_2" x1="79.1842" y1="0.976562" x2="79.1842" y2="159.345" gradientUnits="userSpaceOnUse">
<stop stop-color="#B3322F"/>
<stop offset="1" stop-color="#4D1614"/>
</linearGradient>
<clipPath id="clip0_1098_2">
<rect width="58.5564" height="49.2406" fill="white" transform="translate(50.5703 54.8789)"/>
</clipPath>
</defs>
</svg>
