<svg width="44" height="37" viewBox="0 0 44 37" fill="none" xmlns="http://www.w3.org/2000/svg">
<g clip-path="url(#clip0_782_5117)">
<path d="M1.81714 37.0008C2.09077 35.4745 2.91167 33.8767 2.78372 32.2866C2.5967 29.9382 0.301322 28.2668 0.045405 25.487C-0.775498 16.5654 9.71119 12.7836 17.2096 14.424C29.6078 17.138 31.0055 30.7429 18.3927 34.2365C14.7606 35.2424 11.8451 34.8381 8.22491 34.3042L1.81714 37.0008Z" fill="#B3322F"/>
<path d="M41.3797 34.0963L31.4246 30.0455L26.0267 31.0031L27.7354 28.2833C29.2335 28.0589 31.2474 27.2348 32.7238 27.614C33.4601 27.8016 37.7181 30.4789 38.0331 30.2293C37.6552 28.4516 36.978 26.1805 37.2929 24.3776C37.5213 23.0661 38.9032 21.6307 39.5686 20.4237C46.3681 8.10902 29.7729 0.160412 19.3748 2.70613C13.8588 4.05637 7.4412 8.47269 6.74432 14.4269L3.48236 16.2994C3.0473 6.57694 13.1245 0.659497 21.9911 0.0540177C32.0525 -0.632708 44.9921 5.24412 43.935 16.7811C43.5412 21.0756 40.0293 23.4162 39.8088 27.2329C39.6769 29.4904 40.4584 32.0477 41.3797 34.0963Z" fill="#B3322F"/>
</g>
<defs>
<clipPath id="clip0_782_5117">
<rect width="44" height="37" fill="white"/>
</clipPath>
</defs>
</svg>
