<svg width="34" height="31" viewBox="0 0 34 31" fill="none" xmlns="http://www.w3.org/2000/svg">
<path d="M2.27344 6.50977H30.7578C31.7371 6.50984 32.5312 7.30385 32.5312 8.2832V14.1504C32.5312 15.1297 31.7371 15.9238 30.7578 15.9238H2.27344C1.29404 15.9238 0.5 15.1298 0.5 14.1504V8.2832C0.5 7.30381 1.29404 6.50977 2.27344 6.50977Z" fill="#050505" stroke="#FFF9F9"/>
<path d="M2.62402 18.5859H30.4072C31.5802 18.5859 32.5312 19.537 32.5312 20.71V27.9248C32.5312 29.0977 31.5802 30.0488 30.4072 30.0488H2.62402C1.45109 30.0488 0.5 29.0977 0.5 27.9248V20.71C0.5 19.537 1.45109 18.5859 2.62402 18.5859Z" fill="#050505" stroke="#FFF9F9"/>
<path d="M2.38086 0.5H30.6494C31.6883 0.5 32.5311 1.34206 32.5312 2.38086V2.49805C32.5312 3.53697 31.6883 4.37891 30.6494 4.37891H2.38086C1.34208 4.37873 0.500028 3.53686 0.5 2.49805V2.38086L0.509766 2.18848C0.606259 1.24016 1.40712 0.500163 2.38086 0.5Z" fill="#050505" stroke="#FFF9F9"/>
<path d="M16.928 16.5592C16.4967 14.0073 14.2862 12.0664 11.6085 12.0664C8.93083 12.0664 6.72037 14.0073 6.28906 16.5592H16.919H16.928Z" stroke="#FFF9F9" stroke-miterlimit="10"/>
<path d="M28.1389 16.5596C27.6897 13.8909 25.2995 11.932 22.5409 12.0758C19.971 12.2106 17.9133 14.1245 17.5 16.5596H28.1389Z" stroke="#FFF9F9" stroke-miterlimit="10"/>
<path d="M10.7812 20.1621V21.9053H23.397V20.1621" stroke="#FFF9F9" stroke-miterlimit="10"/>
<path d="M7.11621 2.1875C7.29641 2.18776 7.44238 2.33439 7.44238 2.51465C7.44213 2.69469 7.29625 2.84056 7.11621 2.84082C6.93595 2.84082 6.78932 2.69485 6.78906 2.51465C6.78906 2.33423 6.93579 2.1875 7.11621 2.1875Z" fill="#F6EEEE" stroke="#FFF9F9"/>
<path d="M25.8037 2.1875C25.9839 2.18776 26.1299 2.33439 26.1299 2.51465C26.1296 2.69469 25.9838 2.84056 25.8037 2.84082C25.6235 2.84082 25.4768 2.69485 25.4766 2.51465C25.4766 2.33423 25.6233 2.1875 25.8037 2.1875Z" fill="#F6EEEE" stroke="#FFF9F9"/>
</svg>
