<svg width="21" height="33" viewBox="0 0 21 33" fill="none" xmlns="http://www.w3.org/2000/svg">
<path d="M9.61435 32.1818V0.363634H11.6527V32.1818H9.61435ZM15.021 10.8661C14.9215 9.86352 14.4948 9.08463 13.7408 8.52947C12.9867 7.97431 11.9634 7.69673 10.6708 7.69673C9.7925 7.69673 9.0509 7.82102 8.44602 8.0696C7.84115 8.3099 7.37713 8.64548 7.05398 9.07635C6.73911 9.50722 6.58168 9.99609 6.58168 10.543C6.5651 10.9987 6.66039 11.3964 6.86754 11.7362C7.08298 12.0759 7.37713 12.37 7.75 12.6186C8.12287 12.8589 8.55374 13.0702 9.04261 13.2525C9.53149 13.4265 10.0535 13.5756 10.6087 13.6999L12.8956 14.2468C14.0059 14.4954 15.0251 14.8268 15.9531 15.2411C16.8812 15.6554 17.6849 16.165 18.3643 16.7699C19.0438 17.3748 19.57 18.0874 19.9428 18.9077C20.324 19.728 20.5187 20.6684 20.527 21.729C20.5187 23.2868 20.121 24.6374 19.3338 25.7809C18.5549 26.9161 17.428 27.7985 15.9531 28.4283C14.4865 29.0497 12.7174 29.3604 10.646 29.3604C8.59103 29.3604 6.80125 29.0456 5.27663 28.4158C3.7603 27.7861 2.5754 26.8539 1.72195 25.6193C0.876776 24.3764 0.433475 22.8394 0.392045 21.0082H5.59979C5.65779 21.8616 5.90223 22.5742 6.3331 23.146C6.77225 23.7094 7.35642 24.1361 8.08558 24.4261C8.82304 24.7079 9.65578 24.8487 10.5838 24.8487C11.4953 24.8487 12.2866 24.7161 12.9577 24.451C13.6372 24.1858 14.1634 23.8171 14.5362 23.3448C14.9091 22.8725 15.0955 22.3298 15.0955 21.7166C15.0955 21.1449 14.9257 20.6643 14.5859 20.2749C14.2545 19.8854 13.7656 19.554 13.1193 19.2805C12.4813 19.0071 11.6983 18.7585 10.7702 18.5348L7.99858 17.8388C5.85251 17.3168 4.15803 16.5006 2.91513 15.3903C1.67223 14.2799 1.05492 12.7843 1.06321 10.9034C1.05492 9.36221 1.46508 8.01574 2.29368 6.86399C3.13056 5.71224 4.27817 4.81321 5.73651 4.1669C7.19484 3.5206 8.85204 3.19744 10.7081 3.19744C12.5973 3.19744 14.2462 3.5206 15.6548 4.1669C17.0717 4.81321 18.1738 5.71224 18.9609 6.86399C19.7481 8.01574 20.1541 9.34979 20.179 10.8661H15.021Z" fill="white"/>
</svg>
