<svg width="37" height="33" viewBox="0 0 37 33" fill="none" xmlns="http://www.w3.org/2000/svg">
<path d="M30.6515 0.0371094H5.68263C2.5442 0.0371094 0 2.58131 0 5.71974V26.3672C0 29.5057 2.5442 32.0499 5.68263 32.0499H30.6515C33.7899 32.0499 36.3341 29.5057 36.3341 26.3672V5.71974C36.3341 2.58131 33.7899 0.0371094 30.6515 0.0371094Z" fill="black"/>
<path d="M14.3722 24.8164V10.271H19.8267C20.9441 10.271 21.8816 10.4793 22.6392 10.896C23.4015 11.3126 23.9768 11.8855 24.3651 12.6147C24.758 13.3391 24.9545 14.163 24.9545 15.0863C24.9545 16.0191 24.758 16.8477 24.3651 17.5721C23.9721 18.2965 23.392 18.8671 22.625 19.2837C21.858 19.6957 20.9134 19.9016 19.7912 19.9016H16.1761V17.7354H19.4361C20.0895 17.7354 20.6245 17.6218 21.0412 17.3945C21.4579 17.1673 21.7656 16.8548 21.9645 16.457C22.1681 16.0593 22.2699 15.6024 22.2699 15.0863C22.2699 14.5702 22.1681 14.1156 21.9645 13.7227C21.7656 13.3297 21.4555 13.0243 21.0341 12.8065C20.6174 12.5839 20.08 12.4727 19.4219 12.4727H17.0071V24.8164H14.3722Z" fill="white"/>
</svg>
