<svg width="57" height="51" viewBox="0 0 57 51" fill="none" xmlns="http://www.w3.org/2000/svg">
<path d="M52.396 4.65231C49.4112 1.66758 45.4598 0.0362519 41.2425 0.0362519C37.0252 0.0362519 33.0617 1.67967 30.077 4.6644L28.5181 6.22322L26.9351 4.64023C23.9504 1.6555 19.9748 0 15.7575 0C11.5523 0 7.58877 1.64341 4.61613 4.61606C1.6314 7.60079 -0.0120178 11.5643 6.61682e-05 15.7816C6.61682e-05 19.9989 1.65556 23.9503 4.64029 26.9351L27.3339 49.6287C27.6481 49.9429 28.071 50.112 28.4819 50.112C28.8927 50.112 29.3157 49.9549 29.6299 49.6408L52.3718 26.9834C55.3565 23.9987 56.9999 20.0351 56.9999 15.8179C57.012 11.6006 55.3807 7.63704 52.396 4.65231ZM50.0759 24.6754L28.4819 46.1848L6.93624 24.6391C4.56779 22.2707 3.26273 19.1289 3.26273 15.7816C3.26273 12.4344 4.55571 9.29254 6.92416 6.93617C9.28052 4.57981 12.4223 3.27474 15.7575 3.27474C19.1048 3.27474 22.2587 4.57981 24.6271 6.94826L27.3581 9.67922C27.9985 10.3197 29.0257 10.3197 29.6661 9.67922L32.3729 6.97242C34.7414 4.60398 37.8953 3.29891 41.2304 3.29891C44.5656 3.29891 47.7074 4.60398 50.0759 6.96034C52.4443 9.32879 53.7373 12.4706 53.7373 15.8179C53.7494 19.1651 52.4443 22.3069 50.0759 24.6754Z" fill="white"/>
</svg>
