<svg width="54" height="46" viewBox="0 0 54 46" fill="none" xmlns="http://www.w3.org/2000/svg">
<g clip-path="url(#clip0_740_3990)">
<path d="M50.0827 22.9416L26.9809 46L3.93021 22.9026C1.39646 20.3637 0 16.9954 0 13.407C0 9.81868 1.3835 6.45107 3.91725 3.92518C6.43805 1.39929 9.79961 0 13.3677 0C16.9359 0 20.3226 1.39929 22.8571 3.93817L25.7789 6.86582C26.4641 7.55248 27.5625 7.55248 28.2478 6.86582L31.1436 3.96413C33.6774 1.42526 37.0512 0.0259693 40.6193 0.0259693C44.1874 0.0259693 47.549 1.42526 50.0827 3.95115C52.6165 6.49003 54 9.8584 54 13.4467C54.013 17.0351 52.6165 20.4027 50.0827 22.9423V22.9416Z" fill="white"/>
</g>
<defs>
<clipPath id="clip0_740_3990">
<rect width="54" height="46" fill="white"/>
</clipPath>
</defs>
</svg>
