<svg width="30" height="30" viewBox="0 0 30 30" fill="none" xmlns="http://www.w3.org/2000/svg">
<path d="M14.9964 0C9.25602 0 4.58594 4.67077 4.58594 10.4113C4.58594 15.9371 14.0316 28.8473 14.4338 29.394L14.8091 29.9049C14.853 29.9649 14.9229 30 14.9964 30C15.0711 30 15.1406 29.9649 15.1849 29.9049L15.56 29.394C15.9625 28.8473 25.4079 15.9371 25.4079 10.4113C25.4079 4.67077 20.737 0 14.9964 0ZM14.9964 6.68201C17.0532 6.68201 18.7258 8.3546 18.7258 10.4113C18.7258 12.467 17.0532 14.1407 14.9964 14.1407C12.9408 14.1407 11.2671 12.467 11.2671 10.4113C11.2671 8.3546 12.9408 6.68201 14.9964 6.68201Z" fill="white"/>
</svg>
