<svg width="44" height="39" viewBox="0 0 44 39" fill="none" xmlns="http://www.w3.org/2000/svg">
<path d="M37.1184 0H6.88157C3.08098 0 0 3.08098 0 6.88157V31.8853C0 35.6859 3.08098 38.7669 6.88157 38.7669H37.1184C40.919 38.7669 44 35.6859 44 31.8853V6.88157C44 3.08098 40.919 0 37.1184 0Z" fill="black"/>
<path d="M17.0987 26.6309V12.0854H22.5533C23.6707 12.0854 24.6082 12.2937 25.3658 12.7104C26.1281 13.1271 26.7034 13.7 27.0916 14.4292C27.4846 15.1536 27.6811 15.9774 27.6811 16.9007C27.6811 17.8335 27.4846 18.6621 27.0916 19.3865C26.6986 20.111 26.1186 20.6815 25.3516 21.0982C24.5845 21.5101 23.6399 21.7161 22.5178 21.7161H18.9027V19.5499H22.1626C22.8161 19.5499 23.3511 19.4363 23.7678 19.209C24.1844 18.9817 24.4922 18.6692 24.6911 18.2715C24.8946 17.8738 24.9964 17.4168 24.9964 16.9007C24.9964 16.3846 24.8946 15.9301 24.6911 15.5371C24.4922 15.1441 24.1821 14.8387 23.7607 14.6209C23.344 14.3984 22.8066 14.2871 22.1484 14.2871H19.7337V26.6309H17.0987Z" fill="white"/>
</svg>
