<svg width="78" height="69" viewBox="0 0 78 69" fill="none" xmlns="http://www.w3.org/2000/svg">
<path d="M38.5273 1.91895C38.6733 1.49954 39.2389 1.47306 39.4375 1.83984L39.4727 1.91895L47.2188 24.1719C47.7084 25.5785 49.035 26.5214 50.5244 26.5215H75.2842C75.746 26.5215 75.9471 27.081 75.6348 27.3789L75.5654 27.4355L55.7764 40.8535C54.5463 41.6877 53.9862 43.1998 54.3506 44.6191L54.4355 44.9014L62.0488 66.7715C62.1972 67.1977 61.7562 67.5704 61.3721 67.3926L61.2959 67.3496L40.9639 53.5625C39.8521 52.8087 38.4152 52.7614 37.2627 53.4209L37.0361 53.5625L16.7041 67.3496C16.3305 67.603 15.8559 67.2725 15.9287 66.8555L15.9512 66.7715L23.5645 44.9014C24.0531 43.4976 23.5998 41.9503 22.46 41.0293L22.2236 40.8535L2.43457 27.4355C2.02681 27.159 2.22314 26.5215 2.71582 26.5215H27.4756C28.8718 26.5214 30.125 25.693 30.6797 24.4307L30.7812 24.1719L38.5273 1.91895Z" fill="#B3322F" stroke="#B3322F" stroke-width="3"/>
</svg>
