<svg width="44" height="41" viewBox="0 0 44 41" fill="none" xmlns="http://www.w3.org/2000/svg">
<g clip-path="url(#clip0_1150_14)">
<path d="M35.7337 9.92969H5.72375C3.0286 9.92969 0.84375 12.1145 0.84375 14.8097V33.2597C0.84375 35.9548 3.0286 38.1397 5.72375 38.1397H35.7337C38.4289 38.1397 40.6138 35.9548 40.6138 33.2597V14.8097C40.6138 12.1145 38.4289 9.92969 35.7337 9.92969Z" fill="black"/>
<path d="M37.9637 1.68945H3.49375C2.03019 1.68945 0.84375 2.8759 0.84375 4.33945V4.90945C0.84375 6.37301 2.03019 7.55945 3.49375 7.55945H37.9637C39.4273 7.55945 40.6138 6.37301 40.6138 4.90945V4.33945C40.6138 2.8759 39.4273 1.68945 37.9637 1.68945Z" fill="black"/>
<path d="M20.7206 33.6092C26.0115 33.6092 30.3006 29.3201 30.3006 24.0292C30.3006 18.7383 26.0115 14.4492 20.7206 14.4492C15.4297 14.4492 11.1406 18.7383 11.1406 24.0292C11.1406 29.3201 15.4297 33.6092 20.7206 33.6092Z" fill="white"/>
</g>
<defs>
<clipPath id="clip0_1150_14">
<rect width="44" height="41" fill="white"/>
</clipPath>
</defs>
</svg>
