<svg width="40" height="37" viewBox="0 0 40 37" fill="none" xmlns="http://www.w3.org/2000/svg">
<path d="M37.247 7.2793H2.75299C1.23256 7.2793 0 8.51185 0 10.0323V17.1378C0 18.6583 1.23256 19.8908 2.75299 19.8908H37.247C38.7674 19.8908 40 18.6583 40 17.1378V10.0323C40 8.51185 38.7674 7.2793 37.247 7.2793Z" fill="black"/>
<path d="M36.8226 21.9023H3.17737C1.42256 21.9023 0 23.3249 0 25.0797V33.8175C0 35.5723 1.42256 36.9948 3.17737 36.9948H36.8226C38.5774 36.9948 40 35.5723 40 33.8175V25.0797C40 23.3249 38.5774 21.9023 36.8226 21.9023Z" fill="black"/>
<path d="M37.1164 0H2.88357C1.29102 0 0 1.29102 0 2.88357V3.02503C0 4.61758 1.29102 5.9086 2.88357 5.9086H37.1164C38.709 5.9086 40 4.61758 40 3.02503V2.88357C40 1.29102 38.709 0 37.1164 0Z" fill="black"/>
<path d="M20.5008 20.054C19.9785 16.9637 17.3016 14.6133 14.059 14.6133C10.8163 14.6133 8.13949 16.9637 7.61719 20.054H20.4899H20.5008Z" stroke="white" stroke-miterlimit="10"/>
<path d="M34.0789 20.054C33.5348 16.8223 30.6404 14.4501 27.2998 14.6242C24.1877 14.7875 21.6959 17.1052 21.1953 20.054H34.0789Z" stroke="white" stroke-miterlimit="10"/>
<path d="M13.0547 24.418V26.529H28.3322V24.418" stroke="white" stroke-miterlimit="10"/>
<path d="M8.61828 4.0471C9.17116 4.0471 9.61937 3.5989 9.61937 3.04601C9.61937 2.49312 9.17116 2.04492 8.61828 2.04492C8.06539 2.04492 7.61719 2.49312 7.61719 3.04601C7.61719 3.5989 8.06539 4.0471 8.61828 4.0471Z" fill="white"/>
<path d="M31.2511 4.0471C31.804 4.0471 32.2522 3.5989 32.2522 3.04601C32.2522 2.49312 31.804 2.04492 31.2511 2.04492C30.6982 2.04492 30.25 2.49312 30.25 3.04601C30.25 3.5989 30.6982 4.0471 31.2511 4.0471Z" fill="white"/>
</svg>
