<svg width="33" height="31" viewBox="0 0 33 31" fill="none" xmlns="http://www.w3.org/2000/svg">
<path d="M28.9145 7.52214H4.09797C1.86924 7.52214 0.0625 9.32503 0.0625 11.549V26.7736C0.0625 28.9976 1.86924 30.8005 4.09797 30.8005H28.9145C31.1432 30.8005 32.95 28.9976 32.95 26.7736V11.549C32.95 9.32503 31.1432 7.52214 28.9145 7.52214Z" fill="black"/>
<path d="M30.7586 0.722656H2.25389C1.04362 0.722656 0.0625 1.70169 0.0625 2.90938V3.37973C0.0625 4.58743 1.04362 5.56646 2.25389 5.56646H30.7586C31.9688 5.56646 32.95 4.58743 32.95 3.37973V2.90938C32.95 1.70169 31.9688 0.722656 30.7586 0.722656Z" fill="black"/>
<path d="M16.5021 27.0624C20.8774 27.0624 24.4242 23.5231 24.4242 19.1572C24.4242 14.7912 20.8774 11.2519 16.5021 11.2519C12.1268 11.2519 8.58 14.7912 8.58 19.1572C8.58 23.5231 12.1268 27.0624 16.5021 27.0624Z" fill="white"/>
</svg>
