<svg width="46" height="46" viewBox="0 0 46 46" fill="none" xmlns="http://www.w3.org/2000/svg">
<path d="M43.778 27.0588L36.459 30.2721L24.367 23.0188L36.459 15.7655L43.778 18.9788C43.9001 19.0351 44.0317 19.0539 44.1538 19.0539C44.5108 19.0539 44.8585 18.8472 45.0182 18.4902C45.2249 18.011 45.0088 17.4567 44.539 17.25L38.4414 14.5723L42.6881 12.0261C43.1297 11.7631 43.28 11.1806 43.0076 10.739C42.7351 10.2974 42.162 10.1471 41.7204 10.4195L37.3891 13.0221L38.0938 6.42647C38.1501 5.90972 37.7743 5.44935 37.2576 5.39297C36.7408 5.3366 36.2804 5.71242 36.2241 6.22917L35.3691 14.2341L23.4933 21.3652V7.28145L29.9949 2.6683C30.4177 2.36765 30.521 1.78513 30.2204 1.36234C29.9197 0.939543 29.3372 0.836193 28.9144 1.13685L23.5027 4.97958V0.939543C23.5027 0.422794 23.0799 0 22.5631 0C22.0464 0 21.6236 0.422794 21.6236 0.939543V4.9326L16.2024 1.12745C15.7796 0.826797 15.1877 0.930147 14.8965 1.35294C14.5958 1.77574 14.6991 2.36765 15.1219 2.65891L21.6142 7.21569V21.3464L9.6632 14.1683L8.89278 6.21038C8.8458 5.69363 8.38542 5.31781 7.86868 5.36479C7.35193 5.41176 6.97611 5.87214 7.02309 6.38889L7.66198 12.9563L3.38706 10.3913C2.94547 10.1283 2.36296 10.2692 2.09988 10.7108C1.83681 11.1524 1.97774 11.7349 2.41933 11.998L6.64727 14.5347L0.56843 17.2312C0.0986592 17.4379 -0.117436 17.9922 0.0892638 18.4714C0.248986 18.819 0.587221 19.0351 0.944247 19.0351C1.07578 19.0351 1.19792 19.0069 1.32006 18.9506L8.60152 15.7185L20.7216 22.9906L8.60152 30.2627L1.32006 27.0306C0.840898 26.8239 0.286568 27.0306 0.0798684 27.5098C-0.126831 27.9796 0.0798685 28.5433 0.559035 28.75L6.63788 31.4465L2.40993 33.9833C1.96835 34.2463 1.81802 34.8288 2.09049 35.2704C2.269 35.5617 2.57905 35.7308 2.8985 35.7308C3.06761 35.7308 3.22734 35.6838 3.37766 35.5993L7.65258 33.0343L7.01369 39.6017C6.96671 40.1185 7.34253 40.5788 7.85928 40.6258C7.88747 40.6258 7.92505 40.6258 7.95323 40.6258C8.4324 40.6258 8.8364 40.2594 8.88338 39.7802L9.65381 31.8223L21.6048 24.6442V39.1883L15.1407 43.3129C14.6991 43.5948 14.577 44.1773 14.8495 44.6095C15.028 44.8913 15.3286 45.0417 15.6387 45.0417C15.8078 45.0417 15.9863 44.9947 16.146 44.8913L21.5954 41.415V45.0605C21.5954 45.5772 22.0182 46 22.5349 46C23.0517 46 23.4745 45.5772 23.4745 45.0605V41.3775L28.9238 44.8913C29.356 45.1732 29.9385 45.0511 30.2204 44.6095C30.5023 44.1679 30.3801 43.5948 29.9385 43.3129L23.4839 39.1789V24.6724L35.3597 31.8035L36.2147 39.8084C36.2617 40.2876 36.675 40.6446 37.1448 40.6446C37.1824 40.6446 37.2106 40.6446 37.2482 40.6352C37.7649 40.5788 38.1407 40.1185 38.0844 39.6017L37.3797 33.0061L41.711 35.6087C41.8613 35.7026 42.0304 35.7402 42.1902 35.7402C42.5096 35.7402 42.8197 35.5805 42.9982 35.2798C43.2612 34.8382 43.1203 34.2557 42.6787 33.9926L38.432 31.4465L44.5296 28.7688C45.0088 28.5621 45.2249 28.0078 45.0088 27.5286C44.8021 27.0682 44.2478 26.8521 43.778 27.0588Z" fill="white"/>
</svg>
