<svg width="51" height="51" viewBox="0 0 51 51" fill="none" xmlns="http://www.w3.org/2000/svg">
<g clip-path="url(#clip0_994_377)">
<path d="M18.4925 36.7293C18.0287 39.0094 17.7276 40.1118 15.9676 40.253C15.5339 40.2878 15.1807 40.6152 15.1131 41.0449C15.0453 41.4745 15.2809 41.8947 15.6828 42.0612C15.796 42.1079 18.4878 43.2078 21.6328 43.208C21.6333 43.208 21.6336 43.208 21.6339 43.208C23.8255 43.208 25.7055 42.6767 27.2215 41.6291C29.0181 40.3876 30.2567 38.4449 30.9152 35.8569L24.8631 29.7565C19.7485 30.5843 19.0239 34.1165 18.4925 36.7293Z" fill="white"/>
<path d="M50.6399 9.93766C50.4772 9.77354 50.1869 9.57788 49.7289 9.57788C49.1918 9.57788 47.7651 9.57788 39.1003 16.9511C35.0978 20.3569 30.4831 24.5702 26.8125 28.1556L32.5557 33.9444C36.3309 30.0204 40.7349 25.1021 44.2373 20.8809C46.449 18.2157 48.1497 16.0166 49.2921 14.3448C50.8053 12.1304 51.468 10.7722 50.6399 9.93766Z" fill="white"/>
<path d="M28.6498 43.6944C26.7063 45.0375 24.3461 45.7183 21.6337 45.7183C18.0637 45.7182 15.0565 44.5182 14.7228 44.3804C13.2439 43.7676 12.3852 42.2351 12.6344 40.6541C12.8783 39.1053 14.1191 37.9282 15.669 37.7599C15.8041 37.3565 15.9535 36.6217 16.0335 36.2288C16.3282 34.7806 16.7316 32.7968 17.9725 31.0312C19.3277 29.1033 21.3705 27.8672 24.0527 27.3493C25.5921 25.8215 27.3485 24.1417 29.1813 22.437C28.2548 22.236 27.4263 21.6325 26.982 20.7198C26.2171 19.1476 26.8842 17.2565 28.47 16.4999C30.0599 15.7414 31.9669 16.4038 32.7308 17.9784C32.8815 18.2887 32.9747 18.6112 33.0182 18.9349C34.5383 17.5734 36.0479 16.252 37.473 15.0393C37.4815 15.032 37.4895 15.0251 37.4981 15.0179C35.8963 11.9526 33.5992 9.23679 30.8004 7.15735C26.7814 4.17131 21.9959 2.59208 16.9615 2.59082C16.9599 2.59082 16.9588 2.59082 16.9575 2.59082C13.5599 2.59082 9.42992 3.77795 6.17871 5.68951C2.19367 8.0324 -0.000784309 11.1658 2.10276e-07 14.5121C0.00125544 18.552 2.27981 20.2419 4.11072 21.5996C5.60366 22.7068 6.78279 23.5813 6.78342 25.4977C6.78389 27.4139 5.60539 28.2876 4.11323 29.3938C2.28295 30.7507 0.00486423 32.4396 0.00611946 36.48C0.00706088 39.8258 2.20293 42.96 6.18907 45.3049C9.44263 47.2188 13.5748 48.4084 16.9731 48.4094C16.9754 48.4094 16.9775 48.4094 16.9797 48.4094C23.1468 48.4094 28.9442 46.029 33.3046 41.7065C36.574 38.4656 38.7422 34.4236 39.6235 30.0262C37.4344 32.4537 35.2307 34.8107 33.259 36.8236C32.4228 39.8481 30.8744 42.1572 28.6498 43.6944ZM17.4248 12.0978C17.8167 10.3921 19.5273 9.32733 21.246 9.71802C22.9624 10.1068 24.0378 11.802 23.6487 13.5054C23.2566 15.2068 21.5451 16.2717 19.8262 15.8831C18.1084 15.4965 17.0325 13.7992 17.4248 12.0978ZM7.06914 17.9109C5.97003 16.5433 6.19597 14.553 7.57375 13.4644C8.95136 12.3779 10.9583 12.6007 12.0595 13.9657C13.1562 15.3313 12.9295 17.3216 11.5528 18.4124C10.1782 19.5013 8.1681 19.2761 7.06914 17.9109ZM8.74676 38.7816C7.3682 37.6921 7.14148 35.7018 8.24059 34.3347C9.33891 32.9702 11.3467 32.7465 12.7251 33.8357C14.1024 34.9251 14.3292 36.9156 13.2311 38.2803C12.1329 39.6474 10.125 39.871 8.74676 38.7816Z" fill="white"/>
</g>
<defs>
<clipPath id="clip0_994_377">
<rect width="51" height="51" fill="white"/>
</clipPath>
</defs>
</svg>
