<svg width="55" height="57" viewBox="0 0 55 57" fill="none" xmlns="http://www.w3.org/2000/svg">
<path d="M51.5469 31.1719H49.7656H14.15C14.1482 31.1719 14.1464 31.1719 14.1446 31.1719H5.23438H3.45312C1.97981 31.1719 0.78125 32.3705 0.78125 33.8438C0.78125 34.3356 1.18003 34.7344 1.67188 34.7344C2.16372 34.7344 2.5625 34.3356 2.5625 33.8438C2.5625 33.3527 2.96206 32.9531 3.45312 32.9531H4.18299L2.11529 45.3599C1.80246 47.2373 2.1694 49.1701 3.14864 50.802L4.34375 52.7936V55.998C4.34375 56.5506 4.79329 57 5.3457 57H49.6543C50.2067 57 50.6562 56.5506 50.6562 55.998V52.7936L51.8514 50.802C52.8306 49.1701 53.1975 47.2373 52.8847 45.3599L50.817 32.9531H51.5469C52.0379 32.9531 52.4375 33.3527 52.4375 33.8438C52.4375 34.3356 52.8363 34.7344 53.3281 34.7344C53.82 34.7344 54.2188 34.3356 54.2188 33.8438C54.2188 32.3705 53.0202 31.1719 51.5469 31.1719ZM45.8708 49.8856L44.8083 51.6562H42.1749L42.8042 50.0832C43.2923 48.8628 43.4737 47.5272 43.3285 46.2208L41.8544 32.9531H44.558L46.6746 45.6528C46.9179 47.1129 46.6324 48.6162 45.8708 49.8856ZM37.5867 51.6562L38.1806 49.5755C38.4442 48.6524 38.5394 47.699 38.4635 46.7416L37.3702 32.9531H40.0622L41.5582 46.4175C41.6711 47.4336 41.5301 48.4724 41.1503 49.4214L40.2564 51.6562H37.5867ZM32.8953 51.6562L33.0785 48.3997C33.0892 48.2092 33.0931 48.0157 33.0901 47.8243L32.8578 32.9531H35.5834L36.6878 46.8824C36.7468 47.6269 36.6729 48.3685 36.4678 49.0865L35.7343 51.6562H32.8953ZM28.3906 51.6562V32.9531H31.0763L31.3091 47.8522C31.3114 48.001 31.3084 48.1516 31.3001 48.2998L31.1113 51.6562H28.3906ZM23.8835 51.6562L23.6751 48.3226C23.6649 48.1574 23.6611 47.9902 23.664 47.8253L23.9222 32.9531H26.6094V51.6562H23.8835ZM10.1917 51.6562L9.12919 49.8856C8.36759 48.6163 8.08215 47.1131 8.3254 45.6528L10.442 32.9531H13.1456L11.6714 46.2208C11.5262 47.5272 11.7075 48.8628 12.1957 50.0832L12.8249 51.6562H10.1917ZM14.7436 51.6562L13.8496 49.4216C13.4699 48.4725 13.3288 47.4337 13.4417 46.4176L14.9378 32.9531H17.6292L16.5288 46.7322C16.4519 47.6961 16.5483 48.656 16.8155 49.5852L17.411 51.6562H14.7436ZM19.2644 51.6562L18.5274 49.0929C18.3195 48.3703 18.2445 47.6237 18.3044 46.8739L19.4161 32.9531H22.1407L21.8831 47.7944C21.8793 48.0061 21.8842 48.2212 21.8974 48.4336L22.0989 51.6562H19.2644ZM3.87228 45.6528L5.98885 32.9531H8.63623L6.56842 45.3599C6.25559 47.2373 6.62253 49.1701 7.60177 50.802L8.11432 51.6562H5.73858L4.67606 49.8856C3.91447 48.6162 3.62902 47.1129 3.87228 45.6528ZM48.875 55.2188H6.125V53.4375H9.68661C9.68717 53.4375 9.68772 53.4376 9.68828 53.4376C9.68884 53.4376 9.68939 53.4375 9.68995 53.4375H14.138C14.139 53.4375 14.1398 53.4377 14.1408 53.4377C14.1424 53.4377 14.144 53.4375 14.1455 53.4375H18.5906C18.5915 53.4375 18.5924 53.4377 18.5933 53.4377C18.5943 53.4377 18.5954 53.4375 18.5964 53.4375H36.4036C36.4046 53.4375 36.4057 53.4377 36.4067 53.4377C36.4076 53.4377 36.4085 53.4375 36.4094 53.4375H40.8545C40.856 53.4375 40.8576 53.4377 40.8591 53.4377C40.8602 53.4377 40.861 53.4375 40.862 53.4375H45.3101C45.3106 53.4375 45.3112 53.4376 45.3117 53.4376C45.3123 53.4376 45.3128 53.4375 45.3134 53.4375H48.875V55.2188ZM50.3239 49.8856L49.2614 51.6562H46.8857L47.3982 50.802C48.3775 49.1701 48.7444 47.2373 48.4316 45.3599L46.3639 32.9531H49.0112L51.1277 45.6528C51.371 47.1129 51.0855 48.6162 50.3239 49.8856Z" fill="white"/>
<path d="M10.5781 29.3906C11.07 29.3906 11.4688 28.9918 11.4688 28.5V1.78125H43.5312V28.5C43.5312 28.9918 43.93 29.3906 44.4219 29.3906C44.9137 29.3906 45.3125 28.9918 45.3125 28.5V1.78125C45.3125 0.799113 44.5134 0 43.5312 0H11.4688C10.4866 0 9.6875 0.799113 9.6875 1.78125V28.5C9.6875 28.9918 10.0863 29.3906 10.5781 29.3906Z" fill="white"/>
<path d="M40.8594 29.3906C41.3512 29.3906 41.75 28.9918 41.75 28.5V4.45312C41.75 3.96128 41.3512 3.5625 40.8594 3.5625H14.1406C13.6488 3.5625 13.25 3.96128 13.25 4.45312V28.5C13.25 28.9918 13.6488 29.3906 14.1406 29.3906C14.6325 29.3906 15.0312 28.9918 15.0312 28.5V15.1406H23.9374C24.4292 15.1406 24.828 14.7418 24.828 14.25C24.828 13.7582 24.4292 13.3594 23.9374 13.3594H15.0312V5.34375H26.6094V28.5C26.6094 28.9918 27.0082 29.3906 27.5 29.3906C27.9918 29.3906 28.3906 28.9918 28.3906 28.5V15.1406H39.9688V28.5C39.9688 28.9918 40.3675 29.3906 40.8594 29.3906ZM28.3906 13.3594V5.34375H39.9688V13.3594H28.3906Z" fill="white"/>
</svg>
