<svg width="80" height="80" viewBox="0 0 80 80" fill="none" xmlns="http://www.w3.org/2000/svg">
<path d="M65.3061 33.9169C64.8101 33.9169 64.3198 33.9434 63.8365 33.9909L60.0023 18.0228C59.815 17.2434 59.1166 16.6942 58.3153 16.6942H52.3478C51.3904 16.6942 50.6134 17.4712 50.6134 18.4286C50.6134 19.386 51.3904 20.163 52.3478 20.163H56.9486L58.2459 25.5674H32.3813L31.0736 20.8637H35.8906C36.848 20.8637 37.625 20.0867 37.625 19.1293C37.625 18.1719 36.848 17.3949 35.8906 17.3949H28.7911C28.2488 17.3949 27.7389 17.6481 27.4105 18.0806C27.0833 18.5119 26.9758 19.0715 27.1203 19.5941L29.2132 27.1238L22.1981 36.0028C19.9977 34.6881 17.4365 33.918 14.6939 33.918C6.59074 33.9169 0 40.5099 0 48.6119C0 56.7139 6.59074 63.3046 14.6927 63.3046C22.3148 63.3046 28.598 57.4689 29.3149 50.0318H36.8977H36.9012C37.0538 50.0318 37.2088 50.0121 37.3625 49.9693C37.4053 49.9578 37.4435 49.937 37.484 49.9219C37.514 49.9115 37.5418 49.9 37.5718 49.8884C37.7499 49.8133 37.9095 49.7127 38.0471 49.5901C38.0563 49.582 38.069 49.5785 38.0783 49.5704L59.2854 29.8977L60.4533 34.7609C54.7332 36.7728 50.6146 42.2142 50.6146 48.613C50.6146 56.715 57.2053 63.3058 65.3073 63.3058C73.4093 63.3058 80 56.715 80 48.613C80 40.5111 73.4081 33.9169 65.3061 33.9169ZM30.3636 31.2621L34.6164 46.5618H29.227C28.7645 43.2722 27.2209 40.3284 24.9511 38.1106L30.3636 31.2621ZM22.7855 40.8522C24.2701 42.4004 25.3154 44.3684 25.7224 46.5618H18.2748L22.7855 40.8522ZM14.6927 59.8358C8.50321 59.8358 3.46881 54.8002 3.46881 48.6119C3.46881 42.4235 8.50321 37.3868 14.6927 37.3868C16.6248 37.3868 18.4437 37.8782 20.0335 38.7408L13.3318 47.222C12.9202 47.7435 12.8415 48.4546 13.1318 49.0536C13.4208 49.6514 14.0267 50.0318 14.6927 50.0318H25.8183C25.1165 55.5507 20.4001 59.8358 14.6927 59.8358ZM37.8066 45.0876L33.3457 29.0374H55.1101L37.8066 45.0876ZM65.3061 59.8358C59.1166 59.8358 54.0822 54.8014 54.0822 48.6119C54.0822 43.8481 57.07 39.778 61.2661 38.1511L63.6191 47.9528C63.8111 48.7483 64.521 49.2814 65.305 49.2814C65.4379 49.2814 65.5744 49.2652 65.712 49.234C66.6428 49.0108 67.2174 48.0731 66.9931 47.1411L64.6586 37.4192C64.8737 37.4065 65.0876 37.3868 65.3061 37.3868C71.4956 37.3868 76.53 42.4224 76.53 48.6119C76.53 54.8014 71.4956 59.8358 65.3061 59.8358Z" fill="white"/>
</svg>
