<svg width="46" height="43" viewBox="0 0 46 43" fill="none" xmlns="http://www.w3.org/2000/svg">
<path d="M42.8341 8.37134H3.16594C1.41744 8.37134 0 9.78878 0 11.5373V19.7087C0 21.4572 1.41744 22.8746 3.16594 22.8746H42.8341C44.5826 22.8746 46 21.4572 46 19.7087V11.5373C46 9.78878 44.5826 8.37134 42.8341 8.37134Z" fill="white"/>
<path d="M42.346 25.1877H3.65397C1.63594 25.1877 0 26.8237 0 28.8417V38.8901C0 40.9082 1.63594 42.5441 3.65397 42.5441H42.346C44.3641 42.5441 46 40.9082 46 38.8901V28.8417C46 26.8237 44.3641 25.1877 42.346 25.1877Z" fill="white"/>
<path d="M42.6839 0H3.3161C1.48467 0 0 1.48467 0 3.3161V3.47878C0 5.31022 1.48467 6.79489 3.3161 6.79489H42.6839C44.5153 6.79489 46 5.31022 46 3.47878V3.3161C46 1.48467 44.5153 0 42.6839 0Z" fill="white"/>
<path d="M23.5739 23.0622C22.9733 19.5084 19.8949 16.8054 16.1659 16.8054C12.4368 16.8054 9.35847 19.5084 8.75781 23.0622H23.5614H23.5739Z" stroke="#D9D9D9" stroke-miterlimit="10"/>
<path d="M39.1833 23.0621C38.5576 19.3456 35.229 16.6176 31.3873 16.8178C27.8084 17.0055 24.9428 19.6709 24.3672 23.0621H39.1833Z" stroke="#D9D9D9" stroke-miterlimit="10"/>
<path d="M15.0156 28.0806V30.5082H32.5847V28.0806" stroke="#D9D9D9" stroke-miterlimit="10"/>
<path d="M9.90918 2.85205C10.2688 2.85211 10.5605 3.14378 10.5605 3.50342C10.5605 3.863 10.2688 4.15472 9.90918 4.15479C9.54954 4.15479 9.25787 3.86304 9.25781 3.50342C9.25781 3.14374 9.5495 2.85205 9.90918 2.85205Z" fill="black" stroke="#D9D9D9"/>
<path d="M35.9326 2.85205C36.2922 2.85211 36.584 3.14378 36.584 3.50342C36.5839 3.863 36.2922 4.15472 35.9326 4.15479C35.573 4.15479 35.2813 3.86304 35.2812 3.50342C35.2812 3.14374 35.5729 2.85205 35.9326 2.85205Z" fill="black" stroke="#D9D9D9"/>
</svg>
