<svg width="66" height="31" viewBox="0 0 66 31" fill="none" xmlns="http://www.w3.org/2000/svg">
<path d="M21.3636 15.5H44.6364M19.6182 1H11.4727C10.5087 1 9.72727 1.77903 9.72727 2.74V28.26C9.72727 29.2211 10.5087 30 11.4727 30H19.6182C20.5822 30 21.3636 29.2211 21.3636 28.26V2.74C21.3636 1.77903 20.5822 1 19.6182 1ZM54.5273 1H46.3818C45.4177 1 44.6364 1.77903 44.6364 2.74V28.26C44.6364 29.2211 45.4177 30 46.3818 30H54.5273C55.4913 30 56.2727 29.2211 56.2727 28.26V2.74C56.2727 1.77903 55.4913 1 54.5273 1ZM1 22.46V8.54C1 7.57903 1.78147 6.8 2.74545 6.8H7.98182C8.9458 6.8 9.72727 7.57903 9.72727 8.54V22.46C9.72727 23.4211 8.9458 24.2 7.98182 24.2H2.74545C1.78147 24.2 1 23.4211 1 22.46ZM65 22.46V8.54C65 7.57903 64.2186 6.8 63.2545 6.8H58.0182C57.0541 6.8 56.2727 7.57903 56.2727 8.54V22.46C56.2727 23.4211 57.0541 24.2 58.0182 24.2H63.2545C64.2186 24.2 65 23.4211 65 22.46Z" stroke="white" stroke-width="2" stroke-linecap="round" stroke-linejoin="round"/>
</svg>
