<svg width="36" height="50" viewBox="0 0 36 50" fill="none" xmlns="http://www.w3.org/2000/svg">
<path d="M18 13.625C17.0358 13.625 16.0933 13.9109 15.2916 14.4466C14.4899 14.9823 13.8651 15.7436 13.4961 16.6344C13.1271 17.5252 13.0306 18.5054 13.2187 19.4511C13.4068 20.3967 13.8711 21.2654 14.5529 21.9471C15.2346 22.6289 16.1033 23.0932 17.0489 23.2813C17.9946 23.4694 18.9748 23.3729 19.8656 23.0039C20.7564 22.6349 21.5177 22.0101 22.0534 21.2084C22.5891 20.4067 22.875 19.4642 22.875 18.5C22.875 17.2071 22.3614 15.9671 21.4471 15.0529C20.5329 14.1386 19.2929 13.625 18 13.625Z" fill="white"/>
<path d="M31 0.625C30.0358 0.625 29.0933 0.910914 28.2916 1.44659C27.4899 1.98226 26.8651 2.74363 26.4961 3.63442C26.1271 4.52521 26.0306 5.50541 26.2187 6.45107C26.4068 7.39672 26.8711 8.26537 27.5529 8.94715C28.2346 9.62893 29.1033 10.0932 30.0489 10.2813C30.9946 10.4694 31.9748 10.3729 32.8656 10.0039C33.7564 9.63494 34.5177 9.0101 35.0534 8.20841C35.5891 7.40672 35.875 6.46418 35.875 5.5C35.875 4.20707 35.3614 2.96709 34.4471 2.05285C33.5329 1.13861 32.2929 0.625 31 0.625Z" fill="white"/>
<path d="M18 39.625C17.0358 39.625 16.0933 39.9109 15.2916 40.4466C14.4899 40.9823 13.8651 41.7436 13.4961 42.6344C13.1271 43.5252 13.0306 44.5054 13.2187 45.4511C13.4068 46.3967 13.8711 47.2654 14.5529 47.9471C15.2346 48.6289 16.1033 49.0932 17.0489 49.2813C17.9946 49.4694 18.9748 49.3729 19.8656 49.0039C20.7564 48.6349 21.5177 48.0101 22.0534 47.2084C22.5891 46.4067 22.875 45.4642 22.875 44.5C22.875 43.2071 22.3614 41.9671 21.4471 41.0529C20.5329 40.1386 19.2929 39.625 18 39.625Z" fill="white"/>
<path d="M18 26.625C17.0358 26.625 16.0933 26.9109 15.2916 27.4466C14.4899 27.9823 13.8651 28.7436 13.4961 29.6344C13.1271 30.5252 13.0306 31.5054 13.2187 32.4511C13.4068 33.3967 13.8711 34.2654 14.5529 34.9471C15.2346 35.6289 16.1033 36.0932 17.0489 36.2813C17.9946 36.4694 18.9748 36.3729 19.8656 36.0039C20.7564 35.6349 21.5177 35.0101 22.0534 34.2084C22.5891 33.4067 22.875 32.4642 22.875 31.5C22.875 30.2071 22.3614 28.9671 21.4471 28.0529C20.5329 27.1386 19.2929 26.625 18 26.625Z" fill="white"/>
<path d="M18 0.625C17.0358 0.625 16.0933 0.910914 15.2916 1.44659C14.4899 1.98226 13.8651 2.74363 13.4961 3.63442C13.1271 4.52521 13.0306 5.50541 13.2187 6.45107C13.4068 7.39672 13.8711 8.26537 14.5529 8.94715C15.2346 9.62893 16.1033 10.0932 17.0489 10.2813C17.9946 10.4694 18.9748 10.3729 19.8656 10.0039C20.7564 9.63494 21.5177 9.0101 22.0534 8.20841C22.5891 7.40672 22.875 6.46418 22.875 5.5C22.875 4.20707 22.3614 2.96709 21.4471 2.05285C20.5329 1.13861 19.2929 0.625 18 0.625Z" fill="white"/>
<path d="M31 26.625C30.0358 26.625 29.0933 26.9109 28.2916 27.4466C27.4899 27.9823 26.8651 28.7436 26.4961 29.6344C26.1271 30.5252 26.0306 31.5054 26.2187 32.4511C26.4068 33.3967 26.8711 34.2654 27.5529 34.9471C28.2346 35.6289 29.1033 36.0932 30.0489 36.2813C30.9946 36.4694 31.9748 36.3729 32.8656 36.0039C33.7564 35.6349 34.5177 35.0101 35.0534 34.2084C35.5891 33.4067 35.875 32.4642 35.875 31.5C35.875 30.2071 35.3614 28.9671 34.4471 28.0529C33.5329 27.1386 32.2929 26.625 31 26.625Z" fill="white"/>
<path d="M31 13.625C30.0358 13.625 29.0933 13.9109 28.2916 14.4466C27.4899 14.9823 26.8651 15.7436 26.4961 16.6344C26.1271 17.5252 26.0306 18.5054 26.2187 19.4511C26.4068 20.3967 26.8711 21.2654 27.5529 21.9471C28.2346 22.6289 29.1033 23.0932 30.0489 23.2813C30.9946 23.4694 31.9748 23.3729 32.8656 23.0039C33.7564 22.6349 34.5177 22.0101 35.0534 21.2084C35.5891 20.4067 35.875 19.4642 35.875 18.5C35.875 17.2071 35.3614 15.9671 34.4471 15.0529C33.5329 14.1386 32.2929 13.625 31 13.625Z" fill="white"/>
<path d="M5 26.625C4.03582 26.625 3.09329 26.9109 2.2916 27.4466C1.48991 27.9823 0.865067 28.7436 0.49609 29.6344C0.127112 30.5252 0.030571 31.5054 0.218674 32.4511C0.406777 33.3967 0.871076 34.2654 1.55286 34.9471C2.23464 35.6289 3.10328 36.0932 4.04894 36.2813C4.9946 36.4694 5.97479 36.3729 6.86558 36.0039C7.75637 35.6349 8.51775 35.0101 9.05342 34.2084C9.58909 33.4067 9.875 32.4642 9.875 31.5C9.875 30.2071 9.36139 28.9671 8.44715 28.0529C7.53291 27.1386 6.29293 26.625 5 26.625Z" fill="white"/>
<path d="M5 13.625C4.03582 13.625 3.09329 13.9109 2.2916 14.4466C1.48991 14.9823 0.865067 15.7436 0.49609 16.6344C0.127112 17.5252 0.030571 18.5054 0.218674 19.4511C0.406777 20.3967 0.871076 21.2654 1.55286 21.9471C2.23464 22.6289 3.10328 23.0932 4.04894 23.2813C4.9946 23.4694 5.97479 23.3729 6.86558 23.0039C7.75637 22.6349 8.51775 22.0101 9.05342 21.2084C9.58909 20.4067 9.875 19.4642 9.875 18.5C9.875 17.2071 9.36139 15.9671 8.44715 15.0529C7.53291 14.1386 6.29293 13.625 5 13.625Z" fill="white"/>
<path d="M5 0.625C4.03582 0.625 3.09329 0.910914 2.2916 1.44659C1.48991 1.98226 0.865067 2.74363 0.49609 3.63442C0.127112 4.52521 0.030571 5.50541 0.218674 6.45107C0.406777 7.39672 0.871076 8.26537 1.55286 8.94715C2.23464 9.62893 3.10328 10.0932 4.04894 10.2813C4.9946 10.4694 5.97479 10.3729 6.86558 10.0039C7.75637 9.63494 8.51775 9.0101 9.05342 8.20841C9.58909 7.40672 9.875 6.46418 9.875 5.5C9.875 4.20707 9.36139 2.96709 8.44715 2.05285C7.53291 1.13861 6.29293 0.625 5 0.625Z" fill="white"/>
</svg>
