<svg width="64" height="64" viewBox="0 0 64 64" fill="none" xmlns="http://www.w3.org/2000/svg">
<path d="M59.6458 10.5054H4.35421C1.95331 10.5054 0 12.4587 0 14.8596V45.8229C0 47.8666 1.4156 49.5849 3.31749 50.0514V51.352C3.31749 52.5335 4.2786 53.4946 5.46004 53.4946H7.67171C8.85315 53.4946 9.81425 52.5335 9.81425 51.352V50.1771H54.1857V51.352C54.1857 52.5335 55.1469 53.4946 56.3283 53.4946H58.54C59.7214 53.4946 60.6825 52.5335 60.6825 51.352V50.0514C62.5844 49.585 64 47.8666 64 45.8229V14.8596C64 12.4587 62.0467 10.5054 59.6458 10.5054ZM7.74082 51.352C7.74082 51.39 7.70986 51.4211 7.67171 51.4211H5.46004C5.42189 51.4211 5.39093 51.39 5.39093 51.352V50.1771H7.74082V51.352ZM4.35421 48.1036C3.0966 48.1036 2.07343 47.0806 2.07343 45.8229V14.8596C2.07343 13.6018 3.0966 12.5788 4.35421 12.5788H48.6566V48.0345C48.6566 48.0579 48.6585 48.0807 48.66 48.1036H4.35421ZM58.6091 51.352C58.6091 51.39 58.5781 51.4211 58.54 51.4211H56.3283C56.2901 51.4211 56.2592 51.39 56.2592 51.352V50.1771H58.6091V51.352ZM61.9266 45.8229C61.9266 47.0806 60.9034 48.1036 59.6458 48.1036H50.7266C50.7281 48.0807 50.73 48.0579 50.73 48.0345V12.5788H59.6458C60.9034 12.5788 61.9266 13.6018 61.9266 14.8596V45.8229Z" fill="white"/>
<path d="M45.2685 14.9287H5.45859C4.88605 14.9287 4.42188 15.3927 4.42188 15.9654V44.7171C4.42188 45.2897 4.88605 45.7538 5.45859 45.7538H45.2685C45.8411 45.7538 46.3052 45.2897 46.3052 44.7171V15.9654C46.3052 15.3927 45.8411 14.9287 45.2685 14.9287ZM44.2318 43.6803H6.49531V17.0021H44.2318V43.6803Z" fill="white"/>
<path d="M57.4323 17.1404H55.2207C54.0392 17.1404 53.0781 18.1015 53.0781 19.2829V21.4946C53.0781 22.676 54.0392 23.6371 55.2207 23.6371H57.4323C58.6138 23.6371 59.5749 22.676 59.5749 21.4946V19.2829C59.5749 18.1015 58.6138 17.1404 57.4323 17.1404ZM57.5015 21.4946C57.5015 21.5326 57.4705 21.5637 57.4323 21.5637H55.2207C55.1825 21.5637 55.1516 21.5326 55.1516 21.4946V19.2829C55.1516 19.2449 55.1825 19.2138 55.2207 19.2138H57.4323C57.4705 19.2138 57.5015 19.2449 57.5015 19.2829V21.4946Z" fill="white"/>
<path d="M58.5382 25.9871H54.1148C53.5423 25.9871 53.0781 26.4511 53.0781 27.0238C53.0781 27.5965 53.5423 28.0605 54.1148 28.0605H58.5382C59.1107 28.0605 59.5749 27.5965 59.5749 27.0238C59.5749 26.4511 59.1107 25.9871 58.5382 25.9871Z" fill="white"/>
<path d="M58.5382 34.8336H54.1148C53.5423 34.8336 53.0781 35.2977 53.0781 35.8703C53.0781 36.443 53.5423 36.9071 54.1148 36.9071H58.5382C59.1107 36.9071 59.5749 36.443 59.5749 35.8703C59.5749 35.2977 59.1107 34.8336 58.5382 34.8336Z" fill="white"/>
<path d="M58.5382 30.4103H54.1148C53.5423 30.4103 53.0781 30.8743 53.0781 31.447C53.0781 32.0197 53.5423 32.4837 54.1148 32.4837H58.5382C59.1107 32.4837 59.5749 32.0197 59.5749 31.447C59.5749 30.8743 59.1107 30.4103 58.5382 30.4103Z" fill="white"/>
<path d="M23.2188 33.2946C23.2188 35.1137 23.9471 36.0841 24.5322 36.8636C25.0536 37.5583 25.4304 38.0603 25.4304 39.1877C25.4304 39.7604 25.8946 40.2245 26.4671 40.2245C27.0397 40.2245 27.5038 39.7604 27.5038 39.1877C27.5038 37.3688 26.7755 36.3984 26.1905 35.6189C25.669 34.9242 25.2922 34.4222 25.2922 33.2946C25.2922 32.1656 25.6691 31.663 26.1907 30.9675C26.7757 30.1874 27.5038 29.2165 27.5038 27.3963C27.5038 25.5754 26.7758 24.604 26.1909 23.8233C25.6691 23.1272 25.2922 22.624 25.2922 21.4937C25.2922 20.9211 24.828 20.457 24.2555 20.457C23.6829 20.457 23.2188 20.9211 23.2188 21.4937C23.2188 23.3148 23.9468 24.2861 24.5318 25.0668C25.0535 25.7629 25.4304 26.2661 25.4304 27.3963C25.4304 28.5253 25.0535 29.0279 24.5319 29.7235C23.9469 30.5038 23.2188 31.4746 23.2188 33.2946Z" fill="white"/>
<path d="M28.818 34.3303C29.1598 34.3303 29.4632 34.1647 29.6523 33.9092C30.3946 32.9194 31.9303 30.865 31.9303 27.3964C31.9303 25.9873 31.6763 24.6585 31.1752 23.4475C30.9562 22.9184 30.3497 22.6668 29.8208 22.8856C29.2917 23.1046 29.0404 23.711 29.2592 24.24C29.6558 25.1986 29.8569 26.2605 29.8569 27.3963C29.8569 30.1665 28.6992 31.7238 27.9994 32.6571C27.8627 32.8328 27.7812 33.0536 27.7812 33.2935C27.7812 33.8662 28.2454 34.3303 28.818 34.3303Z" fill="white"/>
<path d="M20.5004 37.8577C20.6316 37.8577 20.765 37.8325 20.8937 37.7798C21.4234 37.5624 21.6765 36.9567 21.459 36.427C21.0684 35.4754 20.8703 34.4214 20.8703 33.2946C20.8703 30.5111 22.0394 28.9521 22.7381 28.0207C22.7571 27.9953 22.775 27.969 22.7916 27.9421C22.9967 27.6089 22.9956 27.181 22.7904 26.8479C22.4905 26.3602 21.8519 26.2081 21.3642 26.5081C21.2171 26.5986 21.1005 26.72 21.0177 26.8588C20.2564 27.8763 18.7969 29.9136 18.7969 33.2946C18.7969 34.6929 19.0472 36.0117 19.541 37.2145C19.7055 37.6152 20.0924 37.8577 20.5004 37.8577Z" fill="white"/>
</svg>
