<svg width="54" height="47" viewBox="0 0 54 47" fill="none" xmlns="http://www.w3.org/2000/svg">
<path d="M45.0014 0H8.34304C3.7353 0 0 3.73531 0 8.34304V38.657C0 43.2647 3.7353 47 8.34304 47H45.0014C49.6092 47 53.3445 43.2647 53.3445 38.657V8.34304C53.3445 3.73531 49.6092 0 45.0014 0Z" fill="white"/>
<path d="M20.7855 32.8885V14.7067H27.6037C29.0005 14.7067 30.1723 14.9671 31.1193 15.488C32.0722 16.0088 32.7913 16.725 33.2766 17.6364C33.7679 18.542 34.0135 19.5718 34.0135 20.7259C34.0135 21.8919 33.7679 22.9276 33.2766 23.8332C32.7854 24.7387 32.0604 25.4519 31.1016 25.9727C30.1428 26.4876 28.962 26.7451 27.5593 26.7451H23.0405V24.0373H27.1154C27.9322 24.0373 28.601 23.8953 29.1218 23.6112C29.6426 23.3271 30.0273 22.9365 30.2759 22.4393C30.5304 21.9422 30.6577 21.371 30.6577 20.7259C30.6577 20.0808 30.5304 19.5126 30.2759 19.0214C30.0273 18.5301 29.6397 18.1484 29.1129 17.8761C28.5921 17.5979 27.9203 17.4589 27.0977 17.4589H24.0792V32.8885H20.7855Z" fill="#B3322F"/>
</svg>
