<svg width="53" height="53" viewBox="0 0 53 53" fill="none" xmlns="http://www.w3.org/2000/svg">
<g clip-path="url(#clip0_992_288)">
<path d="M11.9718 31.7072C12.4046 31.9219 12.9329 31.7487 13.152 31.315C13.372 30.8822 13.198 30.3513 12.766 30.1287C12.638 30.0625 9.61345 28.4548 8.82104 23.7042C8.75655 23.3138 8.43948 23.0144 8.04457 22.972C7.64086 22.9269 7.277 23.1548 7.12939 23.5214C5.21259 28.3152 8.82715 33.8246 8.98169 34.0569C9.15125 34.3122 9.43219 34.45 9.71666 34.45C9.88445 34.45 10.0549 34.4014 10.206 34.3015C10.6114 34.0313 10.7218 33.4836 10.4524 33.0773C10.4304 33.0437 8.93491 30.7567 8.47374 28.0635C9.927 30.6543 11.8579 31.6498 11.9718 31.7072Z" fill="white"/>
<path d="M16.068 33.549C16.5459 33.4535 16.8568 32.988 16.7615 32.5102C16.6652 32.0323 16.205 31.7214 15.7217 31.8177C13.9489 32.1719 10.5948 34.1019 10.5948 38.8667C10.5948 42.324 11.3191 44.7223 11.8783 46.0561C9.94464 46.4316 8.82812 47.6479 8.82812 49.4667C8.82812 51.5142 10.6858 53 13.2448 53H14.1281C15.5927 53 16.4937 51.902 16.5909 51.7774C16.8912 51.3932 16.8232 50.8376 16.4381 50.5372C16.0538 50.236 15.4983 50.3058 15.1988 50.6892C15.1943 50.6954 14.7456 51.2334 14.1282 51.2334H13.2448C11.9278 51.2334 10.5948 50.6266 10.5948 49.4667C10.5948 49.0294 10.5948 47.7 13.2448 47.7C13.569 47.7 13.8658 47.5207 14.0204 47.2353C14.1749 46.95 14.1591 46.602 13.9824 46.3308C13.9656 46.3052 12.3614 43.7885 12.3614 38.8666C12.3615 34.3872 15.9213 33.5807 16.068 33.549Z" fill="white"/>
<path d="M41.1112 46.056C41.6704 44.7222 42.3947 42.324 42.3947 38.8666C42.3947 34.1018 39.0407 32.1718 37.2679 31.8176C36.7891 31.7231 36.3244 32.0313 36.2282 32.5101C36.1327 32.988 36.4437 33.4535 36.9216 33.5489C37.0736 33.5798 40.6281 34.343 40.6281 38.8666C40.6281 43.7885 39.0239 46.3051 39.0098 46.3263C38.8296 46.5975 38.812 46.9464 38.9656 47.2335C39.1193 47.5206 39.4188 47.7 39.7447 47.7C42.3947 47.7 42.3947 49.0294 42.3947 49.4667C42.3947 50.6265 41.0617 51.2334 39.7447 51.2334H38.8614C38.2519 51.2334 37.8031 50.7043 37.7854 50.6831C37.4842 50.3059 36.9339 50.2388 36.5514 50.5373C36.1663 50.8376 36.0982 51.3933 36.3986 51.7776C36.4958 51.9021 37.3969 53.0001 38.8614 53.0001H39.7447C42.3046 53.0001 44.1614 51.5143 44.1614 49.4668C44.1614 47.6479 43.0449 46.4315 41.1112 46.056Z" fill="white"/>
<path d="M31.9456 46.0004L33.5515 36.3624C33.6319 35.881 33.3068 35.4261 32.8255 35.3457C32.3423 35.2662 31.8892 35.5904 31.8097 36.0709L30.1657 45.9334H30.0306C29.5421 45.9334 29.1473 46.3291 29.1473 46.8167C29.1473 47.3042 29.5421 47.7 30.0306 47.7H30.9139C33.5639 47.7 33.5639 49.0294 33.5639 49.4667C33.5639 50.6265 32.2309 51.2334 30.9139 51.2334H30.0306C28.5695 51.2334 27.3806 50.0444 27.3806 48.5834V36.2167C27.3806 35.7291 26.9857 35.3334 26.4973 35.3334C26.0088 35.3334 25.614 35.7291 25.614 36.2167V48.5834C25.614 50.0444 24.425 51.2334 22.964 51.2334H22.0807C20.7636 51.2334 19.4307 50.6266 19.4307 49.4667C19.4307 49.0294 19.4307 47.7 22.0807 47.7H22.964C23.4524 47.7 23.8473 47.3042 23.8473 46.8167C23.8473 46.3291 23.4524 45.9334 22.964 45.9334H22.8288L21.1849 36.0709C21.1064 35.5904 20.6514 35.2662 20.1691 35.3457C19.6877 35.4261 19.3626 35.881 19.4431 36.3624L21.049 46.0004C18.9096 46.2964 17.6641 47.5454 17.6641 49.4667C17.6641 51.5142 19.5218 53 22.0808 53H22.9641C24.4074 53 25.6909 52.3039 26.4974 51.2307C27.3036 52.3039 28.5871 53 30.0305 53H30.9137C33.4737 53 35.3305 51.5142 35.3305 49.4667C35.3305 47.5454 34.085 46.2964 31.9456 46.0004Z" fill="white"/>
<path d="M48.4877 7.55519C46.5461 3.67118 41.8689 0 38.8647 0C37.1589 0 34.2236 2.64472 32.7494 4.08628C31.0454 2.62619 28.9713 1.7667 26.498 1.7667C24.0247 1.7667 21.9505 2.62619 20.2466 4.08638C18.7723 2.64472 15.837 0 14.1313 0C11.127 0 6.44977 3.67118 4.50823 7.55519C3.92347 8.72295 3.53125 10.3015 3.53125 11.4834C3.53125 13.9187 5.51254 15.9001 7.94795 15.9001C10.143 15.9001 11.1253 14.4568 11.9132 13.2969C12.0095 13.1564 12.1049 13.0151 12.2162 12.857L15.7495 7.55695C16.0207 7.15065 15.9112 6.60202 15.5048 6.33174C15.0967 6.0597 14.5499 6.17005 14.2796 6.57645L10.7595 11.857C10.6553 12.0045 10.5538 12.1538 10.4521 12.303C9.65793 13.4726 9.14915 14.1333 7.94785 14.1333C6.48683 14.1333 5.29785 12.9443 5.29785 11.4833C5.29785 10.5655 5.62289 9.275 6.0884 8.34481C7.8286 4.86358 12.0359 1.7666 14.1311 1.7666C14.8846 1.7666 17.1274 3.52088 18.9974 5.33882C15.6787 9.19726 14.1311 15.657 14.1311 22.0833C14.1311 30.2391 17.7139 33.5666 26.4978 33.5666C35.2818 33.5666 38.8645 30.2391 38.8645 22.0833C38.8645 15.6561 37.317 9.19726 33.9983 5.33882C35.8683 3.52088 38.1102 1.7666 38.8645 1.7666C40.9598 1.7666 45.1671 4.86358 46.9082 8.34481C47.3729 9.275 47.698 10.5655 47.698 11.4833C47.698 12.9443 46.509 14.1333 45.048 14.1333C43.8034 14.1333 43.3122 13.4796 42.4837 12.228L38.7162 6.57645C38.4459 6.17015 37.8974 6.0597 37.491 6.33174C37.0847 6.60202 36.9752 7.15055 37.2463 7.55695L41.0102 13.2032C41.8477 14.4672 42.7955 15.9 45.048 15.9C47.4833 15.9 49.4647 13.9187 49.4647 11.4833C49.4647 10.3015 49.0724 8.72295 48.4877 7.55519ZM37.0979 22.0833C37.0979 29.2578 34.3234 31.8 26.498 31.8C18.6725 31.8 15.898 29.2578 15.898 22.0833C15.898 12.8498 19.176 3.5333 26.498 3.5333C33.8199 3.5333 37.0979 12.8498 37.0979 22.0833Z" fill="white"/>
<path d="M31.011 26.0955C30.86 26.3897 30.2699 26.4965 30.0296 26.5001C28.9952 26.5001 27.9263 25.6193 27.5403 24.6071C28.9925 24.2785 30.0296 23.2935 30.0296 22.0833C30.0296 20.5976 28.4775 19.4333 26.4963 19.4333C24.515 19.4333 22.963 20.5976 22.963 22.0833C22.963 23.2935 24 24.2784 25.4522 24.6071C25.067 25.6193 23.9982 26.5001 22.9691 26.5001C22.7156 26.4965 22.1378 26.3896 21.9763 26.0858C21.7475 25.6547 21.213 25.4913 20.782 25.7201C20.351 25.9488 20.1867 26.4833 20.4163 26.9143C21.1141 28.2288 22.7757 28.2668 22.963 28.2668C24.3348 28.2668 25.6615 27.4832 26.4963 26.3623C27.331 27.4832 28.6578 28.2668 30.0296 28.2668C30.2186 28.2668 31.8987 28.2279 32.5815 26.9047C32.805 26.471 32.6345 25.9384 32.2008 25.7149C31.7671 25.4914 31.2353 25.6608 31.011 26.0955ZM26.4963 22.9668C25.4345 22.9668 24.7296 22.435 24.7296 22.0835C24.7296 21.7319 25.4345 21.2002 26.4963 21.2002C27.5748 21.2002 28.263 21.7231 28.263 22.0835C28.263 22.4438 27.5748 22.9668 26.4963 22.9668Z" fill="white"/>
<path d="M30.4734 15.9C31.2039 15.9 31.7984 15.3055 31.7984 14.575C31.7984 13.8445 31.2039 13.25 30.4734 13.25C29.7429 13.25 29.1484 13.8445 29.1484 14.575C29.1484 15.3055 29.7429 15.9 30.4734 15.9Z" fill="white"/>
<path d="M22.5203 15.9C23.2508 15.9 23.8453 15.3055 23.8453 14.575C23.8453 13.8445 23.2508 13.25 22.5203 13.25C21.7898 13.25 21.1953 13.8445 21.1953 14.575C21.1953 15.3055 21.7898 15.9 22.5203 15.9Z" fill="white"/>
</g>
<defs>
<clipPath id="clip0_992_288">
<rect width="53" height="53" fill="white"/>
</clipPath>
</defs>
</svg>
