<svg width="60" height="60" viewBox="0 0 60 60" fill="none" xmlns="http://www.w3.org/2000/svg">
<g clip-path="url(#clip0_993_356)">
<path d="M33.7362 51.4029L25.2285 42.8911V48.5999H6.54849C6.08032 48.5999 5.84138 48.3083 5.74048 48.1345C5.63982 47.9607 5.50505 47.6087 5.73732 47.2023L8.97134 41.5431L4.10548 38.7625L0.871574 44.422C-0.298192 46.4691 -0.289989 48.9084 0.893253 50.9477C2.07673 52.9869 4.19068 54.2044 6.54837 54.2044H25.2285V59.9127L33.7362 51.4029Z" fill="white"/>
<path d="M59.1145 44.3677L49.7743 28.1903L54.7178 25.336L43.0942 22.223L39.9766 33.8467L44.9207 30.9923L54.2609 47.1695C54.4948 47.5749 54.3619 47.9279 54.2618 48.1019C54.1619 48.276 53.9241 48.5685 53.4562 48.5706L46.9382 48.5996L46.963 54.2038L53.481 54.1749C55.8387 54.1645 57.9473 52.9375 59.1216 50.8932C60.2958 48.8488 60.2932 46.4097 59.1145 44.3677Z" fill="white"/>
<path d="M35.3982 3.33126C34.2129 1.29912 32.1029 0.0872803 29.7513 0.0872803C29.7463 0.0872803 29.7409 0.0872803 29.7358 0.0872803C27.3782 0.0925537 25.267 1.31458 24.0883 3.35646L14.7482 19.534L9.80469 16.6796L12.9205 28.3024L24.5457 25.1905L19.6016 22.336L28.9418 6.15865C29.1758 5.75341 29.5476 5.69224 29.7484 5.69166C29.947 5.69294 30.3213 5.75083 30.5573 6.1549L33.8415 11.7852L38.6825 8.96154L35.3982 3.33126Z" fill="white"/>
</g>
<defs>
<clipPath id="clip0_993_356">
<rect width="60" height="60" fill="white"/>
</clipPath>
</defs>
</svg>
