<svg width="29" height="55" viewBox="0 0 29 55" fill="none" xmlns="http://www.w3.org/2000/svg">
<path d="M26.2931 0H2.70638C1.72947 0 0.9375 0.792273 0.9375 1.76888V20.2475H28.0618V1.76888C28.062 0.792273 27.2696 0 26.2931 0ZM5.97623 13.0149C5.97623 13.94 5.22643 14.6901 4.30112 14.6901V5.55732C5.22643 5.55732 5.97623 6.30743 5.97623 7.23259V13.0149Z" fill="white"/>
<path d="M0.9375 49.9835C0.9375 50.9607 1.72947 51.7526 2.70638 51.7526H26.293C27.2696 51.7526 28.0618 50.9607 28.0618 49.9835V22.7032H0.9375V49.9835ZM22.8969 38.3269C22.8969 37.7805 23.3399 37.3375 23.8863 37.3375C24.4328 37.3375 24.8757 37.7805 24.8757 38.3269V39.9632C24.8757 40.5097 24.4328 40.9526 23.8863 40.9526C23.3399 40.9526 22.8969 40.5097 22.8969 39.9632V38.3269ZM22.8969 43.1055C22.8969 42.5591 23.3399 42.1161 23.8863 42.1161C24.4328 42.1161 24.8757 42.5591 24.8757 43.1055V47.4596C24.8757 48.006 24.4328 48.449 23.8863 48.449C23.3399 48.449 22.8969 48.006 22.8969 47.4596V43.1055ZM4.30112 26.9068C5.22643 26.9068 5.97623 27.6566 5.97623 28.5817V34.3643C5.97623 35.2895 5.22643 36.0396 4.30112 36.0396V26.9068Z" fill="white"/>
<path d="M25.2593 52.5138H4.25378C4.1696 52.5138 4.10156 52.5818 4.10156 52.666V54.8478C4.10156 54.9317 4.1696 55.0001 4.25378 55.0001H6.43546C6.44885 55.0001 6.46225 54.9982 6.47518 54.9947L10.4892 53.909H18.7713L23.0401 54.9953C23.0523 54.9984 23.065 55.0001 23.0776 55.0001H25.2593C25.3434 55.0001 25.4115 54.9317 25.4115 54.8478V52.666C25.4115 52.5818 25.3434 52.5138 25.2593 52.5138Z" fill="white"/>
</svg>
