<svg width="46" height="46" viewBox="0 0 46 46" fill="none" xmlns="http://www.w3.org/2000/svg">
<g clip-path="url(#clip0_992_349)">
<path d="M34.0765 30.947V29.3079H34.9208C35.3323 29.3079 35.6659 28.9744 35.6659 28.5629C35.6659 28.1514 35.3323 27.8178 34.9208 27.8178H33.5704L33.8684 26.9238H34.1261C34.5376 26.9238 34.8712 26.5902 34.8712 26.1787C34.8712 25.7673 34.5376 25.4337 34.1261 25.4337H33.3467C33.3462 25.4337 33.3457 25.4337 33.3452 25.4337H28.5508C28.5496 25.4337 28.5484 25.4337 28.5472 25.4337H27.7684C27.3569 25.4337 27.0233 25.7673 27.0233 26.1787C27.0233 26.5902 27.3569 26.9238 27.7684 26.9238H28.0261L28.3241 27.8178H23.7451V11.0294H44.8755C45.4219 11.0294 45.8755 10.6548 45.9789 10.1183C46.0822 9.58173 45.8 9.06536 45.2928 8.86241L23.2835 0.0586139C23.2591 0.0485805 23.2344 0.0400373 23.2093 0.0326862C23.2091 0.0325868 23.2088 0.0325868 23.2086 0.0324875C23.1861 0.0260304 23.1635 0.0204674 23.1405 0.0160964C23.1348 0.0150037 23.1289 0.014507 23.123 0.0136129C23.1057 0.0107321 23.0882 0.00775188 23.0707 0.0060631C23.0485 0.00397696 23.0264 0.00298357 23.0041 0.00288423C23.0027 0.00288423 23.0014 0.00268555 23.0001 0.00268555C22.9764 0.00268555 22.9529 0.00377828 22.9293 0.0060631C22.9139 0.0075532 22.8986 0.0102354 22.8833 0.0126195C22.8754 0.0139109 22.8673 0.0146063 22.8595 0.0160964C22.8376 0.0202687 22.816 0.025633 22.7945 0.0317921C22.7932 0.0320901 22.792 0.0322888 22.7908 0.0326862C22.7657 0.0400373 22.741 0.0486799 22.7167 0.0586139L0.707213 8.86231C0.199984 9.06526 -0.0821412 9.58163 0.0211722 10.1182C0.124486 10.6547 0.578171 11.0293 1.12454 11.0293H22.2549V27.8177H17.6759L17.974 26.9237H18.2317C18.6431 26.9237 18.9767 26.5901 18.9767 26.1786C18.9767 25.7672 18.6431 25.4336 18.2317 25.4336H17.4522C17.4517 25.4336 17.4512 25.4336 17.4507 25.4336H12.6563C12.6551 25.4336 12.6539 25.4336 12.6527 25.4336H11.8739C11.4624 25.4336 11.1289 25.7672 11.1289 26.1786C11.1289 26.5901 11.4624 26.9237 11.8739 26.9237H12.1316L12.4296 27.8177H11.0792C10.6677 27.8177 10.3341 28.1513 10.3341 28.5628C10.3341 28.9743 10.6677 29.3078 11.0792 29.3078H11.9236V30.9469C11.9236 31.796 12.6143 32.4867 13.4633 32.4867H22.2549V40.6558C21.332 40.9675 20.6655 41.8409 20.6655 42.8677V44.5068H19.0264C18.6149 44.5068 18.2813 44.8404 18.2813 45.2519C18.2813 45.6633 18.6149 45.9969 19.0264 45.9969H26.9736C27.385 45.9969 27.7186 45.6633 27.7186 45.2519C27.7186 44.8404 27.385 44.5068 26.9736 44.5068H25.3344V42.8677C25.3344 41.841 24.6679 40.9676 23.745 40.6558V32.4867H32.5367V32.4868C33.3857 32.4868 34.0765 31.7961 34.0765 30.947ZM32.2977 26.9238L31.9997 27.8178H29.8948L29.5968 26.9238H32.2977ZM42.9729 9.53931H32.8453L26.0936 2.78758L42.9729 9.53931ZM3.0272 9.53931L19.9066 2.78758L13.1549 9.53931H3.0272ZM15.2622 9.53931L23.0001 1.80133L30.738 9.53931H15.2622ZM16.4033 26.9238L16.1053 27.8178H14.0005L13.7024 26.9238H16.4033ZM23.8444 42.8678V44.5069H22.1557V42.8678C22.1557 42.4022 22.5345 42.0234 23.0001 42.0234C23.4657 42.0234 23.8444 42.4022 23.8444 42.8678ZM32.5366 30.9967H13.4633C13.436 30.9967 13.4138 30.9744 13.4138 30.947V29.3079H13.4609C13.4617 29.3079 13.4625 29.3081 13.4633 29.3081C13.4641 29.3081 13.4649 29.3079 13.4657 29.3079H32.5343C32.5351 29.3079 32.5359 29.3081 32.5367 29.3081C32.5375 29.3081 32.5383 29.3079 32.5392 29.3079H32.5863V30.947C32.5863 30.9744 32.564 30.9967 32.5366 30.9967Z" fill="white"/>
<path d="M10.2817 34.1755H2.99229L1.48441 22.1127C1.43335 21.7044 1.06043 21.4148 0.652737 21.4658C0.24445 21.5168 -0.0452249 21.8893 0.00583578 22.2975L1.58951 34.9671V38.0995V45.252C1.58951 45.6635 1.92309 45.997 2.33456 45.997C2.74603 45.997 3.07961 45.6635 3.07961 45.252V42.0235H9.5367V45.252C9.5367 45.6635 9.87028 45.997 10.2817 45.997C10.6932 45.997 11.0268 45.6635 11.0268 45.252V38.722C11.9497 38.4103 12.6162 37.5369 12.6162 36.5101C12.6162 35.2228 11.569 34.1755 10.2817 34.1755ZM9.5367 40.5333H3.07961V38.8445H9.5367V40.5333ZM10.2817 37.3544H3.07961V35.6656H10.2817C10.7474 35.6656 11.1261 36.0444 11.1261 36.51C11.1261 36.9756 10.7474 37.3544 10.2817 37.3544Z" fill="white"/>
<path d="M45.3463 21.4658C44.9379 21.4146 44.5657 21.7044 44.5146 22.1127L43.0068 34.1756H35.7173C34.4301 34.1756 33.3828 35.2228 33.3828 36.5101C33.3828 37.5367 34.0494 38.4101 34.9722 38.722V45.252C34.9722 45.6634 35.3058 45.997 35.7173 45.997C36.1288 45.997 36.4623 45.6634 36.4623 45.252V42.0234H42.9194V45.252C42.9194 45.6634 43.253 45.997 43.6645 45.997C44.0759 45.997 44.4095 45.6634 44.4095 45.252V38.0995V34.967L45.9932 22.2975C46.0443 21.8893 45.7547 21.517 45.3463 21.4658ZM42.9194 40.5334H36.4623V38.8446H42.9194V40.5334ZM42.9194 37.3545H35.7173C35.2517 37.3545 34.8729 36.9758 34.8729 36.5102C34.8729 36.0446 35.2517 35.6658 35.7173 35.6658H42.9194V37.3545Z" fill="white"/>
</g>
<defs>
<clipPath id="clip0_992_349">
<rect width="46" height="46" fill="white"/>
</clipPath>
</defs>
</svg>
