<svg width="63" height="63" viewBox="0 0 63 63" fill="none" xmlns="http://www.w3.org/2000/svg">
<path d="M61.745 5.73291H1.25496C0.561955 5.73291 0 6.29474 0 6.98787V26.2232C0 26.9163 0.561955 27.4781 1.25496 27.4781H5.39634V31.1633C5.39634 45.5568 17.1065 57.2668 31.4999 57.2668C45.8933 57.2668 57.6034 45.5568 57.6034 31.1633V27.4781H61.7448C62.4378 27.4781 62.9997 26.9163 62.9997 26.2232V6.98787C63 6.29474 62.438 5.73291 61.745 5.73291ZM55.0936 31.1634C55.0936 44.1729 44.5095 54.757 31.5 54.757C18.4905 54.757 7.90638 44.173 7.90638 31.1634V27.4782H55.0936V31.1634ZM60.4901 24.9682H2.50991V17.8605H60.49L60.4901 24.9682ZM60.4901 15.3506H2.50991V8.24282H60.49L60.4901 15.3506Z" fill="white"/>
<path d="M22.2126 31.5398C17.6453 31.5398 13.9297 35.2554 13.9297 39.8227C13.9297 44.3899 17.6453 48.1056 22.2126 48.1056C26.7798 48.1056 30.4955 44.3899 30.4955 39.8227C30.4955 35.2554 26.7798 31.5398 22.2126 31.5398ZM22.2126 45.5956C19.0295 45.5956 16.4397 43.0058 16.4397 39.8227C16.4397 36.6396 19.0295 34.0498 22.2126 34.0498C25.3957 34.0498 27.9855 36.6396 27.9855 39.8227C27.9855 43.0058 25.3957 45.5956 22.2126 45.5956Z" fill="white"/>
<path d="M52.2628 29.0969C51.5698 29.0969 51.0078 29.6588 51.0078 30.3519C51.0078 38.2343 46.3113 45.2991 39.043 48.3502C38.404 48.6186 38.1034 49.354 38.3715 49.9931C38.5733 50.4735 39.0389 50.7626 39.5292 50.7626C39.6912 50.7626 39.8559 50.7311 40.0145 50.6645C48.2173 47.2209 53.5177 39.2478 53.5177 30.3519C53.5177 29.6588 52.9558 29.0969 52.2628 29.0969Z" fill="white"/>
<path d="M34.879 50.8821C34.8086 50.1926 34.1933 49.6905 33.5031 49.761C32.8416 49.8286 32.1668 49.8628 31.4971 49.8628C30.8041 49.8628 30.2422 50.4246 30.2422 51.1177C30.2422 51.8108 30.804 52.3725 31.497 52.3725C32.2514 52.3725 33.0121 52.3339 33.758 52.2579C34.4473 52.1876 34.9492 51.5716 34.879 50.8821Z" fill="white"/>
</svg>
