<svg width="70" height="70" viewBox="0 0 70 70" fill="none" xmlns="http://www.w3.org/2000/svg">
<path d="M60.8625 34.8566L57.7335 35.8121L57.5865 56.6056L35.3685 63.4446L12.4225 56.6056L12.2755 35.8121C12.118 35.2346 9.13945 35.5356 9.06945 34.3771C8.96095 32.5361 11.6385 28.8296 11.831 26.7226C11.6455 25.7706 6.03145 22.0851 5.05495 20.9231C4.74345 20.5521 4.41445 20.2756 4.57195 19.7191L5.60095 18.9736L27.1855 12.5861C28.281 12.5231 33.1425 17.3111 34.3115 18.2876C34.56 18.4696 34.8085 18.4486 35.092 18.4066C36.17 18.2526 40.328 13.9161 41.6685 13.0411C42.106 12.7576 42.484 12.4426 43.0545 12.6456C45.578 13.8776 64.674 18.5011 65.29 19.4881C65.584 19.9571 65.4965 20.3736 65.1185 20.7481L58.143 26.7506C58.2025 28.2906 61.5765 33.8276 60.8555 34.8601L60.8625 34.8566ZM7.70445 20.1986C7.52595 20.8846 7.98795 20.8741 8.29245 21.1821C8.84895 21.7456 13.091 25.2491 13.476 25.2911L32.8975 19.3201L26.7865 14.6301L7.70445 20.1986ZM62.301 20.2021L43.219 14.6336L37.108 19.3236L56.5295 25.2946L60.208 22.4806L62.301 20.2021ZM53.201 26.1521L34.8575 20.9161L16.8045 26.1521C16.857 26.6946 17.3365 26.6841 17.7005 26.8241C20.084 27.7586 32.936 31.7661 34.826 31.7731C36.926 31.7836 49.771 27.8146 52.305 26.8241C52.6725 26.6806 53.1485 26.6946 53.201 26.1521ZM31.4975 39.4451C31.5325 37.6566 33.1775 35.7911 33.468 34.2091C33.5415 33.7996 33.727 33.6316 33.258 33.3201L13.483 27.8916C12.9825 29.5611 11.894 31.2201 11.4495 32.8826C11.355 33.2361 11.0155 33.3341 11.5475 33.6701L31.4975 39.4416V39.4451ZM38.508 39.4451L58.458 33.6701C58.983 33.3376 58.647 33.2361 58.556 32.8826C58.143 31.2936 56.9215 29.5646 56.5225 27.8916L36.751 33.3166C36.2855 33.6246 36.464 33.7926 36.541 34.2056C36.849 35.8401 38.3855 37.6776 38.5115 39.4416L38.508 39.4451ZM14.001 36.2986V55.5486L33.951 61.1486V38.3986C32.8835 39.0216 33.167 41.4471 31.697 41.5241L14.001 36.2986ZM56.001 36.2986L38.305 41.5241C36.835 41.4471 37.1185 39.0251 36.051 38.3986V61.1486L56.001 55.5486V36.2986Z" fill="white"/>
</svg>
