<svg width="49" height="49" viewBox="0 0 49 49" fill="none" xmlns="http://www.w3.org/2000/svg">
<g clip-path="url(#clip0_992_269)">
<path d="M3.86719 11.5562V42.5047H45.1319V11.5562H3.86719ZM38.6365 36.3914C38.6365 37.4467 37.781 38.3018 36.7261 38.3018H11.8909C10.836 38.3018 9.98047 37.4467 9.98047 36.3914V21.1082C9.98047 20.0529 10.836 19.1978 11.8909 19.1978H36.7261C37.781 19.1978 38.6365 20.0529 38.6365 21.1082V36.3914ZM39.8389 17.2686C39.207 17.2686 38.6927 16.9423 38.6927 16.3104C38.6927 15.9023 38.361 15.759 37.953 15.759H11.9547C11.547 15.759 11.2146 15.9023 11.2146 16.3104C11.2146 16.9423 10.7003 17.3626 10.0684 17.3626C9.43639 17.3626 8.92211 16.9893 8.92211 16.3574C8.92211 14.6858 10.2827 13.4666 11.9547 13.4666H37.9533C39.6253 13.4666 40.9855 14.6388 40.9855 16.3104C40.9852 16.9427 40.4713 17.2686 39.8389 17.2686Z" fill="white"/>
<path d="M42.0752 1.26176V0.0937371H7.76823C7.55694 0.0937371 6.92383 -0.117171 6.92383 0.0937371V1.26176C5.39551 1.33817 3.86719 2.74385 3.86719 4.4655V10.0278H45.1319V4.46512C45.1319 2.74461 43.6036 1.34047 42.0752 1.26176ZM11.1867 8.48919C9.71073 8.48919 8.50908 7.28793 8.50908 5.81157C8.50908 5.35078 8.62638 4.91636 8.83232 4.53771L12.4606 8.16595C12.0815 8.37189 11.6475 8.48919 11.1867 8.48919ZM13.5415 7.08543L9.91285 3.45681C10.2919 3.25125 10.7259 3.13357 11.1867 3.13357C12.6627 3.13357 13.8643 4.33483 13.8643 5.81157C13.8643 6.27236 13.747 6.7064 13.5415 7.08543ZM20.3681 8.48919C18.8917 8.48919 17.6901 7.28793 17.6901 5.81157C17.6905 5.35078 17.8074 4.91636 18.0133 4.53771L21.6423 8.16595C21.2633 8.37189 20.8289 8.48919 20.3681 8.48919ZM22.7232 7.08543L19.0942 3.45681C19.4733 3.25125 19.9073 3.13357 20.3685 3.13357C21.8448 3.13357 23.0461 4.33483 23.0461 5.81157C23.0461 6.27236 22.9292 6.7064 22.7232 7.08543ZM29.4628 8.48919C27.9868 8.48919 26.7851 7.28793 26.7851 5.81157C26.7851 5.35078 26.9024 4.91636 27.1084 4.53771L30.737 8.16595C30.358 8.37189 29.9235 8.48919 29.4628 8.48919ZM31.8175 7.08543L28.1889 3.45681C28.5679 3.25125 29.002 3.13357 29.4628 3.13357C30.9391 3.13357 32.1408 4.33483 32.1408 5.81157C32.1408 6.27236 32.0235 6.7064 31.8175 7.08543ZM38.6441 8.48919C37.1682 8.48919 35.9665 7.28793 35.9665 5.81157C35.9669 5.35078 36.0838 4.91636 36.2898 4.53771L39.9184 8.16595C39.5394 8.37189 39.1053 8.48919 38.6441 8.48919ZM40.9993 7.08543L37.3707 3.45681C37.7497 3.25125 38.1834 3.13357 38.6445 3.13357C40.1209 3.13357 41.3225 4.33483 41.3225 5.81157C41.3225 6.27236 41.2052 6.7064 40.9993 7.08543Z" fill="white"/>
<path d="M42.0781 0.0937371H42.1224C42.3337 0.0937371 42.0781 -0.117171 42.0781 0.0937371Z" fill="white"/>
<path d="M3.86719 44.033V48.2358C3.86719 48.4471 3.86719 49 3.86719 49H45.1239C45.1239 49 45.1319 48.4471 45.1319 48.2358V44.033H3.86719Z" fill="white"/>
</g>
<defs>
<clipPath id="clip0_992_269">
<rect width="49" height="49" fill="white"/>
</clipPath>
</defs>
</svg>
