<svg width="56" height="56" viewBox="0 0 56 56" fill="none" xmlns="http://www.w3.org/2000/svg">
<path d="M53.4247 14.039H52.4931V11.354C52.4931 11.0357 52.3093 10.7459 52.0211 10.6104C44.3932 7.02088 35.6612 6.96981 28 10.4516C20.3389 6.96981 11.6068 7.02099 3.97885 10.6104C3.69074 10.7459 3.50685 11.0357 3.50685 11.354V14.039H2.57534C1.15529 14.039 0 15.1942 0 16.6143V45.5458C0 46.9659 1.15529 48.1211 2.57534 48.1211H53.4247C54.8447 48.1211 56 46.9659 56 45.5458V16.6143C56 15.1942 54.8447 14.039 53.4247 14.039ZM28.8219 26.2556C28.8219 26.2546 28.8219 26.2535 28.8219 26.2525V11.8812C35.8506 8.73518 43.8204 8.73518 50.8493 11.8812V14.8577C50.8493 14.8588 50.8492 14.8599 50.8492 14.8609C50.8492 14.8619 50.8493 14.8631 50.8493 14.8641V41.6518C47.3165 40.1766 43.5758 39.4388 39.8356 39.4388C36.0955 39.4388 32.3546 40.1766 28.8219 41.6518V26.2556ZM23.5616 10.5633C24.7876 10.9145 25.9964 11.3522 27.1781 11.8812V24.7225L25.8258 23.8209C25.5496 23.6368 25.19 23.6368 24.914 23.8209L23.5616 24.7225V10.5633ZM5.15068 14.8631C5.15068 14.8623 5.15079 14.8616 5.15079 14.8609C5.15079 14.8601 5.15068 14.8596 5.15068 14.8588V11.8812C10.4727 9.49912 16.3338 8.92236 21.9178 10.1475V13.7481C18.9844 13.1448 15.9915 13.0054 13.0051 13.3372C12.554 13.3872 12.2289 13.7936 12.279 14.2448C12.3292 14.6958 12.7351 15.0212 13.1866 14.9709C16.1135 14.6458 19.0473 14.7997 21.9177 15.4273V20.7628C20.1739 20.405 18.3955 20.2075 16.6161 20.1795C16.1619 20.1709 15.7885 20.5344 15.7813 20.9882C15.7741 21.4421 16.1362 21.8158 16.59 21.8231C18.3797 21.8513 20.1685 22.0602 21.9176 22.4419V24.2677C17.1626 23.2913 12.231 23.5396 7.58904 24.9981C7.15595 25.1341 6.91529 25.5955 7.05129 26.0285C7.16164 26.3797 7.4857 26.6043 7.83518 26.6043C7.91682 26.6043 7.99978 26.5921 8.08175 26.5663C12.5648 25.1579 17.3341 24.9473 21.9176 25.9484V26.258C21.9176 26.5611 22.0844 26.8397 22.3517 26.9826C22.6188 27.1258 22.9432 27.11 23.1954 26.9419L25.3696 25.4923L27.1779 26.6978V41.6517C23.645 40.1765 19.9043 39.4387 16.1642 39.4387C12.424 39.4387 8.68318 40.1765 5.15047 41.6517V14.8631H5.15068ZM24.5479 46.4773H2.57534C2.0617 46.4773 1.64384 46.0594 1.64384 45.5458V16.6143C1.64384 16.1007 2.0617 15.6828 2.57534 15.6828H3.50685V42.9157V43.7924C3.50685 44.2463 3.87485 44.6143 4.32877 44.6143H24.5479V46.4773ZM6.27836 42.9705C12.6454 40.4571 19.6833 40.457 26.0504 42.9705H6.27836ZM29.8082 46.4773H26.1918V44.6143H29.8082V46.4773ZM49.7216 42.9705H29.9496C36.3166 40.4571 43.3545 40.4571 49.7216 42.9705ZM54.3562 45.5458C54.3562 46.0594 53.9383 46.4773 53.4247 46.4773H31.4521V44.6143H51.6712C52.1251 44.6143 52.4931 44.2463 52.4931 43.7924V42.9157V15.6828H53.4247C53.9383 15.6828 54.3562 16.1007 54.3562 16.6143V45.5458Z" fill="white"/>
<path d="M33.971 34.8217C33.0612 35.0124 32.1502 35.2503 31.2632 35.529C30.8302 35.6651 30.5895 36.1265 30.7255 36.5595C30.8358 36.9106 31.1599 37.1352 31.5094 37.1352C31.591 37.1352 31.674 37.123 31.756 37.0972C32.5919 36.8346 33.4506 36.6103 34.3081 36.4306C34.7523 36.3374 35.0371 35.9018 34.9439 35.4575C34.8509 35.0133 34.4149 34.7287 33.971 34.8217Z" fill="white"/>
<path d="M48.1635 37.1351C48.513 37.1351 48.8371 36.9104 48.9474 36.5594C49.0834 36.1263 48.8426 35.6649 48.4096 35.5289C44.8948 34.4247 41.2503 34.012 37.5774 34.3028C37.1249 34.3385 36.7872 34.7344 36.8229 35.187C36.8586 35.6396 37.2541 35.9774 37.7071 35.9415C41.169 35.6676 44.6041 36.0563 47.9169 37.0972C47.9989 37.123 48.0819 37.1351 48.1635 37.1351Z" fill="white"/>
<path d="M31.5094 33.6182C31.5911 33.6182 31.674 33.6059 31.756 33.5802C37.0436 31.9189 42.6334 31.9189 47.9208 33.5802C48.3539 33.7161 48.8153 33.4754 48.9513 33.0424C49.0873 32.6093 48.8465 32.148 48.4135 32.012C42.8036 30.2494 36.8732 30.2494 31.2633 32.012C30.8302 32.148 30.5894 32.6093 30.7255 33.0424C30.8359 33.3934 31.1599 33.6182 31.5094 33.6182Z" fill="white"/>
<path d="M31.5094 30.1214C31.5911 30.1214 31.674 30.1092 31.756 30.0834C34.7895 29.1303 37.9378 28.7232 41.1148 28.8739C41.5693 28.8949 41.9533 28.5452 41.9747 28.0917C41.9962 27.6383 41.6461 27.2534 41.1926 27.2318C37.8224 27.0722 34.4818 27.5039 31.2633 28.5151C30.8302 28.6512 30.5894 29.1126 30.7255 29.5455C30.8359 29.8969 31.1599 30.1214 31.5094 30.1214Z" fill="white"/>
<path d="M48.4118 28.5153C47.2327 28.1448 46.0178 27.8483 44.8007 27.6338C44.3535 27.555 43.9275 27.8537 43.8486 28.3007C43.7698 28.7477 44.0683 29.174 44.5154 29.2528C45.6625 29.4549 46.8077 29.7344 47.919 30.0836C48.0011 30.1093 48.0839 30.1216 48.1656 30.1216C48.5151 30.1216 48.8392 29.8968 48.9495 29.5458C49.0856 29.1126 48.8449 28.6513 48.4118 28.5153Z" fill="white"/>
<path d="M31.5094 26.6045C31.5911 26.6045 31.674 26.5923 31.756 26.5665C37.0436 24.9052 42.6334 24.9052 47.9208 26.5665C48.3539 26.7024 48.8153 26.4617 48.9513 26.0287C49.0873 25.5957 48.8465 25.1343 48.4135 24.9983C42.8036 23.2358 36.8732 23.2358 31.2633 24.9983C30.8302 25.1343 30.5894 25.5957 30.7255 26.0287C30.8359 26.3798 31.1599 26.6045 31.5094 26.6045Z" fill="white"/>
<path d="M36.6798 20.3508C34.8462 20.5544 33.0237 20.9382 31.2632 21.4913C30.8302 21.6273 30.5895 22.0887 30.7255 22.5218C30.8358 22.8729 31.1599 23.0976 31.5094 23.0976C31.591 23.0976 31.674 23.0853 31.756 23.0595C33.4152 22.5382 35.1329 22.1766 36.8612 21.9846C37.3123 21.9345 37.6374 21.5281 37.5873 21.077C37.5372 20.6258 37.1304 20.3006 36.6798 20.3508Z" fill="white"/>
<path d="M40.2621 21.8232C42.8621 21.8643 45.4381 22.2802 47.9187 23.0597C48.0006 23.0854 48.0836 23.0977 48.1652 23.0977C48.5147 23.0977 48.8388 22.873 48.9491 22.522C49.0851 22.0889 48.8444 21.6275 48.4114 21.4915C45.7796 20.6646 43.0464 20.2233 40.2881 20.1797C39.836 20.1712 39.4605 20.5347 39.4532 20.9885C39.446 21.4423 39.8082 21.8161 40.2621 21.8232Z" fill="white"/>
<path d="M42.816 18.488C43.2671 18.5384 43.6735 18.2131 43.7236 17.7619C43.7738 17.3107 43.4487 16.9043 42.9975 16.8543C39.0247 16.4129 35.0766 16.7966 31.2632 17.9946C30.8302 18.1308 30.5895 18.5921 30.7255 19.0251C30.8358 19.3762 31.1599 19.6009 31.5094 19.6009C31.591 19.6009 31.674 19.5886 31.756 19.5629C35.3501 18.4337 39.0712 18.0721 42.816 18.488Z" fill="white"/>
<path d="M48.4077 17.9947C47.814 17.8082 47.2066 17.639 46.6026 17.4919C46.1609 17.3845 45.7169 17.655 45.6095 18.096C45.5021 18.537 45.7725 18.9817 46.2135 19.0891C46.7829 19.2277 47.3553 19.3871 47.915 19.5629C47.997 19.5887 48.0799 19.601 48.1616 19.601C48.5111 19.601 48.8352 19.3762 48.9455 19.0252C49.0815 18.5921 48.8408 18.1307 48.4077 17.9947Z" fill="white"/>
<path d="M31.5095 16.084C31.5911 16.084 31.6741 16.0717 31.7561 16.046C32.3153 15.8702 32.8876 15.7108 33.457 15.5721C33.898 15.4647 34.1684 15.0201 34.061 14.579C33.9536 14.1379 33.5089 13.8676 33.0679 13.9749C32.4638 14.122 31.8567 14.2912 31.2632 14.4776C30.8303 14.6137 30.5895 15.0751 30.7255 15.5081C30.8359 15.8592 31.16 16.084 31.5095 16.084Z" fill="white"/>
<path d="M36.8581 14.971C40.603 14.555 44.324 14.9167 47.9182 16.046C48.0002 16.0717 48.0831 16.084 48.1648 16.084C48.5142 16.084 48.8383 15.8593 48.9487 15.5083C49.0847 15.0752 48.8439 14.6138 48.4109 14.4778C44.5975 13.2797 40.6494 12.8959 36.6765 13.3374C36.2254 13.3875 35.9003 13.7938 35.9504 14.245C36.0006 14.6961 36.4067 15.0214 36.8581 14.971Z" fill="white"/>
<path d="M10.2991 34.8217C9.38929 35.0124 8.47827 35.2503 7.59137 35.529C7.15827 35.6651 6.91762 36.1265 7.05362 36.5595C7.16397 36.9106 7.48803 37.1352 7.83751 37.1352C7.91915 37.1352 8.00211 37.123 8.08408 37.0972C8.92003 36.8346 9.77877 36.6103 10.6362 36.4306C11.0805 36.3374 11.3652 35.9018 11.272 35.4575C11.1789 35.0133 10.743 34.7287 10.2991 34.8217Z" fill="white"/>
<path d="M24.4916 37.1351C24.8411 37.1351 25.1653 36.9104 25.2755 36.5594C25.4115 36.1263 25.1708 35.6649 24.7378 35.5289C21.2229 34.4247 17.5782 34.012 13.9056 34.3028C13.4531 34.3385 13.1153 34.7344 13.151 35.187C13.1868 35.6396 13.5822 35.9774 14.0352 35.9415C17.4972 35.6676 20.9322 36.0563 24.2451 37.0972C24.327 37.123 24.41 37.1351 24.4916 37.1351Z" fill="white"/>
<path d="M7.83755 33.6182C7.91919 33.6182 8.00215 33.6059 8.08412 33.5802C13.3717 31.9189 18.9615 31.9189 24.2489 33.5802C24.682 33.7161 25.1434 33.4754 25.2794 33.0424C25.4154 32.6093 25.1746 32.148 24.7417 32.012C19.1317 30.2494 13.2012 30.2494 7.59141 32.012C7.15832 32.148 6.91755 32.6093 7.05366 33.0424C7.16401 33.3934 7.48807 33.6182 7.83755 33.6182Z" fill="white"/>
<path d="M7.83755 30.1214C7.91919 30.1214 8.00215 30.1092 8.08412 30.0834C11.1177 29.1303 14.2662 28.7232 17.4429 28.8739C17.8986 28.8949 18.2813 28.5452 18.3029 28.0917C18.3243 27.6383 17.9742 27.2534 17.5207 27.2318C14.1502 27.0722 10.8099 27.5039 7.59141 28.5151C7.15832 28.6512 6.91755 29.1126 7.05366 29.5455C7.16401 29.8969 7.48807 30.1214 7.83755 30.1214Z" fill="white"/>
<path d="M20.8436 29.2528C21.9907 29.4549 23.1359 29.7344 24.2472 30.0836C24.3293 30.1093 24.4122 30.1216 24.4938 30.1216C24.8433 30.1216 25.1674 29.8969 25.2777 29.5458C25.4137 29.1127 25.1729 28.6514 24.7399 28.5154C23.5608 28.145 22.3459 27.8484 21.1288 27.6339C20.6817 27.5552 20.2554 27.8538 20.1766 28.3008C20.098 28.7477 20.3965 29.174 20.8436 29.2528Z" fill="white"/>
<path d="M13.0079 20.3508C11.1743 20.5544 9.35181 20.9382 7.59137 21.4913C7.15827 21.6273 6.91762 22.0887 7.05362 22.5218C7.16397 22.8729 7.48803 23.0976 7.83751 23.0976C7.91915 23.0976 8.00211 23.0853 8.08408 23.0595C9.74337 22.5382 11.4611 22.1766 13.1893 21.9846C13.6405 21.9345 13.9655 21.5281 13.9154 21.077C13.8655 20.6259 13.4583 20.3006 13.0079 20.3508Z" fill="white"/>
<path d="M7.05362 19.0251C7.16397 19.3762 7.48803 19.6009 7.83751 19.6009C7.91915 19.6009 8.00211 19.5886 8.08408 19.5629C11.6783 18.4335 15.3994 18.072 19.1441 18.4879C19.5952 18.5383 20.0017 18.2129 20.0518 17.7618C20.1019 17.3106 19.7768 16.9042 19.3256 16.8541C15.3527 16.4128 11.4047 16.7965 7.59137 17.9945C7.15827 18.1307 6.91762 18.5921 7.05362 19.0251Z" fill="white"/>
<path d="M7.83761 16.084C7.91925 16.084 8.00221 16.0717 8.08418 16.046C8.64342 15.8702 9.21569 15.7108 9.78511 15.5721C10.2261 15.4647 10.4966 15.0201 10.3892 14.579C10.2818 14.1379 9.83706 13.8676 9.39607 13.9749C8.79191 14.122 8.18479 14.2912 7.59136 14.4776C7.15837 14.6137 6.91761 15.0751 7.05361 15.5081C7.16407 15.8592 7.48813 16.084 7.83761 16.084Z" fill="white"/>
</svg>
