<svg width="51" height="46" viewBox="0 0 51 46" fill="none" xmlns="http://www.w3.org/2000/svg">
<path d="M44.0299 10.9196H6.98491C3.65796 10.9196 0.960938 13.5981 0.960938 16.9023V39.5217C0.960938 42.8259 3.65796 45.5045 6.98491 45.5045H44.0299C47.3568 45.5045 50.0538 42.8259 50.0538 39.5217V16.9023C50.0538 13.5981 47.3568 10.9196 44.0299 10.9196Z" fill="white"/>
<path d="M46.7826 0.817505H4.23215C2.42551 0.817505 0.960938 2.27206 0.960938 4.06635V4.76516C0.960938 6.55945 2.42551 8.01401 4.23215 8.01401H46.7826C48.5892 8.01401 50.0538 6.55945 50.0538 4.76516V4.06635C50.0538 2.27206 48.5892 0.817505 46.7826 0.817505Z" fill="white"/>
</svg>
